<?xml version="1.0" encoding="utf-8"?>
<!-- Generator: Adobe Illustrator 26.1.0, SVG Export Plug-In . SVG Version: 6.00 Build 0)  -->
<svg version="1.1" id="Слой_1" xmlns="http://www.w3.org/2000/svg" xmlns:xlink="http://www.w3.org/1999/xlink" x="0px" y="0px"
	 viewBox="0 0 256 256" style="enable-background:new 0 0 256 256;" xml:space="preserve">
<style type="text/css">
	.st0{fill:none;}
	.st1{fill-rule:evenodd;clip-rule:evenodd;}
	.st2{fill-rule:evenodd;clip-rule:evenodd;fill:#FFFFFF;}
</style>
<g transform="translate(28,28)">
	<g transform="translate(112,0) scale(0.028,0.028)">
		<g transform="">
			<path d="M-2320.2-1000c87.06,0,157.64,70.58,157.64,157.64c0,87.06-70.57,157.64-157.64,157.64
				c-87.06,0-157.64-70.57-157.64-157.64C-2477.83-929.42-2407.26-1000-2320.2-1000z"/>
		</g>
	</g>
	<g transform="translate(126,0) scale(0.028,0.028)">
		<g transform="">
			<path d="M-2504.93-1000c87.06,0,157.64,70.58,157.64,157.64c0,87.06-70.57,157.64-157.64,157.64
				c-87.06,0-157.64-70.57-157.64-157.64C-2662.56-929.42-2591.99-1000-2504.93-1000z"/>
		</g>
	</g>
	<g transform="translate(140,0) scale(0.028,0.028)">
		<g transform="">
			<path d="M-2689.66-1000c87.06,0,157.64,70.58,157.64,157.64c0,87.06-70.57,157.64-157.64,157.64
				c-87.06,0-157.64-70.57-157.64-157.64C-2847.29-929.42-2776.71-1000-2689.66-1000z"/>
		</g>
	</g>
	<g transform="translate(196,0) scale(0.028,0.028)">
		<g transform="">
			<path d="M-3428.57-1000c87.06,0,157.64,70.58,157.64,157.64c0,87.06-70.57,157.64-157.64,157.64
				c-87.06,0-157.64-70.57-157.64-157.64C-3586.21-929.42-3515.63-1000-3428.57-1000z"/>
		</g>
	</g>
	<g transform="translate(238,0) scale(0.028,0.028)">
		<g transform="">
			<path d="M-3982.76-1000c87.06,0,157.64,70.58,157.64,157.64c0,87.06-70.57,157.64-157.64,157.64
				c-87.06,0-157.64-70.57-157.64-157.64C-4140.39-929.42-4069.82-1000-3982.76-1000z"/>
		</g>
	</g>
	<g transform="translate(252,0) scale(0.028,0.028)">
		<g transform="">
			<path d="M-4167.49-1000c87.06,0,157.64,70.58,157.64,157.64c0,87.06-70.57,157.64-157.64,157.64
				c-87.06,0-157.64-70.57-157.64-157.64C-4325.12-929.42-4254.55-1000-4167.49-1000z"/>
		</g>
	</g>
	<g transform="translate(112,14) scale(0.028,0.028)">
		<g transform="">
			<path d="M-2320.2-1184.73c87.06,0,157.64,70.58,157.64,157.64c0,87.06-70.57,157.64-157.64,157.64
				c-87.06,0-157.64-70.57-157.64-157.64C-2477.83-1114.15-2407.26-1184.73-2320.2-1184.73z"/>
		</g>
	</g>
	<g transform="translate(196,14) scale(0.028,0.028)">
		<g transform="">
			<path d="M-3428.57-1184.73c87.06,0,157.64,70.58,157.64,157.64c0,87.06-70.57,157.64-157.64,157.64
				c-87.06,0-157.64-70.57-157.64-157.64C-3586.21-1114.15-3515.63-1184.73-3428.57-1184.73z"/>
		</g>
	</g>
	<g transform="translate(210,14) scale(0.028,0.028)">
		<g transform="">
			<path d="M-3613.3-1184.73c87.06,0,157.64,70.58,157.64,157.64c0,87.06-70.57,157.64-157.64,157.64
				c-87.06,0-157.64-70.57-157.64-157.64C-3770.94-1114.15-3700.36-1184.73-3613.3-1184.73z"/>
		</g>
	</g>
	<g transform="translate(280,14) scale(0.028,0.028)">
		<g transform="">
			<path d="M-4536.95-1184.73c87.06,0,157.64,70.58,157.64,157.64c0,87.06-70.57,157.64-157.64,157.64
				c-87.06,0-157.64-70.57-157.64-157.64C-4694.58-1114.15-4624-1184.73-4536.95-1184.73z"/>
		</g>
	</g>
	<g transform="translate(112,28) scale(0.028,0.028)">
		<g transform="">
			<path d="M-2320.2-1369.46c87.06,0,157.64,70.58,157.64,157.64c0,87.06-70.57,157.64-157.64,157.64
				c-87.06,0-157.64-70.57-157.64-157.64C-2477.83-1298.88-2407.26-1369.46-2320.2-1369.46z"/>
		</g>
	</g>
	<g transform="translate(140,28) scale(0.028,0.028)">
		<g transform="">
			<path d="M-2689.66-1369.46c87.06,0,157.64,70.58,157.64,157.64c0,87.06-70.57,157.64-157.64,157.64
				c-87.06,0-157.64-70.57-157.64-157.64C-2847.29-1298.88-2776.71-1369.46-2689.66-1369.46z"/>
		</g>
	</g>
	<g transform="translate(182,28) scale(0.028,0.028)">
		<g transform="">
			<path d="M-3243.84-1369.46c87.06,0,157.64,70.58,157.64,157.64c0,87.06-70.57,157.64-157.64,157.64
				c-87.06,0-157.64-70.57-157.64-157.64C-3401.48-1298.88-3330.9-1369.46-3243.84-1369.46z"/>
		</g>
	</g>
	<g transform="translate(196,28) scale(0.028,0.028)">
		<g transform="">
			<path d="M-3428.57-1369.46c87.06,0,157.64,70.58,157.64,157.64c0,87.06-70.57,157.64-157.64,157.64
				c-87.06,0-157.64-70.57-157.64-157.64C-3586.21-1298.88-3515.63-1369.46-3428.57-1369.46z"/>
		</g>
	</g>
	<g transform="translate(126,42) scale(0.028,0.028)">
		<g transform="">
			<path d="M-2504.93-1554.19c87.06,0,157.64,70.58,157.64,157.64c0,87.06-70.57,157.64-157.64,157.64
				c-87.06,0-157.64-70.57-157.64-157.64C-2662.56-1483.61-2591.99-1554.19-2504.93-1554.19z"/>
		</g>
	</g>
	<g transform="translate(182,42) scale(0.028,0.028)">
		<g transform="">
			<path d="M-3243.84-1554.19c87.06,0,157.64,70.58,157.64,157.64c0,87.06-70.57,157.64-157.64,157.64
				c-87.06,0-157.64-70.57-157.64-157.64C-3401.48-1483.61-3330.9-1554.19-3243.84-1554.19z"/>
		</g>
	</g>
	<g transform="translate(238,42) scale(0.028,0.028)">
		<g transform="">
			<path d="M-3982.76-1554.19c87.06,0,157.64,70.58,157.64,157.64c0,87.06-70.57,157.64-157.64,157.64
				c-87.06,0-157.64-70.57-157.64-157.64C-4140.39-1483.61-4069.82-1554.19-3982.76-1554.19z"/>
		</g>
	</g>
	<g transform="translate(266,42) scale(0.028,0.028)">
		<g transform="">
			<path d="M-4352.22-1554.19c87.06,0,157.64,70.58,157.64,157.64c0,87.06-70.57,157.64-157.64,157.64
				c-87.06,0-157.64-70.57-157.64-157.64C-4509.85-1483.61-4439.28-1554.19-4352.22-1554.19z"/>
		</g>
	</g>
	<g transform="translate(126,56) scale(0.028,0.028)">
		<g transform="">
			<path d="M-2504.93-1738.92c87.06,0,157.64,70.58,157.64,157.64c0,87.06-70.57,157.64-157.64,157.64
				c-87.06,0-157.64-70.57-157.64-157.64C-2662.56-1668.34-2591.99-1738.92-2504.93-1738.92z"/>
		</g>
	</g>
	<g transform="translate(140,56) scale(0.028,0.028)">
		<g transform="">
			<path d="M-2689.66-1738.92c87.06,0,157.64,70.58,157.64,157.64c0,87.06-70.57,157.64-157.64,157.64
				c-87.06,0-157.64-70.57-157.64-157.64C-2847.29-1668.34-2776.71-1738.92-2689.66-1738.92z"/>
		</g>
	</g>
	<g transform="translate(154,56) scale(0.028,0.028)">
		<g transform="">
			<path d="M-2874.38-1738.92c87.06,0,157.64,70.58,157.64,157.64c0,87.06-70.57,157.64-157.64,157.64
				c-87.06,0-157.64-70.57-157.64-157.64C-3032.02-1668.34-2961.44-1738.92-2874.38-1738.92z"/>
		</g>
	</g>
	<g transform="translate(182,56) scale(0.028,0.028)">
		<g transform="">
			<path d="M-3243.84-1738.92c87.06,0,157.64,70.58,157.64,157.64c0,87.06-70.57,157.64-157.64,157.64
				c-87.06,0-157.64-70.57-157.64-157.64C-3401.48-1668.34-3330.9-1738.92-3243.84-1738.92z"/>
		</g>
	</g>
	<g transform="translate(238,56) scale(0.028,0.028)">
		<g transform="">
			<path d="M-3982.76-1738.92c87.06,0,157.64,70.58,157.64,157.64c0,87.06-70.57,157.64-157.64,157.64
				c-87.06,0-157.64-70.57-157.64-157.64C-4140.39-1668.34-4069.82-1738.92-3982.76-1738.92z"/>
		</g>
	</g>
	<g transform="translate(252,56) scale(0.028,0.028)">
		<g transform="">
			<path d="M-4167.49-1738.92c87.06,0,157.64,70.58,157.64,157.64c0,87.06-70.57,157.64-157.64,157.64
				c-87.06,0-157.64-70.57-157.64-157.64C-4325.12-1668.34-4254.55-1738.92-4167.49-1738.92z"/>
		</g>
	</g>
	<g transform="translate(266,56) scale(0.028,0.028)">
		<g transform="">
			<path d="M-4352.22-1738.92c87.06,0,157.64,70.58,157.64,157.64c0,87.06-70.57,157.64-157.64,157.64
				c-87.06,0-157.64-70.57-157.64-157.64C-4509.85-1668.34-4439.28-1738.92-4352.22-1738.92z"/>
		</g>
	</g>
	<g transform="translate(280,56) scale(0.028,0.028)">
		<g transform="">
			<path d="M-4536.95-1738.92c87.06,0,157.64,70.58,157.64,157.64c0,87.06-70.57,157.64-157.64,157.64
				c-87.06,0-157.64-70.57-157.64-157.64C-4694.58-1668.34-4624-1738.92-4536.95-1738.92z"/>
		</g>
	</g>
	<g transform="translate(112,70) scale(0.028,0.028)">
		<g transform="">
			<path d="M-2320.2-1923.65c87.06,0,157.64,70.58,157.64,157.64c0,87.06-70.57,157.64-157.64,157.64
				c-87.06,0-157.64-70.57-157.64-157.64C-2477.83-1853.07-2407.26-1923.65-2320.2-1923.65z"/>
		</g>
	</g>
	<g transform="translate(126,70) scale(0.028,0.028)">
		<g transform="">
			<path d="M-2504.93-1923.65c87.06,0,157.64,70.58,157.64,157.64c0,87.06-70.57,157.64-157.64,157.64
				c-87.06,0-157.64-70.57-157.64-157.64C-2662.56-1853.07-2591.99-1923.65-2504.93-1923.65z"/>
		</g>
	</g>
	<g transform="translate(140,70) scale(0.028,0.028)">
		<g transform="">
			<path d="M-2689.66-1923.65c87.06,0,157.64,70.58,157.64,157.64c0,87.06-70.57,157.64-157.64,157.64
				c-87.06,0-157.64-70.57-157.64-157.64C-2847.29-1853.07-2776.71-1923.65-2689.66-1923.65z"/>
		</g>
	</g>
	<g transform="translate(182,70) scale(0.028,0.028)">
		<g transform="">
			<path d="M-3243.84-1923.65c87.06,0,157.64,70.58,157.64,157.64c0,87.06-70.57,157.64-157.64,157.64
				c-87.06,0-157.64-70.57-157.64-157.64C-3401.48-1853.07-3330.9-1923.65-3243.84-1923.65z"/>
		</g>
	</g>
	<g transform="translate(210,70) scale(0.028,0.028)">
		<g transform="">
			<path d="M-3613.3-1923.65c87.06,0,157.64,70.58,157.64,157.64c0,87.06-70.57,157.64-157.64,157.64
				c-87.06,0-157.64-70.57-157.64-157.64C-3770.94-1853.07-3700.36-1923.65-3613.3-1923.65z"/>
		</g>
	</g>
	<g transform="translate(224,70) scale(0.028,0.028)">
		<g transform="">
			<path d="M-3798.03-1923.65c87.06,0,157.64,70.58,157.64,157.64c0,87.06-70.57,157.64-157.64,157.64
				c-87.06,0-157.64-70.57-157.64-157.64C-3955.67-1853.07-3885.09-1923.65-3798.03-1923.65z"/>
		</g>
	</g>
	<g transform="translate(238,70) scale(0.028,0.028)">
		<g transform="">
			<path d="M-3982.76-1923.65c87.06,0,157.64,70.58,157.64,157.64c0,87.06-70.57,157.64-157.64,157.64
				c-87.06,0-157.64-70.57-157.64-157.64C-4140.39-1853.07-4069.82-1923.65-3982.76-1923.65z"/>
		</g>
	</g>
	<g transform="translate(112,84) scale(0.028,0.028)">
		<g transform="">
			<path d="M-2320.2-2108.37c87.06,0,157.64,70.58,157.64,157.64c0,87.06-70.57,157.64-157.64,157.64
				c-87.06,0-157.64-70.57-157.64-157.64C-2477.83-2037.8-2407.26-2108.37-2320.2-2108.37z"/>
		</g>
	</g>
	<g transform="translate(140,84) scale(0.028,0.028)">
		<g transform="">
			<path d="M-2689.66-2108.37c87.06,0,157.64,70.58,157.64,157.64c0,87.06-70.57,157.64-157.64,157.64
				c-87.06,0-157.64-70.57-157.64-157.64C-2847.29-2037.8-2776.71-2108.37-2689.66-2108.37z"/>
		</g>
	</g>
	<g transform="translate(168,84) scale(0.028,0.028)">
		<g transform="">
			<path d="M-3059.11-2108.37c87.06,0,157.64,70.58,157.64,157.64c0,87.06-70.57,157.64-157.64,157.64
				c-87.06,0-157.64-70.57-157.64-157.64C-3216.75-2037.8-3146.17-2108.37-3059.11-2108.37z"/>
		</g>
	</g>
	<g transform="translate(196,84) scale(0.028,0.028)">
		<g transform="">
			<path d="M-3428.57-2108.37c87.06,0,157.64,70.58,157.64,157.64c0,87.06-70.57,157.64-157.64,157.64
				c-87.06,0-157.64-70.57-157.64-157.64C-3586.21-2037.8-3515.63-2108.37-3428.57-2108.37z"/>
		</g>
	</g>
	<g transform="translate(224,84) scale(0.028,0.028)">
		<g transform="">
			<path d="M-3798.03-2108.37c87.06,0,157.64,70.58,157.64,157.64c0,87.06-70.57,157.64-157.64,157.64
				c-87.06,0-157.64-70.57-157.64-157.64C-3955.67-2037.8-3885.09-2108.37-3798.03-2108.37z"/>
		</g>
	</g>
	<g transform="translate(252,84) scale(0.028,0.028)">
		<g transform="">
			<path d="M-4167.49-2108.37c87.06,0,157.64,70.58,157.64,157.64c0,87.06-70.57,157.64-157.64,157.64
				c-87.06,0-157.64-70.57-157.64-157.64C-4325.12-2037.8-4254.55-2108.37-4167.49-2108.37z"/>
		</g>
	</g>
	<g transform="translate(280,84) scale(0.028,0.028)">
		<g transform="">
			<path d="M-4536.95-2108.37c87.06,0,157.64,70.58,157.64,157.64c0,87.06-70.57,157.64-157.64,157.64
				c-87.06,0-157.64-70.57-157.64-157.64C-4694.58-2037.8-4624-2108.37-4536.95-2108.37z"/>
		</g>
	</g>
	<g transform="translate(112,98) scale(0.028,0.028)">
		<g transform="">
			<path d="M-2320.2-2293.1c87.06,0,157.64,70.58,157.64,157.64c0,87.06-70.57,157.64-157.64,157.64
				c-87.06,0-157.64-70.57-157.64-157.64C-2477.83-2222.53-2407.26-2293.1-2320.2-2293.1z"/>
		</g>
	</g>
	<g transform="translate(140,98) scale(0.028,0.028)">
		<g transform="">
			<path d="M-2689.66-2293.1c87.06,0,157.64,70.58,157.64,157.64c0,87.06-70.57,157.64-157.64,157.64
				c-87.06,0-157.64-70.57-157.64-157.64C-2847.29-2222.53-2776.71-2293.1-2689.66-2293.1z"/>
		</g>
	</g>
	<g transform="translate(154,98) scale(0.028,0.028)">
		<g transform="">
			<path d="M-2874.38-2293.1c87.06,0,157.64,70.58,157.64,157.64c0,87.06-70.57,157.64-157.64,157.64
				c-87.06,0-157.64-70.57-157.64-157.64C-3032.02-2222.53-2961.44-2293.1-2874.38-2293.1z"/>
		</g>
	</g>
	<g transform="translate(182,98) scale(0.028,0.028)">
		<g transform="">
			<path d="M-3243.84-2293.1c87.06,0,157.64,70.58,157.64,157.64c0,87.06-70.57,157.64-157.64,157.64
				c-87.06,0-157.64-70.57-157.64-157.64C-3401.48-2222.53-3330.9-2293.1-3243.84-2293.1z"/>
		</g>
	</g>
	<g transform="translate(238,98) scale(0.028,0.028)">
		<g transform="">
			<path d="M-3982.76-2293.1c87.06,0,157.64,70.58,157.64,157.64c0,87.06-70.57,157.64-157.64,157.64
				c-87.06,0-157.64-70.57-157.64-157.64C-4140.39-2222.53-4069.82-2293.1-3982.76-2293.1z"/>
		</g>
	</g>
	<g transform="translate(252,98) scale(0.028,0.028)">
		<g transform="">
			<path d="M-4167.49-2293.1c87.06,0,157.64,70.58,157.64,157.64c0,87.06-70.57,157.64-157.64,157.64
				c-87.06,0-157.64-70.57-157.64-157.64C-4325.12-2222.53-4254.55-2293.1-4167.49-2293.1z"/>
		</g>
	</g>
	<g transform="translate(266,98) scale(0.028,0.028)">
		<g transform="">
			<path d="M-4352.22-2293.1c87.06,0,157.64,70.58,157.64,157.64c0,87.06-70.57,157.64-157.64,157.64
				c-87.06,0-157.64-70.57-157.64-157.64C-4509.85-2222.53-4439.28-2293.1-4352.22-2293.1z"/>
		</g>
	</g>
	<g transform="translate(280,98) scale(0.028,0.028)">
		<g transform="">
			<path d="M-4536.95-2293.1c87.06,0,157.64,70.58,157.64,157.64c0,87.06-70.57,157.64-157.64,157.64
				c-87.06,0-157.64-70.57-157.64-157.64C-4694.58-2222.53-4624-2293.1-4536.95-2293.1z"/>
		</g>
	</g>
	<g transform="translate(28,112) scale(0.028,0.028)">
		<g transform="">
			<path d="M-1211.82-2477.83c87.06,0,157.64,70.58,157.64,157.64c0,87.06-70.57,157.64-157.64,157.64
				c-87.06,0-157.64-70.57-157.64-157.64C-1369.46-2407.26-1298.88-2477.83-1211.82-2477.83z"/>
		</g>
	</g>
	<g transform="translate(42,112) scale(0.028,0.028)">
		<g transform="">
			<path d="M-1396.55-2477.83c87.06,0,157.64,70.58,157.64,157.64c0,87.06-70.57,157.64-157.64,157.64
				c-87.06,0-157.64-70.57-157.64-157.64C-1554.19-2407.26-1483.61-2477.83-1396.55-2477.83z"/>
		</g>
	</g>
	<g transform="translate(56,112) scale(0.028,0.028)">
		<g transform="">
			<path d="M-1581.28-2477.83c87.06,0,157.64,70.58,157.64,157.64c0,87.06-70.57,157.64-157.64,157.64
				c-87.06,0-157.64-70.57-157.64-157.64C-1738.92-2407.26-1668.34-2477.83-1581.28-2477.83z"/>
		</g>
	</g>
	<g transform="translate(84,112) scale(0.028,0.028)">
		<g transform="">
			<path d="M-1950.74-2477.83c87.06,0,157.64,70.58,157.64,157.64c0,87.06-70.57,157.64-157.64,157.64
				c-87.06,0-157.64-70.57-157.64-157.64C-2108.37-2407.26-2037.8-2477.83-1950.74-2477.83z"/>
		</g>
	</g>
	<g transform="translate(112,112) scale(0.028,0.028)">
		<g transform="">
			<path d="M-2320.2-2477.83c87.06,0,157.64,70.58,157.64,157.64c0,87.06-70.57,157.64-157.64,157.64
				c-87.06,0-157.64-70.57-157.64-157.64C-2477.83-2407.26-2407.26-2477.83-2320.2-2477.83z"/>
		</g>
	</g>
	<g transform="translate(126,112) scale(0.028,0.028)">
		<g transform="">
			<path d="M-2504.93-2477.83c87.06,0,157.64,70.58,157.64,157.64c0,87.06-70.57,157.64-157.64,157.64
				c-87.06,0-157.64-70.57-157.64-157.64C-2662.56-2407.26-2591.99-2477.83-2504.93-2477.83z"/>
		</g>
	</g>
	<g transform="translate(140,112) scale(0.028,0.028)">
		<g transform="">
			<path d="M-2689.66-2477.83c87.06,0,157.64,70.58,157.64,157.64c0,87.06-70.57,157.64-157.64,157.64
				c-87.06,0-157.64-70.57-157.64-157.64C-2847.29-2407.26-2776.71-2477.83-2689.66-2477.83z"/>
		</g>
	</g>
	<g transform="translate(154,112) scale(0.028,0.028)">
		<g transform="">
			<path d="M-2874.38-2477.83c87.06,0,157.64,70.58,157.64,157.64c0,87.06-70.57,157.64-157.64,157.64
				c-87.06,0-157.64-70.57-157.64-157.64C-3032.02-2407.26-2961.44-2477.83-2874.38-2477.83z"/>
		</g>
	</g>
	<g transform="translate(168,112) scale(0.028,0.028)">
		<g transform="">
			<path d="M-3059.11-2477.83c87.06,0,157.64,70.58,157.64,157.64c0,87.06-70.57,157.64-157.64,157.64
				c-87.06,0-157.64-70.57-157.64-157.64C-3216.75-2407.26-3146.17-2477.83-3059.11-2477.83z"/>
		</g>
	</g>
	<g transform="translate(224,112) scale(0.028,0.028)">
		<g transform="">
			<path d="M-3798.03-2477.83c87.06,0,157.64,70.58,157.64,157.64c0,87.06-70.57,157.64-157.64,157.64
				c-87.06,0-157.64-70.57-157.64-157.64C-3955.67-2407.26-3885.09-2477.83-3798.03-2477.83z"/>
		</g>
	</g>
	<g transform="translate(266,112) scale(0.028,0.028)">
		<g transform="">
			<path d="M-4352.22-2477.83c87.06,0,157.64,70.58,157.64,157.64c0,87.06-70.57,157.64-157.64,157.64
				c-87.06,0-157.64-70.57-157.64-157.64C-4509.85-2407.26-4439.28-2477.83-4352.22-2477.83z"/>
		</g>
	</g>
	<g transform="translate(280,112) scale(0.028,0.028)">
		<g transform="">
			<path d="M-4536.95-2477.83c87.06,0,157.64,70.58,157.64,157.64c0,87.06-70.57,157.64-157.64,157.64
				c-87.06,0-157.64-70.57-157.64-157.64C-4694.58-2407.26-4624-2477.83-4536.95-2477.83z"/>
		</g>
	</g>
	<g transform="translate(294,112) scale(0.028,0.028)">
		<g transform="">
			<path d="M-4721.67-2477.83c87.06,0,157.64,70.58,157.64,157.64c0,87.06-70.57,157.64-157.64,157.64
				c-87.06,0-157.64-70.57-157.64-157.64C-4879.31-2407.26-4808.73-2477.83-4721.67-2477.83z"/>
		</g>
	</g>
	<g transform="translate(308,112) scale(0.028,0.028)">
		<g transform="">
			<path d="M-4906.4-2477.83c87.06,0,157.64,70.58,157.64,157.64c0,87.06-70.57,157.64-157.64,157.64
				c-87.06,0-157.64-70.57-157.64-157.64C-5064.04-2407.26-4993.46-2477.83-4906.4-2477.83z"/>
		</g>
	</g>
	<g transform="translate(322,112) scale(0.028,0.028)">
		<g transform="">
			<path d="M-5091.13-2477.83c87.06,0,157.64,70.58,157.64,157.64c0,87.06-70.57,157.64-157.64,157.64
				c-87.06,0-157.64-70.57-157.64-157.64C-5248.77-2407.26-5178.19-2477.83-5091.13-2477.83z"/>
		</g>
	</g>
	<g transform="translate(364,112) scale(0.028,0.028)">
		<g transform="">
			<path d="M-5645.32-2477.83c87.06,0,157.64,70.58,157.64,157.64c0,87.06-70.57,157.64-157.64,157.64
				c-87.06,0-157.64-70.57-157.64-157.64C-5802.96-2407.26-5732.38-2477.83-5645.32-2477.83z"/>
		</g>
	</g>
	<g transform="translate(378,112) scale(0.028,0.028)">
		<g transform="">
			<path d="M-5830.05-2477.83c87.06,0,157.64,70.58,157.64,157.64c0,87.06-70.57,157.64-157.64,157.64
				c-87.06,0-157.64-70.57-157.64-157.64C-5987.68-2407.26-5917.11-2477.83-5830.05-2477.83z"/>
		</g>
	</g>
	<g transform="translate(392,112) scale(0.028,0.028)">
		<g transform="">
			<path d="M-6014.78-2477.83c87.06,0,157.64,70.58,157.64,157.64c0,87.06-70.57,157.64-157.64,157.64
				c-87.06,0-157.64-70.57-157.64-157.64C-6172.41-2407.26-6101.84-2477.83-6014.78-2477.83z"/>
		</g>
	</g>
	<g transform="translate(14,126) scale(0.028,0.028)">
		<g transform="">
			<path d="M-1027.09-2662.56c87.06,0,157.64,70.58,157.64,157.64c0,87.06-70.57,157.64-157.64,157.64
				c-87.06,0-157.64-70.57-157.64-157.64C-1184.73-2591.99-1114.15-2662.56-1027.09-2662.56z"/>
		</g>
	</g>
	<g transform="translate(42,126) scale(0.028,0.028)">
		<g transform="">
			<path d="M-1396.55-2662.56c87.06,0,157.64,70.58,157.64,157.64c0,87.06-70.57,157.64-157.64,157.64
				c-87.06,0-157.64-70.57-157.64-157.64C-1554.19-2591.99-1483.61-2662.56-1396.55-2662.56z"/>
		</g>
	</g>
	<g transform="translate(70,126) scale(0.028,0.028)">
		<g transform="">
			<path d="M-1766.01-2662.56c87.06,0,157.64,70.58,157.64,157.64c0,87.06-70.57,157.64-157.64,157.64
				c-87.06,0-157.64-70.57-157.64-157.64C-1923.65-2591.99-1853.07-2662.56-1766.01-2662.56z"/>
		</g>
	</g>
	<g transform="translate(98,126) scale(0.028,0.028)">
		<g transform="">
			<path d="M-2135.47-2662.56c87.06,0,157.64,70.58,157.64,157.64c0,87.06-70.57,157.64-157.64,157.64
				c-87.06,0-157.64-70.57-157.64-157.64C-2293.1-2591.99-2222.53-2662.56-2135.47-2662.56z"/>
		</g>
	</g>
	<g transform="translate(140,126) scale(0.028,0.028)">
		<g transform="">
			<path d="M-2689.66-2662.56c87.06,0,157.64,70.58,157.64,157.64c0,87.06-70.57,157.64-157.64,157.64
				c-87.06,0-157.64-70.57-157.64-157.64C-2847.29-2591.99-2776.71-2662.56-2689.66-2662.56z"/>
		</g>
	</g>
	<g transform="translate(210,126) scale(0.028,0.028)">
		<g transform="">
			<path d="M-3613.3-2662.56c87.06,0,157.64,70.58,157.64,157.64c0,87.06-70.57,157.64-157.64,157.64
				c-87.06,0-157.64-70.57-157.64-157.64C-3770.94-2591.99-3700.36-2662.56-3613.3-2662.56z"/>
		</g>
	</g>
	<g transform="translate(224,126) scale(0.028,0.028)">
		<g transform="">
			<path d="M-3798.03-2662.56c87.06,0,157.64,70.58,157.64,157.64c0,87.06-70.57,157.64-157.64,157.64
				c-87.06,0-157.64-70.57-157.64-157.64C-3955.67-2591.99-3885.09-2662.56-3798.03-2662.56z"/>
		</g>
	</g>
	<g transform="translate(252,126) scale(0.028,0.028)">
		<g transform="">
			<path d="M-4167.49-2662.56c87.06,0,157.64,70.58,157.64,157.64c0,87.06-70.57,157.64-157.64,157.64
				c-87.06,0-157.64-70.57-157.64-157.64C-4325.12-2591.99-4254.55-2662.56-4167.49-2662.56z"/>
		</g>
	</g>
	<g transform="translate(266,126) scale(0.028,0.028)">
		<g transform="">
			<path d="M-4352.22-2662.56c87.06,0,157.64,70.58,157.64,157.64c0,87.06-70.57,157.64-157.64,157.64
				c-87.06,0-157.64-70.57-157.64-157.64C-4509.85-2591.99-4439.28-2662.56-4352.22-2662.56z"/>
		</g>
	</g>
	<g transform="translate(280,126) scale(0.028,0.028)">
		<g transform="">
			<path d="M-4536.95-2662.56c87.06,0,157.64,70.58,157.64,157.64c0,87.06-70.57,157.64-157.64,157.64
				c-87.06,0-157.64-70.57-157.64-157.64C-4694.58-2591.99-4624-2662.56-4536.95-2662.56z"/>
		</g>
	</g>
	<g transform="translate(294,126) scale(0.028,0.028)">
		<g transform="">
			<path d="M-4721.67-2662.56c87.06,0,157.64,70.58,157.64,157.64c0,87.06-70.57,157.64-157.64,157.64
				c-87.06,0-157.64-70.57-157.64-157.64C-4879.31-2591.99-4808.73-2662.56-4721.67-2662.56z"/>
		</g>
	</g>
	<g transform="translate(308,126) scale(0.028,0.028)">
		<g transform="">
			<path d="M-4906.4-2662.56c87.06,0,157.64,70.58,157.64,157.64c0,87.06-70.57,157.64-157.64,157.64
				c-87.06,0-157.64-70.57-157.64-157.64C-5064.04-2591.99-4993.46-2662.56-4906.4-2662.56z"/>
		</g>
	</g>
	<g transform="translate(322,126) scale(0.028,0.028)">
		<g transform="">
			<path d="M-5091.13-2662.56c87.06,0,157.64,70.58,157.64,157.64c0,87.06-70.57,157.64-157.64,157.64
				c-87.06,0-157.64-70.57-157.64-157.64C-5248.77-2591.99-5178.19-2662.56-5091.13-2662.56z"/>
		</g>
	</g>
	<g transform="translate(336,126) scale(0.028,0.028)">
		<g transform="">
			<path d="M-5275.86-2662.56c87.06,0,157.64,70.58,157.64,157.64c0,87.06-70.57,157.64-157.64,157.64
				c-87.06,0-157.64-70.57-157.64-157.64C-5433.5-2591.99-5362.92-2662.56-5275.86-2662.56z"/>
		</g>
	</g>
	<g transform="translate(350,126) scale(0.028,0.028)">
		<g transform="">
			<path d="M-5460.59-2662.56c87.06,0,157.64,70.58,157.64,157.64c0,87.06-70.57,157.64-157.64,157.64
				c-87.06,0-157.64-70.57-157.64-157.64C-5618.23-2591.99-5547.65-2662.56-5460.59-2662.56z"/>
		</g>
	</g>
	<g transform="translate(392,126) scale(0.028,0.028)">
		<g transform="">
			<path d="M-6014.78-2662.56c87.06,0,157.64,70.58,157.64,157.64c0,87.06-70.57,157.64-157.64,157.64
				c-87.06,0-157.64-70.57-157.64-157.64C-6172.41-2591.99-6101.84-2662.56-6014.78-2662.56z"/>
		</g>
	</g>
	<g transform="translate(0,140) scale(0.028,0.028)">
		<g transform="">
			<path d="M-842.36-2847.29c87.06,0,157.64,70.58,157.64,157.64c0,87.06-70.57,157.64-157.64,157.64
				c-87.06,0-157.64-70.57-157.64-157.64C-1000-2776.71-929.42-2847.29-842.36-2847.29z"/>
		</g>
	</g>
	<g transform="translate(14,140) scale(0.028,0.028)">
		<g transform="">
			<path d="M-1027.09-2847.29c87.06,0,157.64,70.58,157.64,157.64c0,87.06-70.57,157.64-157.64,157.64
				c-87.06,0-157.64-70.57-157.64-157.64C-1184.73-2776.71-1114.15-2847.29-1027.09-2847.29z"/>
		</g>
	</g>
	<g transform="translate(28,140) scale(0.028,0.028)">
		<g transform="">
			<path d="M-1211.82-2847.29c87.06,0,157.64,70.58,157.64,157.64c0,87.06-70.57,157.64-157.64,157.64
				c-87.06,0-157.64-70.57-157.64-157.64C-1369.46-2776.71-1298.88-2847.29-1211.82-2847.29z"/>
		</g>
	</g>
	<g transform="translate(70,140) scale(0.028,0.028)">
		<g transform="">
			<path d="M-1766.01-2847.29c87.06,0,157.64,70.58,157.64,157.64c0,87.06-70.57,157.64-157.64,157.64
				c-87.06,0-157.64-70.57-157.64-157.64C-1923.65-2776.71-1853.07-2847.29-1766.01-2847.29z"/>
		</g>
	</g>
	<g transform="translate(84,140) scale(0.028,0.028)">
		<g transform="">
			<path d="M-1950.74-2847.29c87.06,0,157.64,70.58,157.64,157.64c0,87.06-70.57,157.64-157.64,157.64
				c-87.06,0-157.64-70.57-157.64-157.64C-2108.37-2776.71-2037.8-2847.29-1950.74-2847.29z"/>
		</g>
	</g>
	<g transform="translate(112,140) scale(0.028,0.028)">
		<g transform="">
			<path d="M-2320.2-2847.29c87.06,0,157.64,70.58,157.64,157.64c0,87.06-70.57,157.64-157.64,157.64
				c-87.06,0-157.64-70.57-157.64-157.64C-2477.83-2776.71-2407.26-2847.29-2320.2-2847.29z"/>
		</g>
	</g>
	<g transform="translate(280,140) scale(0.028,0.028)">
		<g transform="">
			<path d="M-4536.95-2847.29c87.06,0,157.64,70.58,157.64,157.64c0,87.06-70.57,157.64-157.64,157.64
				c-87.06,0-157.64-70.57-157.64-157.64C-4694.58-2776.71-4624-2847.29-4536.95-2847.29z"/>
		</g>
	</g>
	<g transform="translate(294,140) scale(0.028,0.028)">
		<g transform="">
			<path d="M-4721.67-2847.29c87.06,0,157.64,70.58,157.64,157.64c0,87.06-70.57,157.64-157.64,157.64
				c-87.06,0-157.64-70.57-157.64-157.64C-4879.31-2776.71-4808.73-2847.29-4721.67-2847.29z"/>
		</g>
	</g>
	<g transform="translate(308,140) scale(0.028,0.028)">
		<g transform="">
			<path d="M-4906.4-2847.29c87.06,0,157.64,70.58,157.64,157.64c0,87.06-70.57,157.64-157.64,157.64
				c-87.06,0-157.64-70.57-157.64-157.64C-5064.04-2776.71-4993.46-2847.29-4906.4-2847.29z"/>
		</g>
	</g>
	<g transform="translate(322,140) scale(0.028,0.028)">
		<g transform="">
			<path d="M-5091.13-2847.29c87.06,0,157.64,70.58,157.64,157.64c0,87.06-70.57,157.64-157.64,157.64
				c-87.06,0-157.64-70.57-157.64-157.64C-5248.77-2776.71-5178.19-2847.29-5091.13-2847.29z"/>
		</g>
	</g>
	<g transform="translate(336,140) scale(0.028,0.028)">
		<g transform="">
			<path d="M-5275.86-2847.29c87.06,0,157.64,70.58,157.64,157.64c0,87.06-70.57,157.64-157.64,157.64
				c-87.06,0-157.64-70.57-157.64-157.64C-5433.5-2776.71-5362.92-2847.29-5275.86-2847.29z"/>
		</g>
	</g>
	<g transform="translate(0,154) scale(0.028,0.028)">
		<g transform="">
			<path d="M-842.36-3032.02c87.06,0,157.64,70.58,157.64,157.64c0,87.06-70.57,157.64-157.64,157.64
				c-87.06,0-157.64-70.57-157.64-157.64C-1000-2961.44-929.42-3032.02-842.36-3032.02z"/>
		</g>
	</g>
	<g transform="translate(56,154) scale(0.028,0.028)">
		<g transform="">
			<path d="M-1581.28-3032.02c87.06,0,157.64,70.58,157.64,157.64c0,87.06-70.57,157.64-157.64,157.64
				c-87.06,0-157.64-70.57-157.64-157.64C-1738.92-2961.44-1668.34-3032.02-1581.28-3032.02z"/>
		</g>
	</g>
	<g transform="translate(98,154) scale(0.028,0.028)">
		<g transform="">
			<path d="M-2135.47-3032.02c87.06,0,157.64,70.58,157.64,157.64c0,87.06-70.57,157.64-157.64,157.64
				c-87.06,0-157.64-70.57-157.64-157.64C-2293.1-2961.44-2222.53-3032.02-2135.47-3032.02z"/>
		</g>
	</g>
	<g transform="translate(112,154) scale(0.028,0.028)">
		<g transform="">
			<path d="M-2320.2-3032.02c87.06,0,157.64,70.58,157.64,157.64c0,87.06-70.57,157.64-157.64,157.64
				c-87.06,0-157.64-70.57-157.64-157.64C-2477.83-2961.44-2407.26-3032.02-2320.2-3032.02z"/>
		</g>
	</g>
	<g transform="translate(126,154) scale(0.028,0.028)">
		<g transform="">
			<path d="M-2504.93-3032.02c87.06,0,157.64,70.58,157.64,157.64c0,87.06-70.57,157.64-157.64,157.64
				c-87.06,0-157.64-70.57-157.64-157.64C-2662.56-2961.44-2591.99-3032.02-2504.93-3032.02z"/>
		</g>
	</g>
	<g transform="translate(280,154) scale(0.028,0.028)">
		<g transform="">
			<path d="M-4536.95-3032.02c87.06,0,157.64,70.58,157.64,157.64c0,87.06-70.57,157.64-157.64,157.64
				c-87.06,0-157.64-70.57-157.64-157.64C-4694.58-2961.44-4624-3032.02-4536.95-3032.02z"/>
		</g>
	</g>
	<g transform="translate(294,154) scale(0.028,0.028)">
		<g transform="">
			<path d="M-4721.67-3032.02c87.06,0,157.64,70.58,157.64,157.64c0,87.06-70.57,157.64-157.64,157.64
				c-87.06,0-157.64-70.57-157.64-157.64C-4879.31-2961.44-4808.73-3032.02-4721.67-3032.02z"/>
		</g>
	</g>
	<g transform="translate(308,154) scale(0.028,0.028)">
		<g transform="">
			<path d="M-4906.4-3032.02c87.06,0,157.64,70.58,157.64,157.64c0,87.06-70.57,157.64-157.64,157.64
				c-87.06,0-157.64-70.57-157.64-157.64C-5064.04-2961.44-4993.46-3032.02-4906.4-3032.02z"/>
		</g>
	</g>
	<g transform="translate(350,154) scale(0.028,0.028)">
		<g transform="">
			<path d="M-5460.59-3032.02c87.06,0,157.64,70.58,157.64,157.64c0,87.06-70.57,157.64-157.64,157.64
				c-87.06,0-157.64-70.57-157.64-157.64C-5618.23-2961.44-5547.65-3032.02-5460.59-3032.02z"/>
		</g>
	</g>
	<g transform="translate(378,154) scale(0.028,0.028)">
		<g transform="">
			<path d="M-5830.05-3032.02c87.06,0,157.64,70.58,157.64,157.64c0,87.06-70.57,157.64-157.64,157.64
				c-87.06,0-157.64-70.57-157.64-157.64C-5987.68-2961.44-5917.11-3032.02-5830.05-3032.02z"/>
		</g>
	</g>
	<g transform="translate(0,168) scale(0.028,0.028)">
		<g transform="">
			<path d="M-842.36-3216.75c87.06,0,157.64,70.58,157.64,157.64c0,87.06-70.57,157.64-157.64,157.64
				c-87.06,0-157.64-70.57-157.64-157.64C-1000-3146.17-929.42-3216.75-842.36-3216.75z"/>
		</g>
	</g>
	<g transform="translate(70,168) scale(0.028,0.028)">
		<g transform="">
			<path d="M-1766.01-3216.75c87.06,0,157.64,70.58,157.64,157.64c0,87.06-70.57,157.64-157.64,157.64
				c-87.06,0-157.64-70.57-157.64-157.64C-1923.65-3146.17-1853.07-3216.75-1766.01-3216.75z"/>
		</g>
	</g>
	<g transform="translate(84,168) scale(0.028,0.028)">
		<g transform="">
			<path d="M-1950.74-3216.75c87.06,0,157.64,70.58,157.64,157.64c0,87.06-70.57,157.64-157.64,157.64
				c-87.06,0-157.64-70.57-157.64-157.64C-2108.37-3146.17-2037.8-3216.75-1950.74-3216.75z"/>
		</g>
	</g>
	<g transform="translate(98,168) scale(0.028,0.028)">
		<g transform="">
			<path d="M-2135.47-3216.75c87.06,0,157.64,70.58,157.64,157.64c0,87.06-70.57,157.64-157.64,157.64
				c-87.06,0-157.64-70.57-157.64-157.64C-2293.1-3146.17-2222.53-3216.75-2135.47-3216.75z"/>
		</g>
	</g>
	<g transform="translate(126,168) scale(0.028,0.028)">
		<g transform="">
			<path d="M-2504.93-3216.75c87.06,0,157.64,70.58,157.64,157.64c0,87.06-70.57,157.64-157.64,157.64
				c-87.06,0-157.64-70.57-157.64-157.64C-2662.56-3146.17-2591.99-3216.75-2504.93-3216.75z"/>
		</g>
	</g>
	<g transform="translate(266,168) scale(0.028,0.028)">
		<g transform="">
			<path d="M-4352.22-3216.75c87.06,0,157.64,70.58,157.64,157.64c0,87.06-70.57,157.64-157.64,157.64
				c-87.06,0-157.64-70.57-157.64-157.64C-4509.85-3146.17-4439.28-3216.75-4352.22-3216.75z"/>
		</g>
	</g>
	<g transform="translate(294,168) scale(0.028,0.028)">
		<g transform="">
			<path d="M-4721.67-3216.75c87.06,0,157.64,70.58,157.64,157.64c0,87.06-70.57,157.64-157.64,157.64
				c-87.06,0-157.64-70.57-157.64-157.64C-4879.31-3146.17-4808.73-3216.75-4721.67-3216.75z"/>
		</g>
	</g>
	<g transform="translate(322,168) scale(0.028,0.028)">
		<g transform="">
			<path d="M-5091.13-3216.75c87.06,0,157.64,70.58,157.64,157.64c0,87.06-70.57,157.64-157.64,157.64
				c-87.06,0-157.64-70.57-157.64-157.64C-5248.77-3146.17-5178.19-3216.75-5091.13-3216.75z"/>
		</g>
	</g>
	<g transform="translate(350,168) scale(0.028,0.028)">
		<g transform="">
			<path d="M-5460.59-3216.75c87.06,0,157.64,70.58,157.64,157.64c0,87.06-70.57,157.64-157.64,157.64
				c-87.06,0-157.64-70.57-157.64-157.64C-5618.23-3146.17-5547.65-3216.75-5460.59-3216.75z"/>
		</g>
	</g>
	<g transform="translate(364,168) scale(0.028,0.028)">
		<g transform="">
			<path d="M-5645.32-3216.75c87.06,0,157.64,70.58,157.64,157.64c0,87.06-70.57,157.64-157.64,157.64
				c-87.06,0-157.64-70.57-157.64-157.64C-5802.96-3146.17-5732.38-3216.75-5645.32-3216.75z"/>
		</g>
	</g>
	<g transform="translate(378,168) scale(0.028,0.028)">
		<g transform="">
			<path d="M-5830.05-3216.75c87.06,0,157.64,70.58,157.64,157.64c0,87.06-70.57,157.64-157.64,157.64
				c-87.06,0-157.64-70.57-157.64-157.64C-5987.68-3146.17-5917.11-3216.75-5830.05-3216.75z"/>
		</g>
	</g>
	<g transform="translate(392,168) scale(0.028,0.028)">
		<g transform="">
			<path d="M-6014.78-3216.75c87.06,0,157.64,70.58,157.64,157.64c0,87.06-70.57,157.64-157.64,157.64
				c-87.06,0-157.64-70.57-157.64-157.64C-6172.41-3146.17-6101.84-3216.75-6014.78-3216.75z"/>
		</g>
	</g>
	<g transform="translate(14,182) scale(0.028,0.028)">
		<g transform="">
			<path d="M-1027.09-3401.48c87.06,0,157.64,70.58,157.64,157.64c0,87.06-70.57,157.64-157.64,157.64
				c-87.06,0-157.64-70.57-157.64-157.64C-1184.73-3330.9-1114.15-3401.48-1027.09-3401.48z"/>
		</g>
	</g>
	<g transform="translate(28,182) scale(0.028,0.028)">
		<g transform="">
			<path d="M-1211.82-3401.48c87.06,0,157.64,70.58,157.64,157.64c0,87.06-70.57,157.64-157.64,157.64
				c-87.06,0-157.64-70.57-157.64-157.64C-1369.46-3330.9-1298.88-3401.48-1211.82-3401.48z"/>
		</g>
	</g>
	<g transform="translate(42,182) scale(0.028,0.028)">
		<g transform="">
			<path d="M-1396.55-3401.48c87.06,0,157.64,70.58,157.64,157.64c0,87.06-70.57,157.64-157.64,157.64
				c-87.06,0-157.64-70.57-157.64-157.64C-1554.19-3330.9-1483.61-3401.48-1396.55-3401.48z"/>
		</g>
	</g>
	<g transform="translate(56,182) scale(0.028,0.028)">
		<g transform="">
			<path d="M-1581.28-3401.48c87.06,0,157.64,70.58,157.64,157.64c0,87.06-70.57,157.64-157.64,157.64
				c-87.06,0-157.64-70.57-157.64-157.64C-1738.92-3330.9-1668.34-3401.48-1581.28-3401.48z"/>
		</g>
	</g>
	<g transform="translate(112,182) scale(0.028,0.028)">
		<g transform="">
			<path d="M-2320.2-3401.48c87.06,0,157.64,70.58,157.64,157.64c0,87.06-70.57,157.64-157.64,157.64
				c-87.06,0-157.64-70.57-157.64-157.64C-2477.83-3330.9-2407.26-3401.48-2320.2-3401.48z"/>
		</g>
	</g>
	<g transform="translate(126,182) scale(0.028,0.028)">
		<g transform="">
			<path d="M-2504.93-3401.48c87.06,0,157.64,70.58,157.64,157.64c0,87.06-70.57,157.64-157.64,157.64
				c-87.06,0-157.64-70.57-157.64-157.64C-2662.56-3330.9-2591.99-3401.48-2504.93-3401.48z"/>
		</g>
	</g>
	<g transform="translate(266,182) scale(0.028,0.028)">
		<g transform="">
			<path d="M-4352.22-3401.48c87.06,0,157.64,70.58,157.64,157.64c0,87.06-70.57,157.64-157.64,157.64
				c-87.06,0-157.64-70.57-157.64-157.64C-4509.85-3330.9-4439.28-3401.48-4352.22-3401.48z"/>
		</g>
	</g>
	<g transform="translate(294,182) scale(0.028,0.028)">
		<g transform="">
			<path d="M-4721.67-3401.48c87.06,0,157.64,70.58,157.64,157.64c0,87.06-70.57,157.64-157.64,157.64
				c-87.06,0-157.64-70.57-157.64-157.64C-4879.31-3330.9-4808.73-3401.48-4721.67-3401.48z"/>
		</g>
	</g>
	<g transform="translate(308,182) scale(0.028,0.028)">
		<g transform="">
			<path d="M-4906.4-3401.48c87.06,0,157.64,70.58,157.64,157.64c0,87.06-70.57,157.64-157.64,157.64
				c-87.06,0-157.64-70.57-157.64-157.64C-5064.04-3330.9-4993.46-3401.48-4906.4-3401.48z"/>
		</g>
	</g>
	<g transform="translate(336,182) scale(0.028,0.028)">
		<g transform="">
			<path d="M-5275.86-3401.48c87.06,0,157.64,70.58,157.64,157.64c0,87.06-70.57,157.64-157.64,157.64
				c-87.06,0-157.64-70.57-157.64-157.64C-5433.5-3330.9-5362.92-3401.48-5275.86-3401.48z"/>
		</g>
	</g>
	<g transform="translate(350,182) scale(0.028,0.028)">
		<g transform="">
			<path d="M-5460.59-3401.48c87.06,0,157.64,70.58,157.64,157.64c0,87.06-70.57,157.64-157.64,157.64
				c-87.06,0-157.64-70.57-157.64-157.64C-5618.23-3330.9-5547.65-3401.48-5460.59-3401.48z"/>
		</g>
	</g>
	<g transform="translate(378,182) scale(0.028,0.028)">
		<g transform="">
			<path d="M-5830.05-3401.48c87.06,0,157.64,70.58,157.64,157.64c0,87.06-70.57,157.64-157.64,157.64
				c-87.06,0-157.64-70.57-157.64-157.64C-5987.68-3330.9-5917.11-3401.48-5830.05-3401.48z"/>
		</g>
	</g>
	<g transform="translate(392,182) scale(0.028,0.028)">
		<g transform="">
			<path d="M-6014.78-3401.48c87.06,0,157.64,70.58,157.64,157.64c0,87.06-70.57,157.64-157.64,157.64
				c-87.06,0-157.64-70.57-157.64-157.64C-6172.41-3330.9-6101.84-3401.48-6014.78-3401.48z"/>
		</g>
	</g>
	<g transform="translate(0,196) scale(0.028,0.028)">
		<g transform="">
			<path d="M-842.36-3586.21c87.06,0,157.64,70.58,157.64,157.64c0,87.06-70.57,157.64-157.64,157.64
				c-87.06,0-157.64-70.57-157.64-157.64C-1000-3515.63-929.42-3586.21-842.36-3586.21z"/>
		</g>
	</g>
	<g transform="translate(14,196) scale(0.028,0.028)">
		<g transform="">
			<path d="M-1027.09-3586.21c87.06,0,157.64,70.58,157.64,157.64c0,87.06-70.57,157.64-157.64,157.64
				c-87.06,0-157.64-70.57-157.64-157.64C-1184.73-3515.63-1114.15-3586.21-1027.09-3586.21z"/>
		</g>
	</g>
	<g transform="translate(42,196) scale(0.028,0.028)">
		<g transform="">
			<path d="M-1396.55-3586.21c87.06,0,157.64,70.58,157.64,157.64c0,87.06-70.57,157.64-157.64,157.64
				c-87.06,0-157.64-70.57-157.64-157.64C-1554.19-3515.63-1483.61-3586.21-1396.55-3586.21z"/>
		</g>
	</g>
	<g transform="translate(70,196) scale(0.028,0.028)">
		<g transform="">
			<path d="M-1766.01-3586.21c87.06,0,157.64,70.58,157.64,157.64c0,87.06-70.57,157.64-157.64,157.64
				c-87.06,0-157.64-70.57-157.64-157.64C-1923.65-3515.63-1853.07-3586.21-1766.01-3586.21z"/>
		</g>
	</g>
	<g transform="translate(84,196) scale(0.028,0.028)">
		<g transform="">
			<path d="M-1950.74-3586.21c87.06,0,157.64,70.58,157.64,157.64c0,87.06-70.57,157.64-157.64,157.64
				c-87.06,0-157.64-70.57-157.64-157.64C-2108.37-3515.63-2037.8-3586.21-1950.74-3586.21z"/>
		</g>
	</g>
	<g transform="translate(112,196) scale(0.028,0.028)">
		<g transform="">
			<path d="M-2320.2-3586.21c87.06,0,157.64,70.58,157.64,157.64c0,87.06-70.57,157.64-157.64,157.64
				c-87.06,0-157.64-70.57-157.64-157.64C-2477.83-3515.63-2407.26-3586.21-2320.2-3586.21z"/>
		</g>
	</g>
	<g transform="translate(322,196) scale(0.028,0.028)">
		<g transform="">
			<path d="M-5091.13-3586.21c87.06,0,157.64,70.58,157.64,157.64c0,87.06-70.57,157.64-157.64,157.64
				c-87.06,0-157.64-70.57-157.64-157.64C-5248.77-3515.63-5178.19-3586.21-5091.13-3586.21z"/>
		</g>
	</g>
	<g transform="translate(56,210) scale(0.028,0.028)">
		<g transform="">
			<path d="M-1581.28-3770.94c87.06,0,157.64,70.58,157.64,157.64c0,87.06-70.57,157.64-157.64,157.64
				c-87.06,0-157.64-70.57-157.64-157.64C-1738.92-3700.36-1668.34-3770.94-1581.28-3770.94z"/>
		</g>
	</g>
	<g transform="translate(70,210) scale(0.028,0.028)">
		<g transform="">
			<path d="M-1766.01-3770.94c87.06,0,157.64,70.58,157.64,157.64c0,87.06-70.57,157.64-157.64,157.64
				c-87.06,0-157.64-70.57-157.64-157.64C-1923.65-3700.36-1853.07-3770.94-1766.01-3770.94z"/>
		</g>
	</g>
	<g transform="translate(280,210) scale(0.028,0.028)">
		<g transform="">
			<path d="M-4536.95-3770.94c87.06,0,157.64,70.58,157.64,157.64c0,87.06-70.57,157.64-157.64,157.64
				c-87.06,0-157.64-70.57-157.64-157.64C-4694.58-3700.36-4624-3770.94-4536.95-3770.94z"/>
		</g>
	</g>
	<g transform="translate(294,210) scale(0.028,0.028)">
		<g transform="">
			<path d="M-4721.67-3770.94c87.06,0,157.64,70.58,157.64,157.64c0,87.06-70.57,157.64-157.64,157.64
				c-87.06,0-157.64-70.57-157.64-157.64C-4879.31-3700.36-4808.73-3770.94-4721.67-3770.94z"/>
		</g>
	</g>
	<g transform="translate(336,210) scale(0.028,0.028)">
		<g transform="">
			<path d="M-5275.86-3770.94c87.06,0,157.64,70.58,157.64,157.64c0,87.06-70.57,157.64-157.64,157.64
				c-87.06,0-157.64-70.57-157.64-157.64C-5433.5-3700.36-5362.92-3770.94-5275.86-3770.94z"/>
		</g>
	</g>
	<g transform="translate(350,210) scale(0.028,0.028)">
		<g transform="">
			<path d="M-5460.59-3770.94c87.06,0,157.64,70.58,157.64,157.64c0,87.06-70.57,157.64-157.64,157.64
				c-87.06,0-157.64-70.57-157.64-157.64C-5618.23-3700.36-5547.65-3770.94-5460.59-3770.94z"/>
		</g>
	</g>
	<g transform="translate(392,210) scale(0.028,0.028)">
		<g transform="">
			<path d="M-6014.78-3770.94c87.06,0,157.64,70.58,157.64,157.64c0,87.06-70.57,157.64-157.64,157.64
				c-87.06,0-157.64-70.57-157.64-157.64C-6172.41-3700.36-6101.84-3770.94-6014.78-3770.94z"/>
		</g>
	</g>
	<g transform="translate(0,224) scale(0.028,0.028)">
		<g transform="">
			<path d="M-842.36-3955.67c87.06,0,157.64,70.58,157.64,157.64c0,87.06-70.57,157.64-157.64,157.64
				c-87.06,0-157.64-70.57-157.64-157.64C-1000-3885.09-929.42-3955.67-842.36-3955.67z"/>
		</g>
	</g>
	<g transform="translate(14,224) scale(0.028,0.028)">
		<g transform="">
			<path d="M-1027.09-3955.67c87.06,0,157.64,70.58,157.64,157.64c0,87.06-70.57,157.64-157.64,157.64
				c-87.06,0-157.64-70.57-157.64-157.64C-1184.73-3885.09-1114.15-3955.67-1027.09-3955.67z"/>
		</g>
	</g>
	<g transform="translate(56,224) scale(0.028,0.028)">
		<g transform="">
			<path d="M-1581.28-3955.67c87.06,0,157.64,70.58,157.64,157.64c0,87.06-70.57,157.64-157.64,157.64
				c-87.06,0-157.64-70.57-157.64-157.64C-1738.92-3885.09-1668.34-3955.67-1581.28-3955.67z"/>
		</g>
	</g>
	<g transform="translate(84,224) scale(0.028,0.028)">
		<g transform="">
			<path d="M-1950.74-3955.67c87.06,0,157.64,70.58,157.64,157.64c0,87.06-70.57,157.64-157.64,157.64
				c-87.06,0-157.64-70.57-157.64-157.64C-2108.37-3885.09-2037.8-3955.67-1950.74-3955.67z"/>
		</g>
	</g>
	<g transform="translate(126,224) scale(0.028,0.028)">
		<g transform="">
			<path d="M-2504.93-3955.67c87.06,0,157.64,70.58,157.64,157.64c0,87.06-70.57,157.64-157.64,157.64
				c-87.06,0-157.64-70.57-157.64-157.64C-2662.56-3885.09-2591.99-3955.67-2504.93-3955.67z"/>
		</g>
	</g>
	<g transform="translate(322,224) scale(0.028,0.028)">
		<g transform="">
			<path d="M-5091.13-3955.67c87.06,0,157.64,70.58,157.64,157.64c0,87.06-70.57,157.64-157.64,157.64
				c-87.06,0-157.64-70.57-157.64-157.64C-5248.77-3885.09-5178.19-3955.67-5091.13-3955.67z"/>
		</g>
	</g>
	<g transform="translate(350,224) scale(0.028,0.028)">
		<g transform="">
			<path d="M-5460.59-3955.67c87.06,0,157.64,70.58,157.64,157.64c0,87.06-70.57,157.64-157.64,157.64
				c-87.06,0-157.64-70.57-157.64-157.64C-5618.23-3885.09-5547.65-3955.67-5460.59-3955.67z"/>
		</g>
	</g>
	<g transform="translate(364,224) scale(0.028,0.028)">
		<g transform="">
			<path d="M-5645.32-3955.67c87.06,0,157.64,70.58,157.64,157.64c0,87.06-70.57,157.64-157.64,157.64
				c-87.06,0-157.64-70.57-157.64-157.64C-5802.96-3885.09-5732.38-3955.67-5645.32-3955.67z"/>
		</g>
	</g>
	<g transform="translate(392,224) scale(0.028,0.028)">
		<g transform="">
			<path d="M-6014.78-3955.67c87.06,0,157.64,70.58,157.64,157.64c0,87.06-70.57,157.64-157.64,157.64
				c-87.06,0-157.64-70.57-157.64-157.64C-6172.41-3885.09-6101.84-3955.67-6014.78-3955.67z"/>
		</g>
	</g>
	<g transform="translate(0,238) scale(0.028,0.028)">
		<g transform="">
			<path d="M-842.36-4140.39c87.06,0,157.64,70.58,157.64,157.64c0,87.06-70.57,157.64-157.64,157.64
				c-87.06,0-157.64-70.57-157.64-157.64C-1000-4069.82-929.42-4140.39-842.36-4140.39z"/>
		</g>
	</g>
	<g transform="translate(14,238) scale(0.028,0.028)">
		<g transform="">
			<path d="M-1027.09-4140.39c87.06,0,157.64,70.58,157.64,157.64c0,87.06-70.57,157.64-157.64,157.64
				c-87.06,0-157.64-70.57-157.64-157.64C-1184.73-4069.82-1114.15-4140.39-1027.09-4140.39z"/>
		</g>
	</g>
	<g transform="translate(28,238) scale(0.028,0.028)">
		<g transform="">
			<path d="M-1211.82-4140.39c87.06,0,157.64,70.58,157.64,157.64c0,87.06-70.57,157.64-157.64,157.64
				c-87.06,0-157.64-70.57-157.64-157.64C-1369.46-4069.82-1298.88-4140.39-1211.82-4140.39z"/>
		</g>
	</g>
	<g transform="translate(42,238) scale(0.028,0.028)">
		<g transform="">
			<path d="M-1396.55-4140.39c87.06,0,157.64,70.58,157.64,157.64c0,87.06-70.57,157.64-157.64,157.64
				c-87.06,0-157.64-70.57-157.64-157.64C-1554.19-4069.82-1483.61-4140.39-1396.55-4140.39z"/>
		</g>
	</g>
	<g transform="translate(56,238) scale(0.028,0.028)">
		<g transform="">
			<path d="M-1581.28-4140.39c87.06,0,157.64,70.58,157.64,157.64c0,87.06-70.57,157.64-157.64,157.64
				c-87.06,0-157.64-70.57-157.64-157.64C-1738.92-4069.82-1668.34-4140.39-1581.28-4140.39z"/>
		</g>
	</g>
	<g transform="translate(70,238) scale(0.028,0.028)">
		<g transform="">
			<path d="M-1766.01-4140.39c87.06,0,157.64,70.58,157.64,157.64c0,87.06-70.57,157.64-157.64,157.64
				c-87.06,0-157.64-70.57-157.64-157.64C-1923.65-4069.82-1853.07-4140.39-1766.01-4140.39z"/>
		</g>
	</g>
	<g transform="translate(98,238) scale(0.028,0.028)">
		<g transform="">
			<path d="M-2135.47-4140.39c87.06,0,157.64,70.58,157.64,157.64c0,87.06-70.57,157.64-157.64,157.64
				c-87.06,0-157.64-70.57-157.64-157.64C-2293.1-4069.82-2222.53-4140.39-2135.47-4140.39z"/>
		</g>
	</g>
	<g transform="translate(112,238) scale(0.028,0.028)">
		<g transform="">
			<path d="M-2320.2-4140.39c87.06,0,157.64,70.58,157.64,157.64c0,87.06-70.57,157.64-157.64,157.64
				c-87.06,0-157.64-70.57-157.64-157.64C-2477.83-4069.82-2407.26-4140.39-2320.2-4140.39z"/>
		</g>
	</g>
	<g transform="translate(126,238) scale(0.028,0.028)">
		<g transform="">
			<path d="M-2504.93-4140.39c87.06,0,157.64,70.58,157.64,157.64c0,87.06-70.57,157.64-157.64,157.64
				c-87.06,0-157.64-70.57-157.64-157.64C-2662.56-4069.82-2591.99-4140.39-2504.93-4140.39z"/>
		</g>
	</g>
	<g transform="translate(266,238) scale(0.028,0.028)">
		<g transform="">
			<path d="M-4352.22-4140.39c87.06,0,157.64,70.58,157.64,157.64c0,87.06-70.57,157.64-157.64,157.64
				c-87.06,0-157.64-70.57-157.64-157.64C-4509.85-4069.82-4439.28-4140.39-4352.22-4140.39z"/>
		</g>
	</g>
	<g transform="translate(280,238) scale(0.028,0.028)">
		<g transform="">
			<path d="M-4536.95-4140.39c87.06,0,157.64,70.58,157.64,157.64c0,87.06-70.57,157.64-157.64,157.64
				c-87.06,0-157.64-70.57-157.64-157.64C-4694.58-4069.82-4624-4140.39-4536.95-4140.39z"/>
		</g>
	</g>
	<g transform="translate(308,238) scale(0.028,0.028)">
		<g transform="">
			<path d="M-4906.4-4140.39c87.06,0,157.64,70.58,157.64,157.64c0,87.06-70.57,157.64-157.64,157.64
				c-87.06,0-157.64-70.57-157.64-157.64C-5064.04-4069.82-4993.46-4140.39-4906.4-4140.39z"/>
		</g>
	</g>
	<g transform="translate(322,238) scale(0.028,0.028)">
		<g transform="">
			<path d="M-5091.13-4140.39c87.06,0,157.64,70.58,157.64,157.64c0,87.06-70.57,157.64-157.64,157.64
				c-87.06,0-157.64-70.57-157.64-157.64C-5248.77-4069.82-5178.19-4140.39-5091.13-4140.39z"/>
		</g>
	</g>
	<g transform="translate(336,238) scale(0.028,0.028)">
		<g transform="">
			<path d="M-5275.86-4140.39c87.06,0,157.64,70.58,157.64,157.64c0,87.06-70.57,157.64-157.64,157.64
				c-87.06,0-157.64-70.57-157.64-157.64C-5433.5-4069.82-5362.92-4140.39-5275.86-4140.39z"/>
		</g>
	</g>
	<g transform="translate(378,238) scale(0.028,0.028)">
		<g transform="">
			<path d="M-5830.05-4140.39c87.06,0,157.64,70.58,157.64,157.64c0,87.06-70.57,157.64-157.64,157.64
				c-87.06,0-157.64-70.57-157.64-157.64C-5987.68-4069.82-5917.11-4140.39-5830.05-4140.39z"/>
		</g>
	</g>
	<g transform="translate(392,238) scale(0.028,0.028)">
		<g transform="">
			<path d="M-6014.78-4140.39c87.06,0,157.64,70.58,157.64,157.64c0,87.06-70.57,157.64-157.64,157.64
				c-87.06,0-157.64-70.57-157.64-157.64C-6172.41-4069.82-6101.84-4140.39-6014.78-4140.39z"/>
		</g>
	</g>
	<g transform="translate(0,252) scale(0.028,0.028)">
		<g transform="">
			<path d="M-842.36-4325.12c87.06,0,157.64,70.58,157.64,157.64c0,87.06-70.57,157.64-157.64,157.64
				c-87.06,0-157.64-70.57-157.64-157.64C-1000-4254.55-929.42-4325.12-842.36-4325.12z"/>
		</g>
	</g>
	<g transform="translate(42,252) scale(0.028,0.028)">
		<g transform="">
			<path d="M-1396.55-4325.12c87.06,0,157.64,70.58,157.64,157.64c0,87.06-70.57,157.64-157.64,157.64
				c-87.06,0-157.64-70.57-157.64-157.64C-1554.19-4254.55-1483.61-4325.12-1396.55-4325.12z"/>
		</g>
	</g>
	<g transform="translate(84,252) scale(0.028,0.028)">
		<g transform="">
			<path d="M-1950.74-4325.12c87.06,0,157.64,70.58,157.64,157.64c0,87.06-70.57,157.64-157.64,157.64
				c-87.06,0-157.64-70.57-157.64-157.64C-2108.37-4254.55-2037.8-4325.12-1950.74-4325.12z"/>
		</g>
	</g>
	<g transform="translate(98,252) scale(0.028,0.028)">
		<g transform="">
			<path d="M-2135.47-4325.12c87.06,0,157.64,70.58,157.64,157.64c0,87.06-70.57,157.64-157.64,157.64
				c-87.06,0-157.64-70.57-157.64-157.64C-2293.1-4254.55-2222.53-4325.12-2135.47-4325.12z"/>
		</g>
	</g>
	<g transform="translate(112,252) scale(0.028,0.028)">
		<g transform="">
			<path d="M-2320.2-4325.12c87.06,0,157.64,70.58,157.64,157.64c0,87.06-70.57,157.64-157.64,157.64
				c-87.06,0-157.64-70.57-157.64-157.64C-2477.83-4254.55-2407.26-4325.12-2320.2-4325.12z"/>
		</g>
	</g>
	<g transform="translate(126,252) scale(0.028,0.028)">
		<g transform="">
			<path d="M-2504.93-4325.12c87.06,0,157.64,70.58,157.64,157.64c0,87.06-70.57,157.64-157.64,157.64
				c-87.06,0-157.64-70.57-157.64-157.64C-2662.56-4254.55-2591.99-4325.12-2504.93-4325.12z"/>
		</g>
	</g>
	<g transform="translate(280,252) scale(0.028,0.028)">
		<g transform="">
			<path d="M-4536.95-4325.12c87.06,0,157.64,70.58,157.64,157.64c0,87.06-70.57,157.64-157.64,157.64
				c-87.06,0-157.64-70.57-157.64-157.64C-4694.58-4254.55-4624-4325.12-4536.95-4325.12z"/>
		</g>
	</g>
	<g transform="translate(308,252) scale(0.028,0.028)">
		<g transform="">
			<path d="M-4906.4-4325.12c87.06,0,157.64,70.58,157.64,157.64c0,87.06-70.57,157.64-157.64,157.64
				c-87.06,0-157.64-70.57-157.64-157.64C-5064.04-4254.55-4993.46-4325.12-4906.4-4325.12z"/>
		</g>
	</g>
	<g transform="translate(322,252) scale(0.028,0.028)">
		<g transform="">
			<path d="M-5091.13-4325.12c87.06,0,157.64,70.58,157.64,157.64c0,87.06-70.57,157.64-157.64,157.64
				c-87.06,0-157.64-70.57-157.64-157.64C-5248.77-4254.55-5178.19-4325.12-5091.13-4325.12z"/>
		</g>
	</g>
	<g transform="translate(336,252) scale(0.028,0.028)">
		<g transform="">
			<path d="M-5275.86-4325.12c87.06,0,157.64,70.58,157.64,157.64c0,87.06-70.57,157.64-157.64,157.64
				c-87.06,0-157.64-70.57-157.64-157.64C-5433.5-4254.55-5362.92-4325.12-5275.86-4325.12z"/>
		</g>
	</g>
	<g transform="translate(364,252) scale(0.028,0.028)">
		<g transform="">
			<path d="M-5645.32-4325.12c87.06,0,157.64,70.58,157.64,157.64c0,87.06-70.57,157.64-157.64,157.64
				c-87.06,0-157.64-70.57-157.64-157.64C-5802.96-4254.55-5732.38-4325.12-5645.32-4325.12z"/>
		</g>
	</g>
	<g transform="translate(0,266) scale(0.028,0.028)">
		<g transform="">
			<path d="M-842.36-4509.85c87.06,0,157.64,70.58,157.64,157.64c0,87.06-70.57,157.64-157.64,157.64
				c-87.06,0-157.64-70.57-157.64-157.64C-1000-4439.28-929.42-4509.85-842.36-4509.85z"/>
		</g>
	</g>
	<g transform="translate(28,266) scale(0.028,0.028)">
		<g transform="">
			<path d="M-1211.82-4509.85c87.06,0,157.64,70.58,157.64,157.64c0,87.06-70.57,157.64-157.64,157.64
				c-87.06,0-157.64-70.57-157.64-157.64C-1369.46-4439.28-1298.88-4509.85-1211.82-4509.85z"/>
		</g>
	</g>
	<g transform="translate(42,266) scale(0.028,0.028)">
		<g transform="">
			<path d="M-1396.55-4509.85c87.06,0,157.64,70.58,157.64,157.64c0,87.06-70.57,157.64-157.64,157.64
				c-87.06,0-157.64-70.57-157.64-157.64C-1554.19-4439.28-1483.61-4509.85-1396.55-4509.85z"/>
		</g>
	</g>
	<g transform="translate(56,266) scale(0.028,0.028)">
		<g transform="">
			<path d="M-1581.28-4509.85c87.06,0,157.64,70.58,157.64,157.64c0,87.06-70.57,157.64-157.64,157.64
				c-87.06,0-157.64-70.57-157.64-157.64C-1738.92-4439.28-1668.34-4509.85-1581.28-4509.85z"/>
		</g>
	</g>
	<g transform="translate(112,266) scale(0.028,0.028)">
		<g transform="">
			<path d="M-2320.2-4509.85c87.06,0,157.64,70.58,157.64,157.64c0,87.06-70.57,157.64-157.64,157.64
				c-87.06,0-157.64-70.57-157.64-157.64C-2477.83-4439.28-2407.26-4509.85-2320.2-4509.85z"/>
		</g>
	</g>
	<g transform="translate(140,266) scale(0.028,0.028)">
		<g transform="">
			<path d="M-2689.66-4509.85c87.06,0,157.64,70.58,157.64,157.64c0,87.06-70.57,157.64-157.64,157.64
				c-87.06,0-157.64-70.57-157.64-157.64C-2847.29-4439.28-2776.71-4509.85-2689.66-4509.85z"/>
		</g>
	</g>
	<g transform="translate(154,266) scale(0.028,0.028)">
		<g transform="">
			<path d="M-2874.38-4509.85c87.06,0,157.64,70.58,157.64,157.64c0,87.06-70.57,157.64-157.64,157.64
				c-87.06,0-157.64-70.57-157.64-157.64C-3032.02-4439.28-2961.44-4509.85-2874.38-4509.85z"/>
		</g>
	</g>
	<g transform="translate(168,266) scale(0.028,0.028)">
		<g transform="">
			<path d="M-3059.11-4509.85c87.06,0,157.64,70.58,157.64,157.64c0,87.06-70.57,157.64-157.64,157.64
				c-87.06,0-157.64-70.57-157.64-157.64C-3216.75-4439.28-3146.17-4509.85-3059.11-4509.85z"/>
		</g>
	</g>
	<g transform="translate(210,266) scale(0.028,0.028)">
		<g transform="">
			<path d="M-3613.3-4509.85c87.06,0,157.64,70.58,157.64,157.64c0,87.06-70.57,157.64-157.64,157.64
				c-87.06,0-157.64-70.57-157.64-157.64C-3770.94-4439.28-3700.36-4509.85-3613.3-4509.85z"/>
		</g>
	</g>
	<g transform="translate(308,266) scale(0.028,0.028)">
		<g transform="">
			<path d="M-4906.4-4509.85c87.06,0,157.64,70.58,157.64,157.64c0,87.06-70.57,157.64-157.64,157.64
				c-87.06,0-157.64-70.57-157.64-157.64C-5064.04-4439.28-4993.46-4509.85-4906.4-4509.85z"/>
		</g>
	</g>
	<g transform="translate(322,266) scale(0.028,0.028)">
		<g transform="">
			<path d="M-5091.13-4509.85c87.06,0,157.64,70.58,157.64,157.64c0,87.06-70.57,157.64-157.64,157.64
				c-87.06,0-157.64-70.57-157.64-157.64C-5248.77-4439.28-5178.19-4509.85-5091.13-4509.85z"/>
		</g>
	</g>
	<g transform="translate(350,266) scale(0.028,0.028)">
		<g transform="">
			<path d="M-5460.59-4509.85c87.06,0,157.64,70.58,157.64,157.64c0,87.06-70.57,157.64-157.64,157.64
				c-87.06,0-157.64-70.57-157.64-157.64C-5618.23-4439.28-5547.65-4509.85-5460.59-4509.85z"/>
		</g>
	</g>
	<g transform="translate(392,266) scale(0.028,0.028)">
		<g transform="">
			<path d="M-6014.78-4509.85c87.06,0,157.64,70.58,157.64,157.64c0,87.06-70.57,157.64-157.64,157.64
				c-87.06,0-157.64-70.57-157.64-157.64C-6172.41-4439.28-6101.84-4509.85-6014.78-4509.85z"/>
		</g>
	</g>
	<g transform="translate(0,280) scale(0.028,0.028)">
		<g transform="">
			<path d="M-842.36-4694.58c87.06,0,157.64,70.58,157.64,157.64c0,87.06-70.57,157.64-157.64,157.64
				c-87.06,0-157.64-70.57-157.64-157.64C-1000-4624-929.42-4694.58-842.36-4694.58z"/>
		</g>
	</g>
	<g transform="translate(70,280) scale(0.028,0.028)">
		<g transform="">
			<path d="M-1766.01-4694.58c87.06,0,157.64,70.58,157.64,157.64c0,87.06-70.57,157.64-157.64,157.64
				c-87.06,0-157.64-70.57-157.64-157.64C-1923.65-4624-1853.07-4694.58-1766.01-4694.58z"/>
		</g>
	</g>
	<g transform="translate(84,280) scale(0.028,0.028)">
		<g transform="">
			<path d="M-1950.74-4694.58c87.06,0,157.64,70.58,157.64,157.64c0,87.06-70.57,157.64-157.64,157.64
				c-87.06,0-157.64-70.57-157.64-157.64C-2108.37-4624-2037.8-4694.58-1950.74-4694.58z"/>
		</g>
	</g>
	<g transform="translate(98,280) scale(0.028,0.028)">
		<g transform="">
			<path d="M-2135.47-4694.58c87.06,0,157.64,70.58,157.64,157.64c0,87.06-70.57,157.64-157.64,157.64
				c-87.06,0-157.64-70.57-157.64-157.64C-2293.1-4624-2222.53-4694.58-2135.47-4694.58z"/>
		</g>
	</g>
	<g transform="translate(126,280) scale(0.028,0.028)">
		<g transform="">
			<path d="M-2504.93-4694.58c87.06,0,157.64,70.58,157.64,157.64c0,87.06-70.57,157.64-157.64,157.64
				c-87.06,0-157.64-70.57-157.64-157.64C-2662.56-4624-2591.99-4694.58-2504.93-4694.58z"/>
		</g>
	</g>
	<g transform="translate(182,280) scale(0.028,0.028)">
		<g transform="">
			<path d="M-3243.84-4694.58c87.06,0,157.64,70.58,157.64,157.64c0,87.06-70.57,157.64-157.64,157.64
				c-87.06,0-157.64-70.57-157.64-157.64C-3401.48-4624-3330.9-4694.58-3243.84-4694.58z"/>
		</g>
	</g>
	<g transform="translate(196,280) scale(0.028,0.028)">
		<g transform="">
			<path d="M-3428.57-4694.58c87.06,0,157.64,70.58,157.64,157.64c0,87.06-70.57,157.64-157.64,157.64
				c-87.06,0-157.64-70.57-157.64-157.64C-3586.21-4624-3515.63-4694.58-3428.57-4694.58z"/>
		</g>
	</g>
	<g transform="translate(210,280) scale(0.028,0.028)">
		<g transform="">
			<path d="M-3613.3-4694.58c87.06,0,157.64,70.58,157.64,157.64c0,87.06-70.57,157.64-157.64,157.64
				c-87.06,0-157.64-70.57-157.64-157.64C-3770.94-4624-3700.36-4694.58-3613.3-4694.58z"/>
		</g>
	</g>
	<g transform="translate(224,280) scale(0.028,0.028)">
		<g transform="">
			<path d="M-3798.03-4694.58c87.06,0,157.64,70.58,157.64,157.64c0,87.06-70.57,157.64-157.64,157.64
				c-87.06,0-157.64-70.57-157.64-157.64C-3955.67-4624-3885.09-4694.58-3798.03-4694.58z"/>
		</g>
	</g>
	<g transform="translate(238,280) scale(0.028,0.028)">
		<g transform="">
			<path d="M-3982.76-4694.58c87.06,0,157.64,70.58,157.64,157.64c0,87.06-70.57,157.64-157.64,157.64
				c-87.06,0-157.64-70.57-157.64-157.64C-4140.39-4624-4069.82-4694.58-3982.76-4694.58z"/>
		</g>
	</g>
	<g transform="translate(252,280) scale(0.028,0.028)">
		<g transform="">
			<path d="M-4167.49-4694.58c87.06,0,157.64,70.58,157.64,157.64c0,87.06-70.57,157.64-157.64,157.64
				c-87.06,0-157.64-70.57-157.64-157.64C-4325.12-4624-4254.55-4694.58-4167.49-4694.58z"/>
		</g>
	</g>
	<g transform="translate(280,280) scale(0.028,0.028)">
		<g transform="">
			<path d="M-4536.95-4694.58c87.06,0,157.64,70.58,157.64,157.64c0,87.06-70.57,157.64-157.64,157.64
				c-87.06,0-157.64-70.57-157.64-157.64C-4694.58-4624-4624-4694.58-4536.95-4694.58z"/>
		</g>
	</g>
	<g transform="translate(294,280) scale(0.028,0.028)">
		<g transform="">
			<path d="M-4721.67-4694.58c87.06,0,157.64,70.58,157.64,157.64c0,87.06-70.57,157.64-157.64,157.64
				c-87.06,0-157.64-70.57-157.64-157.64C-4879.31-4624-4808.73-4694.58-4721.67-4694.58z"/>
		</g>
	</g>
	<g transform="translate(308,280) scale(0.028,0.028)">
		<g transform="">
			<path d="M-4906.4-4694.58c87.06,0,157.64,70.58,157.64,157.64c0,87.06-70.57,157.64-157.64,157.64
				c-87.06,0-157.64-70.57-157.64-157.64C-5064.04-4624-4993.46-4694.58-4906.4-4694.58z"/>
		</g>
	</g>
	<g transform="translate(322,280) scale(0.028,0.028)">
		<g transform="">
			<path d="M-5091.13-4694.58c87.06,0,157.64,70.58,157.64,157.64c0,87.06-70.57,157.64-157.64,157.64
				c-87.06,0-157.64-70.57-157.64-157.64C-5248.77-4624-5178.19-4694.58-5091.13-4694.58z"/>
		</g>
	</g>
	<g transform="translate(336,280) scale(0.028,0.028)">
		<g transform="">
			<path d="M-5275.86-4694.58c87.06,0,157.64,70.58,157.64,157.64c0,87.06-70.57,157.64-157.64,157.64
				c-87.06,0-157.64-70.57-157.64-157.64C-5433.5-4624-5362.92-4694.58-5275.86-4694.58z"/>
		</g>
	</g>
	<g transform="translate(364,280) scale(0.028,0.028)">
		<g transform="">
			<path d="M-5645.32-4694.58c87.06,0,157.64,70.58,157.64,157.64c0,87.06-70.57,157.64-157.64,157.64
				c-87.06,0-157.64-70.57-157.64-157.64C-5802.96-4624-5732.38-4694.58-5645.32-4694.58z"/>
		</g>
	</g>
	<g transform="translate(112,294) scale(0.028,0.028)">
		<g transform="">
			<path d="M-2320.2-4879.31c87.06,0,157.64,70.58,157.64,157.64c0,87.06-70.57,157.64-157.64,157.64
				c-87.06,0-157.64-70.57-157.64-157.64C-2477.83-4808.73-2407.26-4879.31-2320.2-4879.31z"/>
		</g>
	</g>
	<g transform="translate(154,294) scale(0.028,0.028)">
		<g transform="">
			<path d="M-2874.38-4879.31c87.06,0,157.64,70.58,157.64,157.64c0,87.06-70.57,157.64-157.64,157.64
				c-87.06,0-157.64-70.57-157.64-157.64C-3032.02-4808.73-2961.44-4879.31-2874.38-4879.31z"/>
		</g>
	</g>
	<g transform="translate(224,294) scale(0.028,0.028)">
		<g transform="">
			<path d="M-3798.03-4879.31c87.06,0,157.64,70.58,157.64,157.64c0,87.06-70.57,157.64-157.64,157.64
				c-87.06,0-157.64-70.57-157.64-157.64C-3955.67-4808.73-3885.09-4879.31-3798.03-4879.31z"/>
		</g>
	</g>
	<g transform="translate(238,294) scale(0.028,0.028)">
		<g transform="">
			<path d="M-3982.76-4879.31c87.06,0,157.64,70.58,157.64,157.64c0,87.06-70.57,157.64-157.64,157.64
				c-87.06,0-157.64-70.57-157.64-157.64C-4140.39-4808.73-4069.82-4879.31-3982.76-4879.31z"/>
		</g>
	</g>
	<g transform="translate(252,294) scale(0.028,0.028)">
		<g transform="">
			<path d="M-4167.49-4879.31c87.06,0,157.64,70.58,157.64,157.64c0,87.06-70.57,157.64-157.64,157.64
				c-87.06,0-157.64-70.57-157.64-157.64C-4325.12-4808.73-4254.55-4879.31-4167.49-4879.31z"/>
		</g>
	</g>
	<g transform="translate(266,294) scale(0.028,0.028)">
		<g transform="">
			<path d="M-4352.22-4879.31c87.06,0,157.64,70.58,157.64,157.64c0,87.06-70.57,157.64-157.64,157.64
				c-87.06,0-157.64-70.57-157.64-157.64C-4509.85-4808.73-4439.28-4879.31-4352.22-4879.31z"/>
		</g>
	</g>
	<g transform="translate(280,294) scale(0.028,0.028)">
		<g transform="">
			<path d="M-4536.95-4879.31c87.06,0,157.64,70.58,157.64,157.64c0,87.06-70.57,157.64-157.64,157.64
				c-87.06,0-157.64-70.57-157.64-157.64C-4694.58-4808.73-4624-4879.31-4536.95-4879.31z"/>
		</g>
	</g>
	<g transform="translate(336,294) scale(0.028,0.028)">
		<g transform="">
			<path d="M-5275.86-4879.31c87.06,0,157.64,70.58,157.64,157.64c0,87.06-70.57,157.64-157.64,157.64
				c-87.06,0-157.64-70.57-157.64-157.64C-5433.5-4808.73-5362.92-4879.31-5275.86-4879.31z"/>
		</g>
	</g>
	<g transform="translate(350,294) scale(0.028,0.028)">
		<g transform="">
			<path d="M-5460.59-4879.31c87.06,0,157.64,70.58,157.64,157.64c0,87.06-70.57,157.64-157.64,157.64
				c-87.06,0-157.64-70.57-157.64-157.64C-5618.23-4808.73-5547.65-4879.31-5460.59-4879.31z"/>
		</g>
	</g>
	<g transform="translate(378,294) scale(0.028,0.028)">
		<g transform="">
			<path d="M-5830.05-4879.31c87.06,0,157.64,70.58,157.64,157.64c0,87.06-70.57,157.64-157.64,157.64
				c-87.06,0-157.64-70.57-157.64-157.64C-5987.68-4808.73-5917.11-4879.31-5830.05-4879.31z"/>
		</g>
	</g>
	<g transform="translate(392,294) scale(0.028,0.028)">
		<g transform="">
			<path d="M-6014.78-4879.31c87.06,0,157.64,70.58,157.64,157.64c0,87.06-70.57,157.64-157.64,157.64
				c-87.06,0-157.64-70.57-157.64-157.64C-6172.41-4808.73-6101.84-4879.31-6014.78-4879.31z"/>
		</g>
	</g>
	<g transform="translate(126,308) scale(0.028,0.028)">
		<g transform="">
			<path d="M-2504.93-5064.04c87.06,0,157.64,70.58,157.64,157.64c0,87.06-70.57,157.64-157.64,157.64
				c-87.06,0-157.64-70.57-157.64-157.64C-2662.56-4993.46-2591.99-5064.04-2504.93-5064.04z"/>
		</g>
	</g>
	<g transform="translate(140,308) scale(0.028,0.028)">
		<g transform="">
			<path d="M-2689.66-5064.04c87.06,0,157.64,70.58,157.64,157.64c0,87.06-70.57,157.64-157.64,157.64
				c-87.06,0-157.64-70.57-157.64-157.64C-2847.29-4993.46-2776.71-5064.04-2689.66-5064.04z"/>
		</g>
	</g>
	<g transform="translate(210,308) scale(0.028,0.028)">
		<g transform="">
			<path d="M-3613.3-5064.04c87.06,0,157.64,70.58,157.64,157.64c0,87.06-70.57,157.64-157.64,157.64
				c-87.06,0-157.64-70.57-157.64-157.64C-3770.94-4993.46-3700.36-5064.04-3613.3-5064.04z"/>
		</g>
	</g>
	<g transform="translate(224,308) scale(0.028,0.028)">
		<g transform="">
			<path d="M-3798.03-5064.04c87.06,0,157.64,70.58,157.64,157.64c0,87.06-70.57,157.64-157.64,157.64
				c-87.06,0-157.64-70.57-157.64-157.64C-3955.67-4993.46-3885.09-5064.04-3798.03-5064.04z"/>
		</g>
	</g>
	<g transform="translate(266,308) scale(0.028,0.028)">
		<g transform="">
			<path d="M-4352.22-5064.04c87.06,0,157.64,70.58,157.64,157.64c0,87.06-70.57,157.64-157.64,157.64
				c-87.06,0-157.64-70.57-157.64-157.64C-4509.85-4993.46-4439.28-5064.04-4352.22-5064.04z"/>
		</g>
	</g>
	<g transform="translate(280,308) scale(0.028,0.028)">
		<g transform="">
			<path d="M-4536.95-5064.04c87.06,0,157.64,70.58,157.64,157.64c0,87.06-70.57,157.64-157.64,157.64
				c-87.06,0-157.64-70.57-157.64-157.64C-4694.58-4993.46-4624-5064.04-4536.95-5064.04z"/>
		</g>
	</g>
	<g transform="translate(308,308) scale(0.028,0.028)">
		<g transform="">
			<path d="M-4906.4-5064.04c87.06,0,157.64,70.58,157.64,157.64c0,87.06-70.57,157.64-157.64,157.64
				c-87.06,0-157.64-70.57-157.64-157.64C-5064.04-4993.46-4993.46-5064.04-4906.4-5064.04z"/>
		</g>
	</g>
	<g transform="translate(336,308) scale(0.028,0.028)">
		<g transform="">
			<path d="M-5275.86-5064.04c87.06,0,157.64,70.58,157.64,157.64c0,87.06-70.57,157.64-157.64,157.64
				c-87.06,0-157.64-70.57-157.64-157.64C-5433.5-4993.46-5362.92-5064.04-5275.86-5064.04z"/>
		</g>
	</g>
	<g transform="translate(378,308) scale(0.028,0.028)">
		<g transform="">
			<path d="M-5830.05-5064.04c87.06,0,157.64,70.58,157.64,157.64c0,87.06-70.57,157.64-157.64,157.64
				c-87.06,0-157.64-70.57-157.64-157.64C-5987.68-4993.46-5917.11-5064.04-5830.05-5064.04z"/>
		</g>
	</g>
	<g transform="translate(140,322) scale(0.028,0.028)">
		<g transform="">
			<path d="M-2689.66-5248.77c87.06,0,157.64,70.58,157.64,157.64c0,87.06-70.57,157.64-157.64,157.64
				c-87.06,0-157.64-70.57-157.64-157.64C-2847.29-5178.19-2776.71-5248.77-2689.66-5248.77z"/>
		</g>
	</g>
	<g transform="translate(168,322) scale(0.028,0.028)">
		<g transform="">
			<path d="M-3059.11-5248.77c87.06,0,157.64,70.58,157.64,157.64c0,87.06-70.57,157.64-157.64,157.64
				c-87.06,0-157.64-70.57-157.64-157.64C-3216.75-5178.19-3146.17-5248.77-3059.11-5248.77z"/>
		</g>
	</g>
	<g transform="translate(210,322) scale(0.028,0.028)">
		<g transform="">
			<path d="M-3613.3-5248.77c87.06,0,157.64,70.58,157.64,157.64c0,87.06-70.57,157.64-157.64,157.64
				c-87.06,0-157.64-70.57-157.64-157.64C-3770.94-5178.19-3700.36-5248.77-3613.3-5248.77z"/>
		</g>
	</g>
	<g transform="translate(224,322) scale(0.028,0.028)">
		<g transform="">
			<path d="M-3798.03-5248.77c87.06,0,157.64,70.58,157.64,157.64c0,87.06-70.57,157.64-157.64,157.64
				c-87.06,0-157.64-70.57-157.64-157.64C-3955.67-5178.19-3885.09-5248.77-3798.03-5248.77z"/>
		</g>
	</g>
	<g transform="translate(266,322) scale(0.028,0.028)">
		<g transform="">
			<path d="M-4352.22-5248.77c87.06,0,157.64,70.58,157.64,157.64c0,87.06-70.57,157.64-157.64,157.64
				c-87.06,0-157.64-70.57-157.64-157.64C-4509.85-5178.19-4439.28-5248.77-4352.22-5248.77z"/>
		</g>
	</g>
	<g transform="translate(280,322) scale(0.028,0.028)">
		<g transform="">
			<path d="M-4536.95-5248.77c87.06,0,157.64,70.58,157.64,157.64c0,87.06-70.57,157.64-157.64,157.64
				c-87.06,0-157.64-70.57-157.64-157.64C-4694.58-5178.19-4624-5248.77-4536.95-5248.77z"/>
		</g>
	</g>
	<g transform="translate(336,322) scale(0.028,0.028)">
		<g transform="">
			<path d="M-5275.86-5248.77c87.06,0,157.64,70.58,157.64,157.64c0,87.06-70.57,157.64-157.64,157.64
				c-87.06,0-157.64-70.57-157.64-157.64C-5433.5-5178.19-5362.92-5248.77-5275.86-5248.77z"/>
		</g>
	</g>
	<g transform="translate(350,322) scale(0.028,0.028)">
		<g transform="">
			<path d="M-5460.59-5248.77c87.06,0,157.64,70.58,157.64,157.64c0,87.06-70.57,157.64-157.64,157.64
				c-87.06,0-157.64-70.57-157.64-157.64C-5618.23-5178.19-5547.65-5248.77-5460.59-5248.77z"/>
		</g>
	</g>
	<g transform="translate(112,336) scale(0.028,0.028)">
		<g transform="">
			<path d="M-2320.2-5433.5c87.06,0,157.64,70.58,157.64,157.64c0,87.06-70.57,157.64-157.64,157.64
				c-87.06,0-157.64-70.57-157.64-157.64C-2477.83-5362.92-2407.26-5433.5-2320.2-5433.5z"/>
		</g>
	</g>
	<g transform="translate(126,336) scale(0.028,0.028)">
		<g transform="">
			<path d="M-2504.93-5433.5c87.06,0,157.64,70.58,157.64,157.64c0,87.06-70.57,157.64-157.64,157.64
				c-87.06,0-157.64-70.57-157.64-157.64C-2662.56-5362.92-2591.99-5433.5-2504.93-5433.5z"/>
		</g>
	</g>
	<g transform="translate(154,336) scale(0.028,0.028)">
		<g transform="">
			<path d="M-2874.38-5433.5c87.06,0,157.64,70.58,157.64,157.64c0,87.06-70.57,157.64-157.64,157.64
				c-87.06,0-157.64-70.57-157.64-157.64C-3032.02-5362.92-2961.44-5433.5-2874.38-5433.5z"/>
		</g>
	</g>
	<g transform="translate(182,336) scale(0.028,0.028)">
		<g transform="">
			<path d="M-3243.84-5433.5c87.06,0,157.64,70.58,157.64,157.64c0,87.06-70.57,157.64-157.64,157.64
				c-87.06,0-157.64-70.57-157.64-157.64C-3401.48-5362.92-3330.9-5433.5-3243.84-5433.5z"/>
		</g>
	</g>
	<g transform="translate(196,336) scale(0.028,0.028)">
		<g transform="">
			<path d="M-3428.57-5433.5c87.06,0,157.64,70.58,157.64,157.64c0,87.06-70.57,157.64-157.64,157.64
				c-87.06,0-157.64-70.57-157.64-157.64C-3586.21-5362.92-3515.63-5433.5-3428.57-5433.5z"/>
		</g>
	</g>
	<g transform="translate(238,336) scale(0.028,0.028)">
		<g transform="">
			<path d="M-3982.76-5433.5c87.06,0,157.64,70.58,157.64,157.64c0,87.06-70.57,157.64-157.64,157.64
				c-87.06,0-157.64-70.57-157.64-157.64C-4140.39-5362.92-4069.82-5433.5-3982.76-5433.5z"/>
		</g>
	</g>
	<g transform="translate(252,336) scale(0.028,0.028)">
		<g transform="">
			<path d="M-4167.49-5433.5c87.06,0,157.64,70.58,157.64,157.64c0,87.06-70.57,157.64-157.64,157.64
				c-87.06,0-157.64-70.57-157.64-157.64C-4325.12-5362.92-4254.55-5433.5-4167.49-5433.5z"/>
		</g>
	</g>
	<g transform="translate(280,336) scale(0.028,0.028)">
		<g transform="">
			<path d="M-4536.95-5433.5c87.06,0,157.64,70.58,157.64,157.64c0,87.06-70.57,157.64-157.64,157.64
				c-87.06,0-157.64-70.57-157.64-157.64C-4694.58-5362.92-4624-5433.5-4536.95-5433.5z"/>
		</g>
	</g>
	<g transform="translate(294,336) scale(0.028,0.028)">
		<g transform="">
			<path d="M-4721.67-5433.5c87.06,0,157.64,70.58,157.64,157.64c0,87.06-70.57,157.64-157.64,157.64
				c-87.06,0-157.64-70.57-157.64-157.64C-4879.31-5362.92-4808.73-5433.5-4721.67-5433.5z"/>
		</g>
	</g>
	<g transform="translate(308,336) scale(0.028,0.028)">
		<g transform="">
			<path d="M-4906.4-5433.5c87.06,0,157.64,70.58,157.64,157.64c0,87.06-70.57,157.64-157.64,157.64
				c-87.06,0-157.64-70.57-157.64-157.64C-5064.04-5362.92-4993.46-5433.5-4906.4-5433.5z"/>
		</g>
	</g>
	<g transform="translate(322,336) scale(0.028,0.028)">
		<g transform="">
			<path d="M-5091.13-5433.5c87.06,0,157.64,70.58,157.64,157.64c0,87.06-70.57,157.64-157.64,157.64
				c-87.06,0-157.64-70.57-157.64-157.64C-5248.77-5362.92-5178.19-5433.5-5091.13-5433.5z"/>
		</g>
	</g>
	<g transform="translate(336,336) scale(0.028,0.028)">
		<g transform="">
			<path d="M-5275.86-5433.5c87.06,0,157.64,70.58,157.64,157.64c0,87.06-70.57,157.64-157.64,157.64
				c-87.06,0-157.64-70.57-157.64-157.64C-5433.5-5362.92-5362.92-5433.5-5275.86-5433.5z"/>
		</g>
	</g>
	<g transform="translate(350,336) scale(0.028,0.028)">
		<g transform="">
			<path d="M-5460.59-5433.5c87.06,0,157.64,70.58,157.64,157.64c0,87.06-70.57,157.64-157.64,157.64
				c-87.06,0-157.64-70.57-157.64-157.64C-5618.23-5362.92-5547.65-5433.5-5460.59-5433.5z"/>
		</g>
	</g>
	<g transform="translate(364,336) scale(0.028,0.028)">
		<g transform="">
			<path d="M-5645.32-5433.5c87.06,0,157.64,70.58,157.64,157.64c0,87.06-70.57,157.64-157.64,157.64
				c-87.06,0-157.64-70.57-157.64-157.64C-5802.96-5362.92-5732.38-5433.5-5645.32-5433.5z"/>
		</g>
	</g>
	<g transform="translate(112,350) scale(0.028,0.028)">
		<g transform="">
			<path d="M-2320.2-5618.23c87.06,0,157.64,70.58,157.64,157.64c0,87.06-70.57,157.64-157.64,157.64
				c-87.06,0-157.64-70.57-157.64-157.64C-2477.83-5547.65-2407.26-5618.23-2320.2-5618.23z"/>
		</g>
	</g>
	<g transform="translate(126,350) scale(0.028,0.028)">
		<g transform="">
			<path d="M-2504.93-5618.23c87.06,0,157.64,70.58,157.64,157.64c0,87.06-70.57,157.64-157.64,157.64
				c-87.06,0-157.64-70.57-157.64-157.64C-2662.56-5547.65-2591.99-5618.23-2504.93-5618.23z"/>
		</g>
	</g>
	<g transform="translate(140,350) scale(0.028,0.028)">
		<g transform="">
			<path d="M-2689.66-5618.23c87.06,0,157.64,70.58,157.64,157.64c0,87.06-70.57,157.64-157.64,157.64
				c-87.06,0-157.64-70.57-157.64-157.64C-2847.29-5547.65-2776.71-5618.23-2689.66-5618.23z"/>
		</g>
	</g>
	<g transform="translate(154,350) scale(0.028,0.028)">
		<g transform="">
			<path d="M-2874.38-5618.23c87.06,0,157.64,70.58,157.64,157.64c0,87.06-70.57,157.64-157.64,157.64
				c-87.06,0-157.64-70.57-157.64-157.64C-3032.02-5547.65-2961.44-5618.23-2874.38-5618.23z"/>
		</g>
	</g>
	<g transform="translate(168,350) scale(0.028,0.028)">
		<g transform="">
			<path d="M-3059.11-5618.23c87.06,0,157.64,70.58,157.64,157.64c0,87.06-70.57,157.64-157.64,157.64
				c-87.06,0-157.64-70.57-157.64-157.64C-3216.75-5547.65-3146.17-5618.23-3059.11-5618.23z"/>
		</g>
	</g>
	<g transform="translate(182,350) scale(0.028,0.028)">
		<g transform="">
			<path d="M-3243.84-5618.23c87.06,0,157.64,70.58,157.64,157.64c0,87.06-70.57,157.64-157.64,157.64
				c-87.06,0-157.64-70.57-157.64-157.64C-3401.48-5547.65-3330.9-5618.23-3243.84-5618.23z"/>
		</g>
	</g>
	<g transform="translate(210,350) scale(0.028,0.028)">
		<g transform="">
			<path d="M-3613.3-5618.23c87.06,0,157.64,70.58,157.64,157.64c0,87.06-70.57,157.64-157.64,157.64
				c-87.06,0-157.64-70.57-157.64-157.64C-3770.94-5547.65-3700.36-5618.23-3613.3-5618.23z"/>
		</g>
	</g>
	<g transform="translate(238,350) scale(0.028,0.028)">
		<g transform="">
			<path d="M-3982.76-5618.23c87.06,0,157.64,70.58,157.64,157.64c0,87.06-70.57,157.64-157.64,157.64
				c-87.06,0-157.64-70.57-157.64-157.64C-4140.39-5547.65-4069.82-5618.23-3982.76-5618.23z"/>
		</g>
	</g>
	<g transform="translate(252,350) scale(0.028,0.028)">
		<g transform="">
			<path d="M-4167.49-5618.23c87.06,0,157.64,70.58,157.64,157.64c0,87.06-70.57,157.64-157.64,157.64
				c-87.06,0-157.64-70.57-157.64-157.64C-4325.12-5547.65-4254.55-5618.23-4167.49-5618.23z"/>
		</g>
	</g>
	<g transform="translate(266,350) scale(0.028,0.028)">
		<g transform="">
			<path d="M-4352.22-5618.23c87.06,0,157.64,70.58,157.64,157.64c0,87.06-70.57,157.64-157.64,157.64
				c-87.06,0-157.64-70.57-157.64-157.64C-4509.85-5547.65-4439.28-5618.23-4352.22-5618.23z"/>
		</g>
	</g>
	<g transform="translate(280,350) scale(0.028,0.028)">
		<g transform="">
			<path d="M-4536.95-5618.23c87.06,0,157.64,70.58,157.64,157.64c0,87.06-70.57,157.64-157.64,157.64
				c-87.06,0-157.64-70.57-157.64-157.64C-4694.58-5547.65-4624-5618.23-4536.95-5618.23z"/>
		</g>
	</g>
	<g transform="translate(294,350) scale(0.028,0.028)">
		<g transform="">
			<path d="M-4721.67-5618.23c87.06,0,157.64,70.58,157.64,157.64c0,87.06-70.57,157.64-157.64,157.64
				c-87.06,0-157.64-70.57-157.64-157.64C-4879.31-5547.65-4808.73-5618.23-4721.67-5618.23z"/>
		</g>
	</g>
	<g transform="translate(322,350) scale(0.028,0.028)">
		<g transform="">
			<path d="M-5091.13-5618.23c87.06,0,157.64,70.58,157.64,157.64c0,87.06-70.57,157.64-157.64,157.64
				c-87.06,0-157.64-70.57-157.64-157.64C-5248.77-5547.65-5178.19-5618.23-5091.13-5618.23z"/>
		</g>
	</g>
	<g transform="translate(112,364) scale(0.028,0.028)">
		<g transform="">
			<path d="M-2320.2-5802.96c87.06,0,157.64,70.58,157.64,157.64c0,87.06-70.57,157.64-157.64,157.64
				c-87.06,0-157.64-70.57-157.64-157.64C-2477.83-5732.38-2407.26-5802.96-2320.2-5802.96z"/>
		</g>
	</g>
	<g transform="translate(126,364) scale(0.028,0.028)">
		<g transform="">
			<path d="M-2504.93-5802.96c87.06,0,157.64,70.58,157.64,157.64c0,87.06-70.57,157.64-157.64,157.64
				c-87.06,0-157.64-70.57-157.64-157.64C-2662.56-5732.38-2591.99-5802.96-2504.93-5802.96z"/>
		</g>
	</g>
	<g transform="translate(182,364) scale(0.028,0.028)">
		<g transform="">
			<path d="M-3243.84-5802.96c87.06,0,157.64,70.58,157.64,157.64c0,87.06-70.57,157.64-157.64,157.64
				c-87.06,0-157.64-70.57-157.64-157.64C-3401.48-5732.38-3330.9-5802.96-3243.84-5802.96z"/>
		</g>
	</g>
	<g transform="translate(224,364) scale(0.028,0.028)">
		<g transform="">
			<path d="M-3798.03-5802.96c87.06,0,157.64,70.58,157.64,157.64c0,87.06-70.57,157.64-157.64,157.64
				c-87.06,0-157.64-70.57-157.64-157.64C-3955.67-5732.38-3885.09-5802.96-3798.03-5802.96z"/>
		</g>
	</g>
	<g transform="translate(266,364) scale(0.028,0.028)">
		<g transform="">
			<path d="M-4352.22-5802.96c87.06,0,157.64,70.58,157.64,157.64c0,87.06-70.57,157.64-157.64,157.64
				c-87.06,0-157.64-70.57-157.64-157.64C-4509.85-5732.38-4439.28-5802.96-4352.22-5802.96z"/>
		</g>
	</g>
	<g transform="translate(280,364) scale(0.028,0.028)">
		<g transform="">
			<path d="M-4536.95-5802.96c87.06,0,157.64,70.58,157.64,157.64c0,87.06-70.57,157.64-157.64,157.64
				c-87.06,0-157.64-70.57-157.64-157.64C-4694.58-5732.38-4624-5802.96-4536.95-5802.96z"/>
		</g>
	</g>
	<g transform="translate(294,364) scale(0.028,0.028)">
		<g transform="">
			<path d="M-4721.67-5802.96c87.06,0,157.64,70.58,157.64,157.64c0,87.06-70.57,157.64-157.64,157.64
				c-87.06,0-157.64-70.57-157.64-157.64C-4879.31-5732.38-4808.73-5802.96-4721.67-5802.96z"/>
		</g>
	</g>
	<g transform="translate(308,364) scale(0.028,0.028)">
		<g transform="">
			<path d="M-4906.4-5802.96c87.06,0,157.64,70.58,157.64,157.64c0,87.06-70.57,157.64-157.64,157.64
				c-87.06,0-157.64-70.57-157.64-157.64C-5064.04-5732.38-4993.46-5802.96-4906.4-5802.96z"/>
		</g>
	</g>
	<g transform="translate(322,364) scale(0.028,0.028)">
		<g transform="">
			<path d="M-5091.13-5802.96c87.06,0,157.64,70.58,157.64,157.64c0,87.06-70.57,157.64-157.64,157.64
				c-87.06,0-157.64-70.57-157.64-157.64C-5248.77-5732.38-5178.19-5802.96-5091.13-5802.96z"/>
		</g>
	</g>
	<g transform="translate(336,364) scale(0.028,0.028)">
		<g transform="">
			<path d="M-5275.86-5802.96c87.06,0,157.64,70.58,157.64,157.64c0,87.06-70.57,157.64-157.64,157.64
				c-87.06,0-157.64-70.57-157.64-157.64C-5433.5-5732.38-5362.92-5802.96-5275.86-5802.96z"/>
		</g>
	</g>
	<g transform="translate(350,364) scale(0.028,0.028)">
		<g transform="">
			<path d="M-5460.59-5802.96c87.06,0,157.64,70.58,157.64,157.64c0,87.06-70.57,157.64-157.64,157.64
				c-87.06,0-157.64-70.57-157.64-157.64C-5618.23-5732.38-5547.65-5802.96-5460.59-5802.96z"/>
		</g>
	</g>
	<g transform="translate(378,364) scale(0.028,0.028)">
		<g transform="">
			<path d="M-5830.05-5802.96c87.06,0,157.64,70.58,157.64,157.64c0,87.06-70.57,157.64-157.64,157.64
				c-87.06,0-157.64-70.57-157.64-157.64C-5987.68-5732.38-5917.11-5802.96-5830.05-5802.96z"/>
		</g>
	</g>
	<g transform="translate(126,378) scale(0.028,0.028)">
		<g transform="">
			<path d="M-2504.93-5987.68c87.06,0,157.64,70.58,157.64,157.64c0,87.06-70.57,157.64-157.64,157.64
				c-87.06,0-157.64-70.57-157.64-157.64C-2662.56-5917.11-2591.99-5987.68-2504.93-5987.68z"/>
		</g>
	</g>
	<g transform="translate(168,378) scale(0.028,0.028)">
		<g transform="">
			<path d="M-3059.11-5987.68c87.06,0,157.64,70.58,157.64,157.64c0,87.06-70.57,157.64-157.64,157.64
				c-87.06,0-157.64-70.57-157.64-157.64C-3216.75-5917.11-3146.17-5987.68-3059.11-5987.68z"/>
		</g>
	</g>
	<g transform="translate(182,378) scale(0.028,0.028)">
		<g transform="">
			<path d="M-3243.84-5987.68c87.06,0,157.64,70.58,157.64,157.64c0,87.06-70.57,157.64-157.64,157.64
				c-87.06,0-157.64-70.57-157.64-157.64C-3401.48-5917.11-3330.9-5987.68-3243.84-5987.68z"/>
		</g>
	</g>
	<g transform="translate(196,378) scale(0.028,0.028)">
		<g transform="">
			<path d="M-3428.57-5987.68c87.06,0,157.64,70.58,157.64,157.64c0,87.06-70.57,157.64-157.64,157.64
				c-87.06,0-157.64-70.57-157.64-157.64C-3586.21-5917.11-3515.63-5987.68-3428.57-5987.68z"/>
		</g>
	</g>
	<g transform="translate(224,378) scale(0.028,0.028)">
		<g transform="">
			<path d="M-3798.03-5987.68c87.06,0,157.64,70.58,157.64,157.64c0,87.06-70.57,157.64-157.64,157.64
				c-87.06,0-157.64-70.57-157.64-157.64C-3955.67-5917.11-3885.09-5987.68-3798.03-5987.68z"/>
		</g>
	</g>
	<g transform="translate(238,378) scale(0.028,0.028)">
		<g transform="">
			<path d="M-3982.76-5987.68c87.06,0,157.64,70.58,157.64,157.64c0,87.06-70.57,157.64-157.64,157.64
				c-87.06,0-157.64-70.57-157.64-157.64C-4140.39-5917.11-4069.82-5987.68-3982.76-5987.68z"/>
		</g>
	</g>
	<g transform="translate(280,378) scale(0.028,0.028)">
		<g transform="">
			<path d="M-4536.95-5987.68c87.06,0,157.64,70.58,157.64,157.64c0,87.06-70.57,157.64-157.64,157.64
				c-87.06,0-157.64-70.57-157.64-157.64C-4694.58-5917.11-4624-5987.68-4536.95-5987.68z"/>
		</g>
	</g>
	<g transform="translate(294,378) scale(0.028,0.028)">
		<g transform="">
			<path d="M-4721.67-5987.68c87.06,0,157.64,70.58,157.64,157.64c0,87.06-70.57,157.64-157.64,157.64
				c-87.06,0-157.64-70.57-157.64-157.64C-4879.31-5917.11-4808.73-5987.68-4721.67-5987.68z"/>
		</g>
	</g>
	<g transform="translate(336,378) scale(0.028,0.028)">
		<g transform="">
			<path d="M-5275.86-5987.68c87.06,0,157.64,70.58,157.64,157.64c0,87.06-70.57,157.64-157.64,157.64
				c-87.06,0-157.64-70.57-157.64-157.64C-5433.5-5917.11-5362.92-5987.68-5275.86-5987.68z"/>
		</g>
	</g>
	<g transform="translate(350,378) scale(0.028,0.028)">
		<g transform="">
			<path d="M-5460.59-5987.68c87.06,0,157.64,70.58,157.64,157.64c0,87.06-70.57,157.64-157.64,157.64
				c-87.06,0-157.64-70.57-157.64-157.64C-5618.23-5917.11-5547.65-5987.68-5460.59-5987.68z"/>
		</g>
	</g>
	<g transform="translate(378,378) scale(0.028,0.028)">
		<g transform="">
			<path d="M-5830.05-5987.68c87.06,0,157.64,70.58,157.64,157.64c0,87.06-70.57,157.64-157.64,157.64
				c-87.06,0-157.64-70.57-157.64-157.64C-5987.68-5917.11-5917.11-5987.68-5830.05-5987.68z"/>
		</g>
	</g>
	<g transform="translate(126,392) scale(0.028,0.028)">
		<g transform="">
			<path d="M-2504.93-6172.41c87.06,0,157.64,70.58,157.64,157.64c0,87.06-70.57,157.64-157.64,157.64
				c-87.06,0-157.64-70.57-157.64-157.64C-2662.56-6101.84-2591.99-6172.41-2504.93-6172.41z"/>
		</g>
	</g>
	<g transform="translate(140,392) scale(0.028,0.028)">
		<g transform="">
			<path d="M-2689.66-6172.41c87.06,0,157.64,70.58,157.64,157.64c0,87.06-70.57,157.64-157.64,157.64
				c-87.06,0-157.64-70.57-157.64-157.64C-2847.29-6101.84-2776.71-6172.41-2689.66-6172.41z"/>
		</g>
	</g>
	<g transform="translate(154,392) scale(0.028,0.028)">
		<g transform="">
			<path d="M-2874.38-6172.41c87.06,0,157.64,70.58,157.64,157.64c0,87.06-70.57,157.64-157.64,157.64
				c-87.06,0-157.64-70.57-157.64-157.64C-3032.02-6101.84-2961.44-6172.41-2874.38-6172.41z"/>
		</g>
	</g>
	<g transform="translate(182,392) scale(0.028,0.028)">
		<g transform="">
			<path d="M-3243.84-6172.41c87.06,0,157.64,70.58,157.64,157.64c0,87.06-70.57,157.64-157.64,157.64
				c-87.06,0-157.64-70.57-157.64-157.64C-3401.48-6101.84-3330.9-6172.41-3243.84-6172.41z"/>
		</g>
	</g>
	<g transform="translate(224,392) scale(0.028,0.028)">
		<g transform="">
			<path d="M-3798.03-6172.41c87.06,0,157.64,70.58,157.64,157.64c0,87.06-70.57,157.64-157.64,157.64
				c-87.06,0-157.64-70.57-157.64-157.64C-3955.67-6101.84-3885.09-6172.41-3798.03-6172.41z"/>
		</g>
	</g>
	<g transform="translate(238,392) scale(0.028,0.028)">
		<g transform="">
			<path d="M-3982.76-6172.41c87.06,0,157.64,70.58,157.64,157.64c0,87.06-70.57,157.64-157.64,157.64
				c-87.06,0-157.64-70.57-157.64-157.64C-4140.39-6101.84-4069.82-6172.41-3982.76-6172.41z"/>
		</g>
	</g>
	<g transform="translate(266,392) scale(0.028,0.028)">
		<g transform="">
			<path d="M-4352.22-6172.41c87.06,0,157.64,70.58,157.64,157.64c0,87.06-70.57,157.64-157.64,157.64
				c-87.06,0-157.64-70.57-157.64-157.64C-4509.85-6101.84-4439.28-6172.41-4352.22-6172.41z"/>
		</g>
	</g>
	<g transform="translate(294,392) scale(0.028,0.028)">
		<g transform="">
			<path d="M-4721.67-6172.41c87.06,0,157.64,70.58,157.64,157.64c0,87.06-70.57,157.64-157.64,157.64
				c-87.06,0-157.64-70.57-157.64-157.64C-4879.31-6101.84-4808.73-6172.41-4721.67-6172.41z"/>
		</g>
	</g>
	<g transform="translate(308,392) scale(0.028,0.028)">
		<g transform="">
			<path d="M-4906.4-6172.41c87.06,0,157.64,70.58,157.64,157.64c0,87.06-70.57,157.64-157.64,157.64
				c-87.06,0-157.64-70.57-157.64-157.64C-5064.04-6101.84-4993.46-6172.41-4906.4-6172.41z"/>
		</g>
	</g>
	<g transform="translate(336,392) scale(0.028,0.028)">
		<g transform="">
			<path d="M-5275.86-6172.41c87.06,0,157.64,70.58,157.64,157.64c0,87.06-70.57,157.64-157.64,157.64
				c-87.06,0-157.64-70.57-157.64-157.64C-5433.5-6101.84-5362.92-6172.41-5275.86-6172.41z"/>
		</g>
	</g>
	<g transform="translate(364,392) scale(0.028,0.028)">
		<g transform="">
			<path d="M-5645.32-6172.41c87.06,0,157.64,70.58,157.64,157.64c0,87.06-70.57,157.64-157.64,157.64
				c-87.06,0-157.64-70.57-157.64-157.64C-5802.96-6101.84-5732.38-6172.41-5645.32-6172.41z"/>
		</g>
	</g>
	<g transform="translate(0,0) scale(0.98, 0.98)">
		<g transform="">
			<g>
				<path class="st0" d="M12.96-19.11h-20c-2.57,0-4.96,0.79-6.92,2.14c-1.53,1.05-2.79,2.44-3.69,4.05
					c-0.93,1.68-1.46,3.59-1.46,5.63v20.47c0,6.52,5.41,11.83,12.07,11.83l10,0l10,0c6.66,0,12.07-5.31,12.07-11.83V-7.29
					C25.02-13.8,19.61-19.11,12.96-19.11z"/>
				<path d="M12.96-28.57h-20l0,0c-9.75,0-18,6.44-20.64,15.24c-0.27,0.91-0.49,1.85-0.63,2.8c-0.16,1.06-0.25,2.14-0.25,3.24v20.47
					c0,11.74,9.66,21.29,21.53,21.29l10,0l10,0c11.87,0,21.53-9.55,21.53-21.29V-7.29C34.48-19.02,24.82-28.57,12.96-28.57z
					 M25.02,13.19c0,6.52-5.41,11.83-12.07,11.83l-10,0l-10,0c-6.66,0-12.07-5.31-12.07-11.83V-7.29c0-2.04,0.53-3.96,1.46-5.63
					c0.9-1.61,2.16-3,3.69-4.05c1.96-1.35,4.35-2.14,6.92-2.14h20c6.66,0,12.07,5.3,12.07,11.82V13.19z"/>
			</g>
		</g>
	</g>
	<g transform="translate(308,0) scale(0.98, 0.98)">
		<g transform="">
			<g>
				<path class="st0" d="M-103.16-19.11h-20c-2.57,0-4.96,0.79-6.92,2.14c-1.53,1.05-2.79,2.44-3.69,4.05
					c-0.93,1.68-1.46,3.59-1.46,5.63v20.47c0,6.52,5.41,11.83,12.07,11.83l10,0l10,0c6.66,0,12.07-5.31,12.07-11.83V-7.29
					C-91.09-13.8-96.5-19.11-103.16-19.11z"/>
				<path d="M-103.16-28.57h-20l0,0c-9.75,0-18,6.44-20.64,15.24c-0.27,0.91-0.49,1.85-0.63,2.8c-0.16,1.06-0.25,2.14-0.25,3.24
					v20.47c0,11.74,9.66,21.29,21.53,21.29l10,0l10,0c11.87,0,21.53-9.55,21.53-21.29V-7.29C-81.63-19.02-91.29-28.57-103.16-28.57z
					 M-91.09,13.19c0,6.52-5.41,11.83-12.07,11.83l-10,0l-10,0c-6.66,0-12.07-5.31-12.07-11.83V-7.29c0-2.04,0.53-3.96,1.46-5.63
					c0.9-1.61,2.16-3,3.69-4.05c1.96-1.35,4.35-2.14,6.92-2.14h20c6.66,0,12.07,5.3,12.07,11.82V13.19z"/>
			</g>
		</g>
	</g>
	<g transform="translate(0,308) scale(0.98, 0.98)">
		<g transform="">
			<g>
				<path class="st0" d="M12.96-135.22h-20c-2.57,0-4.96,0.79-6.92,2.14c-1.53,1.05-2.79,2.44-3.69,4.05
					c-0.93,1.68-1.46,3.59-1.46,5.63v20.47c0,6.52,5.41,11.83,12.07,11.83l10,0l10,0c6.66,0,12.07-5.31,12.07-11.83v-20.47
					C25.02-129.92,19.61-135.22,12.96-135.22z"/>
				<path d="M12.96-144.68h-20l0,0c-9.75,0-18,6.44-20.64,15.24c-0.27,0.91-0.49,1.85-0.63,2.8c-0.16,1.06-0.25,2.14-0.25,3.24
					v20.47c0,11.74,9.66,21.29,21.53,21.29l10,0l10,0c11.87,0,21.53-9.55,21.53-21.29v-20.47
					C34.48-135.14,24.82-144.68,12.96-144.68z M25.02-102.93c0,6.52-5.41,11.83-12.07,11.83l-10,0l-10,0
					c-6.66,0-12.07-5.31-12.07-11.83v-20.47c0-2.04,0.53-3.96,1.46-5.63c0.9-1.61,2.16-3,3.69-4.05c1.96-1.35,4.35-2.14,6.92-2.14
					h20c6.66,0,12.07,5.3,12.07,11.82V-102.93z"/>
			</g>
		</g>
	</g>
	<g transform="translate(28,28) scale(0.41176470588235, 0.41176470588235)">
		<g transform="">
			<circle cx="-61.6" cy="-61.6" r="31.53"/>
		</g>
	</g>
	<g transform="translate(336,28) scale(0.41176470588235, 0.41176470588235)">
		<g transform="">
			<circle cx="-337.95" cy="-61.6" r="31.53"/>
		</g>
	</g>
	<g transform="translate(28,336) scale(0.41176470588235, 0.41176470588235)">
		<g transform="">
			<circle cx="-61.6" cy="-337.95" r="31.53"/>
		</g>
	</g>
	<g id="Artboard">
		<circle id="Oval" class="st1" cx="100" cy="100.19" r="39.54"/>
		<path id="Path-3" class="st2" d="M78.34,99.76c11.52-5,19.19-8.33,23.04-9.94c10.96-4.58,13.27-5.37,14.75-5.4
			c0.33,0,1.05,0.07,1.55,0.46c0.4,0.33,0.49,0.76,0.56,1.09c0.07,0.33,0.13,1.02,0.07,1.55c-0.59,6.25-3.16,21.43-4.48,28.41
			c-0.56,2.96-1.65,3.95-2.7,4.05c-2.3,0.2-4.05-1.51-6.25-2.96c-3.49-2.27-5.43-3.69-8.82-5.93c-3.92-2.57-1.38-3.98,0.86-6.29
			c0.59-0.59,10.7-9.81,10.9-10.63c0.03-0.1,0.03-0.49-0.2-0.69s-0.56-0.13-0.82-0.07c-0.36,0.07-5.89,3.75-16.66,11.03
			c-1.58,1.09-3,1.61-4.28,1.58c-1.42-0.03-4.12-0.79-6.16-1.45c-2.47-0.79-4.44-1.22-4.28-2.6
			C75.51,101.24,76.49,100.52,78.34,99.76z"/>
	</g>
</g>
</svg>
