<?xml version="1.0" encoding="utf-8"?>
<!-- Generator: Adobe Illustrator 26.1.0, SVG Export Plug-In . SVG Version: 6.00 Build 0)  -->
<svg version="1.1" id="Слой_1" xmlns="http://www.w3.org/2000/svg" xmlns:xlink="http://www.w3.org/1999/xlink" x="0px" y="0px"
	 viewBox="0 0 256 256" style="enable-background:new 0 0 256 256;" xml:space="preserve">
<style type="text/css">
	.st0{fill:none;}
	.st1{fill-rule:evenodd;clip-rule:evenodd;fill:#FFFFFF;}
</style>
<g transform="translate(14,14)">
	<g transform="translate(70,0) scale(0.014,0.014)">
		<g transform="">
			<path d="M-181.8-1017.9c153,0,277.1,124,277.1,277.1c0,153-124,277.1-277.1,277.1c-153,0-277.1-124-277.1-277.1
				C-458.9-893.8-334.8-1017.9-181.8-1017.9z"/>
		</g>
	</g>
	<g transform="translate(84,0) scale(0.014,0.014)">
		<g transform="">
			<path d="M-73.6-1017.9c153,0,277.1,124,277.1,277.1c0,153-124,277.1-277.1,277.1c-153,0-277.1-124-277.1-277.1
				C-350.6-893.8-226.6-1017.9-73.6-1017.9z"/>
		</g>
	</g>
	<g transform="translate(91,0) scale(0.014,0.014)">
		<g transform="">
			<path d="M-19.5-1017.9c153,0,277.1,124,277.1,277.1c0,153-124,277.1-277.1,277.1c-153,0-277.1-124-277.1-277.1
				C-296.5-893.8-172.5-1017.9-19.5-1017.9z"/>
		</g>
	</g>
	<g transform="translate(112,0) scale(0.014,0.014)">
		<g transform="">
			<path d="M142.9-1017.9c153,0,277.1,124,277.1,277.1c0,153-124,277.1-277.1,277.1c-153,0-277.1-124-277.1-277.1
				C-134.2-893.8-10.2-1017.9,142.9-1017.9z"/>
		</g>
	</g>
	<g transform="translate(119,0) scale(0.014,0.014)">
		<g transform="">
			<path d="M197-1017.9c153,0,277.1,124,277.1,277.1c0,153-124,277.1-277.1,277.1c-153,0-277.1-124-277.1-277.1
				C-80.1-893.8,44-1017.9,197-1017.9z"/>
		</g>
	</g>
	<g transform="translate(140,0) scale(0.014,0.014)">
		<g transform="">
			<path d="M359.3-1017.9c153,0,277.1,124,277.1,277.1c0,153-124,277.1-277.1,277.1c-153,0-277.1-124-277.1-277.1
				C82.3-893.8,206.3-1017.9,359.3-1017.9z"/>
		</g>
	</g>
	<g transform="translate(161,0) scale(0.014,0.014)">
		<g transform="">
			<path d="M521.6-1017.9c153,0,277.1,124,277.1,277.1c0,153-124,277.1-277.1,277.1c-153,0-277.1-124-277.1-277.1
				C244.6-893.8,368.6-1017.9,521.6-1017.9z"/>
		</g>
	</g>
	<g transform="translate(168,0) scale(0.014,0.014)">
		<g transform="">
			<path d="M575.8-1017.9c153,0,277.1,124,277.1,277.1c0,153-124,277.1-277.1,277.1c-153,0-277.1-124-277.1-277.1
				C298.7-893.8,422.7-1017.9,575.8-1017.9z"/>
		</g>
	</g>
	<g transform="translate(70,7) scale(0.014,0.014)">
		<g transform="">
			<path d="M-181.8-963.7c153,0,277.1,124,277.1,277.1c0,153-124,277.1-277.1,277.1c-153,0-277.1-124-277.1-277.1
				C-458.9-839.7-334.8-963.7-181.8-963.7z"/>
		</g>
	</g>
	<g transform="translate(77,7) scale(0.014,0.014)">
		<g transform="">
			<path d="M-127.7-963.7c153,0,277.1,124,277.1,277.1c0,153-124,277.1-277.1,277.1c-153,0-277.1-124-277.1-277.1
				C-404.8-839.7-280.7-963.7-127.7-963.7z"/>
		</g>
	</g>
	<g transform="translate(112,7) scale(0.014,0.014)">
		<g transform="">
			<path d="M142.9-963.7c153,0,277.1,124,277.1,277.1c0,153-124,277.1-277.1,277.1c-153,0-277.1-124-277.1-277.1
				C-134.2-839.7-10.2-963.7,142.9-963.7z"/>
		</g>
	</g>
	<g transform="translate(119,7) scale(0.014,0.014)">
		<g transform="">
			<path d="M197-963.7c153,0,277.1,124,277.1,277.1c0,153-124,277.1-277.1,277.1c-153,0-277.1-124-277.1-277.1
				C-80.1-839.7,44-963.7,197-963.7z"/>
		</g>
	</g>
	<g transform="translate(133,7) scale(0.014,0.014)">
		<g transform="">
			<path d="M305.2-963.7c153,0,277.1,124,277.1,277.1c0,153-124,277.1-277.1,277.1c-153,0-277.1-124-277.1-277.1
				C28.1-839.7,152.2-963.7,305.2-963.7z"/>
		</g>
	</g>
	<g transform="translate(140,7) scale(0.014,0.014)">
		<g transform="">
			<path d="M359.3-963.7c153,0,277.1,124,277.1,277.1c0,153-124,277.1-277.1,277.1c-153,0-277.1-124-277.1-277.1
				C82.3-839.7,206.3-963.7,359.3-963.7z"/>
		</g>
	</g>
	<g transform="translate(147,7) scale(0.014,0.014)">
		<g transform="">
			<path d="M413.4-963.7c153,0,277.1,124,277.1,277.1c0,153-124,277.1-277.1,277.1c-153,0-277.1-124-277.1-277.1
				C136.4-839.7,260.4-963.7,413.4-963.7z"/>
		</g>
	</g>
	<g transform="translate(154,7) scale(0.014,0.014)">
		<g transform="">
			<path d="M467.5-963.7c153,0,277.1,124,277.1,277.1c0,153-124,277.1-277.1,277.1c-153,0-277.1-124-277.1-277.1
				C190.5-839.7,314.5-963.7,467.5-963.7z"/>
		</g>
	</g>
	<g transform="translate(161,7) scale(0.014,0.014)">
		<g transform="">
			<path d="M521.6-963.7c153,0,277.1,124,277.1,277.1c0,153-124,277.1-277.1,277.1c-153,0-277.1-124-277.1-277.1
				C244.6-839.7,368.6-963.7,521.6-963.7z"/>
		</g>
	</g>
	<g transform="translate(63,14) scale(0.014,0.014)">
		<g transform="">
			<path d="M-235.9-909.6c153,0,277.1,124,277.1,277.1c0,153-124,277.1-277.1,277.1c-153,0-277.1-124-277.1-277.1
				C-513-785.6-388.9-909.6-235.9-909.6z"/>
		</g>
	</g>
	<g transform="translate(70,14) scale(0.014,0.014)">
		<g transform="">
			<path d="M-181.8-909.6c153,0,277.1,124,277.1,277.1c0,153-124,277.1-277.1,277.1c-153,0-277.1-124-277.1-277.1
				C-458.9-785.6-334.8-909.6-181.8-909.6z"/>
		</g>
	</g>
	<g transform="translate(77,14) scale(0.014,0.014)">
		<g transform="">
			<path d="M-127.7-909.6c153,0,277.1,124,277.1,277.1c0,153-124,277.1-277.1,277.1c-153,0-277.1-124-277.1-277.1
				C-404.8-785.6-280.7-909.6-127.7-909.6z"/>
		</g>
	</g>
	<g transform="translate(112,14) scale(0.014,0.014)">
		<g transform="">
			<path d="M142.9-909.6c153,0,277.1,124,277.1,277.1c0,153-124,277.1-277.1,277.1c-153,0-277.1-124-277.1-277.1
				C-134.2-785.6-10.2-909.6,142.9-909.6z"/>
		</g>
	</g>
	<g transform="translate(126,14) scale(0.014,0.014)">
		<g transform="">
			<path d="M251.1-909.6c153,0,277.1,124,277.1,277.1c0,153-124,277.1-277.1,277.1c-153,0-277.1-124-277.1-277.1
				C-26-785.6,98.1-909.6,251.1-909.6z"/>
		</g>
	</g>
	<g transform="translate(133,14) scale(0.014,0.014)">
		<g transform="">
			<path d="M305.2-909.6c153,0,277.1,124,277.1,277.1c0,153-124,277.1-277.1,277.1c-153,0-277.1-124-277.1-277.1
				C28.1-785.6,152.2-909.6,305.2-909.6z"/>
		</g>
	</g>
	<g transform="translate(140,14) scale(0.014,0.014)">
		<g transform="">
			<path d="M359.3-909.6c153,0,277.1,124,277.1,277.1c0,153-124,277.1-277.1,277.1c-153,0-277.1-124-277.1-277.1
				C82.3-785.6,206.3-909.6,359.3-909.6z"/>
		</g>
	</g>
	<g transform="translate(161,14) scale(0.014,0.014)">
		<g transform="">
			<path d="M521.6-909.6c153,0,277.1,124,277.1,277.1c0,153-124,277.1-277.1,277.1c-153,0-277.1-124-277.1-277.1
				C244.6-785.6,368.6-909.6,521.6-909.6z"/>
		</g>
	</g>
	<g transform="translate(63,21) scale(0.014,0.014)">
		<g transform="">
			<path d="M-235.9-855.5c153,0,277.1,124,277.1,277.1c0,153-124,277.1-277.1,277.1c-153,0-277.1-124-277.1-277.1
				C-513-731.5-388.9-855.5-235.9-855.5z"/>
		</g>
	</g>
	<g transform="translate(105,21) scale(0.014,0.014)">
		<g transform="">
			<path d="M88.7-855.5c153,0,277.1,124,277.1,277.1c0,153-124,277.1-277.1,277.1c-153,0-277.1-124-277.1-277.1
				C-188.3-731.5-64.3-855.5,88.7-855.5z"/>
		</g>
	</g>
	<g transform="translate(112,21) scale(0.014,0.014)">
		<g transform="">
			<path d="M142.9-855.5c153,0,277.1,124,277.1,277.1c0,153-124,277.1-277.1,277.1c-153,0-277.1-124-277.1-277.1
				C-134.2-731.5-10.2-855.5,142.9-855.5z"/>
		</g>
	</g>
	<g transform="translate(126,21) scale(0.014,0.014)">
		<g transform="">
			<path d="M251.1-855.5c153,0,277.1,124,277.1,277.1c0,153-124,277.1-277.1,277.1c-153,0-277.1-124-277.1-277.1
				C-26-731.5,98.1-855.5,251.1-855.5z"/>
		</g>
	</g>
	<g transform="translate(154,21) scale(0.014,0.014)">
		<g transform="">
			<path d="M467.5-855.5c153,0,277.1,124,277.1,277.1c0,153-124,277.1-277.1,277.1c-153,0-277.1-124-277.1-277.1
				C190.5-731.5,314.5-855.5,467.5-855.5z"/>
		</g>
	</g>
	<g transform="translate(161,21) scale(0.014,0.014)">
		<g transform="">
			<path d="M521.6-855.5c153,0,277.1,124,277.1,277.1c0,153-124,277.1-277.1,277.1c-153,0-277.1-124-277.1-277.1
				C244.6-731.5,368.6-855.5,521.6-855.5z"/>
		</g>
	</g>
	<g transform="translate(56,28) scale(0.014,0.014)">
		<g transform="">
			<path d="M-290-801.4c153,0,277.1,124,277.1,277.1c0,153-124,277.1-277.1,277.1c-153,0-277.1-124-277.1-277.1
				C-567.1-677.4-443.1-801.4-290-801.4z"/>
		</g>
	</g>
	<g transform="translate(63,28) scale(0.014,0.014)">
		<g transform="">
			<path d="M-235.9-801.4c153,0,277.1,124,277.1,277.1c0,153-124,277.1-277.1,277.1c-153,0-277.1-124-277.1-277.1
				C-513-677.4-388.9-801.4-235.9-801.4z"/>
		</g>
	</g>
	<g transform="translate(70,28) scale(0.014,0.014)">
		<g transform="">
			<path d="M-181.8-801.4c153,0,277.1,124,277.1,277.1c0,153-124,277.1-277.1,277.1c-153,0-277.1-124-277.1-277.1
				C-458.9-677.4-334.8-801.4-181.8-801.4z"/>
		</g>
	</g>
	<g transform="translate(84,28) scale(0.014,0.014)">
		<g transform="">
			<path d="M-73.6-801.4c153,0,277.1,124,277.1,277.1c0,153-124,277.1-277.1,277.1c-153,0-277.1-124-277.1-277.1
				C-350.6-677.4-226.6-801.4-73.6-801.4z"/>
		</g>
	</g>
	<g transform="translate(126,28) scale(0.014,0.014)">
		<g transform="">
			<path d="M251.1-801.4c153,0,277.1,124,277.1,277.1c0,153-124,277.1-277.1,277.1c-153,0-277.1-124-277.1-277.1
				C-26-677.4,98.1-801.4,251.1-801.4z"/>
		</g>
	</g>
	<g transform="translate(133,28) scale(0.014,0.014)">
		<g transform="">
			<path d="M305.2-801.4c153,0,277.1,124,277.1,277.1c0,153-124,277.1-277.1,277.1c-153,0-277.1-124-277.1-277.1
				C28.1-677.4,152.2-801.4,305.2-801.4z"/>
		</g>
	</g>
	<g transform="translate(140,28) scale(0.014,0.014)">
		<g transform="">
			<path d="M359.3-801.4c153,0,277.1,124,277.1,277.1c0,153-124,277.1-277.1,277.1c-153,0-277.1-124-277.1-277.1
				C82.3-677.4,206.3-801.4,359.3-801.4z"/>
		</g>
	</g>
	<g transform="translate(161,28) scale(0.014,0.014)">
		<g transform="">
			<path d="M521.6-801.4c153,0,277.1,124,277.1,277.1c0,153-124,277.1-277.1,277.1c-153,0-277.1-124-277.1-277.1
				C244.6-677.4,368.6-801.4,521.6-801.4z"/>
		</g>
	</g>
	<g transform="translate(84,35) scale(0.014,0.014)">
		<g transform="">
			<path d="M-73.6-747.3c153,0,277.1,124,277.1,277.1c0,153-124,277.1-277.1,277.1c-153,0-277.1-124-277.1-277.1
				C-350.6-623.3-226.6-747.3-73.6-747.3z"/>
		</g>
	</g>
	<g transform="translate(105,35) scale(0.014,0.014)">
		<g transform="">
			<path d="M88.7-747.3c153,0,277.1,124,277.1,277.1c0,153-124,277.1-277.1,277.1c-153,0-277.1-124-277.1-277.1
				C-188.3-623.3-64.3-747.3,88.7-747.3z"/>
		</g>
	</g>
	<g transform="translate(119,35) scale(0.014,0.014)">
		<g transform="">
			<path d="M197-747.3c153,0,277.1,124,277.1,277.1c0,153-124,277.1-277.1,277.1c-153,0-277.1-124-277.1-277.1
				C-80.1-623.3,44-747.3,197-747.3z"/>
		</g>
	</g>
	<g transform="translate(154,35) scale(0.014,0.014)">
		<g transform="">
			<path d="M467.5-747.3c153,0,277.1,124,277.1,277.1c0,153-124,277.1-277.1,277.1c-153,0-277.1-124-277.1-277.1
				C190.5-623.3,314.5-747.3,467.5-747.3z"/>
		</g>
	</g>
	<g transform="translate(168,35) scale(0.014,0.014)">
		<g transform="">
			<path d="M575.8-747.3c153,0,277.1,124,277.1,277.1c0,153-124,277.1-277.1,277.1c-153,0-277.1-124-277.1-277.1
				C298.7-623.3,422.7-747.3,575.8-747.3z"/>
		</g>
	</g>
	<g transform="translate(56,42) scale(0.014,0.014)">
		<g transform="">
			<path d="M-290-693.2c153,0,277.1,124,277.1,277.1c0,153-124,277.1-277.1,277.1c-153,0-277.1-124-277.1-277.1
				C-567.1-569.1-443.1-693.2-290-693.2z"/>
		</g>
	</g>
	<g transform="translate(70,42) scale(0.014,0.014)">
		<g transform="">
			<path d="M-181.8-693.2c153,0,277.1,124,277.1,277.1c0,153-124,277.1-277.1,277.1c-153,0-277.1-124-277.1-277.1
				C-458.9-569.1-334.8-693.2-181.8-693.2z"/>
		</g>
	</g>
	<g transform="translate(84,42) scale(0.014,0.014)">
		<g transform="">
			<path d="M-73.6-693.2c153,0,277.1,124,277.1,277.1c0,153-124,277.1-277.1,277.1c-153,0-277.1-124-277.1-277.1
				C-350.6-569.1-226.6-693.2-73.6-693.2z"/>
		</g>
	</g>
	<g transform="translate(98,42) scale(0.014,0.014)">
		<g transform="">
			<path d="M34.6-693.2c153,0,277.1,124,277.1,277.1c0,153-124,277.1-277.1,277.1c-153,0-277.1-124-277.1-277.1
				C-242.4-569.1-118.4-693.2,34.6-693.2z"/>
		</g>
	</g>
	<g transform="translate(112,42) scale(0.014,0.014)">
		<g transform="">
			<path d="M142.9-693.2c153,0,277.1,124,277.1,277.1c0,153-124,277.1-277.1,277.1c-153,0-277.1-124-277.1-277.1
				C-134.2-569.1-10.2-693.2,142.9-693.2z"/>
		</g>
	</g>
	<g transform="translate(126,42) scale(0.014,0.014)">
		<g transform="">
			<path d="M251.1-693.2c153,0,277.1,124,277.1,277.1c0,153-124,277.1-277.1,277.1c-153,0-277.1-124-277.1-277.1
				C-26-569.1,98.1-693.2,251.1-693.2z"/>
		</g>
	</g>
	<g transform="translate(140,42) scale(0.014,0.014)">
		<g transform="">
			<path d="M359.3-693.2c153,0,277.1,124,277.1,277.1c0,153-124,277.1-277.1,277.1c-153,0-277.1-124-277.1-277.1
				C82.3-569.1,206.3-693.2,359.3-693.2z"/>
		</g>
	</g>
	<g transform="translate(154,42) scale(0.014,0.014)">
		<g transform="">
			<path d="M467.5-693.2c153,0,277.1,124,277.1,277.1c0,153-124,277.1-277.1,277.1c-153,0-277.1-124-277.1-277.1
				C190.5-569.1,314.5-693.2,467.5-693.2z"/>
		</g>
	</g>
	<g transform="translate(168,42) scale(0.014,0.014)">
		<g transform="">
			<path d="M575.8-693.2c153,0,277.1,124,277.1,277.1c0,153-124,277.1-277.1,277.1c-153,0-277.1-124-277.1-277.1
				C298.7-569.1,422.7-693.2,575.8-693.2z"/>
		</g>
	</g>
	<g transform="translate(56,49) scale(0.014,0.014)">
		<g transform="">
			<path d="M-290-639.1C-137-639.1-13-515-13-362C-13-209-137-85-290-85c-153,0-277.1-124-277.1-277.1
				C-567.1-515-443.1-639.1-290-639.1z"/>
		</g>
	</g>
	<g transform="translate(77,49) scale(0.014,0.014)">
		<g transform="">
			<path d="M-127.7-639.1c153,0,277.1,124,277.1,277.1C149.4-209,25.3-85-127.7-85c-153,0-277.1-124-277.1-277.1
				C-404.8-515-280.7-639.1-127.7-639.1z"/>
		</g>
	</g>
	<g transform="translate(84,49) scale(0.014,0.014)">
		<g transform="">
			<path d="M-73.6-639.1c153,0,277.1,124,277.1,277.1C203.5-209,79.4-85-73.6-85c-153,0-277.1-124-277.1-277.1
				C-350.6-515-226.6-639.1-73.6-639.1z"/>
		</g>
	</g>
	<g transform="translate(91,49) scale(0.014,0.014)">
		<g transform="">
			<path d="M-19.5-639.1c153,0,277.1,124,277.1,277.1C257.6-209,133.5-85-19.5-85c-153,0-277.1-124-277.1-277.1
				C-296.5-515-172.5-639.1-19.5-639.1z"/>
		</g>
	</g>
	<g transform="translate(98,49) scale(0.014,0.014)">
		<g transform="">
			<path d="M34.6-639.1c153,0,277.1,124,277.1,277.1C311.7-209,187.7-85,34.6-85c-153,0-277.1-124-277.1-277.1
				C-242.4-515-118.4-639.1,34.6-639.1z"/>
		</g>
	</g>
	<g transform="translate(133,49) scale(0.014,0.014)">
		<g transform="">
			<path d="M305.2-639.1c153,0,277.1,124,277.1,277.1c0,153-124,277.1-277.1,277.1C152.2-85,28.1-209,28.1-362
				C28.1-515,152.2-639.1,305.2-639.1z"/>
		</g>
	</g>
	<g transform="translate(154,49) scale(0.014,0.014)">
		<g transform="">
			<path d="M467.5-639.1c153,0,277.1,124,277.1,277.1c0,153-124,277.1-277.1,277.1c-153,0-277.1-124-277.1-277.1
				C190.5-515,314.5-639.1,467.5-639.1z"/>
		</g>
	</g>
	<g transform="translate(161,49) scale(0.014,0.014)">
		<g transform="">
			<path d="M521.6-639.1c153,0,277.1,124,277.1,277.1c0,153-124,277.1-277.1,277.1c-153,0-277.1-124-277.1-277.1
				C244.6-515,368.6-639.1,521.6-639.1z"/>
		</g>
	</g>
	<g transform="translate(14,56) scale(0.014,0.014)">
		<g transform="">
			<path d="M-614.7-585c153,0,277.1,124,277.1,277.1c0,153-124,277.1-277.1,277.1c-153,0-277.1-124-277.1-277.1
				C-891.8-460.9-767.7-585-614.7-585z"/>
		</g>
	</g>
	<g transform="translate(21,56) scale(0.014,0.014)">
		<g transform="">
			<path d="M-560.6-585c153,0,277.1,124,277.1,277.1c0,153-124,277.1-277.1,277.1c-153,0-277.1-124-277.1-277.1
				C-837.7-460.9-713.6-585-560.6-585z"/>
		</g>
	</g>
	<g transform="translate(42,56) scale(0.014,0.014)">
		<g transform="">
			<path d="M-398.3-585c153,0,277.1,124,277.1,277.1c0,153-124,277.1-277.1,277.1c-153,0-277.1-124-277.1-277.1
				C-675.3-460.9-551.3-585-398.3-585z"/>
		</g>
	</g>
	<g transform="translate(49,56) scale(0.014,0.014)">
		<g transform="">
			<path d="M-344.2-585c153,0,277.1,124,277.1,277.1c0,153-124,277.1-277.1,277.1c-153,0-277.1-124-277.1-277.1
				C-621.2-460.9-497.2-585-344.2-585z"/>
		</g>
	</g>
	<g transform="translate(56,56) scale(0.014,0.014)">
		<g transform="">
			<path d="M-290-585C-137-585-13-460.9-13-307.9c0,153-124,277.1-277.1,277.1c-153,0-277.1-124-277.1-277.1
				C-567.1-460.9-443.1-585-290-585z"/>
		</g>
	</g>
	<g transform="translate(63,56) scale(0.014,0.014)">
		<g transform="">
			<path d="M-235.9-585c153,0,277.1,124,277.1,277.1c0,153-124,277.1-277.1,277.1c-153,0-277.1-124-277.1-277.1
				C-513-460.9-388.9-585-235.9-585z"/>
		</g>
	</g>
	<g transform="translate(77,56) scale(0.014,0.014)">
		<g transform="">
			<path d="M-127.7-585c153,0,277.1,124,277.1,277.1c0,153-124,277.1-277.1,277.1c-153,0-277.1-124-277.1-277.1
				C-404.8-460.9-280.7-585-127.7-585z"/>
		</g>
	</g>
	<g transform="translate(98,56) scale(0.014,0.014)">
		<g transform="">
			<path d="M34.6-585c153,0,277.1,124,277.1,277.1c0,153-124,277.1-277.1,277.1c-153,0-277.1-124-277.1-277.1
				C-242.4-460.9-118.4-585,34.6-585z"/>
		</g>
	</g>
	<g transform="translate(105,56) scale(0.014,0.014)">
		<g transform="">
			<path d="M88.7-585c153,0,277.1,124,277.1,277.1c0,153-124,277.1-277.1,277.1c-153,0-277.1-124-277.1-277.1
				C-188.3-460.9-64.3-585,88.7-585z"/>
		</g>
	</g>
	<g transform="translate(119,56) scale(0.014,0.014)">
		<g transform="">
			<path d="M197-585c153,0,277.1,124,277.1,277.1c0,153-124,277.1-277.1,277.1c-153,0-277.1-124-277.1-277.1
				C-80.1-460.9,44-585,197-585z"/>
		</g>
	</g>
	<g transform="translate(126,56) scale(0.014,0.014)">
		<g transform="">
			<path d="M251.1-585c153,0,277.1,124,277.1,277.1c0,153-124,277.1-277.1,277.1C98.1-30.8-26-154.9-26-307.9
				C-26-460.9,98.1-585,251.1-585z"/>
		</g>
	</g>
	<g transform="translate(140,56) scale(0.014,0.014)">
		<g transform="">
			<path d="M359.3-585c153,0,277.1,124,277.1,277.1c0,153-124,277.1-277.1,277.1c-153,0-277.1-124-277.1-277.1
				C82.3-460.9,206.3-585,359.3-585z"/>
		</g>
	</g>
	<g transform="translate(147,56) scale(0.014,0.014)">
		<g transform="">
			<path d="M413.4-585c153,0,277.1,124,277.1,277.1c0,153-124,277.1-277.1,277.1c-153,0-277.1-124-277.1-277.1
				C136.4-460.9,260.4-585,413.4-585z"/>
		</g>
	</g>
	<g transform="translate(175,56) scale(0.014,0.014)">
		<g transform="">
			<path d="M629.9-585c153,0,277.1,124,277.1,277.1c0,153-124,277.1-277.1,277.1c-153,0-277.1-124-277.1-277.1
				C352.8-460.9,476.9-585,629.9-585z"/>
		</g>
	</g>
	<g transform="translate(182,56) scale(0.014,0.014)">
		<g transform="">
			<path d="M684-585c153,0,277.1,124,277.1,277.1c0,153-124,277.1-277.1,277.1c-153,0-277.1-124-277.1-277.1
				C406.9-460.9,531-585,684-585z"/>
		</g>
	</g>
	<g transform="translate(196,56) scale(0.014,0.014)">
		<g transform="">
			<path d="M792.2-585c153,0,277.1,124,277.1,277.1c0,153-124,277.1-277.1,277.1c-153,0-277.1-124-277.1-277.1
				C515.2-460.9,639.2-585,792.2-585z"/>
		</g>
	</g>
	<g transform="translate(0,63) scale(0.014,0.014)">
		<g transform="">
			<path d="M-722.9-530.8c153,0,277.1,124,277.1,277.1c0,153-124,277.1-277.1,277.1c-153,0-277.1-124-277.1-277.1
				C-1000-406.8-876-530.8-722.9-530.8z"/>
		</g>
	</g>
	<g transform="translate(14,63) scale(0.014,0.014)">
		<g transform="">
			<path d="M-614.7-530.8c153,0,277.1,124,277.1,277.1c0,153-124,277.1-277.1,277.1c-153,0-277.1-124-277.1-277.1
				C-891.8-406.8-767.7-530.8-614.7-530.8z"/>
		</g>
	</g>
	<g transform="translate(21,63) scale(0.014,0.014)">
		<g transform="">
			<path d="M-560.6-530.8c153,0,277.1,124,277.1,277.1c0,153-124,277.1-277.1,277.1c-153,0-277.1-124-277.1-277.1
				C-837.7-406.8-713.6-530.8-560.6-530.8z"/>
		</g>
	</g>
	<g transform="translate(28,63) scale(0.014,0.014)">
		<g transform="">
			<path d="M-506.5-530.8c153,0,277.1,124,277.1,277.1c0,153-124,277.1-277.1,277.1c-153,0-277.1-124-277.1-277.1
				C-783.5-406.8-659.5-530.8-506.5-530.8z"/>
		</g>
	</g>
	<g transform="translate(35,63) scale(0.014,0.014)">
		<g transform="">
			<path d="M-452.4-530.8c153,0,277.1,124,277.1,277.1c0,153-124,277.1-277.1,277.1c-153,0-277.1-124-277.1-277.1
				C-729.4-406.8-605.4-530.8-452.4-530.8z"/>
		</g>
	</g>
	<g transform="translate(84,63) scale(0.014,0.014)">
		<g transform="">
			<path d="M-73.6-530.8c153,0,277.1,124,277.1,277.1c0,153-124,277.1-277.1,277.1c-153,0-277.1-124-277.1-277.1
				C-350.6-406.8-226.6-530.8-73.6-530.8z"/>
		</g>
	</g>
	<g transform="translate(91,63) scale(0.014,0.014)">
		<g transform="">
			<path d="M-19.5-530.8c153,0,277.1,124,277.1,277.1c0,153-124,277.1-277.1,277.1c-153,0-277.1-124-277.1-277.1
				C-296.5-406.8-172.5-530.8-19.5-530.8z"/>
		</g>
	</g>
	<g transform="translate(112,63) scale(0.014,0.014)">
		<g transform="">
			<path d="M142.9-530.8c153,0,277.1,124,277.1,277.1c0,153-124,277.1-277.1,277.1c-153,0-277.1-124-277.1-277.1
				C-134.2-406.8-10.2-530.8,142.9-530.8z"/>
		</g>
	</g>
	<g transform="translate(119,63) scale(0.014,0.014)">
		<g transform="">
			<path d="M197-530.8c153,0,277.1,124,277.1,277.1c0,153-124,277.1-277.1,277.1c-153,0-277.1-124-277.1-277.1
				C-80.1-406.8,44-530.8,197-530.8z"/>
		</g>
	</g>
	<g transform="translate(140,63) scale(0.014,0.014)">
		<g transform="">
			<path d="M359.3-530.8c153,0,277.1,124,277.1,277.1c0,153-124,277.1-277.1,277.1c-153,0-277.1-124-277.1-277.1
				C82.3-406.8,206.3-530.8,359.3-530.8z"/>
		</g>
	</g>
	<g transform="translate(161,63) scale(0.014,0.014)">
		<g transform="">
			<path d="M521.6-530.8c153,0,277.1,124,277.1,277.1c0,153-124,277.1-277.1,277.1c-153,0-277.1-124-277.1-277.1
				C244.6-406.8,368.6-530.8,521.6-530.8z"/>
		</g>
	</g>
	<g transform="translate(175,63) scale(0.014,0.014)">
		<g transform="">
			<path d="M629.9-530.8c153,0,277.1,124,277.1,277.1c0,153-124,277.1-277.1,277.1c-153,0-277.1-124-277.1-277.1
				C352.8-406.8,476.9-530.8,629.9-530.8z"/>
		</g>
	</g>
	<g transform="translate(182,63) scale(0.014,0.014)">
		<g transform="">
			<path d="M684-530.8c153,0,277.1,124,277.1,277.1c0,153-124,277.1-277.1,277.1c-153,0-277.1-124-277.1-277.1
				C406.9-406.8,531-530.8,684-530.8z"/>
		</g>
	</g>
	<g transform="translate(210,63) scale(0.014,0.014)">
		<g transform="">
			<path d="M900.4-530.8c153,0,277.1,124,277.1,277.1c0,153-124,277.1-277.1,277.1c-153,0-277.1-124-277.1-277.1
				C623.4-406.8,747.4-530.8,900.4-530.8z"/>
		</g>
	</g>
	<g transform="translate(224,63) scale(0.014,0.014)">
		<g transform="">
			<path d="M1008.7-530.8c153,0,277.1,124,277.1,277.1c0,153-124,277.1-277.1,277.1c-153,0-277.1-124-277.1-277.1
				C731.6-406.8,855.6-530.8,1008.7-530.8z"/>
		</g>
	</g>
	<g transform="translate(0,70) scale(0.014,0.014)">
		<g transform="">
			<path d="M-722.9-476.7c153,0,277.1,124,277.1,277.1c0,153-124,277.1-277.1,277.1c-153,0-277.1-124-277.1-277.1
				C-1000-352.7-876-476.7-722.9-476.7z"/>
		</g>
	</g>
	<g transform="translate(7,70) scale(0.014,0.014)">
		<g transform="">
			<path d="M-668.8-476.7c153,0,277.1,124,277.1,277.1c0,153-124,277.1-277.1,277.1c-153,0-277.1-124-277.1-277.1
				C-945.9-352.7-821.8-476.7-668.8-476.7z"/>
		</g>
	</g>
	<g transform="translate(14,70) scale(0.014,0.014)">
		<g transform="">
			<path d="M-614.7-476.7c153,0,277.1,124,277.1,277.1c0,153-124,277.1-277.1,277.1c-153,0-277.1-124-277.1-277.1
				C-891.8-352.7-767.7-476.7-614.7-476.7z"/>
		</g>
	</g>
	<g transform="translate(42,70) scale(0.014,0.014)">
		<g transform="">
			<path d="M-398.3-476.7c153,0,277.1,124,277.1,277.1c0,153-124,277.1-277.1,277.1c-153,0-277.1-124-277.1-277.1
				C-675.3-352.7-551.3-476.7-398.3-476.7z"/>
		</g>
	</g>
	<g transform="translate(49,70) scale(0.014,0.014)">
		<g transform="">
			<path d="M-344.2-476.7c153,0,277.1,124,277.1,277.1c0,153-124,277.1-277.1,277.1c-153,0-277.1-124-277.1-277.1
				C-621.2-352.7-497.2-476.7-344.2-476.7z"/>
		</g>
	</g>
	<g transform="translate(63,70) scale(0.014,0.014)">
		<g transform="">
			<path d="M-235.9-476.7c153,0,277.1,124,277.1,277.1c0,153-124,277.1-277.1,277.1c-153,0-277.1-124-277.1-277.1
				C-513-352.7-388.9-476.7-235.9-476.7z"/>
		</g>
	</g>
	<g transform="translate(77,70) scale(0.014,0.014)">
		<g transform="">
			<path d="M-127.7-476.7c153,0,277.1,124,277.1,277.1c0,153-124,277.1-277.1,277.1c-153,0-277.1-124-277.1-277.1
				C-404.8-352.7-280.7-476.7-127.7-476.7z"/>
		</g>
	</g>
	<g transform="translate(91,70) scale(0.014,0.014)">
		<g transform="">
			<path d="M-19.5-476.7c153,0,277.1,124,277.1,277.1c0,153-124,277.1-277.1,277.1c-153,0-277.1-124-277.1-277.1
				C-296.5-352.7-172.5-476.7-19.5-476.7z"/>
		</g>
	</g>
	<g transform="translate(105,70) scale(0.014,0.014)">
		<g transform="">
			<path d="M88.7-476.7c153,0,277.1,124,277.1,277.1c0,153-124,277.1-277.1,277.1c-153,0-277.1-124-277.1-277.1
				C-188.3-352.7-64.3-476.7,88.7-476.7z"/>
		</g>
	</g>
	<g transform="translate(112,70) scale(0.014,0.014)">
		<g transform="">
			<path d="M142.9-476.7c153,0,277.1,124,277.1,277.1c0,153-124,277.1-277.1,277.1c-153,0-277.1-124-277.1-277.1
				C-134.2-352.7-10.2-476.7,142.9-476.7z"/>
		</g>
	</g>
	<g transform="translate(147,70) scale(0.014,0.014)">
		<g transform="">
			<path d="M413.4-476.7c153,0,277.1,124,277.1,277.1c0,153-124,277.1-277.1,277.1c-153,0-277.1-124-277.1-277.1
				C136.4-352.7,260.4-476.7,413.4-476.7z"/>
		</g>
	</g>
	<g transform="translate(154,70) scale(0.014,0.014)">
		<g transform="">
			<path d="M467.5-476.7c153,0,277.1,124,277.1,277.1c0,153-124,277.1-277.1,277.1c-153,0-277.1-124-277.1-277.1
				C190.5-352.7,314.5-476.7,467.5-476.7z"/>
		</g>
	</g>
	<g transform="translate(161,70) scale(0.014,0.014)">
		<g transform="">
			<path d="M521.6-476.7c153,0,277.1,124,277.1,277.1c0,153-124,277.1-277.1,277.1c-153,0-277.1-124-277.1-277.1
				C244.6-352.7,368.6-476.7,521.6-476.7z"/>
		</g>
	</g>
	<g transform="translate(182,70) scale(0.014,0.014)">
		<g transform="">
			<path d="M684-476.7c153,0,277.1,124,277.1,277.1C961-46.7,837,77.4,684,77.4c-153,0-277.1-124-277.1-277.1
				C406.9-352.7,531-476.7,684-476.7z"/>
		</g>
	</g>
	<g transform="translate(217,70) scale(0.014,0.014)">
		<g transform="">
			<path d="M954.5-476.7c153,0,277.1,124,277.1,277.1c0,153-124,277.1-277.1,277.1c-153,0-277.1-124-277.1-277.1
				C677.5-352.7,801.5-476.7,954.5-476.7z"/>
		</g>
	</g>
	<g transform="translate(224,70) scale(0.014,0.014)">
		<g transform="">
			<path d="M1008.7-476.7c153,0,277.1,124,277.1,277.1c0,153-124,277.1-277.1,277.1c-153,0-277.1-124-277.1-277.1
				C731.6-352.7,855.6-476.7,1008.7-476.7z"/>
		</g>
	</g>
	<g transform="translate(63,77) scale(0.014,0.014)">
		<g transform="">
			<path d="M-235.9-422.6c153,0,277.1,124,277.1,277.1c0,153-124,277.1-277.1,277.1c-153,0-277.1-124-277.1-277.1
				C-513-298.6-388.9-422.6-235.9-422.6z"/>
		</g>
	</g>
	<g transform="translate(70,77) scale(0.014,0.014)">
		<g transform="">
			<path d="M-181.8-422.6c153,0,277.1,124,277.1,277.1c0,153-124,277.1-277.1,277.1c-153,0-277.1-124-277.1-277.1
				C-458.9-298.6-334.8-422.6-181.8-422.6z"/>
		</g>
	</g>
	<g transform="translate(154,77) scale(0.014,0.014)">
		<g transform="">
			<path d="M467.5-422.6c153,0,277.1,124,277.1,277.1c0,153-124,277.1-277.1,277.1c-153,0-277.1-124-277.1-277.1
				C190.5-298.6,314.5-422.6,467.5-422.6z"/>
		</g>
	</g>
	<g transform="translate(161,77) scale(0.014,0.014)">
		<g transform="">
			<path d="M521.6-422.6c153,0,277.1,124,277.1,277.1c0,153-124,277.1-277.1,277.1c-153,0-277.1-124-277.1-277.1
				C244.6-298.6,368.6-422.6,521.6-422.6z"/>
		</g>
	</g>
	<g transform="translate(182,77) scale(0.014,0.014)">
		<g transform="">
			<path d="M684-422.6c153,0,277.1,124,277.1,277.1c0,153-124,277.1-277.1,277.1c-153,0-277.1-124-277.1-277.1
				C406.9-298.6,531-422.6,684-422.6z"/>
		</g>
	</g>
	<g transform="translate(189,77) scale(0.014,0.014)">
		<g transform="">
			<path d="M738.1-422.6c153,0,277.1,124,277.1,277.1c0,153-124,277.1-277.1,277.1c-153,0-277.1-124-277.1-277.1
				C461-298.6,585.1-422.6,738.1-422.6z"/>
		</g>
	</g>
	<g transform="translate(196,77) scale(0.014,0.014)">
		<g transform="">
			<path d="M792.2-422.6c153,0,277.1,124,277.1,277.1c0,153-124,277.1-277.1,277.1c-153,0-277.1-124-277.1-277.1
				C515.2-298.6,639.2-422.6,792.2-422.6z"/>
		</g>
	</g>
	<g transform="translate(203,77) scale(0.014,0.014)">
		<g transform="">
			<path d="M846.3-422.6c153,0,277.1,124,277.1,277.1c0,153-124,277.1-277.1,277.1c-153,0-277.1-124-277.1-277.1
				C569.3-298.6,693.3-422.6,846.3-422.6z"/>
		</g>
	</g>
	<g transform="translate(217,77) scale(0.014,0.014)">
		<g transform="">
			<path d="M954.5-422.6c153,0,277.1,124,277.1,277.1c0,153-124,277.1-277.1,277.1c-153,0-277.1-124-277.1-277.1
				C677.5-298.6,801.5-422.6,954.5-422.6z"/>
		</g>
	</g>
	<g transform="translate(224,77) scale(0.014,0.014)">
		<g transform="">
			<path d="M1008.7-422.6c153,0,277.1,124,277.1,277.1c0,153-124,277.1-277.1,277.1c-153,0-277.1-124-277.1-277.1
				C731.6-298.6,855.6-422.6,1008.7-422.6z"/>
		</g>
	</g>
	<g transform="translate(7,84) scale(0.014,0.014)">
		<g transform="">
			<path d="M-668.8-368.5c153,0,277.1,124,277.1,277.1c0,153-124,277.1-277.1,277.1c-153,0-277.1-124-277.1-277.1
				C-945.9-244.5-821.8-368.5-668.8-368.5z"/>
		</g>
	</g>
	<g transform="translate(35,84) scale(0.014,0.014)">
		<g transform="">
			<path d="M-452.4-368.5c153,0,277.1,124,277.1,277.1c0,153-124,277.1-277.1,277.1c-153,0-277.1-124-277.1-277.1
				C-729.4-244.5-605.4-368.5-452.4-368.5z"/>
		</g>
	</g>
	<g transform="translate(42,84) scale(0.014,0.014)">
		<g transform="">
			<path d="M-398.3-368.5c153,0,277.1,124,277.1,277.1c0,153-124,277.1-277.1,277.1c-153,0-277.1-124-277.1-277.1
				C-675.3-244.5-551.3-368.5-398.3-368.5z"/>
		</g>
	</g>
	<g transform="translate(49,84) scale(0.014,0.014)">
		<g transform="">
			<path d="M-344.2-368.5c153,0,277.1,124,277.1,277.1c0,153-124,277.1-277.1,277.1c-153,0-277.1-124-277.1-277.1
				C-621.2-244.5-497.2-368.5-344.2-368.5z"/>
		</g>
	</g>
	<g transform="translate(154,84) scale(0.014,0.014)">
		<g transform="">
			<path d="M467.5-368.5c153,0,277.1,124,277.1,277.1c0,153-124,277.1-277.1,277.1c-153,0-277.1-124-277.1-277.1
				C190.5-244.5,314.5-368.5,467.5-368.5z"/>
		</g>
	</g>
	<g transform="translate(168,84) scale(0.014,0.014)">
		<g transform="">
			<path d="M575.8-368.5c153,0,277.1,124,277.1,277.1c0,153-124,277.1-277.1,277.1c-153,0-277.1-124-277.1-277.1
				C298.7-244.5,422.7-368.5,575.8-368.5z"/>
		</g>
	</g>
	<g transform="translate(175,84) scale(0.014,0.014)">
		<g transform="">
			<path d="M629.9-368.5c153,0,277.1,124,277.1,277.1c0,153-124,277.1-277.1,277.1c-153,0-277.1-124-277.1-277.1
				C352.8-244.5,476.9-368.5,629.9-368.5z"/>
		</g>
	</g>
	<g transform="translate(189,84) scale(0.014,0.014)">
		<g transform="">
			<path d="M738.1-368.5c153,0,277.1,124,277.1,277.1c0,153-124,277.1-277.1,277.1c-153,0-277.1-124-277.1-277.1
				C461-244.5,585.1-368.5,738.1-368.5z"/>
		</g>
	</g>
	<g transform="translate(217,84) scale(0.014,0.014)">
		<g transform="">
			<path d="M954.5-368.5c153,0,277.1,124,277.1,277.1c0,153-124,277.1-277.1,277.1c-153,0-277.1-124-277.1-277.1
				C677.5-244.5,801.5-368.5,954.5-368.5z"/>
		</g>
	</g>
	<g transform="translate(14,91) scale(0.014,0.014)">
		<g transform="">
			<path d="M-614.7-314.4c153,0,277.1,124,277.1,277.1c0,153-124,277.1-277.1,277.1c-153,0-277.1-124-277.1-277.1
				C-891.8-190.4-767.7-314.4-614.7-314.4z"/>
		</g>
	</g>
	<g transform="translate(28,91) scale(0.014,0.014)">
		<g transform="">
			<path d="M-506.5-314.4c153,0,277.1,124,277.1,277.1c0,153-124,277.1-277.1,277.1c-153,0-277.1-124-277.1-277.1
				C-783.5-190.4-659.5-314.4-506.5-314.4z"/>
		</g>
	</g>
	<g transform="translate(35,91) scale(0.014,0.014)">
		<g transform="">
			<path d="M-452.4-314.4c153,0,277.1,124,277.1,277.1c0,153-124,277.1-277.1,277.1c-153,0-277.1-124-277.1-277.1
				C-729.4-190.4-605.4-314.4-452.4-314.4z"/>
		</g>
	</g>
	<g transform="translate(49,91) scale(0.014,0.014)">
		<g transform="">
			<path d="M-344.2-314.4c153,0,277.1,124,277.1,277.1c0,153-124,277.1-277.1,277.1c-153,0-277.1-124-277.1-277.1
				C-621.2-190.4-497.2-314.4-344.2-314.4z"/>
		</g>
	</g>
	<g transform="translate(70,91) scale(0.014,0.014)">
		<g transform="">
			<path d="M-181.8-314.4c153,0,277.1,124,277.1,277.1c0,153-124,277.1-277.1,277.1c-153,0-277.1-124-277.1-277.1
				C-458.9-190.4-334.8-314.4-181.8-314.4z"/>
		</g>
	</g>
	<g transform="translate(189,91) scale(0.014,0.014)">
		<g transform="">
			<path d="M738.1-314.4c153,0,277.1,124,277.1,277.1c0,153-124,277.1-277.1,277.1c-153,0-277.1-124-277.1-277.1
				C461-190.4,585.1-314.4,738.1-314.4z"/>
		</g>
	</g>
	<g transform="translate(196,91) scale(0.014,0.014)">
		<g transform="">
			<path d="M792.2-314.4c153,0,277.1,124,277.1,277.1c0,153-124,277.1-277.1,277.1c-153,0-277.1-124-277.1-277.1
				C515.2-190.4,639.2-314.4,792.2-314.4z"/>
		</g>
	</g>
	<g transform="translate(210,91) scale(0.014,0.014)">
		<g transform="">
			<path d="M900.4-314.4c153,0,277.1,124,277.1,277.1c0,153-124,277.1-277.1,277.1c-153,0-277.1-124-277.1-277.1
				C623.4-190.4,747.4-314.4,900.4-314.4z"/>
		</g>
	</g>
	<g transform="translate(0,98) scale(0.014,0.014)">
		<g transform="">
			<path d="M-722.9-260.3c153,0,277.1,124,277.1,277.1c0,153-124,277.1-277.1,277.1c-153,0-277.1-124-277.1-277.1
				C-1000-136.2-876-260.3-722.9-260.3z"/>
		</g>
	</g>
	<g transform="translate(14,98) scale(0.014,0.014)">
		<g transform="">
			<path d="M-614.7-260.3c153,0,277.1,124,277.1,277.1c0,153-124,277.1-277.1,277.1c-153,0-277.1-124-277.1-277.1
				C-891.8-136.2-767.7-260.3-614.7-260.3z"/>
		</g>
	</g>
	<g transform="translate(35,98) scale(0.014,0.014)">
		<g transform="">
			<path d="M-452.4-260.3c153,0,277.1,124,277.1,277.1c0,153-124,277.1-277.1,277.1c-153,0-277.1-124-277.1-277.1
				C-729.4-136.2-605.4-260.3-452.4-260.3z"/>
		</g>
	</g>
	<g transform="translate(42,98) scale(0.014,0.014)">
		<g transform="">
			<path d="M-398.3-260.3c153,0,277.1,124,277.1,277.1c0,153-124,277.1-277.1,277.1c-153,0-277.1-124-277.1-277.1
				C-675.3-136.2-551.3-260.3-398.3-260.3z"/>
		</g>
	</g>
	<g transform="translate(49,98) scale(0.014,0.014)">
		<g transform="">
			<path d="M-344.2-260.3c153,0,277.1,124,277.1,277.1c0,153-124,277.1-277.1,277.1c-153,0-277.1-124-277.1-277.1
				C-621.2-136.2-497.2-260.3-344.2-260.3z"/>
		</g>
	</g>
	<g transform="translate(70,98) scale(0.014,0.014)">
		<g transform="">
			<path d="M-181.8-260.3c153,0,277.1,124,277.1,277.1c0,153-124,277.1-277.1,277.1c-153,0-277.1-124-277.1-277.1
				C-458.9-136.2-334.8-260.3-181.8-260.3z"/>
		</g>
	</g>
	<g transform="translate(168,98) scale(0.014,0.014)">
		<g transform="">
			<path d="M575.8-260.3c153,0,277.1,124,277.1,277.1c0,153-124,277.1-277.1,277.1c-153,0-277.1-124-277.1-277.1
				C298.7-136.2,422.7-260.3,575.8-260.3z"/>
		</g>
	</g>
	<g transform="translate(182,98) scale(0.014,0.014)">
		<g transform="">
			<path d="M684-260.3c153,0,277.1,124,277.1,277.1c0,153-124,277.1-277.1,277.1c-153,0-277.1-124-277.1-277.1
				C406.9-136.2,531-260.3,684-260.3z"/>
		</g>
	</g>
	<g transform="translate(210,98) scale(0.014,0.014)">
		<g transform="">
			<path d="M900.4-260.3c153,0,277.1,124,277.1,277.1c0,153-124,277.1-277.1,277.1c-153,0-277.1-124-277.1-277.1
				C623.4-136.2,747.4-260.3,900.4-260.3z"/>
		</g>
	</g>
	<g transform="translate(0,105) scale(0.014,0.014)">
		<g transform="">
			<path d="M-722.9-206.2c153,0,277.1,124,277.1,277.1c0,153-124,277.1-277.1,277.1c-153,0-277.1-124-277.1-277.1
				C-1000-82.1-876-206.2-722.9-206.2z"/>
		</g>
	</g>
	<g transform="translate(7,105) scale(0.014,0.014)">
		<g transform="">
			<path d="M-668.8-206.2c153,0,277.1,124,277.1,277.1c0,153-124,277.1-277.1,277.1c-153,0-277.1-124-277.1-277.1
				C-945.9-82.1-821.8-206.2-668.8-206.2z"/>
		</g>
	</g>
	<g transform="translate(28,105) scale(0.014,0.014)">
		<g transform="">
			<path d="M-506.5-206.2c153,0,277.1,124,277.1,277.1c0,153-124,277.1-277.1,277.1c-153,0-277.1-124-277.1-277.1
				C-783.5-82.1-659.5-206.2-506.5-206.2z"/>
		</g>
	</g>
	<g transform="translate(56,105) scale(0.014,0.014)">
		<g transform="">
			<path d="M-290-206.2C-137-206.2-13-82.1-13,70.9c0,153-124,277.1-277.1,277.1c-153,0-277.1-124-277.1-277.1
				C-567.1-82.1-443.1-206.2-290-206.2z"/>
		</g>
	</g>
	<g transform="translate(63,105) scale(0.014,0.014)">
		<g transform="">
			<path d="M-235.9-206.2c153,0,277.1,124,277.1,277.1c0,153-124,277.1-277.1,277.1c-153,0-277.1-124-277.1-277.1
				C-513-82.1-388.9-206.2-235.9-206.2z"/>
		</g>
	</g>
	<g transform="translate(70,105) scale(0.014,0.014)">
		<g transform="">
			<path d="M-181.8-206.2c153,0,277.1,124,277.1,277.1c0,153-124,277.1-277.1,277.1c-153,0-277.1-124-277.1-277.1
				C-458.9-82.1-334.8-206.2-181.8-206.2z"/>
		</g>
	</g>
	<g transform="translate(154,105) scale(0.014,0.014)">
		<g transform="">
			<path d="M467.5-206.2c153,0,277.1,124,277.1,277.1c0,153-124,277.1-277.1,277.1c-153,0-277.1-124-277.1-277.1
				C190.5-82.1,314.5-206.2,467.5-206.2z"/>
		</g>
	</g>
	<g transform="translate(175,105) scale(0.014,0.014)">
		<g transform="">
			<path d="M629.9-206.2c153,0,277.1,124,277.1,277.1c0,153-124,277.1-277.1,277.1c-153,0-277.1-124-277.1-277.1
				C352.8-82.1,476.9-206.2,629.9-206.2z"/>
		</g>
	</g>
	<g transform="translate(182,105) scale(0.014,0.014)">
		<g transform="">
			<path d="M684-206.2c153,0,277.1,124,277.1,277.1c0,153-124,277.1-277.1,277.1c-153,0-277.1-124-277.1-277.1
				C406.9-82.1,531-206.2,684-206.2z"/>
		</g>
	</g>
	<g transform="translate(196,105) scale(0.014,0.014)">
		<g transform="">
			<path d="M792.2-206.2c153,0,277.1,124,277.1,277.1c0,153-124,277.1-277.1,277.1c-153,0-277.1-124-277.1-277.1
				C515.2-82.1,639.2-206.2,792.2-206.2z"/>
		</g>
	</g>
	<g transform="translate(203,105) scale(0.014,0.014)">
		<g transform="">
			<path d="M846.3-206.2c153,0,277.1,124,277.1,277.1c0,153-124,277.1-277.1,277.1c-153,0-277.1-124-277.1-277.1
				C569.3-82.1,693.3-206.2,846.3-206.2z"/>
		</g>
	</g>
	<g transform="translate(224,105) scale(0.014,0.014)">
		<g transform="">
			<path d="M1008.7-206.2c153,0,277.1,124,277.1,277.1c0,153-124,277.1-277.1,277.1c-153,0-277.1-124-277.1-277.1
				C731.6-82.1,855.6-206.2,1008.7-206.2z"/>
		</g>
	</g>
	<g transform="translate(0,112) scale(0.014,0.014)">
		<g transform="">
			<path d="M-722.9-152.1c153,0,277.1,124,277.1,277.1c0,153-124,277.1-277.1,277.1c-153,0-277.1-124-277.1-277.1
				C-1000-28-876-152.1-722.9-152.1z"/>
		</g>
	</g>
	<g transform="translate(7,112) scale(0.014,0.014)">
		<g transform="">
			<path d="M-668.8-152.1c153,0,277.1,124,277.1,277.1c0,153-124,277.1-277.1,277.1c-153,0-277.1-124-277.1-277.1
				C-945.9-28-821.8-152.1-668.8-152.1z"/>
		</g>
	</g>
	<g transform="translate(14,112) scale(0.014,0.014)">
		<g transform="">
			<path d="M-614.7-152.1c153,0,277.1,124,277.1,277.1c0,153-124,277.1-277.1,277.1c-153,0-277.1-124-277.1-277.1
				C-891.8-28-767.7-152.1-614.7-152.1z"/>
		</g>
	</g>
	<g transform="translate(21,112) scale(0.014,0.014)">
		<g transform="">
			<path d="M-560.6-152.1c153,0,277.1,124,277.1,277.1c0,153-124,277.1-277.1,277.1c-153,0-277.1-124-277.1-277.1
				C-837.7-28-713.6-152.1-560.6-152.1z"/>
		</g>
	</g>
	<g transform="translate(28,112) scale(0.014,0.014)">
		<g transform="">
			<path d="M-506.5-152.1c153,0,277.1,124,277.1,277.1c0,153-124,277.1-277.1,277.1c-153,0-277.1-124-277.1-277.1
				C-783.5-28-659.5-152.1-506.5-152.1z"/>
		</g>
	</g>
	<g transform="translate(42,112) scale(0.014,0.014)">
		<g transform="">
			<path d="M-398.3-152.1c153,0,277.1,124,277.1,277.1c0,153-124,277.1-277.1,277.1c-153,0-277.1-124-277.1-277.1
				C-675.3-28-551.3-152.1-398.3-152.1z"/>
		</g>
	</g>
	<g transform="translate(56,112) scale(0.014,0.014)">
		<g transform="">
			<path d="M-290-152.1C-137-152.1-13-28-13,125c0,153-124,277.1-277.1,277.1c-153,0-277.1-124-277.1-277.1
				C-567.1-28-443.1-152.1-290-152.1z"/>
		</g>
	</g>
	<g transform="translate(168,112) scale(0.014,0.014)">
		<g transform="">
			<path d="M575.8-152.1c153,0,277.1,124,277.1,277.1c0,153-124,277.1-277.1,277.1c-153,0-277.1-124-277.1-277.1
				C298.7-28,422.7-152.1,575.8-152.1z"/>
		</g>
	</g>
	<g transform="translate(175,112) scale(0.014,0.014)">
		<g transform="">
			<path d="M629.9-152.1c153,0,277.1,124,277.1,277.1c0,153-124,277.1-277.1,277.1c-153,0-277.1-124-277.1-277.1
				C352.8-28,476.9-152.1,629.9-152.1z"/>
		</g>
	</g>
	<g transform="translate(182,112) scale(0.014,0.014)">
		<g transform="">
			<path d="M684-152.1C837-152.1,961-28,961,125c0,153-124,277.1-277.1,277.1c-153,0-277.1-124-277.1-277.1
				C406.9-28,531-152.1,684-152.1z"/>
		</g>
	</g>
	<g transform="translate(189,112) scale(0.014,0.014)">
		<g transform="">
			<path d="M738.1-152.1c153,0,277.1,124,277.1,277.1c0,153-124,277.1-277.1,277.1C585.1,402.1,461,278,461,125
				C461-28,585.1-152.1,738.1-152.1z"/>
		</g>
	</g>
	<g transform="translate(203,112) scale(0.014,0.014)">
		<g transform="">
			<path d="M846.3-152.1c153,0,277.1,124,277.1,277.1c0,153-124,277.1-277.1,277.1c-153,0-277.1-124-277.1-277.1
				C569.3-28,693.3-152.1,846.3-152.1z"/>
		</g>
	</g>
	<g transform="translate(0,119) scale(0.014,0.014)">
		<g transform="">
			<path d="M-722.9-97.9c153,0,277.1,124,277.1,277.1c0,153-124,277.1-277.1,277.1c-153,0-277.1-124-277.1-277.1
				C-1000,26.1-876-97.9-722.9-97.9z"/>
		</g>
	</g>
	<g transform="translate(7,119) scale(0.014,0.014)">
		<g transform="">
			<path d="M-668.8-97.9c153,0,277.1,124,277.1,277.1c0,153-124,277.1-277.1,277.1c-153,0-277.1-124-277.1-277.1
				C-945.9,26.1-821.8-97.9-668.8-97.9z"/>
		</g>
	</g>
	<g transform="translate(49,119) scale(0.014,0.014)">
		<g transform="">
			<path d="M-344.2-97.9c153,0,277.1,124,277.1,277.1c0,153-124,277.1-277.1,277.1c-153,0-277.1-124-277.1-277.1
				C-621.2,26.1-497.2-97.9-344.2-97.9z"/>
		</g>
	</g>
	<g transform="translate(154,119) scale(0.014,0.014)">
		<g transform="">
			<path d="M467.5-97.9c153,0,277.1,124,277.1,277.1c0,153-124,277.1-277.1,277.1c-153,0-277.1-124-277.1-277.1
				C190.5,26.1,314.5-97.9,467.5-97.9z"/>
		</g>
	</g>
	<g transform="translate(161,119) scale(0.014,0.014)">
		<g transform="">
			<path d="M521.6-97.9c153,0,277.1,124,277.1,277.1c0,153-124,277.1-277.1,277.1c-153,0-277.1-124-277.1-277.1
				C244.6,26.1,368.6-97.9,521.6-97.9z"/>
		</g>
	</g>
	<g transform="translate(175,119) scale(0.014,0.014)">
		<g transform="">
			<path d="M629.9-97.9c153,0,277.1,124,277.1,277.1c0,153-124,277.1-277.1,277.1c-153,0-277.1-124-277.1-277.1
				C352.8,26.1,476.9-97.9,629.9-97.9z"/>
		</g>
	</g>
	<g transform="translate(182,119) scale(0.014,0.014)">
		<g transform="">
			<path d="M684-97.9c153,0,277.1,124,277.1,277.1c0,153-124,277.1-277.1,277.1c-153,0-277.1-124-277.1-277.1
				C406.9,26.1,531-97.9,684-97.9z"/>
		</g>
	</g>
	<g transform="translate(189,119) scale(0.014,0.014)">
		<g transform="">
			<path d="M738.1-97.9c153,0,277.1,124,277.1,277.1c0,153-124,277.1-277.1,277.1c-153,0-277.1-124-277.1-277.1
				C461,26.1,585.1-97.9,738.1-97.9z"/>
		</g>
	</g>
	<g transform="translate(196,119) scale(0.014,0.014)">
		<g transform="">
			<path d="M792.2-97.9c153,0,277.1,124,277.1,277.1c0,153-124,277.1-277.1,277.1c-153,0-277.1-124-277.1-277.1
				C515.2,26.1,639.2-97.9,792.2-97.9z"/>
		</g>
	</g>
	<g transform="translate(210,119) scale(0.014,0.014)">
		<g transform="">
			<path d="M900.4-97.9c153,0,277.1,124,277.1,277.1c0,153-124,277.1-277.1,277.1c-153,0-277.1-124-277.1-277.1
				C623.4,26.1,747.4-97.9,900.4-97.9z"/>
		</g>
	</g>
	<g transform="translate(217,119) scale(0.014,0.014)">
		<g transform="">
			<path d="M954.5-97.9c153,0,277.1,124,277.1,277.1c0,153-124,277.1-277.1,277.1c-153,0-277.1-124-277.1-277.1
				C677.5,26.1,801.5-97.9,954.5-97.9z"/>
		</g>
	</g>
	<g transform="translate(14,126) scale(0.014,0.014)">
		<g transform="">
			<path d="M-614.7-43.8c153,0,277.1,124,277.1,277.1c0,153-124,277.1-277.1,277.1c-153,0-277.1-124-277.1-277.1
				C-891.8,80.2-767.7-43.8-614.7-43.8z"/>
		</g>
	</g>
	<g transform="translate(42,126) scale(0.014,0.014)">
		<g transform="">
			<path d="M-398.3-43.8c153,0,277.1,124,277.1,277.1c0,153-124,277.1-277.1,277.1c-153,0-277.1-124-277.1-277.1
				C-675.3,80.2-551.3-43.8-398.3-43.8z"/>
		</g>
	</g>
	<g transform="translate(49,126) scale(0.014,0.014)">
		<g transform="">
			<path d="M-344.2-43.8c153,0,277.1,124,277.1,277.1c0,153-124,277.1-277.1,277.1c-153,0-277.1-124-277.1-277.1
				C-621.2,80.2-497.2-43.8-344.2-43.8z"/>
		</g>
	</g>
	<g transform="translate(56,126) scale(0.014,0.014)">
		<g transform="">
			<path d="M-290-43.8C-137-43.8-13,80.2-13,233.2c0,153-124,277.1-277.1,277.1c-153,0-277.1-124-277.1-277.1
				C-567.1,80.2-443.1-43.8-290-43.8z"/>
		</g>
	</g>
	<g transform="translate(154,126) scale(0.014,0.014)">
		<g transform="">
			<path d="M467.5-43.8c153,0,277.1,124,277.1,277.1c0,153-124,277.1-277.1,277.1c-153,0-277.1-124-277.1-277.1
				C190.5,80.2,314.5-43.8,467.5-43.8z"/>
		</g>
	</g>
	<g transform="translate(210,126) scale(0.014,0.014)">
		<g transform="">
			<path d="M900.4-43.8c153,0,277.1,124,277.1,277.1c0,153-124,277.1-277.1,277.1c-153,0-277.1-124-277.1-277.1
				C623.4,80.2,747.4-43.8,900.4-43.8z"/>
		</g>
	</g>
	<g transform="translate(14,133) scale(0.014,0.014)">
		<g transform="">
			<path d="M-614.7,10.3c153,0,277.1,124,277.1,277.1c0,153-124,277.1-277.1,277.1c-153,0-277.1-124-277.1-277.1
				C-891.8,134.3-767.7,10.3-614.7,10.3z"/>
		</g>
	</g>
	<g transform="translate(21,133) scale(0.014,0.014)">
		<g transform="">
			<path d="M-560.6,10.3c153,0,277.1,124,277.1,277.1c0,153-124,277.1-277.1,277.1c-153,0-277.1-124-277.1-277.1
				C-837.7,134.3-713.6,10.3-560.6,10.3z"/>
		</g>
	</g>
	<g transform="translate(28,133) scale(0.014,0.014)">
		<g transform="">
			<path d="M-506.5,10.3c153,0,277.1,124,277.1,277.1c0,153-124,277.1-277.1,277.1c-153,0-277.1-124-277.1-277.1
				C-783.5,134.3-659.5,10.3-506.5,10.3z"/>
		</g>
	</g>
	<g transform="translate(35,133) scale(0.014,0.014)">
		<g transform="">
			<path d="M-452.4,10.3c153,0,277.1,124,277.1,277.1c0,153-124,277.1-277.1,277.1c-153,0-277.1-124-277.1-277.1
				C-729.4,134.3-605.4,10.3-452.4,10.3z"/>
		</g>
	</g>
	<g transform="translate(49,133) scale(0.014,0.014)">
		<g transform="">
			<path d="M-344.2,10.3c153,0,277.1,124,277.1,277.1c0,153-124,277.1-277.1,277.1c-153,0-277.1-124-277.1-277.1
				C-621.2,134.3-497.2,10.3-344.2,10.3z"/>
		</g>
	</g>
	<g transform="translate(56,133) scale(0.014,0.014)">
		<g transform="">
			<path d="M-290,10.3c153,0,277.1,124,277.1,277.1c0,153-124,277.1-277.1,277.1c-153,0-277.1-124-277.1-277.1
				C-567.1,134.3-443.1,10.3-290,10.3z"/>
		</g>
	</g>
	<g transform="translate(63,133) scale(0.014,0.014)">
		<g transform="">
			<path d="M-235.9,10.3c153,0,277.1,124,277.1,277.1c0,153-124,277.1-277.1,277.1c-153,0-277.1-124-277.1-277.1
				C-513,134.3-388.9,10.3-235.9,10.3z"/>
		</g>
	</g>
	<g transform="translate(70,133) scale(0.014,0.014)">
		<g transform="">
			<path d="M-181.8,10.3c153,0,277.1,124,277.1,277.1c0,153-124,277.1-277.1,277.1c-153,0-277.1-124-277.1-277.1
				C-458.9,134.3-334.8,10.3-181.8,10.3z"/>
		</g>
	</g>
	<g transform="translate(175,133) scale(0.014,0.014)">
		<g transform="">
			<path d="M629.9,10.3c153,0,277.1,124,277.1,277.1c0,153-124,277.1-277.1,277.1c-153,0-277.1-124-277.1-277.1
				C352.8,134.3,476.9,10.3,629.9,10.3z"/>
		</g>
	</g>
	<g transform="translate(182,133) scale(0.014,0.014)">
		<g transform="">
			<path d="M684,10.3c153,0,277.1,124,277.1,277.1c0,153-124,277.1-277.1,277.1c-153,0-277.1-124-277.1-277.1
				C406.9,134.3,531,10.3,684,10.3z"/>
		</g>
	</g>
	<g transform="translate(196,133) scale(0.014,0.014)">
		<g transform="">
			<path d="M792.2,10.3c153,0,277.1,124,277.1,277.1c0,153-124,277.1-277.1,277.1c-153,0-277.1-124-277.1-277.1
				C515.2,134.3,639.2,10.3,792.2,10.3z"/>
		</g>
	</g>
	<g transform="translate(217,133) scale(0.014,0.014)">
		<g transform="">
			<path d="M954.5,10.3c153,0,277.1,124,277.1,277.1c0,153-124,277.1-277.1,277.1c-153,0-277.1-124-277.1-277.1
				C677.5,134.3,801.5,10.3,954.5,10.3z"/>
		</g>
	</g>
	<g transform="translate(224,133) scale(0.014,0.014)">
		<g transform="">
			<path d="M1008.7,10.3c153,0,277.1,124,277.1,277.1c0,153-124,277.1-277.1,277.1c-153,0-277.1-124-277.1-277.1
				C731.6,134.3,855.6,10.3,1008.7,10.3z"/>
		</g>
	</g>
	<g transform="translate(7,140) scale(0.014,0.014)">
		<g transform="">
			<path d="M-668.8,64.4c153,0,277.1,124,277.1,277.1c0,153-124,277.1-277.1,277.1c-153,0-277.1-124-277.1-277.1
				C-945.9,188.4-821.8,64.4-668.8,64.4z"/>
		</g>
	</g>
	<g transform="translate(14,140) scale(0.014,0.014)">
		<g transform="">
			<path d="M-614.7,64.4c153,0,277.1,124,277.1,277.1c0,153-124,277.1-277.1,277.1c-153,0-277.1-124-277.1-277.1
				C-891.8,188.4-767.7,64.4-614.7,64.4z"/>
		</g>
	</g>
	<g transform="translate(35,140) scale(0.014,0.014)">
		<g transform="">
			<path d="M-452.4,64.4c153,0,277.1,124,277.1,277.1c0,153-124,277.1-277.1,277.1c-153,0-277.1-124-277.1-277.1
				C-729.4,188.4-605.4,64.4-452.4,64.4z"/>
		</g>
	</g>
	<g transform="translate(42,140) scale(0.014,0.014)">
		<g transform="">
			<path d="M-398.3,64.4c153,0,277.1,124,277.1,277.1c0,153-124,277.1-277.1,277.1c-153,0-277.1-124-277.1-277.1
				C-675.3,188.4-551.3,64.4-398.3,64.4z"/>
		</g>
	</g>
	<g transform="translate(49,140) scale(0.014,0.014)">
		<g transform="">
			<path d="M-344.2,64.4c153,0,277.1,124,277.1,277.1c0,153-124,277.1-277.1,277.1c-153,0-277.1-124-277.1-277.1
				C-621.2,188.4-497.2,64.4-344.2,64.4z"/>
		</g>
	</g>
	<g transform="translate(175,140) scale(0.014,0.014)">
		<g transform="">
			<path d="M629.9,64.4c153,0,277.1,124,277.1,277.1c0,153-124,277.1-277.1,277.1c-153,0-277.1-124-277.1-277.1
				C352.8,188.4,476.9,64.4,629.9,64.4z"/>
		</g>
	</g>
	<g transform="translate(203,140) scale(0.014,0.014)">
		<g transform="">
			<path d="M846.3,64.4c153,0,277.1,124,277.1,277.1c0,153-124,277.1-277.1,277.1c-153,0-277.1-124-277.1-277.1
				C569.3,188.4,693.3,64.4,846.3,64.4z"/>
		</g>
	</g>
	<g transform="translate(210,140) scale(0.014,0.014)">
		<g transform="">
			<path d="M900.4,64.4c153,0,277.1,124,277.1,277.1c0,153-124,277.1-277.1,277.1c-153,0-277.1-124-277.1-277.1
				C623.4,188.4,747.4,64.4,900.4,64.4z"/>
		</g>
	</g>
	<g transform="translate(217,140) scale(0.014,0.014)">
		<g transform="">
			<path d="M954.5,64.4c153,0,277.1,124,277.1,277.1c0,153-124,277.1-277.1,277.1c-153,0-277.1-124-277.1-277.1
				C677.5,188.4,801.5,64.4,954.5,64.4z"/>
		</g>
	</g>
	<g transform="translate(224,140) scale(0.014,0.014)">
		<g transform="">
			<path d="M1008.7,64.4c153,0,277.1,124,277.1,277.1c0,153-124,277.1-277.1,277.1c-153,0-277.1-124-277.1-277.1
				C731.6,188.4,855.6,64.4,1008.7,64.4z"/>
		</g>
	</g>
	<g transform="translate(0,147) scale(0.014,0.014)">
		<g transform="">
			<path d="M-722.9,118.5c153,0,277.1,124,277.1,277.1c0,153-124,277.1-277.1,277.1c-153,0-277.1-124-277.1-277.1
				C-1000,242.6-876,118.5-722.9,118.5z"/>
		</g>
	</g>
	<g transform="translate(14,147) scale(0.014,0.014)">
		<g transform="">
			<path d="M-614.7,118.5c153,0,277.1,124,277.1,277.1c0,153-124,277.1-277.1,277.1c-153,0-277.1-124-277.1-277.1
				C-891.8,242.6-767.7,118.5-614.7,118.5z"/>
		</g>
	</g>
	<g transform="translate(21,147) scale(0.014,0.014)">
		<g transform="">
			<path d="M-560.6,118.5c153,0,277.1,124,277.1,277.1c0,153-124,277.1-277.1,277.1c-153,0-277.1-124-277.1-277.1
				C-837.7,242.6-713.6,118.5-560.6,118.5z"/>
		</g>
	</g>
	<g transform="translate(35,147) scale(0.014,0.014)">
		<g transform="">
			<path d="M-452.4,118.5c153,0,277.1,124,277.1,277.1c0,153-124,277.1-277.1,277.1c-153,0-277.1-124-277.1-277.1
				C-729.4,242.6-605.4,118.5-452.4,118.5z"/>
		</g>
	</g>
	<g transform="translate(49,147) scale(0.014,0.014)">
		<g transform="">
			<path d="M-344.2,118.5c153,0,277.1,124,277.1,277.1c0,153-124,277.1-277.1,277.1c-153,0-277.1-124-277.1-277.1
				C-621.2,242.6-497.2,118.5-344.2,118.5z"/>
		</g>
	</g>
	<g transform="translate(70,147) scale(0.014,0.014)">
		<g transform="">
			<path d="M-181.8,118.5c153,0,277.1,124,277.1,277.1c0,153-124,277.1-277.1,277.1c-153,0-277.1-124-277.1-277.1
				C-458.9,242.6-334.8,118.5-181.8,118.5z"/>
		</g>
	</g>
	<g transform="translate(154,147) scale(0.014,0.014)">
		<g transform="">
			<path d="M467.5,118.5c153,0,277.1,124,277.1,277.1c0,153-124,277.1-277.1,277.1c-153,0-277.1-124-277.1-277.1
				C190.5,242.6,314.5,118.5,467.5,118.5z"/>
		</g>
	</g>
	<g transform="translate(175,147) scale(0.014,0.014)">
		<g transform="">
			<path d="M629.9,118.5c153,0,277.1,124,277.1,277.1c0,153-124,277.1-277.1,277.1c-153,0-277.1-124-277.1-277.1
				C352.8,242.6,476.9,118.5,629.9,118.5z"/>
		</g>
	</g>
	<g transform="translate(224,147) scale(0.014,0.014)">
		<g transform="">
			<path d="M1008.7,118.5c153,0,277.1,124,277.1,277.1c0,153-124,277.1-277.1,277.1c-153,0-277.1-124-277.1-277.1
				C731.6,242.6,855.6,118.5,1008.7,118.5z"/>
		</g>
	</g>
	<g transform="translate(14,154) scale(0.014,0.014)">
		<g transform="">
			<path d="M-614.7,172.6c153,0,277.1,124,277.1,277.1c0,153-124,277.1-277.1,277.1c-153,0-277.1-124-277.1-277.1
				C-891.8,296.7-767.7,172.6-614.7,172.6z"/>
		</g>
	</g>
	<g transform="translate(21,154) scale(0.014,0.014)">
		<g transform="">
			<path d="M-560.6,172.6c153,0,277.1,124,277.1,277.1c0,153-124,277.1-277.1,277.1c-153,0-277.1-124-277.1-277.1
				C-837.7,296.7-713.6,172.6-560.6,172.6z"/>
		</g>
	</g>
	<g transform="translate(28,154) scale(0.014,0.014)">
		<g transform="">
			<path d="M-506.5,172.6c153,0,277.1,124,277.1,277.1c0,153-124,277.1-277.1,277.1c-153,0-277.1-124-277.1-277.1
				C-783.5,296.7-659.5,172.6-506.5,172.6z"/>
		</g>
	</g>
	<g transform="translate(35,154) scale(0.014,0.014)">
		<g transform="">
			<path d="M-452.4,172.6c153,0,277.1,124,277.1,277.1c0,153-124,277.1-277.1,277.1c-153,0-277.1-124-277.1-277.1
				C-729.4,296.7-605.4,172.6-452.4,172.6z"/>
		</g>
	</g>
	<g transform="translate(42,154) scale(0.014,0.014)">
		<g transform="">
			<path d="M-398.3,172.6c153,0,277.1,124,277.1,277.1c0,153-124,277.1-277.1,277.1c-153,0-277.1-124-277.1-277.1
				C-675.3,296.7-551.3,172.6-398.3,172.6z"/>
		</g>
	</g>
	<g transform="translate(49,154) scale(0.014,0.014)">
		<g transform="">
			<path d="M-344.2,172.6c153,0,277.1,124,277.1,277.1c0,153-124,277.1-277.1,277.1c-153,0-277.1-124-277.1-277.1
				C-621.2,296.7-497.2,172.6-344.2,172.6z"/>
		</g>
	</g>
	<g transform="translate(56,154) scale(0.014,0.014)">
		<g transform="">
			<path d="M-290,172.6c153,0,277.1,124,277.1,277.1c0,153-124,277.1-277.1,277.1c-153,0-277.1-124-277.1-277.1
				C-567.1,296.7-443.1,172.6-290,172.6z"/>
		</g>
	</g>
	<g transform="translate(70,154) scale(0.014,0.014)">
		<g transform="">
			<path d="M-181.8,172.6c153,0,277.1,124,277.1,277.1c0,153-124,277.1-277.1,277.1c-153,0-277.1-124-277.1-277.1
				C-458.9,296.7-334.8,172.6-181.8,172.6z"/>
		</g>
	</g>
	<g transform="translate(84,154) scale(0.014,0.014)">
		<g transform="">
			<path d="M-73.6,172.6c153,0,277.1,124,277.1,277.1c0,153-124,277.1-277.1,277.1c-153,0-277.1-124-277.1-277.1
				C-350.6,296.7-226.6,172.6-73.6,172.6z"/>
		</g>
	</g>
	<g transform="translate(126,154) scale(0.014,0.014)">
		<g transform="">
			<path d="M251.1,172.6c153,0,277.1,124,277.1,277.1c0,153-124,277.1-277.1,277.1c-153,0-277.1-124-277.1-277.1
				C-26,296.7,98.1,172.6,251.1,172.6z"/>
		</g>
	</g>
	<g transform="translate(133,154) scale(0.014,0.014)">
		<g transform="">
			<path d="M305.2,172.6c153,0,277.1,124,277.1,277.1c0,153-124,277.1-277.1,277.1c-153,0-277.1-124-277.1-277.1
				C28.1,296.7,152.2,172.6,305.2,172.6z"/>
		</g>
	</g>
	<g transform="translate(140,154) scale(0.014,0.014)">
		<g transform="">
			<path d="M359.3,172.6c153,0,277.1,124,277.1,277.1c0,153-124,277.1-277.1,277.1c-153,0-277.1-124-277.1-277.1
				C82.3,296.7,206.3,172.6,359.3,172.6z"/>
		</g>
	</g>
	<g transform="translate(154,154) scale(0.014,0.014)">
		<g transform="">
			<path d="M467.5,172.6c153,0,277.1,124,277.1,277.1c0,153-124,277.1-277.1,277.1c-153,0-277.1-124-277.1-277.1
				C190.5,296.7,314.5,172.6,467.5,172.6z"/>
		</g>
	</g>
	<g transform="translate(182,154) scale(0.014,0.014)">
		<g transform="">
			<path d="M684,172.6c153,0,277.1,124,277.1,277.1c0,153-124,277.1-277.1,277.1c-153,0-277.1-124-277.1-277.1
				C406.9,296.7,531,172.6,684,172.6z"/>
		</g>
	</g>
	<g transform="translate(196,154) scale(0.014,0.014)">
		<g transform="">
			<path d="M792.2,172.6c153,0,277.1,124,277.1,277.1c0,153-124,277.1-277.1,277.1c-153,0-277.1-124-277.1-277.1
				C515.2,296.7,639.2,172.6,792.2,172.6z"/>
		</g>
	</g>
	<g transform="translate(210,154) scale(0.014,0.014)">
		<g transform="">
			<path d="M900.4,172.6c153,0,277.1,124,277.1,277.1c0,153-124,277.1-277.1,277.1c-153,0-277.1-124-277.1-277.1
				C623.4,296.7,747.4,172.6,900.4,172.6z"/>
		</g>
	</g>
	<g transform="translate(217,154) scale(0.014,0.014)">
		<g transform="">
			<path d="M954.5,172.6c153,0,277.1,124,277.1,277.1c0,153-124,277.1-277.1,277.1c-153,0-277.1-124-277.1-277.1
				C677.5,296.7,801.5,172.6,954.5,172.6z"/>
		</g>
	</g>
	<g transform="translate(224,154) scale(0.014,0.014)">
		<g transform="">
			<path d="M1008.7,172.6c153,0,277.1,124,277.1,277.1c0,153-124,277.1-277.1,277.1c-153,0-277.1-124-277.1-277.1
				C731.6,296.7,855.6,172.6,1008.7,172.6z"/>
		</g>
	</g>
	<g transform="translate(7,161) scale(0.014,0.014)">
		<g transform="">
			<path d="M-668.8,226.7c153,0,277.1,124,277.1,277.1c0,153-124,277.1-277.1,277.1c-153,0-277.1-124-277.1-277.1
				C-945.9,350.8-821.8,226.7-668.8,226.7z"/>
		</g>
	</g>
	<g transform="translate(21,161) scale(0.014,0.014)">
		<g transform="">
			<path d="M-560.6,226.7c153,0,277.1,124,277.1,277.1c0,153-124,277.1-277.1,277.1c-153,0-277.1-124-277.1-277.1
				C-837.7,350.8-713.6,226.7-560.6,226.7z"/>
		</g>
	</g>
	<g transform="translate(49,161) scale(0.014,0.014)">
		<g transform="">
			<path d="M-344.2,226.7c153,0,277.1,124,277.1,277.1c0,153-124,277.1-277.1,277.1c-153,0-277.1-124-277.1-277.1
				C-621.2,350.8-497.2,226.7-344.2,226.7z"/>
		</g>
	</g>
	<g transform="translate(63,161) scale(0.014,0.014)">
		<g transform="">
			<path d="M-235.9,226.7c153,0,277.1,124,277.1,277.1c0,153-124,277.1-277.1,277.1c-153,0-277.1-124-277.1-277.1
				C-513,350.8-388.9,226.7-235.9,226.7z"/>
		</g>
	</g>
	<g transform="translate(91,161) scale(0.014,0.014)">
		<g transform="">
			<path d="M-19.5,226.7c153,0,277.1,124,277.1,277.1c0,153-124,277.1-277.1,277.1c-153,0-277.1-124-277.1-277.1
				C-296.5,350.8-172.5,226.7-19.5,226.7z"/>
		</g>
	</g>
	<g transform="translate(126,161) scale(0.014,0.014)">
		<g transform="">
			<path d="M251.1,226.7c153,0,277.1,124,277.1,277.1c0,153-124,277.1-277.1,277.1c-153,0-277.1-124-277.1-277.1
				C-26,350.8,98.1,226.7,251.1,226.7z"/>
		</g>
	</g>
	<g transform="translate(161,161) scale(0.014,0.014)">
		<g transform="">
			<path d="M521.6,226.7c153,0,277.1,124,277.1,277.1c0,153-124,277.1-277.1,277.1c-153,0-277.1-124-277.1-277.1
				C244.6,350.8,368.6,226.7,521.6,226.7z"/>
		</g>
	</g>
	<g transform="translate(168,161) scale(0.014,0.014)">
		<g transform="">
			<path d="M575.8,226.7c153,0,277.1,124,277.1,277.1c0,153-124,277.1-277.1,277.1c-153,0-277.1-124-277.1-277.1
				C298.7,350.8,422.7,226.7,575.8,226.7z"/>
		</g>
	</g>
	<g transform="translate(175,161) scale(0.014,0.014)">
		<g transform="">
			<path d="M629.9,226.7c153,0,277.1,124,277.1,277.1c0,153-124,277.1-277.1,277.1c-153,0-277.1-124-277.1-277.1
				C352.8,350.8,476.9,226.7,629.9,226.7z"/>
		</g>
	</g>
	<g transform="translate(189,161) scale(0.014,0.014)">
		<g transform="">
			<path d="M738.1,226.7c153,0,277.1,124,277.1,277.1c0,153-124,277.1-277.1,277.1c-153,0-277.1-124-277.1-277.1
				C461,350.8,585.1,226.7,738.1,226.7z"/>
		</g>
	</g>
	<g transform="translate(217,161) scale(0.014,0.014)">
		<g transform="">
			<path d="M954.5,226.7c153,0,277.1,124,277.1,277.1c0,153-124,277.1-277.1,277.1c-153,0-277.1-124-277.1-277.1
				C677.5,350.8,801.5,226.7,954.5,226.7z"/>
		</g>
	</g>
	<g transform="translate(224,161) scale(0.014,0.014)">
		<g transform="">
			<path d="M1008.7,226.7c153,0,277.1,124,277.1,277.1c0,153-124,277.1-277.1,277.1c-153,0-277.1-124-277.1-277.1
				C731.6,350.8,855.6,226.7,1008.7,226.7z"/>
		</g>
	</g>
	<g transform="translate(0,168) scale(0.014,0.014)">
		<g transform="">
			<path d="M-722.9,280.8c153,0,277.1,124,277.1,277.1c0,153-124,277.1-277.1,277.1c-153,0-277.1-124-277.1-277.1
				C-1000,404.9-876,280.8-722.9,280.8z"/>
		</g>
	</g>
	<g transform="translate(28,168) scale(0.014,0.014)">
		<g transform="">
			<path d="M-506.5,280.8c153,0,277.1,124,277.1,277.1c0,153-124,277.1-277.1,277.1c-153,0-277.1-124-277.1-277.1
				C-783.5,404.9-659.5,280.8-506.5,280.8z"/>
		</g>
	</g>
	<g transform="translate(35,168) scale(0.014,0.014)">
		<g transform="">
			<path d="M-452.4,280.8c153,0,277.1,124,277.1,277.1c0,153-124,277.1-277.1,277.1c-153,0-277.1-124-277.1-277.1
				C-729.4,404.9-605.4,280.8-452.4,280.8z"/>
		</g>
	</g>
	<g transform="translate(42,168) scale(0.014,0.014)">
		<g transform="">
			<path d="M-398.3,280.8c153,0,277.1,124,277.1,277.1c0,153-124,277.1-277.1,277.1c-153,0-277.1-124-277.1-277.1
				C-675.3,404.9-551.3,280.8-398.3,280.8z"/>
		</g>
	</g>
	<g transform="translate(49,168) scale(0.014,0.014)">
		<g transform="">
			<path d="M-344.2,280.8c153,0,277.1,124,277.1,277.1c0,153-124,277.1-277.1,277.1c-153,0-277.1-124-277.1-277.1
				C-621.2,404.9-497.2,280.8-344.2,280.8z"/>
		</g>
	</g>
	<g transform="translate(56,168) scale(0.014,0.014)">
		<g transform="">
			<path d="M-290,280.8c153,0,277.1,124,277.1,277.1C-13,710.9-137,835-290,835c-153,0-277.1-124-277.1-277.1
				C-567.1,404.9-443.1,280.8-290,280.8z"/>
		</g>
	</g>
	<g transform="translate(77,168) scale(0.014,0.014)">
		<g transform="">
			<path d="M-127.7,280.8c153,0,277.1,124,277.1,277.1c0,153-124,277.1-277.1,277.1c-153,0-277.1-124-277.1-277.1
				C-404.8,404.9-280.7,280.8-127.7,280.8z"/>
		</g>
	</g>
	<g transform="translate(84,168) scale(0.014,0.014)">
		<g transform="">
			<path d="M-73.6,280.8c153,0,277.1,124,277.1,277.1c0,153-124,277.1-277.1,277.1c-153,0-277.1-124-277.1-277.1
				C-350.6,404.9-226.6,280.8-73.6,280.8z"/>
		</g>
	</g>
	<g transform="translate(91,168) scale(0.014,0.014)">
		<g transform="">
			<path d="M-19.5,280.8c153,0,277.1,124,277.1,277.1c0,153-124,277.1-277.1,277.1c-153,0-277.1-124-277.1-277.1
				C-296.5,404.9-172.5,280.8-19.5,280.8z"/>
		</g>
	</g>
	<g transform="translate(98,168) scale(0.014,0.014)">
		<g transform="">
			<path d="M34.6,280.8c153,0,277.1,124,277.1,277.1c0,153-124,277.1-277.1,277.1c-153,0-277.1-124-277.1-277.1
				C-242.4,404.9-118.4,280.8,34.6,280.8z"/>
		</g>
	</g>
	<g transform="translate(105,168) scale(0.014,0.014)">
		<g transform="">
			<path d="M88.7,280.8c153,0,277.1,124,277.1,277.1c0,153-124,277.1-277.1,277.1c-153,0-277.1-124-277.1-277.1
				C-188.3,404.9-64.3,280.8,88.7,280.8z"/>
		</g>
	</g>
	<g transform="translate(126,168) scale(0.014,0.014)">
		<g transform="">
			<path d="M251.1,280.8c153,0,277.1,124,277.1,277.1c0,153-124,277.1-277.1,277.1C98.1,835-26,710.9-26,557.9
				C-26,404.9,98.1,280.8,251.1,280.8z"/>
		</g>
	</g>
	<g transform="translate(140,168) scale(0.014,0.014)">
		<g transform="">
			<path d="M359.3,280.8c153,0,277.1,124,277.1,277.1c0,153-124,277.1-277.1,277.1c-153,0-277.1-124-277.1-277.1
				C82.3,404.9,206.3,280.8,359.3,280.8z"/>
		</g>
	</g>
	<g transform="translate(154,168) scale(0.014,0.014)">
		<g transform="">
			<path d="M467.5,280.8c153,0,277.1,124,277.1,277.1c0,153-124,277.1-277.1,277.1c-153,0-277.1-124-277.1-277.1
				C190.5,404.9,314.5,280.8,467.5,280.8z"/>
		</g>
	</g>
	<g transform="translate(161,168) scale(0.014,0.014)">
		<g transform="">
			<path d="M521.6,280.8c153,0,277.1,124,277.1,277.1c0,153-124,277.1-277.1,277.1c-153,0-277.1-124-277.1-277.1
				C244.6,404.9,368.6,280.8,521.6,280.8z"/>
		</g>
	</g>
	<g transform="translate(168,168) scale(0.014,0.014)">
		<g transform="">
			<path d="M575.8,280.8c153,0,277.1,124,277.1,277.1c0,153-124,277.1-277.1,277.1c-153,0-277.1-124-277.1-277.1
				C298.7,404.9,422.7,280.8,575.8,280.8z"/>
		</g>
	</g>
	<g transform="translate(175,168) scale(0.014,0.014)">
		<g transform="">
			<path d="M629.9,280.8c153,0,277.1,124,277.1,277.1c0,153-124,277.1-277.1,277.1c-153,0-277.1-124-277.1-277.1
				C352.8,404.9,476.9,280.8,629.9,280.8z"/>
		</g>
	</g>
	<g transform="translate(182,168) scale(0.014,0.014)">
		<g transform="">
			<path d="M684,280.8c153,0,277.1,124,277.1,277.1C961,710.9,837,835,684,835c-153,0-277.1-124-277.1-277.1
				C406.9,404.9,531,280.8,684,280.8z"/>
		</g>
	</g>
	<g transform="translate(189,168) scale(0.014,0.014)">
		<g transform="">
			<path d="M738.1,280.8c153,0,277.1,124,277.1,277.1c0,153-124,277.1-277.1,277.1c-153,0-277.1-124-277.1-277.1
				C461,404.9,585.1,280.8,738.1,280.8z"/>
		</g>
	</g>
	<g transform="translate(196,168) scale(0.014,0.014)">
		<g transform="">
			<path d="M792.2,280.8c153,0,277.1,124,277.1,277.1c0,153-124,277.1-277.1,277.1c-153,0-277.1-124-277.1-277.1
				C515.2,404.9,639.2,280.8,792.2,280.8z"/>
		</g>
	</g>
	<g transform="translate(56,175) scale(0.014,0.014)">
		<g transform="">
			<path d="M-290,335C-137,335-13,459-13,612c0,153-124,277.1-277.1,277.1c-153,0-277.1-124-277.1-277.1
				C-567.1,459-443.1,335-290,335z"/>
		</g>
	</g>
	<g transform="translate(63,175) scale(0.014,0.014)">
		<g transform="">
			<path d="M-235.9,335c153,0,277.1,124,277.1,277.1c0,153-124,277.1-277.1,277.1c-153,0-277.1-124-277.1-277.1
				C-513,459-388.9,335-235.9,335z"/>
		</g>
	</g>
	<g transform="translate(133,175) scale(0.014,0.014)">
		<g transform="">
			<path d="M305.2,335c153,0,277.1,124,277.1,277.1c0,153-124,277.1-277.1,277.1c-153,0-277.1-124-277.1-277.1
				C28.1,459,152.2,335,305.2,335z"/>
		</g>
	</g>
	<g transform="translate(154,175) scale(0.014,0.014)">
		<g transform="">
			<path d="M467.5,335c153,0,277.1,124,277.1,277.1c0,153-124,277.1-277.1,277.1c-153,0-277.1-124-277.1-277.1
				C190.5,459,314.5,335,467.5,335z"/>
		</g>
	</g>
	<g transform="translate(168,175) scale(0.014,0.014)">
		<g transform="">
			<path d="M575.8,335c153,0,277.1,124,277.1,277.1c0,153-124,277.1-277.1,277.1c-153,0-277.1-124-277.1-277.1
				C298.7,459,422.7,335,575.8,335z"/>
		</g>
	</g>
	<g transform="translate(196,175) scale(0.014,0.014)">
		<g transform="">
			<path d="M792.2,335c153,0,277.1,124,277.1,277.1c0,153-124,277.1-277.1,277.1c-153,0-277.1-124-277.1-277.1
				C515.2,459,639.2,335,792.2,335z"/>
		</g>
	</g>
	<g transform="translate(210,175) scale(0.014,0.014)">
		<g transform="">
			<path d="M900.4,335c153,0,277.1,124,277.1,277.1c0,153-124,277.1-277.1,277.1c-153,0-277.1-124-277.1-277.1
				C623.4,459,747.4,335,900.4,335z"/>
		</g>
	</g>
	<g transform="translate(217,175) scale(0.014,0.014)">
		<g transform="">
			<path d="M954.5,335c153,0,277.1,124,277.1,277.1c0,153-124,277.1-277.1,277.1c-153,0-277.1-124-277.1-277.1
				C677.5,459,801.5,335,954.5,335z"/>
		</g>
	</g>
	<g transform="translate(56,182) scale(0.014,0.014)">
		<g transform="">
			<path d="M-290,389.1c153,0,277.1,124,277.1,277.1c0,153-124,277.1-277.1,277.1c-153,0-277.1-124-277.1-277.1
				C-567.1,513.1-443.1,389.1-290,389.1z"/>
		</g>
	</g>
	<g transform="translate(63,182) scale(0.014,0.014)">
		<g transform="">
			<path d="M-235.9,389.1c153,0,277.1,124,277.1,277.1c0,153-124,277.1-277.1,277.1c-153,0-277.1-124-277.1-277.1
				C-513,513.1-388.9,389.1-235.9,389.1z"/>
		</g>
	</g>
	<g transform="translate(77,182) scale(0.014,0.014)">
		<g transform="">
			<path d="M-127.7,389.1c153,0,277.1,124,277.1,277.1c0,153-124,277.1-277.1,277.1c-153,0-277.1-124-277.1-277.1
				C-404.8,513.1-280.7,389.1-127.7,389.1z"/>
		</g>
	</g>
	<g transform="translate(84,182) scale(0.014,0.014)">
		<g transform="">
			<path d="M-73.6,389.1c153,0,277.1,124,277.1,277.1c0,153-124,277.1-277.1,277.1c-153,0-277.1-124-277.1-277.1
				C-350.6,513.1-226.6,389.1-73.6,389.1z"/>
		</g>
	</g>
	<g transform="translate(91,182) scale(0.014,0.014)">
		<g transform="">
			<path d="M-19.5,389.1c153,0,277.1,124,277.1,277.1c0,153-124,277.1-277.1,277.1c-153,0-277.1-124-277.1-277.1
				C-296.5,513.1-172.5,389.1-19.5,389.1z"/>
		</g>
	</g>
	<g transform="translate(119,182) scale(0.014,0.014)">
		<g transform="">
			<path d="M197,389.1c153,0,277.1,124,277.1,277.1c0,153-124,277.1-277.1,277.1c-153,0-277.1-124-277.1-277.1
				C-80.1,513.1,44,389.1,197,389.1z"/>
		</g>
	</g>
	<g transform="translate(126,182) scale(0.014,0.014)">
		<g transform="">
			<path d="M251.1,389.1c153,0,277.1,124,277.1,277.1c0,153-124,277.1-277.1,277.1c-153,0-277.1-124-277.1-277.1
				C-26,513.1,98.1,389.1,251.1,389.1z"/>
		</g>
	</g>
	<g transform="translate(133,182) scale(0.014,0.014)">
		<g transform="">
			<path d="M305.2,389.1c153,0,277.1,124,277.1,277.1c0,153-124,277.1-277.1,277.1c-153,0-277.1-124-277.1-277.1
				C28.1,513.1,152.2,389.1,305.2,389.1z"/>
		</g>
	</g>
	<g transform="translate(140,182) scale(0.014,0.014)">
		<g transform="">
			<path d="M359.3,389.1c153,0,277.1,124,277.1,277.1c0,153-124,277.1-277.1,277.1c-153,0-277.1-124-277.1-277.1
				C82.3,513.1,206.3,389.1,359.3,389.1z"/>
		</g>
	</g>
	<g transform="translate(154,182) scale(0.014,0.014)">
		<g transform="">
			<path d="M467.5,389.1c153,0,277.1,124,277.1,277.1c0,153-124,277.1-277.1,277.1c-153,0-277.1-124-277.1-277.1
				C190.5,513.1,314.5,389.1,467.5,389.1z"/>
		</g>
	</g>
	<g transform="translate(161,182) scale(0.014,0.014)">
		<g transform="">
			<path d="M521.6,389.1c153,0,277.1,124,277.1,277.1c0,153-124,277.1-277.1,277.1c-153,0-277.1-124-277.1-277.1
				C244.6,513.1,368.6,389.1,521.6,389.1z"/>
		</g>
	</g>
	<g transform="translate(168,182) scale(0.014,0.014)">
		<g transform="">
			<path d="M575.8,389.1c153,0,277.1,124,277.1,277.1c0,153-124,277.1-277.1,277.1c-153,0-277.1-124-277.1-277.1
				C298.7,513.1,422.7,389.1,575.8,389.1z"/>
		</g>
	</g>
	<g transform="translate(182,182) scale(0.014,0.014)">
		<g transform="">
			<path d="M684,389.1c153,0,277.1,124,277.1,277.1c0,153-124,277.1-277.1,277.1c-153,0-277.1-124-277.1-277.1
				C406.9,513.1,531,389.1,684,389.1z"/>
		</g>
	</g>
	<g transform="translate(196,182) scale(0.014,0.014)">
		<g transform="">
			<path d="M792.2,389.1c153,0,277.1,124,277.1,277.1c0,153-124,277.1-277.1,277.1c-153,0-277.1-124-277.1-277.1
				C515.2,513.1,639.2,389.1,792.2,389.1z"/>
		</g>
	</g>
	<g transform="translate(203,182) scale(0.014,0.014)">
		<g transform="">
			<path d="M846.3,389.1c153,0,277.1,124,277.1,277.1c0,153-124,277.1-277.1,277.1c-153,0-277.1-124-277.1-277.1
				C569.3,513.1,693.3,389.1,846.3,389.1z"/>
		</g>
	</g>
	<g transform="translate(63,189) scale(0.014,0.014)">
		<g transform="">
			<path d="M-235.9,443.2c153,0,277.1,124,277.1,277.1c0,153-124,277.1-277.1,277.1c-153,0-277.1-124-277.1-277.1
				C-513,567.2-388.9,443.2-235.9,443.2z"/>
		</g>
	</g>
	<g transform="translate(70,189) scale(0.014,0.014)">
		<g transform="">
			<path d="M-181.8,443.2c153,0,277.1,124,277.1,277.1c0,153-124,277.1-277.1,277.1c-153,0-277.1-124-277.1-277.1
				C-458.9,567.2-334.8,443.2-181.8,443.2z"/>
		</g>
	</g>
	<g transform="translate(84,189) scale(0.014,0.014)">
		<g transform="">
			<path d="M-73.6,443.2c153,0,277.1,124,277.1,277.1c0,153-124,277.1-277.1,277.1c-153,0-277.1-124-277.1-277.1
				C-350.6,567.2-226.6,443.2-73.6,443.2z"/>
		</g>
	</g>
	<g transform="translate(105,189) scale(0.014,0.014)">
		<g transform="">
			<path d="M88.7,443.2c153,0,277.1,124,277.1,277.1c0,153-124,277.1-277.1,277.1c-153,0-277.1-124-277.1-277.1
				C-188.3,567.2-64.3,443.2,88.7,443.2z"/>
		</g>
	</g>
	<g transform="translate(112,189) scale(0.014,0.014)">
		<g transform="">
			<path d="M142.9,443.2c153,0,277.1,124,277.1,277.1c0,153-124,277.1-277.1,277.1c-153,0-277.1-124-277.1-277.1
				C-134.2,567.2-10.2,443.2,142.9,443.2z"/>
		</g>
	</g>
	<g transform="translate(140,189) scale(0.014,0.014)">
		<g transform="">
			<path d="M359.3,443.2c153,0,277.1,124,277.1,277.1c0,153-124,277.1-277.1,277.1c-153,0-277.1-124-277.1-277.1
				C82.3,567.2,206.3,443.2,359.3,443.2z"/>
		</g>
	</g>
	<g transform="translate(147,189) scale(0.014,0.014)">
		<g transform="">
			<path d="M413.4,443.2c153,0,277.1,124,277.1,277.1c0,153-124,277.1-277.1,277.1c-153,0-277.1-124-277.1-277.1
				C136.4,567.2,260.4,443.2,413.4,443.2z"/>
		</g>
	</g>
	<g transform="translate(154,189) scale(0.014,0.014)">
		<g transform="">
			<path d="M467.5,443.2c153,0,277.1,124,277.1,277.1c0,153-124,277.1-277.1,277.1c-153,0-277.1-124-277.1-277.1
				C190.5,567.2,314.5,443.2,467.5,443.2z"/>
		</g>
	</g>
	<g transform="translate(161,189) scale(0.014,0.014)">
		<g transform="">
			<path d="M521.6,443.2c153,0,277.1,124,277.1,277.1c0,153-124,277.1-277.1,277.1c-153,0-277.1-124-277.1-277.1
				C244.6,567.2,368.6,443.2,521.6,443.2z"/>
		</g>
	</g>
	<g transform="translate(168,189) scale(0.014,0.014)">
		<g transform="">
			<path d="M575.8,443.2c153,0,277.1,124,277.1,277.1c0,153-124,277.1-277.1,277.1c-153,0-277.1-124-277.1-277.1
				C298.7,567.2,422.7,443.2,575.8,443.2z"/>
		</g>
	</g>
	<g transform="translate(196,189) scale(0.014,0.014)">
		<g transform="">
			<path d="M792.2,443.2c153,0,277.1,124,277.1,277.1c0,153-124,277.1-277.1,277.1c-153,0-277.1-124-277.1-277.1
				C515.2,567.2,639.2,443.2,792.2,443.2z"/>
		</g>
	</g>
	<g transform="translate(203,189) scale(0.014,0.014)">
		<g transform="">
			<path d="M846.3,443.2c153,0,277.1,124,277.1,277.1c0,153-124,277.1-277.1,277.1c-153,0-277.1-124-277.1-277.1
				C569.3,567.2,693.3,443.2,846.3,443.2z"/>
		</g>
	</g>
	<g transform="translate(210,189) scale(0.014,0.014)">
		<g transform="">
			<path d="M900.4,443.2c153,0,277.1,124,277.1,277.1c0,153-124,277.1-277.1,277.1c-153,0-277.1-124-277.1-277.1
				C623.4,567.2,747.4,443.2,900.4,443.2z"/>
		</g>
	</g>
	<g transform="translate(217,189) scale(0.014,0.014)">
		<g transform="">
			<path d="M954.5,443.2c153,0,277.1,124,277.1,277.1c0,153-124,277.1-277.1,277.1c-153,0-277.1-124-277.1-277.1
				C677.5,567.2,801.5,443.2,954.5,443.2z"/>
		</g>
	</g>
	<g transform="translate(224,189) scale(0.014,0.014)">
		<g transform="">
			<path d="M1008.7,443.2c153,0,277.1,124,277.1,277.1c0,153-124,277.1-277.1,277.1c-153,0-277.1-124-277.1-277.1
				C731.6,567.2,855.6,443.2,1008.7,443.2z"/>
		</g>
	</g>
	<g transform="translate(77,196) scale(0.014,0.014)">
		<g transform="">
			<path d="M-127.7,497.3c153,0,277.1,124,277.1,277.1c0,153-124,277.1-277.1,277.1c-153,0-277.1-124-277.1-277.1
				C-404.8,621.3-280.7,497.3-127.7,497.3z"/>
		</g>
	</g>
	<g transform="translate(84,196) scale(0.014,0.014)">
		<g transform="">
			<path d="M-73.6,497.3c153,0,277.1,124,277.1,277.1c0,153-124,277.1-277.1,277.1c-153,0-277.1-124-277.1-277.1
				C-350.6,621.3-226.6,497.3-73.6,497.3z"/>
		</g>
	</g>
	<g transform="translate(98,196) scale(0.014,0.014)">
		<g transform="">
			<path d="M34.6,497.3c153,0,277.1,124,277.1,277.1c0,153-124,277.1-277.1,277.1c-153,0-277.1-124-277.1-277.1
				C-242.4,621.3-118.4,497.3,34.6,497.3z"/>
		</g>
	</g>
	<g transform="translate(133,196) scale(0.014,0.014)">
		<g transform="">
			<path d="M305.2,497.3c153,0,277.1,124,277.1,277.1c0,153-124,277.1-277.1,277.1c-153,0-277.1-124-277.1-277.1
				C28.1,621.3,152.2,497.3,305.2,497.3z"/>
		</g>
	</g>
	<g transform="translate(140,196) scale(0.014,0.014)">
		<g transform="">
			<path d="M359.3,497.3c153,0,277.1,124,277.1,277.1c0,153-124,277.1-277.1,277.1c-153,0-277.1-124-277.1-277.1
				C82.3,621.3,206.3,497.3,359.3,497.3z"/>
		</g>
	</g>
	<g transform="translate(161,196) scale(0.014,0.014)">
		<g transform="">
			<path d="M521.6,497.3c153,0,277.1,124,277.1,277.1c0,153-124,277.1-277.1,277.1c-153,0-277.1-124-277.1-277.1
				C244.6,621.3,368.6,497.3,521.6,497.3z"/>
		</g>
	</g>
	<g transform="translate(168,196) scale(0.014,0.014)">
		<g transform="">
			<path d="M575.8,497.3c153,0,277.1,124,277.1,277.1c0,153-124,277.1-277.1,277.1c-153,0-277.1-124-277.1-277.1
				C298.7,621.3,422.7,497.3,575.8,497.3z"/>
		</g>
	</g>
	<g transform="translate(175,196) scale(0.014,0.014)">
		<g transform="">
			<path d="M629.9,497.3c153,0,277.1,124,277.1,277.1c0,153-124,277.1-277.1,277.1c-153,0-277.1-124-277.1-277.1
				C352.8,621.3,476.9,497.3,629.9,497.3z"/>
		</g>
	</g>
	<g transform="translate(182,196) scale(0.014,0.014)">
		<g transform="">
			<path d="M684,497.3c153,0,277.1,124,277.1,277.1c0,153-124,277.1-277.1,277.1c-153,0-277.1-124-277.1-277.1
				C406.9,621.3,531,497.3,684,497.3z"/>
		</g>
	</g>
	<g transform="translate(189,196) scale(0.014,0.014)">
		<g transform="">
			<path d="M738.1,497.3c153,0,277.1,124,277.1,277.1c0,153-124,277.1-277.1,277.1c-153,0-277.1-124-277.1-277.1
				C461,621.3,585.1,497.3,738.1,497.3z"/>
		</g>
	</g>
	<g transform="translate(196,196) scale(0.014,0.014)">
		<g transform="">
			<path d="M792.2,497.3c153,0,277.1,124,277.1,277.1c0,153-124,277.1-277.1,277.1c-153,0-277.1-124-277.1-277.1
				C515.2,621.3,639.2,497.3,792.2,497.3z"/>
		</g>
	</g>
	<g transform="translate(210,196) scale(0.014,0.014)">
		<g transform="">
			<path d="M900.4,497.3c153,0,277.1,124,277.1,277.1c0,153-124,277.1-277.1,277.1c-153,0-277.1-124-277.1-277.1
				C623.4,621.3,747.4,497.3,900.4,497.3z"/>
		</g>
	</g>
	<g transform="translate(217,196) scale(0.014,0.014)">
		<g transform="">
			<path d="M954.5,497.3c153,0,277.1,124,277.1,277.1c0,153-124,277.1-277.1,277.1c-153,0-277.1-124-277.1-277.1
				C677.5,621.3,801.5,497.3,954.5,497.3z"/>
		</g>
	</g>
	<g transform="translate(56,203) scale(0.014,0.014)">
		<g transform="">
			<path d="M-290,551.4c153,0,277.1,124,277.1,277.1c0,153-124,277.1-277.1,277.1c-153,0-277.1-124-277.1-277.1
				C-567.1,675.5-443.1,551.4-290,551.4z"/>
		</g>
	</g>
	<g transform="translate(70,203) scale(0.014,0.014)">
		<g transform="">
			<path d="M-181.8,551.4c153,0,277.1,124,277.1,277.1c0,153-124,277.1-277.1,277.1c-153,0-277.1-124-277.1-277.1
				C-458.9,675.5-334.8,551.4-181.8,551.4z"/>
		</g>
	</g>
	<g transform="translate(77,203) scale(0.014,0.014)">
		<g transform="">
			<path d="M-127.7,551.4c153,0,277.1,124,277.1,277.1c0,153-124,277.1-277.1,277.1c-153,0-277.1-124-277.1-277.1
				C-404.8,675.5-280.7,551.4-127.7,551.4z"/>
		</g>
	</g>
	<g transform="translate(91,203) scale(0.014,0.014)">
		<g transform="">
			<path d="M-19.5,551.4c153,0,277.1,124,277.1,277.1c0,153-124,277.1-277.1,277.1c-153,0-277.1-124-277.1-277.1
				C-296.5,675.5-172.5,551.4-19.5,551.4z"/>
		</g>
	</g>
	<g transform="translate(119,203) scale(0.014,0.014)">
		<g transform="">
			<path d="M197,551.4c153,0,277.1,124,277.1,277.1c0,153-124,277.1-277.1,277.1c-153,0-277.1-124-277.1-277.1
				C-80.1,675.5,44,551.4,197,551.4z"/>
		</g>
	</g>
	<g transform="translate(126,203) scale(0.014,0.014)">
		<g transform="">
			<path d="M251.1,551.4c153,0,277.1,124,277.1,277.1c0,153-124,277.1-277.1,277.1c-153,0-277.1-124-277.1-277.1
				C-26,675.5,98.1,551.4,251.1,551.4z"/>
		</g>
	</g>
	<g transform="translate(133,203) scale(0.014,0.014)">
		<g transform="">
			<path d="M305.2,551.4c153,0,277.1,124,277.1,277.1c0,153-124,277.1-277.1,277.1c-153,0-277.1-124-277.1-277.1
				C28.1,675.5,152.2,551.4,305.2,551.4z"/>
		</g>
	</g>
	<g transform="translate(140,203) scale(0.014,0.014)">
		<g transform="">
			<path d="M359.3,551.4c153,0,277.1,124,277.1,277.1c0,153-124,277.1-277.1,277.1c-153,0-277.1-124-277.1-277.1
				C82.3,675.5,206.3,551.4,359.3,551.4z"/>
		</g>
	</g>
	<g transform="translate(147,203) scale(0.014,0.014)">
		<g transform="">
			<path d="M413.4,551.4c153,0,277.1,124,277.1,277.1c0,153-124,277.1-277.1,277.1c-153,0-277.1-124-277.1-277.1
				C136.4,675.5,260.4,551.4,413.4,551.4z"/>
		</g>
	</g>
	<g transform="translate(189,203) scale(0.014,0.014)">
		<g transform="">
			<path d="M738.1,551.4c153,0,277.1,124,277.1,277.1c0,153-124,277.1-277.1,277.1c-153,0-277.1-124-277.1-277.1
				C461,675.5,585.1,551.4,738.1,551.4z"/>
		</g>
	</g>
	<g transform="translate(56,210) scale(0.014,0.014)">
		<g transform="">
			<path d="M-290,605.5c153,0,277.1,124,277.1,277.1c0,153-124,277.1-277.1,277.1c-153,0-277.1-124-277.1-277.1
				C-567.1,729.6-443.1,605.5-290,605.5z"/>
		</g>
	</g>
	<g transform="translate(77,210) scale(0.014,0.014)">
		<g transform="">
			<path d="M-127.7,605.5c153,0,277.1,124,277.1,277.1c0,153-124,277.1-277.1,277.1c-153,0-277.1-124-277.1-277.1
				C-404.8,729.6-280.7,605.5-127.7,605.5z"/>
		</g>
	</g>
	<g transform="translate(84,210) scale(0.014,0.014)">
		<g transform="">
			<path d="M-73.6,605.5c153,0,277.1,124,277.1,277.1c0,153-124,277.1-277.1,277.1c-153,0-277.1-124-277.1-277.1
				C-350.6,729.6-226.6,605.5-73.6,605.5z"/>
		</g>
	</g>
	<g transform="translate(105,210) scale(0.014,0.014)">
		<g transform="">
			<path d="M88.7,605.5c153,0,277.1,124,277.1,277.1c0,153-124,277.1-277.1,277.1c-153,0-277.1-124-277.1-277.1
				C-188.3,729.6-64.3,605.5,88.7,605.5z"/>
		</g>
	</g>
	<g transform="translate(112,210) scale(0.014,0.014)">
		<g transform="">
			<path d="M142.9,605.5c153,0,277.1,124,277.1,277.1c0,153-124,277.1-277.1,277.1c-153,0-277.1-124-277.1-277.1
				C-134.2,729.6-10.2,605.5,142.9,605.5z"/>
		</g>
	</g>
	<g transform="translate(126,210) scale(0.014,0.014)">
		<g transform="">
			<path d="M251.1,605.5c153,0,277.1,124,277.1,277.1c0,153-124,277.1-277.1,277.1c-153,0-277.1-124-277.1-277.1
				C-26,729.6,98.1,605.5,251.1,605.5z"/>
		</g>
	</g>
	<g transform="translate(133,210) scale(0.014,0.014)">
		<g transform="">
			<path d="M305.2,605.5c153,0,277.1,124,277.1,277.1c0,153-124,277.1-277.1,277.1c-153,0-277.1-124-277.1-277.1
				C28.1,729.6,152.2,605.5,305.2,605.5z"/>
		</g>
	</g>
	<g transform="translate(154,210) scale(0.014,0.014)">
		<g transform="">
			<path d="M467.5,605.5c153,0,277.1,124,277.1,277.1c0,153-124,277.1-277.1,277.1c-153,0-277.1-124-277.1-277.1
				C190.5,729.6,314.5,605.5,467.5,605.5z"/>
		</g>
	</g>
	<g transform="translate(161,210) scale(0.014,0.014)">
		<g transform="">
			<path d="M521.6,605.5c153,0,277.1,124,277.1,277.1c0,153-124,277.1-277.1,277.1c-153,0-277.1-124-277.1-277.1
				C244.6,729.6,368.6,605.5,521.6,605.5z"/>
		</g>
	</g>
	<g transform="translate(168,210) scale(0.014,0.014)">
		<g transform="">
			<path d="M575.8,605.5c153,0,277.1,124,277.1,277.1c0,153-124,277.1-277.1,277.1c-153,0-277.1-124-277.1-277.1
				C298.7,729.6,422.7,605.5,575.8,605.5z"/>
		</g>
	</g>
	<g transform="translate(175,210) scale(0.014,0.014)">
		<g transform="">
			<path d="M629.9,605.5c153,0,277.1,124,277.1,277.1c0,153-124,277.1-277.1,277.1c-153,0-277.1-124-277.1-277.1
				C352.8,729.6,476.9,605.5,629.9,605.5z"/>
		</g>
	</g>
	<g transform="translate(182,210) scale(0.014,0.014)">
		<g transform="">
			<path d="M684,605.5c153,0,277.1,124,277.1,277.1c0,153-124,277.1-277.1,277.1c-153,0-277.1-124-277.1-277.1
				C406.9,729.6,531,605.5,684,605.5z"/>
		</g>
	</g>
	<g transform="translate(203,210) scale(0.014,0.014)">
		<g transform="">
			<path d="M846.3,605.5c153,0,277.1,124,277.1,277.1c0,153-124,277.1-277.1,277.1c-153,0-277.1-124-277.1-277.1
				C569.3,729.6,693.3,605.5,846.3,605.5z"/>
		</g>
	</g>
	<g transform="translate(210,210) scale(0.014,0.014)">
		<g transform="">
			<path d="M900.4,605.5c153,0,277.1,124,277.1,277.1c0,153-124,277.1-277.1,277.1c-153,0-277.1-124-277.1-277.1
				C623.4,729.6,747.4,605.5,900.4,605.5z"/>
		</g>
	</g>
	<g transform="translate(70,217) scale(0.014,0.014)">
		<g transform="">
			<path d="M-181.8,659.6c153,0,277.1,124,277.1,277.1c0,153-124,277.1-277.1,277.1c-153,0-277.1-124-277.1-277.1
				C-458.9,783.7-334.8,659.6-181.8,659.6z"/>
		</g>
	</g>
	<g transform="translate(91,217) scale(0.014,0.014)">
		<g transform="">
			<path d="M-19.5,659.6c153,0,277.1,124,277.1,277.1c0,153-124,277.1-277.1,277.1c-153,0-277.1-124-277.1-277.1
				C-296.5,783.7-172.5,659.6-19.5,659.6z"/>
		</g>
	</g>
	<g transform="translate(105,217) scale(0.014,0.014)">
		<g transform="">
			<path d="M88.7,659.6c153,0,277.1,124,277.1,277.1c0,153-124,277.1-277.1,277.1c-153,0-277.1-124-277.1-277.1
				C-188.3,783.7-64.3,659.6,88.7,659.6z"/>
		</g>
	</g>
	<g transform="translate(112,217) scale(0.014,0.014)">
		<g transform="">
			<path d="M142.9,659.6c153,0,277.1,124,277.1,277.1c0,153-124,277.1-277.1,277.1c-153,0-277.1-124-277.1-277.1
				C-134.2,783.7-10.2,659.6,142.9,659.6z"/>
		</g>
	</g>
	<g transform="translate(126,217) scale(0.014,0.014)">
		<g transform="">
			<path d="M251.1,659.6c153,0,277.1,124,277.1,277.1c0,153-124,277.1-277.1,277.1c-153,0-277.1-124-277.1-277.1
				C-26,783.7,98.1,659.6,251.1,659.6z"/>
		</g>
	</g>
	<g transform="translate(147,217) scale(0.014,0.014)">
		<g transform="">
			<path d="M413.4,659.6c153,0,277.1,124,277.1,277.1c0,153-124,277.1-277.1,277.1c-153,0-277.1-124-277.1-277.1
				C136.4,783.7,260.4,659.6,413.4,659.6z"/>
		</g>
	</g>
	<g transform="translate(161,217) scale(0.014,0.014)">
		<g transform="">
			<path d="M521.6,659.6c153,0,277.1,124,277.1,277.1c0,153-124,277.1-277.1,277.1c-153,0-277.1-124-277.1-277.1
				C244.6,783.7,368.6,659.6,521.6,659.6z"/>
		</g>
	</g>
	<g transform="translate(168,217) scale(0.014,0.014)">
		<g transform="">
			<path d="M575.8,659.6c153,0,277.1,124,277.1,277.1c0,153-124,277.1-277.1,277.1c-153,0-277.1-124-277.1-277.1
				C298.7,783.7,422.7,659.6,575.8,659.6z"/>
		</g>
	</g>
	<g transform="translate(175,217) scale(0.014,0.014)">
		<g transform="">
			<path d="M629.9,659.6c153,0,277.1,124,277.1,277.1c0,153-124,277.1-277.1,277.1c-153,0-277.1-124-277.1-277.1
				C352.8,783.7,476.9,659.6,629.9,659.6z"/>
		</g>
	</g>
	<g transform="translate(203,217) scale(0.014,0.014)">
		<g transform="">
			<path d="M846.3,659.6c153,0,277.1,124,277.1,277.1c0,153-124,277.1-277.1,277.1c-153,0-277.1-124-277.1-277.1
				C569.3,783.7,693.3,659.6,846.3,659.6z"/>
		</g>
	</g>
	<g transform="translate(224,217) scale(0.014,0.014)">
		<g transform="">
			<path d="M1008.7,659.6c153,0,277.1,124,277.1,277.1c0,153-124,277.1-277.1,277.1c-153,0-277.1-124-277.1-277.1
				C731.6,783.7,855.6,659.6,1008.7,659.6z"/>
		</g>
	</g>
	<g transform="translate(112,224) scale(0.014,0.014)">
		<g transform="">
			<path d="M142.9,713.7c153,0,277.1,124,277.1,277.1c0,153-124,277.1-277.1,277.1c-153,0-277.1-124-277.1-277.1
				C-134.2,837.8-10.2,713.7,142.9,713.7z"/>
		</g>
	</g>
	<g transform="translate(126,224) scale(0.014,0.014)">
		<g transform="">
			<path d="M251.1,713.7c153,0,277.1,124,277.1,277.1c0,153-124,277.1-277.1,277.1c-153,0-277.1-124-277.1-277.1
				C-26,837.8,98.1,713.7,251.1,713.7z"/>
		</g>
	</g>
	<g transform="translate(161,224) scale(0.014,0.014)">
		<g transform="">
			<path d="M521.6,713.7c153,0,277.1,124,277.1,277.1c0,153-124,277.1-277.1,277.1c-153,0-277.1-124-277.1-277.1
				C244.6,837.8,368.6,713.7,521.6,713.7z"/>
		</g>
	</g>
	<g transform="translate(182,224) scale(0.014,0.014)">
		<g transform="">
			<path d="M684,713.7c153,0,277.1,124,277.1,277.1c0,153-124,277.1-277.1,277.1c-153,0-277.1-124-277.1-277.1
				C406.9,837.8,531,713.7,684,713.7z"/>
		</g>
	</g>
	<g transform="translate(189,224) scale(0.014,0.014)">
		<g transform="">
			<path d="M738.1,713.7c153,0,277.1,124,277.1,277.1c0,153-124,277.1-277.1,277.1c-153,0-277.1-124-277.1-277.1
				C461,837.8,585.1,713.7,738.1,713.7z"/>
		</g>
	</g>
	<g transform="translate(196,224) scale(0.014,0.014)">
		<g transform="">
			<path d="M792.2,713.7c153,0,277.1,124,277.1,277.1c0,153-124,277.1-277.1,277.1c-153,0-277.1-124-277.1-277.1
				C515.2,837.8,639.2,713.7,792.2,713.7z"/>
		</g>
	</g>
	<g transform="translate(203,224) scale(0.014,0.014)">
		<g transform="">
			<path d="M846.3,713.7c153,0,277.1,124,277.1,277.1c0,153-124,277.1-277.1,277.1c-153,0-277.1-124-277.1-277.1
				C569.3,837.8,693.3,713.7,846.3,713.7z"/>
		</g>
	</g>
	<g transform="translate(0,0) scale(0.49, 0.49)">
		<g transform="">
			<g>
				<path class="st0" d="M44.4-12.4H9.3c-4.5,0-8.7,1.4-12.2,3.8c-2.7,1.8-4.9,4.3-6.5,7.1c-1.6,2.9-2.6,6.3-2.6,9.9v36
					c0,11.5,9.5,20.8,21.2,20.8l17.6,0l17.6,0c11.7,0,21.2-9.3,21.2-20.8v-36C65.6-3.1,56.1-12.4,44.4-12.4z"/>
				<path d="M44.4-29.1H9.3l0,0C-7.9-29.1-22.4-17.8-27-2.3c-0.5,1.6-0.9,3.2-1.1,4.9c-0.3,1.9-0.4,3.8-0.4,5.7v36
					c0,20.6,17,37.4,37.8,37.4l17.6,0l17.6,0c20.9,0,37.8-16.8,37.8-37.4v-36C82.3-12.3,65.3-29.1,44.4-29.1z M65.6,44.3
					c0,11.5-9.5,20.8-21.2,20.8l-17.6,0l-17.6,0c-11.7,0-21.2-9.3-21.2-20.8v-36c0-3.6,0.9-7,2.6-9.9c1.6-2.8,3.8-5.3,6.5-7.1
					c3.4-2.4,7.6-3.8,12.2-3.8h35.2c11.7,0,21.2,9.3,21.2,20.8V44.3z"/>
			</g>
		</g>
	</g>
	<g transform="translate(182,0) scale(0.49, 0.49)">
		<g transform="">
			<g>
				<path class="st0" d="M84.6-12.4H49.5c-4.5,0-8.7,1.4-12.2,3.8c-2.7,1.8-4.9,4.3-6.5,7.1c-1.6,2.9-2.6,6.3-2.6,9.9v36
					c0,11.5,9.5,20.8,21.2,20.8l17.6,0l17.6,0c11.7,0,21.2-9.3,21.2-20.8v-36C105.8-3.1,96.3-12.4,84.6-12.4z"/>
				<path d="M84.6-29.1H49.5l0,0c-17.1,0-31.6,11.3-36.3,26.8c-0.5,1.6-0.9,3.2-1.1,4.9c-0.3,1.9-0.4,3.8-0.4,5.7v36
					c0,20.6,17,37.4,37.8,37.4l17.6,0l17.6,0c20.9,0,37.8-16.8,37.8-37.4v-36C122.4-12.3,105.5-29.1,84.6-29.1z M105.8,44.3
					c0,11.5-9.5,20.8-21.2,20.8l-17.6,0l-17.6,0c-11.7,0-21.2-9.3-21.2-20.8v-36c0-3.6,0.9-7,2.6-9.9c1.6-2.8,3.8-5.3,6.5-7.1
					c3.4-2.4,7.6-3.8,12.2-3.8h35.2c11.7,0,21.2,9.3,21.2,20.8V44.3z"/>
			</g>
		</g>
	</g>
	<g transform="translate(0,182) scale(0.49, 0.49)">
		<g transform="">
			<g>
				<path class="st0" d="M44.4,27.7H9.3c-4.5,0-8.7,1.4-12.2,3.8c-2.7,1.8-4.9,4.3-6.5,7.1c-1.6,2.9-2.6,6.3-2.6,9.9v36
					c0,11.5,9.5,20.8,21.2,20.8l17.6,0l17.6,0c11.7,0,21.2-9.3,21.2-20.8v-36C65.6,37.1,56.1,27.7,44.4,27.7z"/>
				<path d="M44.4,11.1H9.3l0,0c-17.1,0-31.6,11.3-36.3,26.8c-0.5,1.6-0.9,3.2-1.1,4.9c-0.3,1.9-0.4,3.8-0.4,5.7v36
					c0,20.6,17,37.4,37.8,37.4l17.6,0l17.6,0c20.9,0,37.8-16.8,37.8-37.4v-36C82.3,27.9,65.3,11.1,44.4,11.1z M65.6,84.5
					c0,11.5-9.5,20.8-21.2,20.8l-17.6,0l-17.6,0c-11.7,0-21.2-9.3-21.2-20.8v-36c0-3.6,0.9-7,2.6-9.9c1.6-2.8,3.8-5.3,6.5-7.1
					c3.4-2.4,7.6-3.8,12.2-3.8h35.2c11.7,0,21.2,9.3,21.2,20.8V84.5z"/>
			</g>
		</g>
	</g>
	<g transform="translate(14,14) scale(0.20588235294118, 0.20588235294118)">
		<g transform="">
			<circle cx="-5.2" cy="-6.4" r="55.4"/>
		</g>
	</g>
	<g transform="translate(196,14) scale(0.20588235294118, 0.20588235294118)">
		<g transform="">
			<circle cx="90.4" cy="-6.4" r="55.4"/>
		</g>
	</g>
	<g transform="translate(14,196) scale(0.20588235294118, 0.20588235294118)">
		<g transform="">
			<circle cx="-5.2" cy="89.2" r="55.4"/>
		</g>
	</g>
	<g transform="translate(77,77) scale(0.077,0.077)">
		<g id="g3_00000026151872124042577190000010342693435701439163_" transform="matrix(8.9129738,0,0,8.9129738,0,9.1455078e-6)">
			<g id="g5_00000079448403295222594090000006603012605785461152_">
				<circle id="XMLID_00000006667540582627595900000010668591705416568227_" cx="53.9" cy="53.5" r="62.2"/>
			</g>
			<path id="path8_00000150788617447385670780000018065218400671656863_" class="st1" d="M51.6,80.8h4.9c0,0,1.5-0.2,2.2-1
				c0.7-0.7,0.7-2.1,0.7-2.1s-0.1-6.5,2.9-7.5c3-0.9,6.8,6.3,10.9,9.1c3.1,2.1,5.4,1.7,5.4,1.7l10.9-0.2c0,0,5.7-0.4,3-4.8
				c-0.2-0.4-1.6-3.3-8.1-9.4c-6.8-6.3-5.9-5.3,2.3-16.3c5-6.7,7-10.8,6.4-12.5c-0.6-1.7-4.3-1.2-4.3-1.2l-12.3,0.1
				c0,0-0.9-0.1-1.6,0.3c-0.7,0.4-1.1,1.3-1.1,1.3s-1.9,5.2-4.5,9.6c-5.5,9.3-7.7,9.8-8.5,9.2c-2.1-1.3-1.6-5.4-1.6-8.3
				c0-9,1.4-12.7-2.7-13.7c-1.3-0.3-2.3-0.5-5.7-0.6c-4.4,0-8.1,0-10.2,1c-1.4,0.7-2.5,2.2-1.8,2.3c0.8,0.1,2.6,0.5,3.6,1.8
				c1.3,1.7,1.2,5.6,1.2,5.6s0.7,10.6-1.7,11.9c-1.7,0.9-3.9-0.9-8.8-9.4c-2.5-4.3-4.4-9.1-4.4-9.1s-0.4-0.9-1-1.4
				c-0.8-0.6-1.9-0.8-1.9-0.8l-11.7,0.1c0,0-1.8,0-2.4,0.8c-0.6,0.7,0,2.1,0,2.1S21,60.8,31.3,71.6C40.8,81.5,51.6,80.8,51.6,80.8
				C51.6,80.8,51.6,80.8,51.6,80.8z"/>
		</g>
		<g id="g10_00000170268691939197754950000003523304568751409036_" transform="translate(0,887.80401)">
		</g>
		<g id="g12_00000124880687648053220650000018426324448700454807_" transform="translate(0,887.80401)">
		</g>
		<g id="g14_00000062189409894646230330000011321472967249928581_" transform="translate(0,887.80401)">
		</g>
		<g id="g16_00000088115375214108402540000007715905821596125851_" transform="translate(0,887.80401)">
		</g>
		<g id="g18_00000182487439024277405590000001117373599460286089_" transform="translate(0,887.80401)">
		</g>
		<g id="g20_00000083070612505172554000000002714811577729938862_" transform="translate(0,887.80401)">
		</g>
		<g id="g22_00000144313349079189551910000001590964782203566773_" transform="translate(0,887.80401)">
		</g>
		<g id="g24_00000046315819418972998790000001939684786650013608_" transform="translate(0,887.80401)">
		</g>
		<g id="g26_00000024691679160836521670000010583613100308369845_" transform="translate(0,887.80401)">
		</g>
		<g id="g28_00000000185801105864742570000015710778608618751105_" transform="translate(0,887.80401)">
		</g>
		<g id="g30_00000103952951644326549020000014382301413491600808_" transform="translate(0,887.80401)">
		</g>
		<g id="g32_00000001628183517953084440000011603237801416644505_" transform="translate(0,887.80401)">
		</g>
		<g id="g34_00000021099703702886326370000011359861762208245650_" transform="translate(0,887.80401)">
		</g>
		<g id="g36_00000093179025748075009100000002763663936765645231_" transform="translate(0,887.80401)">
		</g>
		<g id="g38_00000123402720352259260430000002942802505362578836_" transform="translate(0,887.80401)">
		</g>
	</g>
</g>
</svg>
