<?xml version="1.0" encoding="utf-8"?>
<!-- Generator: Adobe Illustrator 26.1.0, SVG Export Plug-In . SVG Version: 6.00 Build 0)  -->
<svg version="1.1" id="Слой_1" xmlns="http://www.w3.org/2000/svg" xmlns:xlink="http://www.w3.org/1999/xlink" x="0px" y="0px"
	 viewBox="0 0 256 256" style="enable-background:new 0 0 256 256;" xml:space="preserve">
<style type="text/css">
	.st0{fill:none;}
	.st1{fill-rule:evenodd;clip-rule:evenodd;fill:#FFFFFF;}
</style>
<g>
	<g transform="translate(112,0) scale(0.028,0.028)">
		<g transform="">
			<path d="M-1312.36,0.31c87.06,0,157.64,70.58,157.64,157.64c0,87.06-70.57,157.64-157.64,157.64
				c-87.06,0-157.64-70.57-157.64-157.64C-1469.99,70.89-1399.42,0.31-1312.36,0.31z"/>
		</g>
	</g>
	<g transform="translate(140,0) scale(0.028,0.028)">
		<g transform="">
			<path d="M-1681.82,0.31c87.06,0,157.64,70.58,157.64,157.64c0,87.06-70.57,157.64-157.64,157.64
				c-87.06,0-157.64-70.57-157.64-157.64C-1839.45,70.89-1768.87,0.31-1681.82,0.31z"/>
		</g>
	</g>
	<g transform="translate(154,0) scale(0.028,0.028)">
		<g transform="">
			<path d="M-1866.54,0.31c87.06,0,157.64,70.58,157.64,157.64c0,87.06-70.57,157.64-157.64,157.64
				c-87.06,0-157.64-70.57-157.64-157.64C-2024.18,70.89-1953.6,0.31-1866.54,0.31z"/>
		</g>
	</g>
	<g transform="translate(168,0) scale(0.028,0.028)">
		<g transform="">
			<path d="M-2051.27,0.31c87.06,0,157.64,70.58,157.64,157.64c0,87.06-70.57,157.64-157.64,157.64
				c-87.06,0-157.64-70.57-157.64-157.64C-2208.91,70.89-2138.33,0.31-2051.27,0.31z"/>
		</g>
	</g>
	<g transform="translate(182,0) scale(0.028,0.028)">
		<g transform="">
			<path d="M-2236,0.31c87.06,0,157.64,70.58,157.64,157.64c0,87.06-70.57,157.64-157.64,157.64
				c-87.06,0-157.64-70.57-157.64-157.64C-2393.64,70.89-2323.06,0.31-2236,0.31z"/>
		</g>
	</g>
	<g transform="translate(224,0) scale(0.028,0.028)">
		<g transform="">
			<path d="M-2790.19,0.31c87.06,0,157.64,70.58,157.64,157.64c0,87.06-70.57,157.64-157.64,157.64
				c-87.06,0-157.64-70.57-157.64-157.64C-2947.83,70.89-2877.25,0.31-2790.19,0.31z"/>
		</g>
	</g>
	<g transform="translate(238,0) scale(0.028,0.028)">
		<g transform="">
			<path d="M-2974.92,0.31c87.06,0,157.64,70.58,157.64,157.64c0,87.06-70.57,157.64-157.64,157.64
				c-87.06,0-157.64-70.57-157.64-157.64C-3132.55,70.89-3061.98,0.31-2974.92,0.31z"/>
		</g>
	</g>
	<g transform="translate(252,0) scale(0.028,0.028)">
		<g transform="">
			<path d="M-3159.65,0.31c87.06,0,157.64,70.58,157.64,157.64c0,87.06-70.57,157.64-157.64,157.64
				c-87.06,0-157.64-70.57-157.64-157.64C-3317.28,70.89-3246.71,0.31-3159.65,0.31z"/>
		</g>
	</g>
	<g transform="translate(126,14) scale(0.028,0.028)">
		<g transform="">
			<path d="M-1497.09-184.42c87.06,0,157.64,70.58,157.64,157.64c0,87.06-70.57,157.64-157.64,157.64
				c-87.06,0-157.64-70.57-157.64-157.64C-1654.72-113.84-1584.15-184.42-1497.09-184.42z"/>
		</g>
	</g>
	<g transform="translate(140,14) scale(0.028,0.028)">
		<g transform="">
			<path d="M-1681.82-184.42c87.06,0,157.64,70.58,157.64,157.64c0,87.06-70.57,157.64-157.64,157.64
				c-87.06,0-157.64-70.57-157.64-157.64C-1839.45-113.84-1768.87-184.42-1681.82-184.42z"/>
		</g>
	</g>
	<g transform="translate(168,14) scale(0.028,0.028)">
		<g transform="">
			<path d="M-2051.27-184.42c87.06,0,157.64,70.58,157.64,157.64c0,87.06-70.57,157.64-157.64,157.64
				c-87.06,0-157.64-70.57-157.64-157.64C-2208.91-113.84-2138.33-184.42-2051.27-184.42z"/>
		</g>
	</g>
	<g transform="translate(182,14) scale(0.028,0.028)">
		<g transform="">
			<path d="M-2236-184.42c87.06,0,157.64,70.58,157.64,157.64c0,87.06-70.57,157.64-157.64,157.64
				c-87.06,0-157.64-70.57-157.64-157.64C-2393.64-113.84-2323.06-184.42-2236-184.42z"/>
		</g>
	</g>
	<g transform="translate(196,14) scale(0.028,0.028)">
		<g transform="">
			<path d="M-2420.73-184.42c87.06,0,157.64,70.58,157.64,157.64c0,87.06-70.57,157.64-157.64,157.64
				c-87.06,0-157.64-70.57-157.64-157.64C-2578.37-113.84-2507.79-184.42-2420.73-184.42z"/>
		</g>
	</g>
	<g transform="translate(252,14) scale(0.028,0.028)">
		<g transform="">
			<path d="M-3159.65-184.42c87.06,0,157.64,70.58,157.64,157.64c0,87.06-70.57,157.64-157.64,157.64
				c-87.06,0-157.64-70.57-157.64-157.64C-3317.28-113.84-3246.71-184.42-3159.65-184.42z"/>
		</g>
	</g>
	<g transform="translate(126,28) scale(0.028,0.028)">
		<g transform="">
			<path d="M-1497.09-369.15c87.06,0,157.64,70.58,157.64,157.64c0,87.06-70.57,157.64-157.64,157.64
				c-87.06,0-157.64-70.57-157.64-157.64C-1654.72-298.57-1584.15-369.15-1497.09-369.15z"/>
		</g>
	</g>
	<g transform="translate(140,28) scale(0.028,0.028)">
		<g transform="">
			<path d="M-1681.82-369.15c87.06,0,157.64,70.58,157.64,157.64c0,87.06-70.57,157.64-157.64,157.64
				c-87.06,0-157.64-70.57-157.64-157.64C-1839.45-298.57-1768.87-369.15-1681.82-369.15z"/>
		</g>
	</g>
	<g transform="translate(196,28) scale(0.028,0.028)">
		<g transform="">
			<path d="M-2420.73-369.15c87.06,0,157.64,70.58,157.64,157.64c0,87.06-70.57,157.64-157.64,157.64
				c-87.06,0-157.64-70.57-157.64-157.64C-2578.37-298.57-2507.79-369.15-2420.73-369.15z"/>
		</g>
	</g>
	<g transform="translate(224,28) scale(0.028,0.028)">
		<g transform="">
			<path d="M-2790.19-369.15c87.06,0,157.64,70.58,157.64,157.64c0,87.06-70.57,157.64-157.64,157.64
				c-87.06,0-157.64-70.57-157.64-157.64C-2947.83-298.57-2877.25-369.15-2790.19-369.15z"/>
		</g>
	</g>
	<g transform="translate(252,28) scale(0.028,0.028)">
		<g transform="">
			<path d="M-3159.65-369.15c87.06,0,157.64,70.58,157.64,157.64c0,87.06-70.57,157.64-157.64,157.64
				c-87.06,0-157.64-70.57-157.64-157.64C-3317.28-298.57-3246.71-369.15-3159.65-369.15z"/>
		</g>
	</g>
	<g transform="translate(266,28) scale(0.028,0.028)">
		<g transform="">
			<path d="M-3344.38-369.15c87.06,0,157.64,70.58,157.64,157.64c0,87.06-70.57,157.64-157.64,157.64
				c-87.06,0-157.64-70.57-157.64-157.64C-3502.01-298.57-3431.44-369.15-3344.38-369.15z"/>
		</g>
	</g>
	<g transform="translate(112,42) scale(0.028,0.028)">
		<g transform="">
			<path d="M-1312.36-553.88c87.06,0,157.64,70.58,157.64,157.64c0,87.06-70.57,157.64-157.64,157.64
				c-87.06,0-157.64-70.57-157.64-157.64C-1469.99-483.3-1399.42-553.88-1312.36-553.88z"/>
		</g>
	</g>
	<g transform="translate(140,42) scale(0.028,0.028)">
		<g transform="">
			<path d="M-1681.82-553.88c87.06,0,157.64,70.58,157.64,157.64c0,87.06-70.57,157.64-157.64,157.64
				c-87.06,0-157.64-70.57-157.64-157.64C-1839.45-483.3-1768.87-553.88-1681.82-553.88z"/>
		</g>
	</g>
	<g transform="translate(154,42) scale(0.028,0.028)">
		<g transform="">
			<path d="M-1866.54-553.88c87.06,0,157.64,70.58,157.64,157.64c0,87.06-70.57,157.64-157.64,157.64
				c-87.06,0-157.64-70.57-157.64-157.64C-2024.18-483.3-1953.6-553.88-1866.54-553.88z"/>
		</g>
	</g>
	<g transform="translate(182,42) scale(0.028,0.028)">
		<g transform="">
			<path d="M-2236-553.88c87.06,0,157.64,70.58,157.64,157.64c0,87.06-70.57,157.64-157.64,157.64
				c-87.06,0-157.64-70.57-157.64-157.64C-2393.64-483.3-2323.06-553.88-2236-553.88z"/>
		</g>
	</g>
	<g transform="translate(196,42) scale(0.028,0.028)">
		<g transform="">
			<path d="M-2420.73-553.88c87.06,0,157.64,70.58,157.64,157.64c0,87.06-70.57,157.64-157.64,157.64
				c-87.06,0-157.64-70.57-157.64-157.64C-2578.37-483.3-2507.79-553.88-2420.73-553.88z"/>
		</g>
	</g>
	<g transform="translate(210,42) scale(0.028,0.028)">
		<g transform="">
			<path d="M-2605.46-553.88c87.06,0,157.64,70.58,157.64,157.64c0,87.06-70.57,157.64-157.64,157.64
				c-87.06,0-157.64-70.57-157.64-157.64C-2763.1-483.3-2692.52-553.88-2605.46-553.88z"/>
		</g>
	</g>
	<g transform="translate(252,42) scale(0.028,0.028)">
		<g transform="">
			<path d="M-3159.65-553.88c87.06,0,157.64,70.58,157.64,157.64c0,87.06-70.57,157.64-157.64,157.64
				c-87.06,0-157.64-70.57-157.64-157.64C-3317.28-483.3-3246.71-553.88-3159.65-553.88z"/>
		</g>
	</g>
	<g transform="translate(140,56) scale(0.028,0.028)">
		<g transform="">
			<path d="M-1681.82-738.61c87.06,0,157.64,70.58,157.64,157.64c0,87.06-70.57,157.64-157.64,157.64
				c-87.06,0-157.64-70.57-157.64-157.64C-1839.45-668.03-1768.87-738.61-1681.82-738.61z"/>
		</g>
	</g>
	<g transform="translate(154,56) scale(0.028,0.028)">
		<g transform="">
			<path d="M-1866.54-738.61c87.06,0,157.64,70.58,157.64,157.64c0,87.06-70.57,157.64-157.64,157.64
				c-87.06,0-157.64-70.57-157.64-157.64C-2024.18-668.03-1953.6-738.61-1866.54-738.61z"/>
		</g>
	</g>
	<g transform="translate(168,56) scale(0.028,0.028)">
		<g transform="">
			<path d="M-2051.27-738.61c87.06,0,157.64,70.58,157.64,157.64c0,87.06-70.57,157.64-157.64,157.64
				c-87.06,0-157.64-70.57-157.64-157.64C-2208.91-668.03-2138.33-738.61-2051.27-738.61z"/>
		</g>
	</g>
	<g transform="translate(252,56) scale(0.028,0.028)">
		<g transform="">
			<path d="M-3159.65-738.61c87.06,0,157.64,70.58,157.64,157.64c0,87.06-70.57,157.64-157.64,157.64
				c-87.06,0-157.64-70.57-157.64-157.64C-3317.28-668.03-3246.71-738.61-3159.65-738.61z"/>
		</g>
	</g>
	<g transform="translate(266,56) scale(0.028,0.028)">
		<g transform="">
			<path d="M-3344.38-738.61c87.06,0,157.64,70.58,157.64,157.64c0,87.06-70.57,157.64-157.64,157.64
				c-87.06,0-157.64-70.57-157.64-157.64C-3502.01-668.03-3431.44-738.61-3344.38-738.61z"/>
		</g>
	</g>
	<g transform="translate(280,56) scale(0.028,0.028)">
		<g transform="">
			<path d="M-3529.11-738.61c87.06,0,157.64,70.58,157.64,157.64c0,87.06-70.57,157.64-157.64,157.64
				c-87.06,0-157.64-70.57-157.64-157.64C-3686.74-668.03-3616.17-738.61-3529.11-738.61z"/>
		</g>
	</g>
	<g transform="translate(126,70) scale(0.028,0.028)">
		<g transform="">
			<path d="M-1497.09-923.33c87.06,0,157.64,70.58,157.64,157.64c0,87.06-70.57,157.64-157.64,157.64
				c-87.06,0-157.64-70.57-157.64-157.64C-1654.72-852.76-1584.15-923.33-1497.09-923.33z"/>
		</g>
	</g>
	<g transform="translate(154,70) scale(0.028,0.028)">
		<g transform="">
			<path d="M-1866.54-923.33c87.06,0,157.64,70.58,157.64,157.64c0,87.06-70.57,157.64-157.64,157.64
				c-87.06,0-157.64-70.57-157.64-157.64C-2024.18-852.76-1953.6-923.33-1866.54-923.33z"/>
		</g>
	</g>
	<g transform="translate(238,70) scale(0.028,0.028)">
		<g transform="">
			<path d="M-2974.92-923.33c87.06,0,157.64,70.58,157.64,157.64c0,87.06-70.57,157.64-157.64,157.64
				c-87.06,0-157.64-70.57-157.64-157.64C-3132.55-852.76-3061.98-923.33-2974.92-923.33z"/>
		</g>
	</g>
	<g transform="translate(266,70) scale(0.028,0.028)">
		<g transform="">
			<path d="M-3344.38-923.33c87.06,0,157.64,70.58,157.64,157.64c0,87.06-70.57,157.64-157.64,157.64
				c-87.06,0-157.64-70.57-157.64-157.64C-3502.01-852.76-3431.44-923.33-3344.38-923.33z"/>
		</g>
	</g>
	<g transform="translate(280,70) scale(0.028,0.028)">
		<g transform="">
			<path d="M-3529.11-923.33c87.06,0,157.64,70.58,157.64,157.64c0,87.06-70.57,157.64-157.64,157.64
				c-87.06,0-157.64-70.57-157.64-157.64C-3686.74-852.76-3616.17-923.33-3529.11-923.33z"/>
		</g>
	</g>
	<g transform="translate(112,84) scale(0.028,0.028)">
		<g transform="">
			<path d="M-1312.36-1108.06c87.06,0,157.64,70.58,157.64,157.64c0,87.06-70.57,157.64-157.64,157.64
				c-87.06,0-157.64-70.57-157.64-157.64C-1469.99-1037.49-1399.42-1108.06-1312.36-1108.06z"/>
		</g>
	</g>
	<g transform="translate(140,84) scale(0.028,0.028)">
		<g transform="">
			<path d="M-1681.82-1108.06c87.06,0,157.64,70.58,157.64,157.64c0,87.06-70.57,157.64-157.64,157.64
				c-87.06,0-157.64-70.57-157.64-157.64C-1839.45-1037.49-1768.87-1108.06-1681.82-1108.06z"/>
		</g>
	</g>
	<g transform="translate(168,84) scale(0.028,0.028)">
		<g transform="">
			<path d="M-2051.27-1108.06c87.06,0,157.64,70.58,157.64,157.64c0,87.06-70.57,157.64-157.64,157.64
				c-87.06,0-157.64-70.57-157.64-157.64C-2208.91-1037.49-2138.33-1108.06-2051.27-1108.06z"/>
		</g>
	</g>
	<g transform="translate(196,84) scale(0.028,0.028)">
		<g transform="">
			<path d="M-2420.73-1108.06c87.06,0,157.64,70.58,157.64,157.64c0,87.06-70.57,157.64-157.64,157.64
				c-87.06,0-157.64-70.57-157.64-157.64C-2578.37-1037.49-2507.79-1108.06-2420.73-1108.06z"/>
		</g>
	</g>
	<g transform="translate(224,84) scale(0.028,0.028)">
		<g transform="">
			<path d="M-2790.19-1108.06c87.06,0,157.64,70.58,157.64,157.64c0,87.06-70.57,157.64-157.64,157.64
				c-87.06,0-157.64-70.57-157.64-157.64C-2947.83-1037.49-2877.25-1108.06-2790.19-1108.06z"/>
		</g>
	</g>
	<g transform="translate(252,84) scale(0.028,0.028)">
		<g transform="">
			<path d="M-3159.65-1108.06c87.06,0,157.64,70.58,157.64,157.64c0,87.06-70.57,157.64-157.64,157.64
				c-87.06,0-157.64-70.57-157.64-157.64C-3317.28-1037.49-3246.71-1108.06-3159.65-1108.06z"/>
		</g>
	</g>
	<g transform="translate(280,84) scale(0.028,0.028)">
		<g transform="">
			<path d="M-3529.11-1108.06c87.06,0,157.64,70.58,157.64,157.64c0,87.06-70.57,157.64-157.64,157.64
				c-87.06,0-157.64-70.57-157.64-157.64C-3686.74-1037.49-3616.17-1108.06-3529.11-1108.06z"/>
		</g>
	</g>
	<g transform="translate(140,98) scale(0.028,0.028)">
		<g transform="">
			<path d="M-1681.82-1292.79c87.06,0,157.64,70.58,157.64,157.64c0,87.06-70.57,157.64-157.64,157.64
				c-87.06,0-157.64-70.57-157.64-157.64C-1839.45-1222.22-1768.87-1292.79-1681.82-1292.79z"/>
		</g>
	</g>
	<g transform="translate(154,98) scale(0.028,0.028)">
		<g transform="">
			<path d="M-1866.54-1292.79c87.06,0,157.64,70.58,157.64,157.64c0,87.06-70.57,157.64-157.64,157.64
				c-87.06,0-157.64-70.57-157.64-157.64C-2024.18-1222.22-1953.6-1292.79-1866.54-1292.79z"/>
		</g>
	</g>
	<g transform="translate(196,98) scale(0.028,0.028)">
		<g transform="">
			<path d="M-2420.73-1292.79c87.06,0,157.64,70.58,157.64,157.64c0,87.06-70.57,157.64-157.64,157.64
				c-87.06,0-157.64-70.57-157.64-157.64C-2578.37-1222.22-2507.79-1292.79-2420.73-1292.79z"/>
		</g>
	</g>
	<g transform="translate(210,98) scale(0.028,0.028)">
		<g transform="">
			<path d="M-2605.46-1292.79c87.06,0,157.64,70.58,157.64,157.64c0,87.06-70.57,157.64-157.64,157.64
				c-87.06,0-157.64-70.57-157.64-157.64C-2763.1-1222.22-2692.52-1292.79-2605.46-1292.79z"/>
		</g>
	</g>
	<g transform="translate(224,98) scale(0.028,0.028)">
		<g transform="">
			<path d="M-2790.19-1292.79c87.06,0,157.64,70.58,157.64,157.64c0,87.06-70.57,157.64-157.64,157.64
				c-87.06,0-157.64-70.57-157.64-157.64C-2947.83-1222.22-2877.25-1292.79-2790.19-1292.79z"/>
		</g>
	</g>
	<g transform="translate(238,98) scale(0.028,0.028)">
		<g transform="">
			<path d="M-2974.92-1292.79c87.06,0,157.64,70.58,157.64,157.64c0,87.06-70.57,157.64-157.64,157.64
				c-87.06,0-157.64-70.57-157.64-157.64C-3132.55-1222.22-3061.98-1292.79-2974.92-1292.79z"/>
		</g>
	</g>
	<g transform="translate(252,98) scale(0.028,0.028)">
		<g transform="">
			<path d="M-3159.65-1292.79c87.06,0,157.64,70.58,157.64,157.64c0,87.06-70.57,157.64-157.64,157.64
				c-87.06,0-157.64-70.57-157.64-157.64C-3317.28-1222.22-3246.71-1292.79-3159.65-1292.79z"/>
		</g>
	</g>
	<g transform="translate(28,112) scale(0.028,0.028)">
		<g transform="">
			<path d="M-203.98-1477.52c87.06,0,157.64,70.58,157.64,157.64c0,87.06-70.57,157.64-157.64,157.64
				c-87.06,0-157.64-70.57-157.64-157.64C-361.62-1406.94-291.04-1477.52-203.98-1477.52z"/>
		</g>
	</g>
	<g transform="translate(56,112) scale(0.028,0.028)">
		<g transform="">
			<path d="M-573.44-1477.52c87.06,0,157.64,70.58,157.64,157.64c0,87.06-70.57,157.64-157.64,157.64
				c-87.06,0-157.64-70.57-157.64-157.64C-731.08-1406.94-660.5-1477.52-573.44-1477.52z"/>
		</g>
	</g>
	<g transform="translate(70,112) scale(0.028,0.028)">
		<g transform="">
			<path d="M-758.17-1477.52c87.06,0,157.64,70.58,157.64,157.64c0,87.06-70.57,157.64-157.64,157.64
				c-87.06,0-157.64-70.57-157.64-157.64C-915.81-1406.94-845.23-1477.52-758.17-1477.52z"/>
		</g>
	</g>
	<g transform="translate(84,112) scale(0.028,0.028)">
		<g transform="">
			<path d="M-942.9-1477.52c87.06,0,157.64,70.58,157.64,157.64c0,87.06-70.57,157.64-157.64,157.64
				c-87.06,0-157.64-70.57-157.64-157.64C-1100.53-1406.94-1029.96-1477.52-942.9-1477.52z"/>
		</g>
	</g>
	<g transform="translate(112,112) scale(0.028,0.028)">
		<g transform="">
			<path d="M-1312.36-1477.52c87.06,0,157.64,70.58,157.64,157.64c0,87.06-70.57,157.64-157.64,157.64
				c-87.06,0-157.64-70.57-157.64-157.64C-1469.99-1406.94-1399.42-1477.52-1312.36-1477.52z"/>
		</g>
	</g>
	<g transform="translate(126,112) scale(0.028,0.028)">
		<g transform="">
			<path d="M-1497.09-1477.52c87.06,0,157.64,70.58,157.64,157.64c0,87.06-70.57,157.64-157.64,157.64
				c-87.06,0-157.64-70.57-157.64-157.64C-1654.72-1406.94-1584.15-1477.52-1497.09-1477.52z"/>
		</g>
	</g>
	<g transform="translate(168,112) scale(0.028,0.028)">
		<g transform="">
			<path d="M-2051.27-1477.52c87.06,0,157.64,70.58,157.64,157.64c0,87.06-70.57,157.64-157.64,157.64
				c-87.06,0-157.64-70.57-157.64-157.64C-2208.91-1406.94-2138.33-1477.52-2051.27-1477.52z"/>
		</g>
	</g>
	<g transform="translate(196,112) scale(0.028,0.028)">
		<g transform="">
			<path d="M-2420.73-1477.52c87.06,0,157.64,70.58,157.64,157.64c0,87.06-70.57,157.64-157.64,157.64
				c-87.06,0-157.64-70.57-157.64-157.64C-2578.37-1406.94-2507.79-1477.52-2420.73-1477.52z"/>
		</g>
	</g>
	<g transform="translate(252,112) scale(0.028,0.028)">
		<g transform="">
			<path d="M-3159.65-1477.52c87.06,0,157.64,70.58,157.64,157.64c0,87.06-70.57,157.64-157.64,157.64
				c-87.06,0-157.64-70.57-157.64-157.64C-3317.28-1406.94-3246.71-1477.52-3159.65-1477.52z"/>
		</g>
	</g>
	<g transform="translate(266,112) scale(0.028,0.028)">
		<g transform="">
			<path d="M-3344.38-1477.52c87.06,0,157.64,70.58,157.64,157.64c0,87.06-70.57,157.64-157.64,157.64
				c-87.06,0-157.64-70.57-157.64-157.64C-3502.01-1406.94-3431.44-1477.52-3344.38-1477.52z"/>
		</g>
	</g>
	<g transform="translate(280,112) scale(0.028,0.028)">
		<g transform="">
			<path d="M-3529.11-1477.52c87.06,0,157.64,70.58,157.64,157.64c0,87.06-70.57,157.64-157.64,157.64
				c-87.06,0-157.64-70.57-157.64-157.64C-3686.74-1406.94-3616.17-1477.52-3529.11-1477.52z"/>
		</g>
	</g>
	<g transform="translate(294,112) scale(0.028,0.028)">
		<g transform="">
			<path d="M-3713.84-1477.52c87.06,0,157.64,70.58,157.64,157.64c0,87.06-70.57,157.64-157.64,157.64
				c-87.06,0-157.64-70.57-157.64-157.64C-3871.47-1406.94-3800.89-1477.52-3713.84-1477.52z"/>
		</g>
	</g>
	<g transform="translate(350,112) scale(0.028,0.028)">
		<g transform="">
			<path d="M-4452.75-1477.52c87.06,0,157.64,70.58,157.64,157.64c0,87.06-70.57,157.64-157.64,157.64
				c-87.06,0-157.64-70.57-157.64-157.64C-4610.39-1406.94-4539.81-1477.52-4452.75-1477.52z"/>
		</g>
	</g>
	<g transform="translate(392,112) scale(0.028,0.028)">
		<g transform="">
			<path d="M-5006.94-1477.52c87.06,0,157.64,70.58,157.64,157.64c0,87.06-70.57,157.64-157.64,157.64
				c-87.06,0-157.64-70.57-157.64-157.64C-5164.57-1406.94-5094-1477.52-5006.94-1477.52z"/>
		</g>
	</g>
	<g transform="translate(0,126) scale(0.028,0.028)">
		<g transform="">
			<path d="M165.48-1662.25c87.06,0,157.64,70.58,157.64,157.64c0,87.06-70.57,157.64-157.64,157.64
				c-87.06,0-157.64-70.57-157.64-157.64C7.84-1591.67,78.42-1662.25,165.48-1662.25z"/>
		</g>
	</g>
	<g transform="translate(42,126) scale(0.028,0.028)">
		<g transform="">
			<path d="M-388.71-1662.25c87.06,0,157.64,70.58,157.64,157.64c0,87.06-70.57,157.64-157.64,157.64
				c-87.06,0-157.64-70.57-157.64-157.64C-546.35-1591.67-475.77-1662.25-388.71-1662.25z"/>
		</g>
	</g>
	<g transform="translate(70,126) scale(0.028,0.028)">
		<g transform="">
			<path d="M-758.17-1662.25c87.06,0,157.64,70.58,157.64,157.64c0,87.06-70.57,157.64-157.64,157.64
				c-87.06,0-157.64-70.57-157.64-157.64C-915.81-1591.67-845.23-1662.25-758.17-1662.25z"/>
		</g>
	</g>
	<g transform="translate(112,126) scale(0.028,0.028)">
		<g transform="">
			<path d="M-1312.36-1662.25c87.06,0,157.64,70.58,157.64,157.64c0,87.06-70.57,157.64-157.64,157.64
				c-87.06,0-157.64-70.57-157.64-157.64C-1469.99-1591.67-1399.42-1662.25-1312.36-1662.25z"/>
		</g>
	</g>
	<g transform="translate(140,126) scale(0.028,0.028)">
		<g transform="">
			<path d="M-1681.82-1662.25c87.06,0,157.64,70.58,157.64,157.64c0,87.06-70.57,157.64-157.64,157.64
				c-87.06,0-157.64-70.57-157.64-157.64C-1839.45-1591.67-1768.87-1662.25-1681.82-1662.25z"/>
		</g>
	</g>
	<g transform="translate(196,126) scale(0.028,0.028)">
		<g transform="">
			<path d="M-2420.73-1662.25c87.06,0,157.64,70.58,157.64,157.64c0,87.06-70.57,157.64-157.64,157.64
				c-87.06,0-157.64-70.57-157.64-157.64C-2578.37-1591.67-2507.79-1662.25-2420.73-1662.25z"/>
		</g>
	</g>
	<g transform="translate(210,126) scale(0.028,0.028)">
		<g transform="">
			<path d="M-2605.46-1662.25c87.06,0,157.64,70.58,157.64,157.64c0,87.06-70.57,157.64-157.64,157.64
				c-87.06,0-157.64-70.57-157.64-157.64C-2763.1-1591.67-2692.52-1662.25-2605.46-1662.25z"/>
		</g>
	</g>
	<g transform="translate(238,126) scale(0.028,0.028)">
		<g transform="">
			<path d="M-2974.92-1662.25c87.06,0,157.64,70.58,157.64,157.64c0,87.06-70.57,157.64-157.64,157.64
				c-87.06,0-157.64-70.57-157.64-157.64C-3132.55-1591.67-3061.98-1662.25-2974.92-1662.25z"/>
		</g>
	</g>
	<g transform="translate(252,126) scale(0.028,0.028)">
		<g transform="">
			<path d="M-3159.65-1662.25c87.06,0,157.64,70.58,157.64,157.64c0,87.06-70.57,157.64-157.64,157.64
				c-87.06,0-157.64-70.57-157.64-157.64C-3317.28-1591.67-3246.71-1662.25-3159.65-1662.25z"/>
		</g>
	</g>
	<g transform="translate(266,126) scale(0.028,0.028)">
		<g transform="">
			<path d="M-3344.38-1662.25c87.06,0,157.64,70.58,157.64,157.64c0,87.06-70.57,157.64-157.64,157.64
				c-87.06,0-157.64-70.57-157.64-157.64C-3502.01-1591.67-3431.44-1662.25-3344.38-1662.25z"/>
		</g>
	</g>
	<g transform="translate(294,126) scale(0.028,0.028)">
		<g transform="">
			<path d="M-3713.84-1662.25c87.06,0,157.64,70.58,157.64,157.64c0,87.06-70.57,157.64-157.64,157.64
				c-87.06,0-157.64-70.57-157.64-157.64C-3871.47-1591.67-3800.89-1662.25-3713.84-1662.25z"/>
		</g>
	</g>
	<g transform="translate(308,126) scale(0.028,0.028)">
		<g transform="">
			<path d="M-3898.56-1662.25c87.06,0,157.64,70.58,157.64,157.64c0,87.06-70.57,157.64-157.64,157.64
				c-87.06,0-157.64-70.57-157.64-157.64C-4056.2-1591.67-3985.62-1662.25-3898.56-1662.25z"/>
		</g>
	</g>
	<g transform="translate(364,126) scale(0.028,0.028)">
		<g transform="">
			<path d="M-4637.48-1662.25c87.06,0,157.64,70.58,157.64,157.64c0,87.06-70.57,157.64-157.64,157.64
				c-87.06,0-157.64-70.57-157.64-157.64C-4795.12-1591.67-4724.54-1662.25-4637.48-1662.25z"/>
		</g>
	</g>
	<g transform="translate(392,126) scale(0.028,0.028)">
		<g transform="">
			<path d="M-5006.94-1662.25c87.06,0,157.64,70.58,157.64,157.64c0,87.06-70.57,157.64-157.64,157.64
				c-87.06,0-157.64-70.57-157.64-157.64C-5164.57-1591.67-5094-1662.25-5006.94-1662.25z"/>
		</g>
	</g>
	<g transform="translate(14,140) scale(0.028,0.028)">
		<g transform="">
			<path d="M-19.25-1846.98c87.06,0,157.64,70.58,157.64,157.64c0,87.06-70.57,157.64-157.64,157.64
				c-87.06,0-157.64-70.57-157.64-157.64C-176.89-1776.4-106.31-1846.98-19.25-1846.98z"/>
		</g>
	</g>
	<g transform="translate(56,140) scale(0.028,0.028)">
		<g transform="">
			<path d="M-573.44-1846.98c87.06,0,157.64,70.58,157.64,157.64c0,87.06-70.57,157.64-157.64,157.64
				c-87.06,0-157.64-70.57-157.64-157.64C-731.08-1776.4-660.5-1846.98-573.44-1846.98z"/>
		</g>
	</g>
	<g transform="translate(84,140) scale(0.028,0.028)">
		<g transform="">
			<path d="M-942.9-1846.98c87.06,0,157.64,70.58,157.64,157.64c0,87.06-70.57,157.64-157.64,157.64
				c-87.06,0-157.64-70.57-157.64-157.64C-1100.53-1776.4-1029.96-1846.98-942.9-1846.98z"/>
		</g>
	</g>
	<g transform="translate(98,140) scale(0.028,0.028)">
		<g transform="">
			<path d="M-1127.63-1846.98c87.06,0,157.64,70.58,157.64,157.64c0,87.06-70.57,157.64-157.64,157.64
				c-87.06,0-157.64-70.57-157.64-157.64C-1285.26-1776.4-1214.69-1846.98-1127.63-1846.98z"/>
		</g>
	</g>
	<g transform="translate(112,140) scale(0.028,0.028)">
		<g transform="">
			<path d="M-1312.36-1846.98c87.06,0,157.64,70.58,157.64,157.64c0,87.06-70.57,157.64-157.64,157.64
				c-87.06,0-157.64-70.57-157.64-157.64C-1469.99-1776.4-1399.42-1846.98-1312.36-1846.98z"/>
		</g>
	</g>
	<g transform="translate(280,140) scale(0.028,0.028)">
		<g transform="">
			<path d="M-3529.11-1846.98c87.06,0,157.64,70.58,157.64,157.64c0,87.06-70.57,157.64-157.64,157.64
				c-87.06,0-157.64-70.57-157.64-157.64C-3686.74-1776.4-3616.17-1846.98-3529.11-1846.98z"/>
		</g>
	</g>
	<g transform="translate(322,140) scale(0.028,0.028)">
		<g transform="">
			<path d="M-4083.29-1846.98c87.06,0,157.64,70.58,157.64,157.64c0,87.06-70.57,157.64-157.64,157.64
				c-87.06,0-157.64-70.57-157.64-157.64C-4240.93-1776.4-4170.35-1846.98-4083.29-1846.98z"/>
		</g>
	</g>
	<g transform="translate(336,140) scale(0.028,0.028)">
		<g transform="">
			<path d="M-4268.02-1846.98c87.06,0,157.64,70.58,157.64,157.64c0,87.06-70.57,157.64-157.64,157.64
				c-87.06,0-157.64-70.57-157.64-157.64C-4425.66-1776.4-4355.08-1846.98-4268.02-1846.98z"/>
		</g>
	</g>
	<g transform="translate(350,140) scale(0.028,0.028)">
		<g transform="">
			<path d="M-4452.75-1846.98c87.06,0,157.64,70.58,157.64,157.64c0,87.06-70.57,157.64-157.64,157.64
				c-87.06,0-157.64-70.57-157.64-157.64C-4610.39-1776.4-4539.81-1846.98-4452.75-1846.98z"/>
		</g>
	</g>
	<g transform="translate(364,140) scale(0.028,0.028)">
		<g transform="">
			<path d="M-4637.48-1846.98c87.06,0,157.64,70.58,157.64,157.64c0,87.06-70.57,157.64-157.64,157.64
				c-87.06,0-157.64-70.57-157.64-157.64C-4795.12-1776.4-4724.54-1846.98-4637.48-1846.98z"/>
		</g>
	</g>
	<g transform="translate(378,140) scale(0.028,0.028)">
		<g transform="">
			<path d="M-4822.21-1846.98c87.06,0,157.64,70.58,157.64,157.64c0,87.06-70.57,157.64-157.64,157.64
				c-87.06,0-157.64-70.57-157.64-157.64C-4979.85-1776.4-4909.27-1846.98-4822.21-1846.98z"/>
		</g>
	</g>
	<g transform="translate(392,140) scale(0.028,0.028)">
		<g transform="">
			<path d="M-5006.94-1846.98c87.06,0,157.64,70.58,157.64,157.64c0,87.06-70.57,157.64-157.64,157.64
				c-87.06,0-157.64-70.57-157.64-157.64C-5164.57-1776.4-5094-1846.98-5006.94-1846.98z"/>
		</g>
	</g>
	<g transform="translate(0,154) scale(0.028,0.028)">
		<g transform="">
			<path d="M165.48-2031.71c87.06,0,157.64,70.58,157.64,157.64c0,87.06-70.57,157.64-157.64,157.64
				c-87.06,0-157.64-70.57-157.64-157.64C7.84-1961.13,78.42-2031.71,165.48-2031.71z"/>
		</g>
	</g>
	<g transform="translate(14,154) scale(0.028,0.028)">
		<g transform="">
			<path d="M-19.25-2031.71c87.06,0,157.64,70.58,157.64,157.64c0,87.06-70.57,157.64-157.64,157.64
				c-87.06,0-157.64-70.57-157.64-157.64C-176.89-1961.13-106.31-2031.71-19.25-2031.71z"/>
		</g>
	</g>
	<g transform="translate(28,154) scale(0.028,0.028)">
		<g transform="">
			<path d="M-203.98-2031.71c87.06,0,157.64,70.58,157.64,157.64c0,87.06-70.57,157.64-157.64,157.64
				c-87.06,0-157.64-70.57-157.64-157.64C-361.62-1961.13-291.04-2031.71-203.98-2031.71z"/>
		</g>
	</g>
	<g transform="translate(42,154) scale(0.028,0.028)">
		<g transform="">
			<path d="M-388.71-2031.71c87.06,0,157.64,70.58,157.64,157.64c0,87.06-70.57,157.64-157.64,157.64
				c-87.06,0-157.64-70.57-157.64-157.64C-546.35-1961.13-475.77-2031.71-388.71-2031.71z"/>
		</g>
	</g>
	<g transform="translate(56,154) scale(0.028,0.028)">
		<g transform="">
			<path d="M-573.44-2031.71c87.06,0,157.64,70.58,157.64,157.64c0,87.06-70.57,157.64-157.64,157.64
				c-87.06,0-157.64-70.57-157.64-157.64C-731.08-1961.13-660.5-2031.71-573.44-2031.71z"/>
		</g>
	</g>
	<g transform="translate(98,154) scale(0.028,0.028)">
		<g transform="">
			<path d="M-1127.63-2031.71c87.06,0,157.64,70.58,157.64,157.64c0,87.06-70.57,157.64-157.64,157.64
				c-87.06,0-157.64-70.57-157.64-157.64C-1285.26-1961.13-1214.69-2031.71-1127.63-2031.71z"/>
		</g>
	</g>
	<g transform="translate(112,154) scale(0.028,0.028)">
		<g transform="">
			<path d="M-1312.36-2031.71c87.06,0,157.64,70.58,157.64,157.64c0,87.06-70.57,157.64-157.64,157.64
				c-87.06,0-157.64-70.57-157.64-157.64C-1469.99-1961.13-1399.42-2031.71-1312.36-2031.71z"/>
		</g>
	</g>
	<g transform="translate(280,154) scale(0.028,0.028)">
		<g transform="">
			<path d="M-3529.11-2031.71c87.06,0,157.64,70.58,157.64,157.64c0,87.06-70.57,157.64-157.64,157.64
				c-87.06,0-157.64-70.57-157.64-157.64C-3686.74-1961.13-3616.17-2031.71-3529.11-2031.71z"/>
		</g>
	</g>
	<g transform="translate(294,154) scale(0.028,0.028)">
		<g transform="">
			<path d="M-3713.84-2031.71c87.06,0,157.64,70.58,157.64,157.64c0,87.06-70.57,157.64-157.64,157.64
				c-87.06,0-157.64-70.57-157.64-157.64C-3871.47-1961.13-3800.89-2031.71-3713.84-2031.71z"/>
		</g>
	</g>
	<g transform="translate(308,154) scale(0.028,0.028)">
		<g transform="">
			<path d="M-3898.56-2031.71c87.06,0,157.64,70.58,157.64,157.64c0,87.06-70.57,157.64-157.64,157.64
				c-87.06,0-157.64-70.57-157.64-157.64C-4056.2-1961.13-3985.62-2031.71-3898.56-2031.71z"/>
		</g>
	</g>
	<g transform="translate(322,154) scale(0.028,0.028)">
		<g transform="">
			<path d="M-4083.29-2031.71c87.06,0,157.64,70.58,157.64,157.64c0,87.06-70.57,157.64-157.64,157.64
				c-87.06,0-157.64-70.57-157.64-157.64C-4240.93-1961.13-4170.35-2031.71-4083.29-2031.71z"/>
		</g>
	</g>
	<g transform="translate(350,154) scale(0.028,0.028)">
		<g transform="">
			<path d="M-4452.75-2031.71c87.06,0,157.64,70.58,157.64,157.64c0,87.06-70.57,157.64-157.64,157.64
				c-87.06,0-157.64-70.57-157.64-157.64C-4610.39-1961.13-4539.81-2031.71-4452.75-2031.71z"/>
		</g>
	</g>
	<g transform="translate(378,154) scale(0.028,0.028)">
		<g transform="">
			<path d="M-4822.21-2031.71c87.06,0,157.64,70.58,157.64,157.64c0,87.06-70.57,157.64-157.64,157.64
				c-87.06,0-157.64-70.57-157.64-157.64C-4979.85-1961.13-4909.27-2031.71-4822.21-2031.71z"/>
		</g>
	</g>
	<g transform="translate(28,168) scale(0.028,0.028)">
		<g transform="">
			<path d="M-203.98-2216.44c87.06,0,157.64,70.58,157.64,157.64c0,87.06-70.57,157.64-157.64,157.64
				c-87.06,0-157.64-70.57-157.64-157.64C-361.62-2145.86-291.04-2216.44-203.98-2216.44z"/>
		</g>
	</g>
	<g transform="translate(56,168) scale(0.028,0.028)">
		<g transform="">
			<path d="M-573.44-2216.44c87.06,0,157.64,70.58,157.64,157.64c0,87.06-70.57,157.64-157.64,157.64
				c-87.06,0-157.64-70.57-157.64-157.64C-731.08-2145.86-660.5-2216.44-573.44-2216.44z"/>
		</g>
	</g>
	<g transform="translate(70,168) scale(0.028,0.028)">
		<g transform="">
			<path d="M-758.17-2216.44c87.06,0,157.64,70.58,157.64,157.64c0,87.06-70.57,157.64-157.64,157.64
				c-87.06,0-157.64-70.57-157.64-157.64C-915.81-2145.86-845.23-2216.44-758.17-2216.44z"/>
		</g>
	</g>
	<g transform="translate(84,168) scale(0.028,0.028)">
		<g transform="">
			<path d="M-942.9-2216.44c87.06,0,157.64,70.58,157.64,157.64c0,87.06-70.57,157.64-157.64,157.64
				c-87.06,0-157.64-70.57-157.64-157.64C-1100.53-2145.86-1029.96-2216.44-942.9-2216.44z"/>
		</g>
	</g>
	<g transform="translate(98,168) scale(0.028,0.028)">
		<g transform="">
			<path d="M-1127.63-2216.44c87.06,0,157.64,70.58,157.64,157.64c0,87.06-70.57,157.64-157.64,157.64
				c-87.06,0-157.64-70.57-157.64-157.64C-1285.26-2145.86-1214.69-2216.44-1127.63-2216.44z"/>
		</g>
	</g>
	<g transform="translate(126,168) scale(0.028,0.028)">
		<g transform="">
			<path d="M-1497.09-2216.44c87.06,0,157.64,70.58,157.64,157.64c0,87.06-70.57,157.64-157.64,157.64
				c-87.06,0-157.64-70.57-157.64-157.64C-1654.72-2145.86-1584.15-2216.44-1497.09-2216.44z"/>
		</g>
	</g>
	<g transform="translate(280,168) scale(0.028,0.028)">
		<g transform="">
			<path d="M-3529.11-2216.44c87.06,0,157.64,70.58,157.64,157.64c0,87.06-70.57,157.64-157.64,157.64
				c-87.06,0-157.64-70.57-157.64-157.64C-3686.74-2145.86-3616.17-2216.44-3529.11-2216.44z"/>
		</g>
	</g>
	<g transform="translate(308,168) scale(0.028,0.028)">
		<g transform="">
			<path d="M-3898.56-2216.44c87.06,0,157.64,70.58,157.64,157.64c0,87.06-70.57,157.64-157.64,157.64
				c-87.06,0-157.64-70.57-157.64-157.64C-4056.2-2145.86-3985.62-2216.44-3898.56-2216.44z"/>
		</g>
	</g>
	<g transform="translate(322,168) scale(0.028,0.028)">
		<g transform="">
			<path d="M-4083.29-2216.44c87.06,0,157.64,70.58,157.64,157.64c0,87.06-70.57,157.64-157.64,157.64
				c-87.06,0-157.64-70.57-157.64-157.64C-4240.93-2145.86-4170.35-2216.44-4083.29-2216.44z"/>
		</g>
	</g>
	<g transform="translate(14,182) scale(0.028,0.028)">
		<g transform="">
			<path d="M-19.25-2401.17c87.06,0,157.64,70.58,157.64,157.64c0,87.06-70.57,157.64-157.64,157.64
				c-87.06,0-157.64-70.57-157.64-157.64C-176.89-2330.59-106.31-2401.17-19.25-2401.17z"/>
		</g>
	</g>
	<g transform="translate(42,182) scale(0.028,0.028)">
		<g transform="">
			<path d="M-388.71-2401.17c87.06,0,157.64,70.58,157.64,157.64c0,87.06-70.57,157.64-157.64,157.64
				c-87.06,0-157.64-70.57-157.64-157.64C-546.35-2330.59-475.77-2401.17-388.71-2401.17z"/>
		</g>
	</g>
	<g transform="translate(70,182) scale(0.028,0.028)">
		<g transform="">
			<path d="M-758.17-2401.17c87.06,0,157.64,70.58,157.64,157.64c0,87.06-70.57,157.64-157.64,157.64
				c-87.06,0-157.64-70.57-157.64-157.64C-915.81-2330.59-845.23-2401.17-758.17-2401.17z"/>
		</g>
	</g>
	<g transform="translate(98,182) scale(0.028,0.028)">
		<g transform="">
			<path d="M-1127.63-2401.17c87.06,0,157.64,70.58,157.64,157.64c0,87.06-70.57,157.64-157.64,157.64
				c-87.06,0-157.64-70.57-157.64-157.64C-1285.26-2330.59-1214.69-2401.17-1127.63-2401.17z"/>
		</g>
	</g>
	<g transform="translate(126,182) scale(0.028,0.028)">
		<g transform="">
			<path d="M-1497.09-2401.17c87.06,0,157.64,70.58,157.64,157.64c0,87.06-70.57,157.64-157.64,157.64
				c-87.06,0-157.64-70.57-157.64-157.64C-1654.72-2330.59-1584.15-2401.17-1497.09-2401.17z"/>
		</g>
	</g>
	<g transform="translate(280,182) scale(0.028,0.028)">
		<g transform="">
			<path d="M-3529.11-2401.17c87.06,0,157.64,70.58,157.64,157.64c0,87.06-70.57,157.64-157.64,157.64
				c-87.06,0-157.64-70.57-157.64-157.64C-3686.74-2330.59-3616.17-2401.17-3529.11-2401.17z"/>
		</g>
	</g>
	<g transform="translate(294,182) scale(0.028,0.028)">
		<g transform="">
			<path d="M-3713.84-2401.17c87.06,0,157.64,70.58,157.64,157.64c0,87.06-70.57,157.64-157.64,157.64
				c-87.06,0-157.64-70.57-157.64-157.64C-3871.47-2330.59-3800.89-2401.17-3713.84-2401.17z"/>
		</g>
	</g>
	<g transform="translate(308,182) scale(0.028,0.028)">
		<g transform="">
			<path d="M-3898.56-2401.17c87.06,0,157.64,70.58,157.64,157.64c0,87.06-70.57,157.64-157.64,157.64
				c-87.06,0-157.64-70.57-157.64-157.64C-4056.2-2330.59-3985.62-2401.17-3898.56-2401.17z"/>
		</g>
	</g>
	<g transform="translate(322,182) scale(0.028,0.028)">
		<g transform="">
			<path d="M-4083.29-2401.17c87.06,0,157.64,70.58,157.64,157.64c0,87.06-70.57,157.64-157.64,157.64
				c-87.06,0-157.64-70.57-157.64-157.64C-4240.93-2330.59-4170.35-2401.17-4083.29-2401.17z"/>
		</g>
	</g>
	<g transform="translate(378,182) scale(0.028,0.028)">
		<g transform="">
			<path d="M-4822.21-2401.17c87.06,0,157.64,70.58,157.64,157.64c0,87.06-70.57,157.64-157.64,157.64
				c-87.06,0-157.64-70.57-157.64-157.64C-4979.85-2330.59-4909.27-2401.17-4822.21-2401.17z"/>
		</g>
	</g>
	<g transform="translate(392,182) scale(0.028,0.028)">
		<g transform="">
			<path d="M-5006.94-2401.17c87.06,0,157.64,70.58,157.64,157.64c0,87.06-70.57,157.64-157.64,157.64
				c-87.06,0-157.64-70.57-157.64-157.64C-5164.57-2330.59-5094-2401.17-5006.94-2401.17z"/>
		</g>
	</g>
	<g transform="translate(28,196) scale(0.028,0.028)">
		<g transform="">
			<path d="M-203.98-2585.9c87.06,0,157.64,70.58,157.64,157.64c0,87.06-70.57,157.64-157.64,157.64
				c-87.06,0-157.64-70.57-157.64-157.64C-361.62-2515.32-291.04-2585.9-203.98-2585.9z"/>
		</g>
	</g>
	<g transform="translate(42,196) scale(0.028,0.028)">
		<g transform="">
			<path d="M-388.71-2585.9c87.06,0,157.64,70.58,157.64,157.64c0,87.06-70.57,157.64-157.64,157.64
				c-87.06,0-157.64-70.57-157.64-157.64C-546.35-2515.32-475.77-2585.9-388.71-2585.9z"/>
		</g>
	</g>
	<g transform="translate(56,196) scale(0.028,0.028)">
		<g transform="">
			<path d="M-573.44-2585.9c87.06,0,157.64,70.58,157.64,157.64c0,87.06-70.57,157.64-157.64,157.64
				c-87.06,0-157.64-70.57-157.64-157.64C-731.08-2515.32-660.5-2585.9-573.44-2585.9z"/>
		</g>
	</g>
	<g transform="translate(84,196) scale(0.028,0.028)">
		<g transform="">
			<path d="M-942.9-2585.9c87.06,0,157.64,70.58,157.64,157.64c0,87.06-70.57,157.64-157.64,157.64
				c-87.06,0-157.64-70.57-157.64-157.64C-1100.53-2515.32-1029.96-2585.9-942.9-2585.9z"/>
		</g>
	</g>
	<g transform="translate(112,196) scale(0.028,0.028)">
		<g transform="">
			<path d="M-1312.36-2585.9c87.06,0,157.64,70.58,157.64,157.64c0,87.06-70.57,157.64-157.64,157.64
				c-87.06,0-157.64-70.57-157.64-157.64C-1469.99-2515.32-1399.42-2585.9-1312.36-2585.9z"/>
		</g>
	</g>
	<g transform="translate(280,196) scale(0.028,0.028)">
		<g transform="">
			<path d="M-3529.11-2585.9c87.06,0,157.64,70.58,157.64,157.64c0,87.06-70.57,157.64-157.64,157.64
				c-87.06,0-157.64-70.57-157.64-157.64C-3686.74-2515.32-3616.17-2585.9-3529.11-2585.9z"/>
		</g>
	</g>
	<g transform="translate(294,196) scale(0.028,0.028)">
		<g transform="">
			<path d="M-3713.84-2585.9c87.06,0,157.64,70.58,157.64,157.64c0,87.06-70.57,157.64-157.64,157.64
				c-87.06,0-157.64-70.57-157.64-157.64C-3871.47-2515.32-3800.89-2585.9-3713.84-2585.9z"/>
		</g>
	</g>
	<g transform="translate(322,196) scale(0.028,0.028)">
		<g transform="">
			<path d="M-4083.29-2585.9c87.06,0,157.64,70.58,157.64,157.64c0,87.06-70.57,157.64-157.64,157.64
				c-87.06,0-157.64-70.57-157.64-157.64C-4240.93-2515.32-4170.35-2585.9-4083.29-2585.9z"/>
		</g>
	</g>
	<g transform="translate(364,196) scale(0.028,0.028)">
		<g transform="">
			<path d="M-4637.48-2585.9c87.06,0,157.64,70.58,157.64,157.64c0,87.06-70.57,157.64-157.64,157.64
				c-87.06,0-157.64-70.57-157.64-157.64C-4795.12-2515.32-4724.54-2585.9-4637.48-2585.9z"/>
		</g>
	</g>
	<g transform="translate(378,196) scale(0.028,0.028)">
		<g transform="">
			<path d="M-4822.21-2585.9c87.06,0,157.64,70.58,157.64,157.64c0,87.06-70.57,157.64-157.64,157.64
				c-87.06,0-157.64-70.57-157.64-157.64C-4979.85-2515.32-4909.27-2585.9-4822.21-2585.9z"/>
		</g>
	</g>
	<g transform="translate(392,196) scale(0.028,0.028)">
		<g transform="">
			<path d="M-5006.94-2585.9c87.06,0,157.64,70.58,157.64,157.64c0,87.06-70.57,157.64-157.64,157.64
				c-87.06,0-157.64-70.57-157.64-157.64C-5164.57-2515.32-5094-2585.9-5006.94-2585.9z"/>
		</g>
	</g>
	<g transform="translate(70,210) scale(0.028,0.028)">
		<g transform="">
			<path d="M-758.17-2770.62c87.06,0,157.64,70.58,157.64,157.64c0,87.06-70.57,157.64-157.64,157.64
				c-87.06,0-157.64-70.57-157.64-157.64C-915.81-2700.05-845.23-2770.62-758.17-2770.62z"/>
		</g>
	</g>
	<g transform="translate(98,210) scale(0.028,0.028)">
		<g transform="">
			<path d="M-1127.63-2770.62c87.06,0,157.64,70.58,157.64,157.64c0,87.06-70.57,157.64-157.64,157.64
				c-87.06,0-157.64-70.57-157.64-157.64C-1285.26-2700.05-1214.69-2770.62-1127.63-2770.62z"/>
		</g>
	</g>
	<g transform="translate(280,210) scale(0.028,0.028)">
		<g transform="">
			<path d="M-3529.11-2770.62c87.06,0,157.64,70.58,157.64,157.64c0,87.06-70.57,157.64-157.64,157.64
				c-87.06,0-157.64-70.57-157.64-157.64C-3686.74-2700.05-3616.17-2770.62-3529.11-2770.62z"/>
		</g>
	</g>
	<g transform="translate(322,210) scale(0.028,0.028)">
		<g transform="">
			<path d="M-4083.29-2770.62c87.06,0,157.64,70.58,157.64,157.64c0,87.06-70.57,157.64-157.64,157.64
				c-87.06,0-157.64-70.57-157.64-157.64C-4240.93-2700.05-4170.35-2770.62-4083.29-2770.62z"/>
		</g>
	</g>
	<g transform="translate(392,210) scale(0.028,0.028)">
		<g transform="">
			<path d="M-5006.94-2770.62c87.06,0,157.64,70.58,157.64,157.64c0,87.06-70.57,157.64-157.64,157.64
				c-87.06,0-157.64-70.57-157.64-157.64C-5164.57-2700.05-5094-2770.62-5006.94-2770.62z"/>
		</g>
	</g>
	<g transform="translate(0,224) scale(0.028,0.028)">
		<g transform="">
			<path d="M165.48-2955.35c87.06,0,157.64,70.58,157.64,157.64c0,87.06-70.57,157.64-157.64,157.64
				c-87.06,0-157.64-70.57-157.64-157.64C7.84-2884.78,78.42-2955.35,165.48-2955.35z"/>
		</g>
	</g>
	<g transform="translate(14,224) scale(0.028,0.028)">
		<g transform="">
			<path d="M-19.25-2955.35c87.06,0,157.64,70.58,157.64,157.64c0,87.06-70.57,157.64-157.64,157.64
				c-87.06,0-157.64-70.57-157.64-157.64C-176.89-2884.78-106.31-2955.35-19.25-2955.35z"/>
		</g>
	</g>
	<g transform="translate(28,224) scale(0.028,0.028)">
		<g transform="">
			<path d="M-203.98-2955.35c87.06,0,157.64,70.58,157.64,157.64c0,87.06-70.57,157.64-157.64,157.64
				c-87.06,0-157.64-70.57-157.64-157.64C-361.62-2884.78-291.04-2955.35-203.98-2955.35z"/>
		</g>
	</g>
	<g transform="translate(42,224) scale(0.028,0.028)">
		<g transform="">
			<path d="M-388.71-2955.35c87.06,0,157.64,70.58,157.64,157.64c0,87.06-70.57,157.64-157.64,157.64
				c-87.06,0-157.64-70.57-157.64-157.64C-546.35-2884.78-475.77-2955.35-388.71-2955.35z"/>
		</g>
	</g>
	<g transform="translate(70,224) scale(0.028,0.028)">
		<g transform="">
			<path d="M-758.17-2955.35c87.06,0,157.64,70.58,157.64,157.64c0,87.06-70.57,157.64-157.64,157.64
				c-87.06,0-157.64-70.57-157.64-157.64C-915.81-2884.78-845.23-2955.35-758.17-2955.35z"/>
		</g>
	</g>
	<g transform="translate(84,224) scale(0.028,0.028)">
		<g transform="">
			<path d="M-942.9-2955.35c87.06,0,157.64,70.58,157.64,157.64c0,87.06-70.57,157.64-157.64,157.64
				c-87.06,0-157.64-70.57-157.64-157.64C-1100.53-2884.78-1029.96-2955.35-942.9-2955.35z"/>
		</g>
	</g>
	<g transform="translate(112,224) scale(0.028,0.028)">
		<g transform="">
			<path d="M-1312.36-2955.35c87.06,0,157.64,70.58,157.64,157.64c0,87.06-70.57,157.64-157.64,157.64
				c-87.06,0-157.64-70.57-157.64-157.64C-1469.99-2884.78-1399.42-2955.35-1312.36-2955.35z"/>
		</g>
	</g>
	<g transform="translate(294,224) scale(0.028,0.028)">
		<g transform="">
			<path d="M-3713.84-2955.35c87.06,0,157.64,70.58,157.64,157.64c0,87.06-70.57,157.64-157.64,157.64
				c-87.06,0-157.64-70.57-157.64-157.64C-3871.47-2884.78-3800.89-2955.35-3713.84-2955.35z"/>
		</g>
	</g>
	<g transform="translate(308,224) scale(0.028,0.028)">
		<g transform="">
			<path d="M-3898.56-2955.35c87.06,0,157.64,70.58,157.64,157.64c0,87.06-70.57,157.64-157.64,157.64
				c-87.06,0-157.64-70.57-157.64-157.64C-4056.2-2884.78-3985.62-2955.35-3898.56-2955.35z"/>
		</g>
	</g>
	<g transform="translate(350,224) scale(0.028,0.028)">
		<g transform="">
			<path d="M-4452.75-2955.35c87.06,0,157.64,70.58,157.64,157.64c0,87.06-70.57,157.64-157.64,157.64
				c-87.06,0-157.64-70.57-157.64-157.64C-4610.39-2884.78-4539.81-2955.35-4452.75-2955.35z"/>
		</g>
	</g>
	<g transform="translate(378,224) scale(0.028,0.028)">
		<g transform="">
			<path d="M-4822.21-2955.35c87.06,0,157.64,70.58,157.64,157.64c0,87.06-70.57,157.64-157.64,157.64
				c-87.06,0-157.64-70.57-157.64-157.64C-4979.85-2884.78-4909.27-2955.35-4822.21-2955.35z"/>
		</g>
	</g>
	<g transform="translate(42,238) scale(0.028,0.028)">
		<g transform="">
			<path d="M-388.71-3140.08c87.06,0,157.64,70.58,157.64,157.64c0,87.06-70.57,157.64-157.64,157.64
				c-87.06,0-157.64-70.57-157.64-157.64C-546.35-3069.51-475.77-3140.08-388.71-3140.08z"/>
		</g>
	</g>
	<g transform="translate(56,238) scale(0.028,0.028)">
		<g transform="">
			<path d="M-573.44-3140.08c87.06,0,157.64,70.58,157.64,157.64c0,87.06-70.57,157.64-157.64,157.64
				c-87.06,0-157.64-70.57-157.64-157.64C-731.08-3069.51-660.5-3140.08-573.44-3140.08z"/>
		</g>
	</g>
	<g transform="translate(70,238) scale(0.028,0.028)">
		<g transform="">
			<path d="M-758.17-3140.08c87.06,0,157.64,70.58,157.64,157.64c0,87.06-70.57,157.64-157.64,157.64
				c-87.06,0-157.64-70.57-157.64-157.64C-915.81-3069.51-845.23-3140.08-758.17-3140.08z"/>
		</g>
	</g>
	<g transform="translate(126,238) scale(0.028,0.028)">
		<g transform="">
			<path d="M-1497.09-3140.08c87.06,0,157.64,70.58,157.64,157.64c0,87.06-70.57,157.64-157.64,157.64
				c-87.06,0-157.64-70.57-157.64-157.64C-1654.72-3069.51-1584.15-3140.08-1497.09-3140.08z"/>
		</g>
	</g>
	<g transform="translate(280,238) scale(0.028,0.028)">
		<g transform="">
			<path d="M-3529.11-3140.08c87.06,0,157.64,70.58,157.64,157.64c0,87.06-70.57,157.64-157.64,157.64
				c-87.06,0-157.64-70.57-157.64-157.64C-3686.74-3069.51-3616.17-3140.08-3529.11-3140.08z"/>
		</g>
	</g>
	<g transform="translate(294,238) scale(0.028,0.028)">
		<g transform="">
			<path d="M-3713.84-3140.08c87.06,0,157.64,70.58,157.64,157.64c0,87.06-70.57,157.64-157.64,157.64
				c-87.06,0-157.64-70.57-157.64-157.64C-3871.47-3069.51-3800.89-3140.08-3713.84-3140.08z"/>
		</g>
	</g>
	<g transform="translate(308,238) scale(0.028,0.028)">
		<g transform="">
			<path d="M-3898.56-3140.08c87.06,0,157.64,70.58,157.64,157.64c0,87.06-70.57,157.64-157.64,157.64
				c-87.06,0-157.64-70.57-157.64-157.64C-4056.2-3069.51-3985.62-3140.08-3898.56-3140.08z"/>
		</g>
	</g>
	<g transform="translate(364,238) scale(0.028,0.028)">
		<g transform="">
			<path d="M-4637.48-3140.08c87.06,0,157.64,70.58,157.64,157.64c0,87.06-70.57,157.64-157.64,157.64
				c-87.06,0-157.64-70.57-157.64-157.64C-4795.12-3069.51-4724.54-3140.08-4637.48-3140.08z"/>
		</g>
	</g>
	<g transform="translate(378,238) scale(0.028,0.028)">
		<g transform="">
			<path d="M-4822.21-3140.08c87.06,0,157.64,70.58,157.64,157.64c0,87.06-70.57,157.64-157.64,157.64
				c-87.06,0-157.64-70.57-157.64-157.64C-4979.85-3069.51-4909.27-3140.08-4822.21-3140.08z"/>
		</g>
	</g>
	<g transform="translate(392,238) scale(0.028,0.028)">
		<g transform="">
			<path d="M-5006.94-3140.08c87.06,0,157.64,70.58,157.64,157.64c0,87.06-70.57,157.64-157.64,157.64
				c-87.06,0-157.64-70.57-157.64-157.64C-5164.57-3069.51-5094-3140.08-5006.94-3140.08z"/>
		</g>
	</g>
	<g transform="translate(0,252) scale(0.028,0.028)">
		<g transform="">
			<path d="M165.48-3324.81c87.06,0,157.64,70.58,157.64,157.64c0,87.06-70.57,157.64-157.64,157.64
				c-87.06,0-157.64-70.57-157.64-157.64C7.84-3254.24,78.42-3324.81,165.48-3324.81z"/>
		</g>
	</g>
	<g transform="translate(42,252) scale(0.028,0.028)">
		<g transform="">
			<path d="M-388.71-3324.81c87.06,0,157.64,70.58,157.64,157.64c0,87.06-70.57,157.64-157.64,157.64
				c-87.06,0-157.64-70.57-157.64-157.64C-546.35-3254.24-475.77-3324.81-388.71-3324.81z"/>
		</g>
	</g>
	<g transform="translate(56,252) scale(0.028,0.028)">
		<g transform="">
			<path d="M-573.44-3324.81c87.06,0,157.64,70.58,157.64,157.64c0,87.06-70.57,157.64-157.64,157.64
				c-87.06,0-157.64-70.57-157.64-157.64C-731.08-3254.24-660.5-3324.81-573.44-3324.81z"/>
		</g>
	</g>
	<g transform="translate(84,252) scale(0.028,0.028)">
		<g transform="">
			<path d="M-942.9-3324.81c87.06,0,157.64,70.58,157.64,157.64c0,87.06-70.57,157.64-157.64,157.64
				c-87.06,0-157.64-70.57-157.64-157.64C-1100.53-3254.24-1029.96-3324.81-942.9-3324.81z"/>
		</g>
	</g>
	<g transform="translate(112,252) scale(0.028,0.028)">
		<g transform="">
			<path d="M-1312.36-3324.81c87.06,0,157.64,70.58,157.64,157.64c0,87.06-70.57,157.64-157.64,157.64
				c-87.06,0-157.64-70.57-157.64-157.64C-1469.99-3254.24-1399.42-3324.81-1312.36-3324.81z"/>
		</g>
	</g>
	<g transform="translate(280,252) scale(0.028,0.028)">
		<g transform="">
			<path d="M-3529.11-3324.81c87.06,0,157.64,70.58,157.64,157.64c0,87.06-70.57,157.64-157.64,157.64
				c-87.06,0-157.64-70.57-157.64-157.64C-3686.74-3254.24-3616.17-3324.81-3529.11-3324.81z"/>
		</g>
	</g>
	<g transform="translate(294,252) scale(0.028,0.028)">
		<g transform="">
			<path d="M-3713.84-3324.81c87.06,0,157.64,70.58,157.64,157.64c0,87.06-70.57,157.64-157.64,157.64
				c-87.06,0-157.64-70.57-157.64-157.64C-3871.47-3254.24-3800.89-3324.81-3713.84-3324.81z"/>
		</g>
	</g>
	<g transform="translate(350,252) scale(0.028,0.028)">
		<g transform="">
			<path d="M-4452.75-3324.81c87.06,0,157.64,70.58,157.64,157.64c0,87.06-70.57,157.64-157.64,157.64
				c-87.06,0-157.64-70.57-157.64-157.64C-4610.39-3254.24-4539.81-3324.81-4452.75-3324.81z"/>
		</g>
	</g>
	<g transform="translate(378,252) scale(0.028,0.028)">
		<g transform="">
			<path d="M-4822.21-3324.81c87.06,0,157.64,70.58,157.64,157.64c0,87.06-70.57,157.64-157.64,157.64
				c-87.06,0-157.64-70.57-157.64-157.64C-4979.85-3254.24-4909.27-3324.81-4822.21-3324.81z"/>
		</g>
	</g>
	<g transform="translate(392,252) scale(0.028,0.028)">
		<g transform="">
			<path d="M-5006.94-3324.81c87.06,0,157.64,70.58,157.64,157.64c0,87.06-70.57,157.64-157.64,157.64
				c-87.06,0-157.64-70.57-157.64-157.64C-5164.57-3254.24-5094-3324.81-5006.94-3324.81z"/>
		</g>
	</g>
	<g transform="translate(14,266) scale(0.028,0.028)">
		<g transform="">
			<path d="M-19.25-3509.54c87.06,0,157.64,70.58,157.64,157.64c0,87.06-70.57,157.64-157.64,157.64
				c-87.06,0-157.64-70.57-157.64-157.64C-176.89-3438.96-106.31-3509.54-19.25-3509.54z"/>
		</g>
	</g>
	<g transform="translate(28,266) scale(0.028,0.028)">
		<g transform="">
			<path d="M-203.98-3509.54c87.06,0,157.64,70.58,157.64,157.64c0,87.06-70.57,157.64-157.64,157.64
				c-87.06,0-157.64-70.57-157.64-157.64C-361.62-3438.96-291.04-3509.54-203.98-3509.54z"/>
		</g>
	</g>
	<g transform="translate(56,266) scale(0.028,0.028)">
		<g transform="">
			<path d="M-573.44-3509.54c87.06,0,157.64,70.58,157.64,157.64c0,87.06-70.57,157.64-157.64,157.64
				c-87.06,0-157.64-70.57-157.64-157.64C-731.08-3438.96-660.5-3509.54-573.44-3509.54z"/>
		</g>
	</g>
	<g transform="translate(70,266) scale(0.028,0.028)">
		<g transform="">
			<path d="M-758.17-3509.54c87.06,0,157.64,70.58,157.64,157.64c0,87.06-70.57,157.64-157.64,157.64
				c-87.06,0-157.64-70.57-157.64-157.64C-915.81-3438.96-845.23-3509.54-758.17-3509.54z"/>
		</g>
	</g>
	<g transform="translate(126,266) scale(0.028,0.028)">
		<g transform="">
			<path d="M-1497.09-3509.54c87.06,0,157.64,70.58,157.64,157.64c0,87.06-70.57,157.64-157.64,157.64
				c-87.06,0-157.64-70.57-157.64-157.64C-1654.72-3438.96-1584.15-3509.54-1497.09-3509.54z"/>
		</g>
	</g>
	<g transform="translate(140,266) scale(0.028,0.028)">
		<g transform="">
			<path d="M-1681.82-3509.54c87.06,0,157.64,70.58,157.64,157.64c0,87.06-70.57,157.64-157.64,157.64
				c-87.06,0-157.64-70.57-157.64-157.64C-1839.45-3438.96-1768.87-3509.54-1681.82-3509.54z"/>
		</g>
	</g>
	<g transform="translate(154,266) scale(0.028,0.028)">
		<g transform="">
			<path d="M-1866.54-3509.54c87.06,0,157.64,70.58,157.64,157.64c0,87.06-70.57,157.64-157.64,157.64
				c-87.06,0-157.64-70.57-157.64-157.64C-2024.18-3438.96-1953.6-3509.54-1866.54-3509.54z"/>
		</g>
	</g>
	<g transform="translate(168,266) scale(0.028,0.028)">
		<g transform="">
			<path d="M-2051.27-3509.54c87.06,0,157.64,70.58,157.64,157.64c0,87.06-70.57,157.64-157.64,157.64
				c-87.06,0-157.64-70.57-157.64-157.64C-2208.91-3438.96-2138.33-3509.54-2051.27-3509.54z"/>
		</g>
	</g>
	<g transform="translate(252,266) scale(0.028,0.028)">
		<g transform="">
			<path d="M-3159.65-3509.54c87.06,0,157.64,70.58,157.64,157.64c0,87.06-70.57,157.64-157.64,157.64
				c-87.06,0-157.64-70.57-157.64-157.64C-3317.28-3438.96-3246.71-3509.54-3159.65-3509.54z"/>
		</g>
	</g>
	<g transform="translate(280,266) scale(0.028,0.028)">
		<g transform="">
			<path d="M-3529.11-3509.54c87.06,0,157.64,70.58,157.64,157.64c0,87.06-70.57,157.64-157.64,157.64
				c-87.06,0-157.64-70.57-157.64-157.64C-3686.74-3438.96-3616.17-3509.54-3529.11-3509.54z"/>
		</g>
	</g>
	<g transform="translate(308,266) scale(0.028,0.028)">
		<g transform="">
			<path d="M-3898.56-3509.54c87.06,0,157.64,70.58,157.64,157.64c0,87.06-70.57,157.64-157.64,157.64
				c-87.06,0-157.64-70.57-157.64-157.64C-4056.2-3438.96-3985.62-3509.54-3898.56-3509.54z"/>
		</g>
	</g>
	<g transform="translate(322,266) scale(0.028,0.028)">
		<g transform="">
			<path d="M-4083.29-3509.54c87.06,0,157.64,70.58,157.64,157.64c0,87.06-70.57,157.64-157.64,157.64
				c-87.06,0-157.64-70.57-157.64-157.64C-4240.93-3438.96-4170.35-3509.54-4083.29-3509.54z"/>
		</g>
	</g>
	<g transform="translate(378,266) scale(0.028,0.028)">
		<g transform="">
			<path d="M-4822.21-3509.54c87.06,0,157.64,70.58,157.64,157.64c0,87.06-70.57,157.64-157.64,157.64
				c-87.06,0-157.64-70.57-157.64-157.64C-4979.85-3438.96-4909.27-3509.54-4822.21-3509.54z"/>
		</g>
	</g>
	<g transform="translate(392,266) scale(0.028,0.028)">
		<g transform="">
			<path d="M-5006.94-3509.54c87.06,0,157.64,70.58,157.64,157.64c0,87.06-70.57,157.64-157.64,157.64
				c-87.06,0-157.64-70.57-157.64-157.64C-5164.57-3438.96-5094-3509.54-5006.94-3509.54z"/>
		</g>
	</g>
	<g transform="translate(0,280) scale(0.028,0.028)">
		<g transform="">
			<path d="M165.48-3694.27c87.06,0,157.64,70.58,157.64,157.64c0,87.06-70.57,157.64-157.64,157.64
				c-87.06,0-157.64-70.57-157.64-157.64C7.84-3623.69,78.42-3694.27,165.48-3694.27z"/>
		</g>
	</g>
	<g transform="translate(42,280) scale(0.028,0.028)">
		<g transform="">
			<path d="M-388.71-3694.27c87.06,0,157.64,70.58,157.64,157.64c0,87.06-70.57,157.64-157.64,157.64
				c-87.06,0-157.64-70.57-157.64-157.64C-546.35-3623.69-475.77-3694.27-388.71-3694.27z"/>
		</g>
	</g>
	<g transform="translate(56,280) scale(0.028,0.028)">
		<g transform="">
			<path d="M-573.44-3694.27c87.06,0,157.64,70.58,157.64,157.64c0,87.06-70.57,157.64-157.64,157.64
				c-87.06,0-157.64-70.57-157.64-157.64C-731.08-3623.69-660.5-3694.27-573.44-3694.27z"/>
		</g>
	</g>
	<g transform="translate(84,280) scale(0.028,0.028)">
		<g transform="">
			<path d="M-942.9-3694.27c87.06,0,157.64,70.58,157.64,157.64c0,87.06-70.57,157.64-157.64,157.64
				c-87.06,0-157.64-70.57-157.64-157.64C-1100.53-3623.69-1029.96-3694.27-942.9-3694.27z"/>
		</g>
	</g>
	<g transform="translate(112,280) scale(0.028,0.028)">
		<g transform="">
			<path d="M-1312.36-3694.27c87.06,0,157.64,70.58,157.64,157.64c0,87.06-70.57,157.64-157.64,157.64
				c-87.06,0-157.64-70.57-157.64-157.64C-1469.99-3623.69-1399.42-3694.27-1312.36-3694.27z"/>
		</g>
	</g>
	<g transform="translate(154,280) scale(0.028,0.028)">
		<g transform="">
			<path d="M-1866.54-3694.27c87.06,0,157.64,70.58,157.64,157.64c0,87.06-70.57,157.64-157.64,157.64
				c-87.06,0-157.64-70.57-157.64-157.64C-2024.18-3623.69-1953.6-3694.27-1866.54-3694.27z"/>
		</g>
	</g>
	<g transform="translate(168,280) scale(0.028,0.028)">
		<g transform="">
			<path d="M-2051.27-3694.27c87.06,0,157.64,70.58,157.64,157.64c0,87.06-70.57,157.64-157.64,157.64
				c-87.06,0-157.64-70.57-157.64-157.64C-2208.91-3623.69-2138.33-3694.27-2051.27-3694.27z"/>
		</g>
	</g>
	<g transform="translate(210,280) scale(0.028,0.028)">
		<g transform="">
			<path d="M-2605.46-3694.27c87.06,0,157.64,70.58,157.64,157.64c0,87.06-70.57,157.64-157.64,157.64
				c-87.06,0-157.64-70.57-157.64-157.64C-2763.1-3623.69-2692.52-3694.27-2605.46-3694.27z"/>
		</g>
	</g>
	<g transform="translate(266,280) scale(0.028,0.028)">
		<g transform="">
			<path d="M-3344.38-3694.27c87.06,0,157.64,70.58,157.64,157.64c0,87.06-70.57,157.64-157.64,157.64
				c-87.06,0-157.64-70.57-157.64-157.64C-3502.01-3623.69-3431.44-3694.27-3344.38-3694.27z"/>
		</g>
	</g>
	<g transform="translate(280,280) scale(0.028,0.028)">
		<g transform="">
			<path d="M-3529.11-3694.27c87.06,0,157.64,70.58,157.64,157.64c0,87.06-70.57,157.64-157.64,157.64
				c-87.06,0-157.64-70.57-157.64-157.64C-3686.74-3623.69-3616.17-3694.27-3529.11-3694.27z"/>
		</g>
	</g>
	<g transform="translate(294,280) scale(0.028,0.028)">
		<g transform="">
			<path d="M-3713.84-3694.27c87.06,0,157.64,70.58,157.64,157.64c0,87.06-70.57,157.64-157.64,157.64
				c-87.06,0-157.64-70.57-157.64-157.64C-3871.47-3623.69-3800.89-3694.27-3713.84-3694.27z"/>
		</g>
	</g>
	<g transform="translate(308,280) scale(0.028,0.028)">
		<g transform="">
			<path d="M-3898.56-3694.27c87.06,0,157.64,70.58,157.64,157.64c0,87.06-70.57,157.64-157.64,157.64
				c-87.06,0-157.64-70.57-157.64-157.64C-4056.2-3623.69-3985.62-3694.27-3898.56-3694.27z"/>
		</g>
	</g>
	<g transform="translate(322,280) scale(0.028,0.028)">
		<g transform="">
			<path d="M-4083.29-3694.27c87.06,0,157.64,70.58,157.64,157.64c0,87.06-70.57,157.64-157.64,157.64
				c-87.06,0-157.64-70.57-157.64-157.64C-4240.93-3623.69-4170.35-3694.27-4083.29-3694.27z"/>
		</g>
	</g>
	<g transform="translate(336,280) scale(0.028,0.028)">
		<g transform="">
			<path d="M-4268.02-3694.27c87.06,0,157.64,70.58,157.64,157.64c0,87.06-70.57,157.64-157.64,157.64
				c-87.06,0-157.64-70.57-157.64-157.64C-4425.66-3623.69-4355.08-3694.27-4268.02-3694.27z"/>
		</g>
	</g>
	<g transform="translate(378,280) scale(0.028,0.028)">
		<g transform="">
			<path d="M-4822.21-3694.27c87.06,0,157.64,70.58,157.64,157.64c0,87.06-70.57,157.64-157.64,157.64
				c-87.06,0-157.64-70.57-157.64-157.64C-4979.85-3623.69-4909.27-3694.27-4822.21-3694.27z"/>
		</g>
	</g>
	<g transform="translate(392,280) scale(0.028,0.028)">
		<g transform="">
			<path d="M-5006.94-3694.27c87.06,0,157.64,70.58,157.64,157.64c0,87.06-70.57,157.64-157.64,157.64
				c-87.06,0-157.64-70.57-157.64-157.64C-5164.57-3623.69-5094-3694.27-5006.94-3694.27z"/>
		</g>
	</g>
	<g transform="translate(112,294) scale(0.028,0.028)">
		<g transform="">
			<path d="M-1312.36-3879c87.06,0,157.64,70.58,157.64,157.64c0,87.06-70.57,157.64-157.64,157.64
				c-87.06,0-157.64-70.57-157.64-157.64C-1469.99-3808.42-1399.42-3879-1312.36-3879z"/>
		</g>
	</g>
	<g transform="translate(154,294) scale(0.028,0.028)">
		<g transform="">
			<path d="M-1866.54-3879c87.06,0,157.64,70.58,157.64,157.64c0,87.06-70.57,157.64-157.64,157.64
				c-87.06,0-157.64-70.57-157.64-157.64C-2024.18-3808.42-1953.6-3879-1866.54-3879z"/>
		</g>
	</g>
	<g transform="translate(168,294) scale(0.028,0.028)">
		<g transform="">
			<path d="M-2051.27-3879c87.06,0,157.64,70.58,157.64,157.64c0,87.06-70.57,157.64-157.64,157.64
				c-87.06,0-157.64-70.57-157.64-157.64C-2208.91-3808.42-2138.33-3879-2051.27-3879z"/>
		</g>
	</g>
	<g transform="translate(210,294) scale(0.028,0.028)">
		<g transform="">
			<path d="M-2605.46-3879c87.06,0,157.64,70.58,157.64,157.64c0,87.06-70.57,157.64-157.64,157.64
				c-87.06,0-157.64-70.57-157.64-157.64C-2763.1-3808.42-2692.52-3879-2605.46-3879z"/>
		</g>
	</g>
	<g transform="translate(224,294) scale(0.028,0.028)">
		<g transform="">
			<path d="M-2790.19-3879c87.06,0,157.64,70.58,157.64,157.64c0,87.06-70.57,157.64-157.64,157.64
				c-87.06,0-157.64-70.57-157.64-157.64C-2947.83-3808.42-2877.25-3879-2790.19-3879z"/>
		</g>
	</g>
	<g transform="translate(280,294) scale(0.028,0.028)">
		<g transform="">
			<path d="M-3529.11-3879c87.06,0,157.64,70.58,157.64,157.64c0,87.06-70.57,157.64-157.64,157.64
				c-87.06,0-157.64-70.57-157.64-157.64C-3686.74-3808.42-3616.17-3879-3529.11-3879z"/>
		</g>
	</g>
	<g transform="translate(336,294) scale(0.028,0.028)">
		<g transform="">
			<path d="M-4268.02-3879c87.06,0,157.64,70.58,157.64,157.64c0,87.06-70.57,157.64-157.64,157.64
				c-87.06,0-157.64-70.57-157.64-157.64C-4425.66-3808.42-4355.08-3879-4268.02-3879z"/>
		</g>
	</g>
	<g transform="translate(378,294) scale(0.028,0.028)">
		<g transform="">
			<path d="M-4822.21-3879c87.06,0,157.64,70.58,157.64,157.64c0,87.06-70.57,157.64-157.64,157.64
				c-87.06,0-157.64-70.57-157.64-157.64C-4979.85-3808.42-4909.27-3879-4822.21-3879z"/>
		</g>
	</g>
	<g transform="translate(392,294) scale(0.028,0.028)">
		<g transform="">
			<path d="M-5006.94-3879c87.06,0,157.64,70.58,157.64,157.64c0,87.06-70.57,157.64-157.64,157.64
				c-87.06,0-157.64-70.57-157.64-157.64C-5164.57-3808.42-5094-3879-5006.94-3879z"/>
		</g>
	</g>
	<g transform="translate(140,308) scale(0.028,0.028)">
		<g transform="">
			<path d="M-1681.82-4063.73c87.06,0,157.64,70.58,157.64,157.64c0,87.06-70.57,157.64-157.64,157.64
				c-87.06,0-157.64-70.57-157.64-157.64C-1839.45-3993.15-1768.87-4063.73-1681.82-4063.73z"/>
		</g>
	</g>
	<g transform="translate(154,308) scale(0.028,0.028)">
		<g transform="">
			<path d="M-1866.54-4063.73c87.06,0,157.64,70.58,157.64,157.64c0,87.06-70.57,157.64-157.64,157.64
				c-87.06,0-157.64-70.57-157.64-157.64C-2024.18-3993.15-1953.6-4063.73-1866.54-4063.73z"/>
		</g>
	</g>
	<g transform="translate(168,308) scale(0.028,0.028)">
		<g transform="">
			<path d="M-2051.27-4063.73c87.06,0,157.64,70.58,157.64,157.64c0,87.06-70.57,157.64-157.64,157.64
				c-87.06,0-157.64-70.57-157.64-157.64C-2208.91-3993.15-2138.33-4063.73-2051.27-4063.73z"/>
		</g>
	</g>
	<g transform="translate(182,308) scale(0.028,0.028)">
		<g transform="">
			<path d="M-2236-4063.73c87.06,0,157.64,70.58,157.64,157.64c0,87.06-70.57,157.64-157.64,157.64
				c-87.06,0-157.64-70.57-157.64-157.64C-2393.64-3993.15-2323.06-4063.73-2236-4063.73z"/>
		</g>
	</g>
	<g transform="translate(210,308) scale(0.028,0.028)">
		<g transform="">
			<path d="M-2605.46-4063.73c87.06,0,157.64,70.58,157.64,157.64c0,87.06-70.57,157.64-157.64,157.64
				c-87.06,0-157.64-70.57-157.64-157.64C-2763.1-3993.15-2692.52-4063.73-2605.46-4063.73z"/>
		</g>
	</g>
	<g transform="translate(238,308) scale(0.028,0.028)">
		<g transform="">
			<path d="M-2974.92-4063.73c87.06,0,157.64,70.58,157.64,157.64c0,87.06-70.57,157.64-157.64,157.64
				c-87.06,0-157.64-70.57-157.64-157.64C-3132.55-3993.15-3061.98-4063.73-2974.92-4063.73z"/>
		</g>
	</g>
	<g transform="translate(266,308) scale(0.028,0.028)">
		<g transform="">
			<path d="M-3344.38-4063.73c87.06,0,157.64,70.58,157.64,157.64c0,87.06-70.57,157.64-157.64,157.64
				c-87.06,0-157.64-70.57-157.64-157.64C-3502.01-3993.15-3431.44-4063.73-3344.38-4063.73z"/>
		</g>
	</g>
	<g transform="translate(280,308) scale(0.028,0.028)">
		<g transform="">
			<path d="M-3529.11-4063.73c87.06,0,157.64,70.58,157.64,157.64c0,87.06-70.57,157.64-157.64,157.64
				c-87.06,0-157.64-70.57-157.64-157.64C-3686.74-3993.15-3616.17-4063.73-3529.11-4063.73z"/>
		</g>
	</g>
	<g transform="translate(308,308) scale(0.028,0.028)">
		<g transform="">
			<path d="M-3898.56-4063.73c87.06,0,157.64,70.58,157.64,157.64c0,87.06-70.57,157.64-157.64,157.64
				c-87.06,0-157.64-70.57-157.64-157.64C-4056.2-3993.15-3985.62-4063.73-3898.56-4063.73z"/>
		</g>
	</g>
	<g transform="translate(336,308) scale(0.028,0.028)">
		<g transform="">
			<path d="M-4268.02-4063.73c87.06,0,157.64,70.58,157.64,157.64c0,87.06-70.57,157.64-157.64,157.64
				c-87.06,0-157.64-70.57-157.64-157.64C-4425.66-3993.15-4355.08-4063.73-4268.02-4063.73z"/>
		</g>
	</g>
	<g transform="translate(364,308) scale(0.028,0.028)">
		<g transform="">
			<path d="M-4637.48-4063.73c87.06,0,157.64,70.58,157.64,157.64c0,87.06-70.57,157.64-157.64,157.64
				c-87.06,0-157.64-70.57-157.64-157.64C-4795.12-3993.15-4724.54-4063.73-4637.48-4063.73z"/>
		</g>
	</g>
	<g transform="translate(378,308) scale(0.028,0.028)">
		<g transform="">
			<path d="M-4822.21-4063.73c87.06,0,157.64,70.58,157.64,157.64c0,87.06-70.57,157.64-157.64,157.64
				c-87.06,0-157.64-70.57-157.64-157.64C-4979.85-3993.15-4909.27-4063.73-4822.21-4063.73z"/>
		</g>
	</g>
	<g transform="translate(392,308) scale(0.028,0.028)">
		<g transform="">
			<path d="M-5006.94-4063.73c87.06,0,157.64,70.58,157.64,157.64c0,87.06-70.57,157.64-157.64,157.64
				c-87.06,0-157.64-70.57-157.64-157.64C-5164.57-3993.15-5094-4063.73-5006.94-4063.73z"/>
		</g>
	</g>
	<g transform="translate(112,322) scale(0.028,0.028)">
		<g transform="">
			<path d="M-1312.36-4248.46c87.06,0,157.64,70.58,157.64,157.64c0,87.06-70.57,157.64-157.64,157.64
				c-87.06,0-157.64-70.57-157.64-157.64C-1469.99-4177.88-1399.42-4248.46-1312.36-4248.46z"/>
		</g>
	</g>
	<g transform="translate(126,322) scale(0.028,0.028)">
		<g transform="">
			<path d="M-1497.09-4248.46c87.06,0,157.64,70.58,157.64,157.64c0,87.06-70.57,157.64-157.64,157.64
				c-87.06,0-157.64-70.57-157.64-157.64C-1654.72-4177.88-1584.15-4248.46-1497.09-4248.46z"/>
		</g>
	</g>
	<g transform="translate(140,322) scale(0.028,0.028)">
		<g transform="">
			<path d="M-1681.82-4248.46c87.06,0,157.64,70.58,157.64,157.64c0,87.06-70.57,157.64-157.64,157.64
				c-87.06,0-157.64-70.57-157.64-157.64C-1839.45-4177.88-1768.87-4248.46-1681.82-4248.46z"/>
		</g>
	</g>
	<g transform="translate(154,322) scale(0.028,0.028)">
		<g transform="">
			<path d="M-1866.54-4248.46c87.06,0,157.64,70.58,157.64,157.64c0,87.06-70.57,157.64-157.64,157.64
				c-87.06,0-157.64-70.57-157.64-157.64C-2024.18-4177.88-1953.6-4248.46-1866.54-4248.46z"/>
		</g>
	</g>
	<g transform="translate(182,322) scale(0.028,0.028)">
		<g transform="">
			<path d="M-2236-4248.46c87.06,0,157.64,70.58,157.64,157.64c0,87.06-70.57,157.64-157.64,157.64
				c-87.06,0-157.64-70.57-157.64-157.64C-2393.64-4177.88-2323.06-4248.46-2236-4248.46z"/>
		</g>
	</g>
	<g transform="translate(196,322) scale(0.028,0.028)">
		<g transform="">
			<path d="M-2420.73-4248.46c87.06,0,157.64,70.58,157.64,157.64c0,87.06-70.57,157.64-157.64,157.64
				c-87.06,0-157.64-70.57-157.64-157.64C-2578.37-4177.88-2507.79-4248.46-2420.73-4248.46z"/>
		</g>
	</g>
	<g transform="translate(238,322) scale(0.028,0.028)">
		<g transform="">
			<path d="M-2974.92-4248.46c87.06,0,157.64,70.58,157.64,157.64c0,87.06-70.57,157.64-157.64,157.64
				c-87.06,0-157.64-70.57-157.64-157.64C-3132.55-4177.88-3061.98-4248.46-2974.92-4248.46z"/>
		</g>
	</g>
	<g transform="translate(252,322) scale(0.028,0.028)">
		<g transform="">
			<path d="M-3159.65-4248.46c87.06,0,157.64,70.58,157.64,157.64c0,87.06-70.57,157.64-157.64,157.64
				c-87.06,0-157.64-70.57-157.64-157.64C-3317.28-4177.88-3246.71-4248.46-3159.65-4248.46z"/>
		</g>
	</g>
	<g transform="translate(280,322) scale(0.028,0.028)">
		<g transform="">
			<path d="M-3529.11-4248.46c87.06,0,157.64,70.58,157.64,157.64c0,87.06-70.57,157.64-157.64,157.64
				c-87.06,0-157.64-70.57-157.64-157.64C-3686.74-4177.88-3616.17-4248.46-3529.11-4248.46z"/>
		</g>
	</g>
	<g transform="translate(336,322) scale(0.028,0.028)">
		<g transform="">
			<path d="M-4268.02-4248.46c87.06,0,157.64,70.58,157.64,157.64c0,87.06-70.57,157.64-157.64,157.64
				c-87.06,0-157.64-70.57-157.64-157.64C-4425.66-4177.88-4355.08-4248.46-4268.02-4248.46z"/>
		</g>
	</g>
	<g transform="translate(392,322) scale(0.028,0.028)">
		<g transform="">
			<path d="M-5006.94-4248.46c87.06,0,157.64,70.58,157.64,157.64c0,87.06-70.57,157.64-157.64,157.64
				c-87.06,0-157.64-70.57-157.64-157.64C-5164.57-4177.88-5094-4248.46-5006.94-4248.46z"/>
		</g>
	</g>
	<g transform="translate(112,336) scale(0.028,0.028)">
		<g transform="">
			<path d="M-1312.36-4433.19c87.06,0,157.64,70.58,157.64,157.64c0,87.06-70.57,157.64-157.64,157.64
				c-87.06,0-157.64-70.57-157.64-157.64C-1469.99-4362.61-1399.42-4433.19-1312.36-4433.19z"/>
		</g>
	</g>
	<g transform="translate(140,336) scale(0.028,0.028)">
		<g transform="">
			<path d="M-1681.82-4433.19c87.06,0,157.64,70.58,157.64,157.64c0,87.06-70.57,157.64-157.64,157.64
				c-87.06,0-157.64-70.57-157.64-157.64C-1839.45-4362.61-1768.87-4433.19-1681.82-4433.19z"/>
		</g>
	</g>
	<g transform="translate(224,336) scale(0.028,0.028)">
		<g transform="">
			<path d="M-2790.19-4433.19c87.06,0,157.64,70.58,157.64,157.64c0,87.06-70.57,157.64-157.64,157.64
				c-87.06,0-157.64-70.57-157.64-157.64C-2947.83-4362.61-2877.25-4433.19-2790.19-4433.19z"/>
		</g>
	</g>
	<g transform="translate(252,336) scale(0.028,0.028)">
		<g transform="">
			<path d="M-3159.65-4433.19c87.06,0,157.64,70.58,157.64,157.64c0,87.06-70.57,157.64-157.64,157.64
				c-87.06,0-157.64-70.57-157.64-157.64C-3317.28-4362.61-3246.71-4433.19-3159.65-4433.19z"/>
		</g>
	</g>
	<g transform="translate(280,336) scale(0.028,0.028)">
		<g transform="">
			<path d="M-3529.11-4433.19c87.06,0,157.64,70.58,157.64,157.64c0,87.06-70.57,157.64-157.64,157.64
				c-87.06,0-157.64-70.57-157.64-157.64C-3686.74-4362.61-3616.17-4433.19-3529.11-4433.19z"/>
		</g>
	</g>
	<g transform="translate(294,336) scale(0.028,0.028)">
		<g transform="">
			<path d="M-3713.84-4433.19c87.06,0,157.64,70.58,157.64,157.64c0,87.06-70.57,157.64-157.64,157.64
				c-87.06,0-157.64-70.57-157.64-157.64C-3871.47-4362.61-3800.89-4433.19-3713.84-4433.19z"/>
		</g>
	</g>
	<g transform="translate(308,336) scale(0.028,0.028)">
		<g transform="">
			<path d="M-3898.56-4433.19c87.06,0,157.64,70.58,157.64,157.64c0,87.06-70.57,157.64-157.64,157.64
				c-87.06,0-157.64-70.57-157.64-157.64C-4056.2-4362.61-3985.62-4433.19-3898.56-4433.19z"/>
		</g>
	</g>
	<g transform="translate(322,336) scale(0.028,0.028)">
		<g transform="">
			<path d="M-4083.29-4433.19c87.06,0,157.64,70.58,157.64,157.64c0,87.06-70.57,157.64-157.64,157.64
				c-87.06,0-157.64-70.57-157.64-157.64C-4240.93-4362.61-4170.35-4433.19-4083.29-4433.19z"/>
		</g>
	</g>
	<g transform="translate(336,336) scale(0.028,0.028)">
		<g transform="">
			<path d="M-4268.02-4433.19c87.06,0,157.64,70.58,157.64,157.64c0,87.06-70.57,157.64-157.64,157.64
				c-87.06,0-157.64-70.57-157.64-157.64C-4425.66-4362.61-4355.08-4433.19-4268.02-4433.19z"/>
		</g>
	</g>
	<g transform="translate(350,336) scale(0.028,0.028)">
		<g transform="">
			<path d="M-4452.75-4433.19c87.06,0,157.64,70.58,157.64,157.64c0,87.06-70.57,157.64-157.64,157.64
				c-87.06,0-157.64-70.57-157.64-157.64C-4610.39-4362.61-4539.81-4433.19-4452.75-4433.19z"/>
		</g>
	</g>
	<g transform="translate(392,336) scale(0.028,0.028)">
		<g transform="">
			<path d="M-5006.94-4433.19c87.06,0,157.64,70.58,157.64,157.64c0,87.06-70.57,157.64-157.64,157.64
				c-87.06,0-157.64-70.57-157.64-157.64C-5164.57-4362.61-5094-4433.19-5006.94-4433.19z"/>
		</g>
	</g>
	<g transform="translate(182,350) scale(0.028,0.028)">
		<g transform="">
			<path d="M-2236-4617.92c87.06,0,157.64,70.58,157.64,157.64c0,87.06-70.57,157.64-157.64,157.64
				c-87.06,0-157.64-70.57-157.64-157.64C-2393.64-4547.34-2323.06-4617.92-2236-4617.92z"/>
		</g>
	</g>
	<g transform="translate(196,350) scale(0.028,0.028)">
		<g transform="">
			<path d="M-2420.73-4617.92c87.06,0,157.64,70.58,157.64,157.64c0,87.06-70.57,157.64-157.64,157.64
				c-87.06,0-157.64-70.57-157.64-157.64C-2578.37-4547.34-2507.79-4617.92-2420.73-4617.92z"/>
		</g>
	</g>
	<g transform="translate(210,350) scale(0.028,0.028)">
		<g transform="">
			<path d="M-2605.46-4617.92c87.06,0,157.64,70.58,157.64,157.64c0,87.06-70.57,157.64-157.64,157.64
				c-87.06,0-157.64-70.57-157.64-157.64C-2763.1-4547.34-2692.52-4617.92-2605.46-4617.92z"/>
		</g>
	</g>
	<g transform="translate(224,350) scale(0.028,0.028)">
		<g transform="">
			<path d="M-2790.19-4617.92c87.06,0,157.64,70.58,157.64,157.64c0,87.06-70.57,157.64-157.64,157.64
				c-87.06,0-157.64-70.57-157.64-157.64C-2947.83-4547.34-2877.25-4617.92-2790.19-4617.92z"/>
		</g>
	</g>
	<g transform="translate(238,350) scale(0.028,0.028)">
		<g transform="">
			<path d="M-2974.92-4617.92c87.06,0,157.64,70.58,157.64,157.64c0,87.06-70.57,157.64-157.64,157.64
				c-87.06,0-157.64-70.57-157.64-157.64C-3132.55-4547.34-3061.98-4617.92-2974.92-4617.92z"/>
		</g>
	</g>
	<g transform="translate(280,350) scale(0.028,0.028)">
		<g transform="">
			<path d="M-3529.11-4617.92c87.06,0,157.64,70.58,157.64,157.64c0,87.06-70.57,157.64-157.64,157.64
				c-87.06,0-157.64-70.57-157.64-157.64C-3686.74-4547.34-3616.17-4617.92-3529.11-4617.92z"/>
		</g>
	</g>
	<g transform="translate(294,350) scale(0.028,0.028)">
		<g transform="">
			<path d="M-3713.84-4617.92c87.06,0,157.64,70.58,157.64,157.64c0,87.06-70.57,157.64-157.64,157.64
				c-87.06,0-157.64-70.57-157.64-157.64C-3871.47-4547.34-3800.89-4617.92-3713.84-4617.92z"/>
		</g>
	</g>
	<g transform="translate(336,350) scale(0.028,0.028)">
		<g transform="">
			<path d="M-4268.02-4617.92c87.06,0,157.64,70.58,157.64,157.64c0,87.06-70.57,157.64-157.64,157.64
				c-87.06,0-157.64-70.57-157.64-157.64C-4425.66-4547.34-4355.08-4617.92-4268.02-4617.92z"/>
		</g>
	</g>
	<g transform="translate(112,364) scale(0.028,0.028)">
		<g transform="">
			<path d="M-1312.36-4802.64c87.06,0,157.64,70.58,157.64,157.64c0,87.06-70.57,157.64-157.64,157.64
				c-87.06,0-157.64-70.57-157.64-157.64C-1469.99-4732.07-1399.42-4802.64-1312.36-4802.64z"/>
		</g>
	</g>
	<g transform="translate(140,364) scale(0.028,0.028)">
		<g transform="">
			<path d="M-1681.82-4802.64c87.06,0,157.64,70.58,157.64,157.64c0,87.06-70.57,157.64-157.64,157.64
				c-87.06,0-157.64-70.57-157.64-157.64C-1839.45-4732.07-1768.87-4802.64-1681.82-4802.64z"/>
		</g>
	</g>
	<g transform="translate(154,364) scale(0.028,0.028)">
		<g transform="">
			<path d="M-1866.54-4802.64c87.06,0,157.64,70.58,157.64,157.64c0,87.06-70.57,157.64-157.64,157.64
				c-87.06,0-157.64-70.57-157.64-157.64C-2024.18-4732.07-1953.6-4802.64-1866.54-4802.64z"/>
		</g>
	</g>
	<g transform="translate(196,364) scale(0.028,0.028)">
		<g transform="">
			<path d="M-2420.73-4802.64c87.06,0,157.64,70.58,157.64,157.64c0,87.06-70.57,157.64-157.64,157.64
				c-87.06,0-157.64-70.57-157.64-157.64C-2578.37-4732.07-2507.79-4802.64-2420.73-4802.64z"/>
		</g>
	</g>
	<g transform="translate(224,364) scale(0.028,0.028)">
		<g transform="">
			<path d="M-2790.19-4802.64c87.06,0,157.64,70.58,157.64,157.64c0,87.06-70.57,157.64-157.64,157.64
				c-87.06,0-157.64-70.57-157.64-157.64C-2947.83-4732.07-2877.25-4802.64-2790.19-4802.64z"/>
		</g>
	</g>
	<g transform="translate(238,364) scale(0.028,0.028)">
		<g transform="">
			<path d="M-2974.92-4802.64c87.06,0,157.64,70.58,157.64,157.64c0,87.06-70.57,157.64-157.64,157.64
				c-87.06,0-157.64-70.57-157.64-157.64C-3132.55-4732.07-3061.98-4802.64-2974.92-4802.64z"/>
		</g>
	</g>
	<g transform="translate(252,364) scale(0.028,0.028)">
		<g transform="">
			<path d="M-3159.65-4802.64c87.06,0,157.64,70.58,157.64,157.64c0,87.06-70.57,157.64-157.64,157.64
				c-87.06,0-157.64-70.57-157.64-157.64C-3317.28-4732.07-3246.71-4802.64-3159.65-4802.64z"/>
		</g>
	</g>
	<g transform="translate(266,364) scale(0.028,0.028)">
		<g transform="">
			<path d="M-3344.38-4802.64c87.06,0,157.64,70.58,157.64,157.64c0,87.06-70.57,157.64-157.64,157.64
				c-87.06,0-157.64-70.57-157.64-157.64C-3502.01-4732.07-3431.44-4802.64-3344.38-4802.64z"/>
		</g>
	</g>
	<g transform="translate(322,364) scale(0.028,0.028)">
		<g transform="">
			<path d="M-4083.29-4802.64c87.06,0,157.64,70.58,157.64,157.64c0,87.06-70.57,157.64-157.64,157.64
				c-87.06,0-157.64-70.57-157.64-157.64C-4240.93-4732.07-4170.35-4802.64-4083.29-4802.64z"/>
		</g>
	</g>
	<g transform="translate(336,364) scale(0.028,0.028)">
		<g transform="">
			<path d="M-4268.02-4802.64c87.06,0,157.64,70.58,157.64,157.64c0,87.06-70.57,157.64-157.64,157.64
				c-87.06,0-157.64-70.57-157.64-157.64C-4425.66-4732.07-4355.08-4802.64-4268.02-4802.64z"/>
		</g>
	</g>
	<g transform="translate(364,364) scale(0.028,0.028)">
		<g transform="">
			<path d="M-4637.48-4802.64c87.06,0,157.64,70.58,157.64,157.64c0,87.06-70.57,157.64-157.64,157.64
				c-87.06,0-157.64-70.57-157.64-157.64C-4795.12-4732.07-4724.54-4802.64-4637.48-4802.64z"/>
		</g>
	</g>
	<g transform="translate(392,364) scale(0.028,0.028)">
		<g transform="">
			<path d="M-5006.94-4802.64c87.06,0,157.64,70.58,157.64,157.64c0,87.06-70.57,157.64-157.64,157.64
				c-87.06,0-157.64-70.57-157.64-157.64C-5164.57-4732.07-5094-4802.64-5006.94-4802.64z"/>
		</g>
	</g>
	<g transform="translate(168,378) scale(0.028,0.028)">
		<g transform="">
			<path d="M-2051.27-4987.37c87.06,0,157.64,70.58,157.64,157.64c0,87.06-70.57,157.64-157.64,157.64
				c-87.06,0-157.64-70.57-157.64-157.64C-2208.91-4916.8-2138.33-4987.37-2051.27-4987.37z"/>
		</g>
	</g>
	<g transform="translate(196,378) scale(0.028,0.028)">
		<g transform="">
			<path d="M-2420.73-4987.37c87.06,0,157.64,70.58,157.64,157.64c0,87.06-70.57,157.64-157.64,157.64
				c-87.06,0-157.64-70.57-157.64-157.64C-2578.37-4916.8-2507.79-4987.37-2420.73-4987.37z"/>
		</g>
	</g>
	<g transform="translate(210,378) scale(0.028,0.028)">
		<g transform="">
			<path d="M-2605.46-4987.37c87.06,0,157.64,70.58,157.64,157.64c0,87.06-70.57,157.64-157.64,157.64
				c-87.06,0-157.64-70.57-157.64-157.64C-2763.1-4916.8-2692.52-4987.37-2605.46-4987.37z"/>
		</g>
	</g>
	<g transform="translate(252,378) scale(0.028,0.028)">
		<g transform="">
			<path d="M-3159.65-4987.37c87.06,0,157.64,70.58,157.64,157.64c0,87.06-70.57,157.64-157.64,157.64
				c-87.06,0-157.64-70.57-157.64-157.64C-3317.28-4916.8-3246.71-4987.37-3159.65-4987.37z"/>
		</g>
	</g>
	<g transform="translate(266,378) scale(0.028,0.028)">
		<g transform="">
			<path d="M-3344.38-4987.37c87.06,0,157.64,70.58,157.64,157.64c0,87.06-70.57,157.64-157.64,157.64
				c-87.06,0-157.64-70.57-157.64-157.64C-3502.01-4916.8-3431.44-4987.37-3344.38-4987.37z"/>
		</g>
	</g>
	<g transform="translate(280,378) scale(0.028,0.028)">
		<g transform="">
			<path d="M-3529.11-4987.37c87.06,0,157.64,70.58,157.64,157.64c0,87.06-70.57,157.64-157.64,157.64
				c-87.06,0-157.64-70.57-157.64-157.64C-3686.74-4916.8-3616.17-4987.37-3529.11-4987.37z"/>
		</g>
	</g>
	<g transform="translate(294,378) scale(0.028,0.028)">
		<g transform="">
			<path d="M-3713.84-4987.37c87.06,0,157.64,70.58,157.64,157.64c0,87.06-70.57,157.64-157.64,157.64
				c-87.06,0-157.64-70.57-157.64-157.64C-3871.47-4916.8-3800.89-4987.37-3713.84-4987.37z"/>
		</g>
	</g>
	<g transform="translate(322,378) scale(0.028,0.028)">
		<g transform="">
			<path d="M-4083.29-4987.37c87.06,0,157.64,70.58,157.64,157.64c0,87.06-70.57,157.64-157.64,157.64
				c-87.06,0-157.64-70.57-157.64-157.64C-4240.93-4916.8-4170.35-4987.37-4083.29-4987.37z"/>
		</g>
	</g>
	<g transform="translate(378,378) scale(0.028,0.028)">
		<g transform="">
			<path d="M-4822.21-4987.37c87.06,0,157.64,70.58,157.64,157.64c0,87.06-70.57,157.64-157.64,157.64
				c-87.06,0-157.64-70.57-157.64-157.64C-4979.85-4916.8-4909.27-4987.37-4822.21-4987.37z"/>
		</g>
	</g>
	<g transform="translate(140,392) scale(0.028,0.028)">
		<g transform="">
			<path d="M-1681.82-5172.1c87.06,0,157.64,70.58,157.64,157.64c0,87.06-70.57,157.64-157.64,157.64
				c-87.06,0-157.64-70.57-157.64-157.64C-1839.45-5101.53-1768.87-5172.1-1681.82-5172.1z"/>
		</g>
	</g>
	<g transform="translate(168,392) scale(0.028,0.028)">
		<g transform="">
			<path d="M-2051.27-5172.1c87.06,0,157.64,70.58,157.64,157.64c0,87.06-70.57,157.64-157.64,157.64
				c-87.06,0-157.64-70.57-157.64-157.64C-2208.91-5101.53-2138.33-5172.1-2051.27-5172.1z"/>
		</g>
	</g>
	<g transform="translate(196,392) scale(0.028,0.028)">
		<g transform="">
			<path d="M-2420.73-5172.1c87.06,0,157.64,70.58,157.64,157.64c0,87.06-70.57,157.64-157.64,157.64
				c-87.06,0-157.64-70.57-157.64-157.64C-2578.37-5101.53-2507.79-5172.1-2420.73-5172.1z"/>
		</g>
	</g>
	<g transform="translate(224,392) scale(0.028,0.028)">
		<g transform="">
			<path d="M-2790.19-5172.1c87.06,0,157.64,70.58,157.64,157.64c0,87.06-70.57,157.64-157.64,157.64
				c-87.06,0-157.64-70.57-157.64-157.64C-2947.83-5101.53-2877.25-5172.1-2790.19-5172.1z"/>
		</g>
	</g>
	<g transform="translate(238,392) scale(0.028,0.028)">
		<g transform="">
			<path d="M-2974.92-5172.1c87.06,0,157.64,70.58,157.64,157.64c0,87.06-70.57,157.64-157.64,157.64
				c-87.06,0-157.64-70.57-157.64-157.64C-3132.55-5101.53-3061.98-5172.1-2974.92-5172.1z"/>
		</g>
	</g>
	<g transform="translate(252,392) scale(0.028,0.028)">
		<g transform="">
			<path d="M-3159.65-5172.1c87.06,0,157.64,70.58,157.64,157.64c0,87.06-70.57,157.64-157.64,157.64
				c-87.06,0-157.64-70.57-157.64-157.64C-3317.28-5101.53-3246.71-5172.1-3159.65-5172.1z"/>
		</g>
	</g>
	<g transform="translate(266,392) scale(0.028,0.028)">
		<g transform="">
			<path d="M-3344.38-5172.1c87.06,0,157.64,70.58,157.64,157.64c0,87.06-70.57,157.64-157.64,157.64
				c-87.06,0-157.64-70.57-157.64-157.64C-3502.01-5101.53-3431.44-5172.1-3344.38-5172.1z"/>
		</g>
	</g>
	<g transform="translate(280,392) scale(0.028,0.028)">
		<g transform="">
			<path d="M-3529.11-5172.1c87.06,0,157.64,70.58,157.64,157.64c0,87.06-70.57,157.64-157.64,157.64
				c-87.06,0-157.64-70.57-157.64-157.64C-3686.74-5101.53-3616.17-5172.1-3529.11-5172.1z"/>
		</g>
	</g>
	<g transform="translate(294,392) scale(0.028,0.028)">
		<g transform="">
			<path d="M-3713.84-5172.1c87.06,0,157.64,70.58,157.64,157.64c0,87.06-70.57,157.64-157.64,157.64
				c-87.06,0-157.64-70.57-157.64-157.64C-3871.47-5101.53-3800.89-5172.1-3713.84-5172.1z"/>
		</g>
	</g>
	<g transform="translate(308,392) scale(0.028,0.028)">
		<g transform="">
			<path d="M-3898.56-5172.1c87.06,0,157.64,70.58,157.64,157.64c0,87.06-70.57,157.64-157.64,157.64
				c-87.06,0-157.64-70.57-157.64-157.64C-4056.2-5101.53-3985.62-5172.1-3898.56-5172.1z"/>
		</g>
	</g>
	<g transform="translate(336,392) scale(0.028,0.028)">
		<g transform="">
			<path d="M-4268.02-5172.1c87.06,0,157.64,70.58,157.64,157.64c0,87.06-70.57,157.64-157.64,157.64
				c-87.06,0-157.64-70.57-157.64-157.64C-4425.66-5101.53-4355.08-5172.1-4268.02-5172.1z"/>
		</g>
	</g>
	<g transform="translate(350,392) scale(0.028,0.028)">
		<g transform="">
			<path d="M-4452.75-5172.1c87.06,0,157.64,70.58,157.64,157.64c0,87.06-70.57,157.64-157.64,157.64
				c-87.06,0-157.64-70.57-157.64-157.64C-4610.39-5101.53-4539.81-5172.1-4452.75-5172.1z"/>
		</g>
	</g>
	<g transform="translate(378,392) scale(0.028,0.028)">
		<g transform="">
			<path d="M-4822.21-5172.1c87.06,0,157.64,70.58,157.64,157.64c0,87.06-70.57,157.64-157.64,157.64
				c-87.06,0-157.64-70.57-157.64-157.64C-4979.85-5101.53-4909.27-5172.1-4822.21-5172.1z"/>
		</g>
	</g>
	<g transform="translate(392,392) scale(0.028,0.028)">
		<g transform="">
			<path d="M-5006.94-5172.1c87.06,0,157.64,70.58,157.64,157.64c0,87.06-70.57,157.64-157.64,157.64
				c-87.06,0-157.64-70.57-157.64-157.64C-5164.57-5101.53-5094-5172.1-5006.94-5172.1z"/>
		</g>
	</g>
	<g transform="translate(0,0) scale(0.98, 0.98)">
		<g transform="">
			<g>
				<path class="st0" d="M41.75,9.47h-20c-2.57,0-4.96,0.79-6.92,2.14c-1.53,1.05-2.79,2.44-3.69,4.05
					c-0.93,1.68-1.46,3.59-1.46,5.63v20.47c0,6.52,5.41,11.83,12.07,11.83l10,0l10,0c6.66,0,12.07-5.31,12.07-11.83V21.29
					C53.82,14.78,48.41,9.47,41.75,9.47z"/>
				<path d="M41.75,0.01h-20l0,0c-9.75,0-18,6.44-20.64,15.24c-0.27,0.91-0.49,1.85-0.63,2.8c-0.16,1.06-0.25,2.14-0.25,3.24v20.47
					c0,11.74,9.66,21.29,21.53,21.29l10,0l10,0c11.87,0,21.53-9.55,21.53-21.29V21.29C63.28,9.56,53.62,0.01,41.75,0.01z
					 M53.82,41.77c0,6.52-5.41,11.83-12.07,11.83l-10,0l-10,0c-6.66,0-12.07-5.31-12.07-11.83V21.29c0-2.04,0.53-3.96,1.46-5.63
					c0.9-1.61,2.16-3,3.69-4.05c1.96-1.35,4.35-2.14,6.92-2.14h20c6.66,0,12.07,5.3,12.07,11.82V41.77z"/>
			</g>
		</g>
	</g>
	<g transform="translate(308,0) scale(0.98, 0.98)">
		<g transform="">
			<g>
				<path class="st0" d="M-74.36,9.47h-20c-2.57,0-4.96,0.79-6.92,2.14c-1.53,1.05-2.79,2.44-3.69,4.05
					c-0.93,1.68-1.46,3.59-1.46,5.63v20.47c0,6.52,5.41,11.83,12.07,11.83l10,0l10,0c6.66,0,12.07-5.31,12.07-11.83V21.29
					C-62.3,14.78-67.71,9.47-74.36,9.47z"/>
				<path d="M-74.36,0.01h-20l0,0c-9.75,0-18,6.44-20.64,15.24c-0.27,0.91-0.49,1.85-0.63,2.8c-0.16,1.06-0.25,2.14-0.25,3.24v20.47
					c0,11.74,9.66,21.29,21.53,21.29l10,0l10,0c11.87,0,21.53-9.55,21.53-21.29V21.29C-52.84,9.56-62.5,0.01-74.36,0.01z
					 M-62.3,41.77c0,6.52-5.41,11.83-12.07,11.83l-10,0l-10,0c-6.66,0-12.07-5.31-12.07-11.83V21.29c0-2.04,0.53-3.96,1.46-5.63
					c0.9-1.61,2.16-3,3.69-4.05c1.96-1.35,4.35-2.14,6.92-2.14h20c6.66,0,12.07,5.3,12.07,11.82V41.77z"/>
			</g>
		</g>
	</g>
	<g transform="translate(0,308) scale(0.98, 0.98)">
		<g transform="">
			<g>
				<path class="st0" d="M41.75-106.64h-20c-2.57,0-4.96,0.79-6.92,2.14c-1.53,1.05-2.79,2.44-3.69,4.05
					c-0.93,1.68-1.46,3.59-1.46,5.63v20.47c0,6.52,5.41,11.83,12.07,11.83l10,0l10,0c6.66,0,12.07-5.31,12.07-11.83v-20.47
					C53.82-101.34,48.41-106.64,41.75-106.64z"/>
				<path d="M41.75-116.1h-20l0,0c-9.75,0-18,6.44-20.64,15.24c-0.27,0.91-0.49,1.85-0.63,2.8C0.31-97,0.22-95.92,0.22-94.82v20.47
					c0,11.74,9.66,21.29,21.53,21.29l10,0l10,0c11.87,0,21.53-9.55,21.53-21.29v-20.47C63.28-106.56,53.62-116.1,41.75-116.1z
					 M53.82-74.35c0,6.52-5.41,11.83-12.07,11.83l-10,0l-10,0c-6.66,0-12.07-5.31-12.07-11.83v-20.47c0-2.04,0.53-3.96,1.46-5.63
					c0.9-1.61,2.16-3,3.69-4.05c1.96-1.35,4.35-2.14,6.92-2.14h20c6.66,0,12.07,5.3,12.07,11.82V-74.35z"/>
			</g>
		</g>
	</g>
	<g transform="translate(28,28) scale(0.41176470588235, 0.41176470588235)">
		<g transform="">
			<circle cx="6.94" cy="6.43" r="31.53"/>
		</g>
	</g>
	<g transform="translate(336,28) scale(0.41176470588235, 0.41176470588235)">
		<g transform="">
			<circle cx="-269.42" cy="6.43" r="31.53"/>
		</g>
	</g>
	<g transform="translate(28,336) scale(0.41176470588235, 0.41176470588235)">
		<g transform="">
			<circle cx="6.94" cy="-269.93" r="31.53"/>
		</g>
	</g>
	<g transform="translate(140,140) scale(0.126,0.126)">
		<g id="g3" transform="matrix(8.9129738,0,0,8.9129738,0,9.1455078e-6)">
			<g id="g5">
				<circle id="XMLID_11_" cx="-10.49" cy="-10.68" r="35.37"/>
			</g>
			<path id="path8" class="st1" d="M-11.83,4.84h2.78c0,0,0.84-0.09,1.27-0.55C-7.39,3.86-7.4,3.06-7.4,3.06s-0.05-3.73,1.67-4.27
				c1.7-0.54,3.89,3.6,6.21,5.19c1.75,1.2,3.09,0.94,3.09,0.94l6.2-0.09c0,0,3.24-0.2,1.71-2.75c-0.13-0.21-0.9-1.89-4.61-5.34
				C2.98-6.86,3.5-6.28,8.19-12.52c2.85-3.8,3.99-6.12,3.64-7.12c-0.34-0.95-2.44-0.7-2.44-0.7L2.4-20.29c0,0-0.52-0.07-0.9,0.16
				c-0.38,0.23-0.62,0.75-0.62,0.75s-1.11,2.94-2.58,5.45c-3.11,5.28-4.35,5.56-4.86,5.23c-1.18-0.76-0.89-3.07-0.89-4.71
				c0-5.12,0.78-7.25-1.51-7.8c-0.76-0.18-1.32-0.3-3.26-0.32c-2.49-0.03-4.6,0.01-5.8,0.59c-0.79,0.39-1.41,1.26-1.03,1.31
				c0.46,0.06,1.51,0.28,2.06,1.04c0.72,0.97,0.69,3.16,0.69,3.16s0.41,6.02-0.96,6.77c-0.94,0.51-2.23-0.53-5.01-5.33
				c-1.42-2.45-2.49-5.17-2.49-5.17s-0.21-0.51-0.58-0.78c-0.45-0.33-1.07-0.43-1.07-0.43l-6.64,0.04c0,0-1,0.03-1.36,0.46
				c-0.33,0.39-0.03,1.18-0.03,1.18s5.2,12.16,11.08,18.28C-17.95,5.21-11.83,4.84-11.83,4.84C-11.83,4.84-11.83,4.84-11.83,4.84z"
				/>
		</g>
		<g id="g10" transform="translate(0,887.80401)">
		</g>
		<g id="g12" transform="translate(0,887.80401)">
		</g>
		<g id="g14" transform="translate(0,887.80401)">
		</g>
		<g id="g16" transform="translate(0,887.80401)">
		</g>
		<g id="g18" transform="translate(0,887.80401)">
		</g>
		<g id="g20" transform="translate(0,887.80401)">
		</g>
		<g id="g22" transform="translate(0,887.80401)">
		</g>
		<g id="g24" transform="translate(0,887.80401)">
		</g>
		<g id="g26" transform="translate(0,887.80401)">
		</g>
		<g id="g28" transform="translate(0,887.80401)">
		</g>
		<g id="g30" transform="translate(0,887.80401)">
		</g>
		<g id="g32" transform="translate(0,887.80401)">
		</g>
		<g id="g34" transform="translate(0,887.80401)">
		</g>
		<g id="g36" transform="translate(0,887.80401)">
		</g>
		<g id="g38" transform="translate(0,887.80401)">
		</g>
	</g>
	<g id="g10_00000011723867154735319990000012829149520898400662_" transform="translate(0,887.80401)">
	</g>
	<g id="g12_00000165225904136897715900000001709362466946891419_" transform="translate(0,887.80401)">
	</g>
	<g id="g14_00000083070013212263830060000017691897133827947146_" transform="translate(0,887.80401)">
	</g>
	<g id="g16_00000000931708231045868060000006752472992745261208_" transform="translate(0,887.80401)">
	</g>
	<g id="g18_00000015320542271712870770000007068674456750492302_" transform="translate(0,887.80401)">
	</g>
	<g id="g20_00000057839738245710316000000005820233042913967523_" transform="translate(0,887.80401)">
	</g>
	<g id="g22_00000158003135794186984340000000525140091993667236_" transform="translate(0,887.80401)">
	</g>
	<g id="g24_00000119823565233842334510000003356859408922585009_" transform="translate(0,887.80401)">
	</g>
	<g id="g26_00000016763151564155925610000017445321796268642955_" transform="translate(0,887.80401)">
	</g>
	<g id="g28_00000002372433028337061630000016386752425135102090_" transform="translate(0,887.80401)">
	</g>
	<g id="g30_00000136373657040986562830000007756979552962152636_" transform="translate(0,887.80401)">
	</g>
	<g id="g32_00000127008689999229935650000012465841380877166744_" transform="translate(0,887.80401)">
	</g>
	<g id="g34_00000096775291787978540590000006472655846441696390_" transform="translate(0,887.80401)">
	</g>
	<g id="g36_00000113317750291076705090000017768676313945270431_" transform="translate(0,887.80401)">
	</g>
	<g id="g38_00000101100143922112016120000011771485705655232400_" transform="translate(0,887.80401)">
	</g>
</g>
</svg>
