<?xml version="1.0" encoding="utf-8"?>
<!-- Generator: Adobe Illustrator 26.1.0, SVG Export Plug-In . SVG Version: 6.00 Build 0)  -->
<svg version="1.1" id="Слой_1" xmlns="http://www.w3.org/2000/svg" xmlns:xlink="http://www.w3.org/1999/xlink" x="0px" y="0px"
	 viewBox="0 0 128 128" style="enable-background:new 0 0 128 128;" xml:space="preserve">
<style type="text/css">
	.st0{fill:#727272;}
</style>
<g>
	<g>
		<path class="st0" d="M112,44c-18.92,0-36.82-7.32-48-19.37C52.83,36.68,34.92,44,16,44c-4.24,0-8.54-0.43-12.78-1.28
			C1.35,42.35,0,40.71,0,38.8V8c0-2.21,1.79-4,4-4h120c2.21,0,4,1.79,4,4v30.8c0,1.91-1.35,3.55-3.21,3.92
			C120.54,43.57,116.24,44,112,44z M64,14.4c1.26,0,2.44,0.59,3.2,1.6c9.25,12.34,26.42,20,44.8,20c2.65,0,5.33-0.19,8-0.57V12H8
			v23.43c2.67,0.38,5.35,0.57,8,0.57c18.38,0,35.55-7.66,44.8-20C61.55,14.99,62.74,14.4,64,14.4z"/>
	</g>
	<g>
		<path class="st0" d="M32,124H4c-2.21,0-4-1.79-4-4V36c0-2.21,1.79-4,4-4s4,1.79,4,4v80h20c0-11.94-4.12-19.91-11.23-29.64
			c-0.72-0.98-0.95-2.24-0.63-3.42c0.32-1.17,1.16-2.14,2.28-2.62C33.72,73.77,44,58.21,44,41.6v-6.8c0-2.21,1.79-4,4-4s4,1.79,4,4
			v6.8c0,18.43-10.07,35.19-26.03,43.94C32.23,94.81,36,103.65,36,116v4C36,122.21,34.21,124,32,124z"/>
	</g>
	<g>
		<path class="st0" d="M20,88H4c-2.21,0-4-1.79-4-4s1.79-4,4-4h16c2.21,0,4,1.79,4,4S22.21,88,20,88z"/>
	</g>
	<g>
		<path class="st0" d="M124,124H96c-2.21,0-4-1.79-4-4v-4c0-12.35,3.77-21.19,10.03-30.46C86.07,76.79,76,60.03,76,41.6v-6.8
			c0-2.21,1.79-4,4-4s4,1.79,4,4v6.8c0,16.61,10.28,32.17,25.57,38.72c1.12,0.48,1.96,1.45,2.29,2.62c0.32,1.18,0.09,2.43-0.63,3.42
			C104.12,96.09,100,104.06,100,116h20V36c0-2.21,1.79-4,4-4s4,1.79,4,4v84C128,122.21,126.21,124,124,124z"/>
	</g>
	<g>
		<path class="st0" d="M124,88h-16c-2.21,0-4-1.79-4-4s1.79-4,4-4h16c2.21,0,4,1.79,4,4S126.21,88,124,88z"/>
	</g>
	<g>
		<path class="st0" d="M16,68c-0.76,0-1.53-0.22-2.21-0.67c-1.84-1.23-2.33-3.71-1.11-5.55c4.43-6.65,6.97-14.38,7.33-22.36
			c0.1-2.21,2-3.88,4.18-3.81c2.21,0.1,3.91,1.97,3.81,4.18c-0.43,9.44-3.43,18.58-8.67,26.44C18.56,67.38,17.29,68,16,68z"/>
	</g>
	<g>
		<path class="st0" d="M112,68c-1.29,0-2.56-0.62-3.33-1.78c-5.24-7.86-8.24-17.01-8.67-26.44c-0.1-2.21,1.61-4.08,3.82-4.18
			c2.05-0.08,4.07,1.61,4.18,3.81c0.36,7.98,2.89,15.71,7.33,22.36c1.23,1.84,0.73,4.32-1.11,5.55C113.54,67.78,112.77,68,112,68z"
			/>
	</g>
</g>
</svg>
