<?xml version="1.0" encoding="utf-8"?>
<!-- Generator: Adobe Illustrator 26.1.0, SVG Export Plug-In . SVG Version: 6.00 Build 0)  -->
<svg version="1.1" id="Слой_1" xmlns="http://www.w3.org/2000/svg" xmlns:xlink="http://www.w3.org/1999/xlink" x="0px" y="0px"
	 viewBox="0 0 128 128" style="enable-background:new 0 0 128 128;" xml:space="preserve">
<style type="text/css">
	.st0{fill:#727272;}
</style>
<g>
	<g>
		<path class="st0" d="M105.74,119.65h-4.17V97.39c0-14.52-8.28-27.14-20.37-33.39c12.21-6.31,20.37-19,20.37-33.39V8.35h4.17
			c2.31,0,4.17-1.87,4.17-4.17S108.04,0,105.74,0c-2.27,0-81.28,0-83.48,0c-2.31,0-4.17,1.87-4.17,4.17s1.87,4.17,4.17,4.17h4.17
			v22.26c0,14.22,8,27,20.37,33.39c-12.09,6.25-20.37,18.87-20.37,33.39v22.26h-4.17c-2.31,0-4.17,1.87-4.17,4.17
			s1.87,4.17,4.17,4.17c2.2,0,81.17,0,83.48,0c2.31,0,4.17-1.87,4.17-4.17S108.04,119.65,105.74,119.65z M34.78,30.61V8.35h58.43
			v22.26c0,0.85-0.04,1.69-0.11,2.52H34.89C34.82,32.3,34.78,31.46,34.78,30.61z M36.88,41.47h54.24
			C86.8,52.22,76.27,59.83,64,59.83S41.2,52.22,36.88,41.47z M42.14,119.65c20.86-17.38,19.56-16.51,20.83-16.83
			c0.7,0.18,1.36,0.18,2.06,0c1.27,0.32-0.03-0.55,20.83,16.83H42.14z M93.22,114.91C70.13,95.68,71,96.06,68.17,95.06v-4.62
			c0-2.31-1.87-4.17-4.17-4.17c-2.31,0-4.17,1.87-4.17,4.17v4.62c-2.85,1.01-2.02,0.67-25.04,19.86V97.39
			c0-14.69,10.9-26.89,25.04-28.92v5.27c0,2.31,1.87,4.17,4.17,4.17c2.31,0,4.17-1.87,4.17-4.17v-5.27
			C82.31,70.5,93.22,82.7,93.22,97.39V114.91z"/>
	</g>
</g>
</svg>
