<svg version="1.1" xmlns="http://www.w3.org/2000/svg" fill="#727272" viewBox="0 0 24 24" id="icon-pushkin"><path d="M11.3507 0.206196C11.5618 0.106222 11.8069 0.118719 12.0179 0.0312419C12.3447 -0.0124967 12.6852 -0.00624837 13.0188 0.0249935C13.189 0.0749805 13.366 0.118719 13.543 0.143713C14.4417 0.412393 15.2111 1.03098 15.606 1.81828C15.817 2.02447 16.103 2.14319 16.3277 2.33064C15.5856 2.46811 14.8094 2.6868 14.2783 3.21166C14.006 3.43661 13.829 3.73653 13.6996 4.04895C13.6043 4.19266 13.6724 4.36136 13.6928 4.51132C13.7268 4.41135 13.7541 4.31138 13.7881 4.21765C14.149 3.6553 14.823 3.24915 15.5447 3.22416C15.9873 3.10544 16.5115 3.03046 16.92 3.28664C17.3013 3.51783 17.6417 3.79276 18.0094 4.03645C18.2136 4.18016 18.52 4.19891 18.7379 4.07394C19.1123 3.91148 19.5004 4.12393 19.8817 4.13642C20.8349 4.39885 21.6451 5.09867 21.9583 5.9672C22.1625 6.38584 22.0944 6.86071 22.0944 7.3106C22.1081 7.62926 21.931 7.91044 21.8221 8.19786C21.7881 8.76022 21.4885 9.27883 21.4885 9.84744C22.0264 9.84744 22.5234 10.0911 22.9523 10.3785C23.5038 10.7784 23.8442 11.372 23.9804 11.9969C24.0076 12.2905 24.0076 12.5842 23.9736 12.8716C23.8715 13.2403 23.7285 13.6027 23.4834 13.9089C23.4289 14.0713 23.4357 14.2463 23.3472 14.4025C23.1702 15.0086 22.5642 15.396 22.3259 15.9708C21.8425 16.1833 21.3319 16.4082 20.7804 16.3645C20.3991 16.377 20.0791 16.177 19.7251 16.0833C19.8477 16.3207 20.1268 16.4332 20.3583 16.5707C20.8757 16.8581 21.4953 16.7581 22.0672 16.7706C21.931 16.9331 21.7404 17.0518 21.5362 17.133C21.611 18.1515 20.8689 19.1575 19.8068 19.4699C19.4528 19.5074 19.1123 19.6636 18.7515 19.5699C18.6017 19.5137 18.4451 19.5012 18.2885 19.4699C18.1455 19.4074 17.9958 19.3512 17.8392 19.3262C17.8392 19.4512 17.8392 19.5762 17.8392 19.7011C17.7847 19.7511 17.7302 19.7948 17.6826 19.8511C17.3558 19.8573 17.0562 20.0323 16.7226 19.976C16.4162 19.8886 16.1098 19.7886 15.7966 19.7074C15.5379 19.5824 15.2315 19.5949 14.9592 19.6761C15.2247 19.7636 15.4902 19.8511 15.7626 19.9136C17.007 20.3847 16.2308 19.8938 15.4545 20.091C14.6498 20.2955 14.1248 20.5787 13.658 20.9377C13.4674 21.1001 12.9303 21.8756 12.9166 22.138C18.8347 21.0935 12.0802 23.1672 9.96177 23.7563C9.64177 23.875 9.30135 23.9 8.98135 24C9.00858 23.7376 9.25369 23.5751 9.44432 23.4002C10.2886 22.7441 11.2009 22.163 12.0996 21.5756C12.1473 21.5131 12.2698 21.4444 12.2017 21.3632C12.1881 21.3944 12.1677 21.4632 12.1541 21.4944C11.7728 21.4944 11.3847 21.5069 11.0035 21.4757C11.0171 21.3882 10.983 21.2757 11.0715 21.2195C11.3643 20.9695 11.732 20.8071 12.0179 20.5571C11.9498 20.5197 11.8818 20.4822 11.8205 20.4384C12.12 19.9386 12.8009 19.7511 13.0732 19.2325C13.08 19.1013 13.1141 18.9326 12.9847 18.8388C12.6171 18.4015 11.909 18.3515 11.6026 17.8578C11.5481 17.4455 11.5141 17.0018 11.7115 16.6144C11.9703 15.9771 12.5217 15.5022 12.9711 14.9773C12.5422 14.9399 12.1405 15.0898 11.7388 15.196C11.2758 15.3023 10.8128 15.4272 10.4043 15.6459C9.36943 16.1895 8.39582 16.8144 7.36093 17.3517C6.91157 17.5767 6.44179 17.7641 5.94477 17.8641C5.42733 17.9078 4.95074 18.0953 4.50138 18.3265C4.8418 18.3952 5.20946 18.3515 5.54307 18.4702C5.95839 18.4764 6.3669 18.6014 6.73455 18.7764C7.12945 18.9763 7.40178 19.3387 7.50391 19.7386C7.572 20.151 7.46306 20.5571 7.32689 20.9445C7.07498 21.5381 6.72775 22.138 6.15584 22.5191C6.22392 22.1505 6.54392 21.9005 6.75498 21.6069C7.00008 21.2445 6.99328 20.8008 6.932 20.3884C6.85711 20.2322 6.84349 20.0635 6.80945 19.9011C6.67328 19.5762 6.37371 19.3012 6.00605 19.2075C5.76094 19.0825 5.46137 19.1575 5.20946 19.045C4.86223 18.9638 4.49457 19.0263 4.15415 18.9076C3.6367 18.8513 3.09203 18.9576 2.60182 18.7639C2.2682 18.6889 2.00948 18.4639 1.82565 18.2078C1.68268 17.6454 1.81204 17.0706 1.7848 16.502C1.68948 16.0521 1.35587 15.6522 1.38991 15.1835C1.3831 14.6774 1.42395 14.1651 1.36949 13.6589C1.32183 13.6152 1.27417 13.5652 1.22651 13.5215C0.858852 13.559 0.545662 13.3403 0.3346 13.0841C0.300558 12.9466 0.286941 12.7967 0.348217 12.6717C0.695449 12.0531 1.33544 11.6532 1.90055 11.2158C2.37033 10.8097 2.8265 10.3973 3.20777 9.91617C3.82053 9.24759 4.30393 8.48529 4.79414 7.74173C5.08691 7.2981 5.54988 6.93569 5.68605 6.42333C5.70648 6.54205 5.77456 6.66701 5.72009 6.78573C5.60435 7.02317 5.46818 7.25436 5.30478 7.46056C5.57031 7.58552 5.85626 7.62301 6.15584 7.64176C6.3669 7.70424 6.57796 7.76048 6.79583 7.78547C6.80264 7.84796 6.80945 7.91044 6.81626 7.97917C6.40094 8.00416 5.97882 8.06665 5.57031 7.96043C5.33201 7.8542 5.05967 7.88545 4.80776 7.8792C4.62393 8.11664 4.65797 8.40406 4.63074 8.67274C4.56266 9.19136 4.21542 9.62874 3.86819 10.0286C3.42564 10.4535 2.96948 10.8722 2.47246 11.2471C1.89374 11.6845 1.36268 12.1968 1.00864 12.8092C1.26736 12.6717 1.55331 12.5592 1.8597 12.6092C2.06395 12.603 2.15927 12.7967 2.28863 12.9154C2.44522 12.7529 2.60182 12.5842 2.66309 12.3718C2.73118 12.428 2.80607 12.478 2.88096 12.528C2.88096 12.7029 2.94224 12.9154 2.79926 13.0591C2.64948 13.2341 2.46565 13.434 2.19331 13.409C1.92778 13.4402 1.72353 13.284 1.54651 13.1278C1.50566 13.459 1.48523 13.7902 1.52608 14.1213C1.52608 14.2275 1.62821 14.2838 1.69629 14.3588C2.21374 14.4712 2.7516 14.365 3.26905 14.415C3.37117 14.44 3.45968 14.49 3.56181 14.5275C3.54819 14.7149 3.61628 14.9524 3.42564 15.0836C3.20777 15.2835 2.87416 15.271 2.59501 15.2273C2.28863 15.1148 1.94821 15.1336 1.62821 15.1586C1.95501 15.5709 2.37714 15.9021 2.70395 16.3083C2.78565 16.5082 2.78565 16.7331 2.7448 16.9393C2.62905 17.2143 2.30225 17.383 2.17289 17.6454C2.07757 17.9703 2.49288 18.0828 2.72437 18.2203C3.0716 18.3202 3.45968 18.3015 3.82053 18.2452C4.4401 18.0391 4.9167 17.6079 5.48861 17.3267C5.01882 16.9831 4.44691 16.5957 4.46053 15.9833C4.88946 16.0271 5.27754 16.2395 5.71328 16.2458C5.71328 15.9209 5.69967 15.5897 5.74052 15.271C5.75414 15.1586 5.84945 15.0836 5.90392 14.9961C6.18307 14.9399 6.23754 15.271 6.49626 15.2898C6.52349 15.271 6.57115 15.2335 6.59839 15.2148C6.33286 14.8836 5.8835 14.7024 5.68605 14.3275C6.14222 13.9276 6.82306 14.2588 7.36093 14.0838C6.56434 14.0089 5.94477 13.409 5.69286 12.7342C5.97201 12.7592 6.25796 12.7404 6.51668 12.8404C6.70732 12.9029 6.91157 12.8716 7.10221 12.9341C7.36093 13.0341 7.6537 13.0216 7.93284 13.0404C7.78306 12.7342 7.38136 12.5217 7.46306 12.1468C7.67412 11.9344 8.02135 11.9969 8.27327 12.1156C8.68178 12.2343 9.0222 12.4967 9.44432 12.5655C9.41709 12.428 9.41028 12.2718 9.31496 12.1593C9.69624 12.0844 10.0435 12.2718 10.4247 12.2531C10.9967 12.2718 11.5754 12.2843 12.1541 12.2843C12.0383 12.1343 11.8818 12.0031 11.8205 11.8282C12.1132 11.647 12.372 11.4283 12.6852 11.2783C13.0188 11.2221 13.366 11.2533 13.6996 11.2721C13.9311 11.2783 14.1354 11.3845 14.3668 11.4033C14.823 11.5345 15.2383 11.7969 15.5039 12.1656C15.5651 12.2468 15.6332 12.3155 15.7217 12.378C15.7081 11.8219 15.2588 11.3845 14.8162 11.0534C14.3737 10.7659 13.8494 10.566 13.3115 10.4973C12.9166 10.3536 12.4877 10.4223 12.0724 10.416C12.2358 10.1786 12.44 9.95991 12.5898 9.71622C12.5354 9.34757 12.0724 9.32257 11.7592 9.22885C11.8681 9.13512 11.9703 9.0164 12.1337 9.03515C12.44 9.0289 12.7328 8.94142 13.012 8.84145C12.583 8.67274 12.1405 8.56027 11.7115 8.39781C11.5822 8.36657 11.5005 8.2666 11.4052 8.19162C11.8273 8.13538 12.2358 8.01041 12.6307 7.8542C12.6375 7.79797 12.6511 7.74173 12.6579 7.6855C12.3788 7.5043 12.0656 7.37933 11.8069 7.17938C11.6707 7.07941 11.4801 7.1169 11.3235 7.16063C11.0239 7.30435 10.7243 7.45431 10.4111 7.57928C10.2341 7.66675 10.0299 7.6605 9.83921 7.62301C9.43751 7.36058 9.25369 6.9232 9.09709 6.5108C9.1856 6.49831 9.27411 6.49206 9.36262 6.48581C9.38985 6.37334 9.41709 6.26712 9.43751 6.15465C8.80433 6.1359 8.17795 5.9547 7.66051 5.61729C7.38136 5.39859 7.1703 5.10492 6.84349 4.92997C6.70732 4.86123 6.63243 4.73627 6.55754 4.61755C6.40775 4.28014 6.12179 3.98646 6.08775 3.61156C5.90392 3.23041 6.06052 2.81802 6.16945 2.43687C6.40775 1.91825 6.87072 1.48711 7.44944 1.29341C7.78306 1.22468 8.10986 1.09971 8.4571 1.18094C8.6205 1.23718 8.7839 1.26217 8.95411 1.29966C9.17879 1.38714 9.36262 1.5496 9.61453 1.56834C10.0026 0.924759 10.6358 0.46238 11.3507 0.206196Z"></path><path d="M5.04883 8.72852C5.25989 8.74101 5.48457 8.73476 5.68201 8.82224C6.42414 9.00969 7.15264 9.3721 7.59519 9.97194C7.282 9.99069 6.93477 9.93445 6.66924 10.1094C6.28116 10.2969 5.94074 10.5843 5.50499 10.678C5.50499 10.3593 5.51861 10.0344 5.43691 9.72201C5.28032 9.39084 5.185 9.05343 5.04883 8.72852Z"></path></svg>