<?xml version="1.0" encoding="utf-8"?>
<!-- Generator: Adobe Illustrator 26.1.0, SVG Export Plug-In . SVG Version: 6.00 Build 0)  -->
<svg version="1.1" id="Слой_1" xmlns="http://www.w3.org/2000/svg" xmlns:xlink="http://www.w3.org/1999/xlink" x="0px" y="0px"
	 viewBox="0 0 256 256" style="enable-background:new 0 0 256 256;" xml:space="preserve">
<style type="text/css">
	.st0{fill-rule:evenodd;clip-rule:evenodd;fill:#727272;}
</style>
<g id="Слой_x0020_1">
	<path class="st0" d="M220.83,160.24c3.67,0.45,4.85,8.03,3.02,8.03c-0.88,0-1.73-1.53-1.96-2.17L220.83,160.24L220.83,160.24z
		 M205.2,154.94v-3.2c0-3.74,13.86,2.01,13.86,12.27c-4.58-0.38-3.77-2.13-11.73-2.13C206.28,160.31,205.2,157.49,205.2,154.94z
		 M214.26,142.14l4.26,3.73h2.13c0.83,0.56,1.6,0.71,1.6,2.13v1.6C215.65,148.06,216.67,147.54,214.26,142.14L214.26,142.14z
		 M222.26,117.6c-1.5-0.13-2.13,0.01-2.13-1.6l0.02-1.54l2.11-0.6c0.17,0.63,0.53,1.45,0.53,1.6
		C222.79,115.54,222.26,117.59,222.26,117.6L222.26,117.6z M168.42,112.8h2.67c1.38,0,2.89,2.57,3.2,3.73h-2.67
		c-0.95,0-2.78-1.66-4.8-2.13C167.14,113.21,166.95,112.8,168.42,112.8L168.42,112.8z M192.41,121.86c0-4.98,11.73-17.83,11.73-12.8
		C204.13,115.39,199.21,121.86,192.41,121.86z M210.55,101.66c0.05-3.27,0.78-3.63,2.64-1.67c0.29-1.24,2.41-4.8,3.2-4.8
		c1.9,0,3.2,3.62,3.2,5.33v3.73c-2.94-0.07-2.73-1.07-4.26-1.07c-1.19,0-1.17,0.42-2.13,1.07c-0.37-0.65-0.53-0.57-0.53-1.6
		l-0.02-1.67L210.55,101.66L210.55,101.66z M206.35,87.74l0.98-0.02c0.25,2.95,1.6,1.79,1.6,4.8v3.73c0,2.04,0.16,0.19-0.67,1.8
		l-3.78-2.37L206.35,87.74z M217.46,88.79c1.72,0,2.67,1.94,2.67,3.73c0,2.43-1.65,1.07-4.26,1.07
		C215.89,92.21,216.26,88.79,217.46,88.79z M218.53,85.59c0.97-4.19,0.77-7.34,5.99-6.03c2.81,0.7,5.2,4.85,5.2,8.17
		c0,3.61-0.58,11.2-3.73,11.2c-2.24,0-3.24-4.37-3.73-6.4C220.94,87.06,220.3,88.95,218.53,85.59z M208.4,82.39
		c1.87,0.16,4.8,1.88,4.8,3.73v1.6c0,1.37-0.13,1.29-0.53,2.13c0.11,0.22,1.07,2.07,1.07,2.13c0,2-1.34,2.5-2.67,3.2
		C209.84,89.94,207.94,87.85,208.4,82.39L208.4,82.39z M211.6,79.19v-1.07c0-1.43,0.77-1.58,1.29-2.2l1.91-7.4
		c2.5,0.58,3.2,1.78,3.2,4.8v8.54c0,2.25-1.32,0.4-1.6,3.73h-1.6C214.52,82.33,211.6,80.61,211.6,79.19z M222.79,72.78
		c0-2.04-0.16-0.19,0.55-1.67l2.11,0.6c-0.05,2.13-0.25,1.98-1.07,3.2C223.56,74.36,222.79,74.21,222.79,72.78z M215.4,67.59
		l0.46-4.94h2.13c0.6,2.26,1.07,0.93,1.07,2.67v2.13h-1.07l-0.08-1.21C217.92,66.24,215.4,67.59,215.4,67.59z M174.18,62.62
		l2.77-0.51c0.62,1.29,1.07,2.33,1.07,4.27v0.53c0,3.07-2.12,0.53-4.26,0.53h-2.13v1.07c1.09,0.09,5.86,1.65,5.86,2.67
		c0,5.68-4.75,4.8-8.49,4.72l-2.7-0.98c-1.2,4.5-6.12-0.07-0.53-0.53v-2.13c0-1.49,3-5.31,3.73-6.4c0-2.37,0.31-7.47,2.13-7.47
		c1.44,0,1.47,0.25,2.59,0.56l0.63,1.05C174.84,59.99,174.18,62.62,174.18,62.62z M164.16,54.11c0-1.69,2.03-5.62,3.2-6.4
		c1.44,1.05,2.13,2.86,2.13,5.33v2.13h-3.73C164.89,55.18,164.16,54.86,164.16,54.11z M162.03,56.25l6.93,1.07
		c0,3.56-1.84,7.48-2.77,10.57c-1.07,3.54-4.26,4.5-5.23,8.11c-3.59-0.08-3.68-2.27-5.55-3.81l-1.91-7.92
		c-1.35-0.32-2.66-0.45-2.66-2.13v-2.67c0-1.82,2.15-2.83,3.73-3.2v-1.07h-2.67c0.44-1.64,4.36-3.76,6.03-4.63
		c2.25-1.17,5.12-4.44,6.22-4.44C168.56,46.11,162.1,52.82,162.03,56.25L162.03,56.25z M167.89,45.04h-2.13
		c0.12-1.39,1.53-4.27,2.66-4.27c0.75,0,1.07,0.73,1.07,1.6v1.07C169.49,44.67,169.12,45.04,167.89,45.04z M132.18,42.38l0.95,1.95
		l-2.01,1.26l0.07-0.55l-7-1.06c0.71-2.68,3.47-4.01,5.18-6.02C133.02,33.68,132.18,37.9,132.18,42.38z M196.46,35.71
		c0.22-0.28,1.21-0.8,1.28-0.8c2.53,0,6.47,4,7.33,4.29l0.64,3.18l-0.32,0.43L196.46,35.71L196.46,35.71z M133.78,34.37
		c0-1.52,3.07-3.73,4.26-3.73h0.53c1.8,0,3.72,5.02,2.49,5.67C141,36.35,133.78,36.73,133.78,34.37z M167.36,36.51
		c0,4.42-2.92,7.19-6.4,8c-0.08,3.64-8.65,8.54-11.19,8.54h-1.6c-0.91-3.43-3.35-0.04-5.33-8.54c0.56-0.83,0.71-1.6,2.13-1.6h4.8
		v-1.07h-1.6c-1.44,0-1.47-0.25-2.66-0.53v-1.6h-1.6c-0.21,0.79-2.61,3.94-3.18,4.29c-2.41,1.53-3.49,0.58-6.42,0.51v-1.07
		c2.77-0.65,6.41-5.16,9.06-6.94l0.11-2.56l1.01-0.96l6.32-1.29l1.1-2.05l4.79-0.6c1.87-1.25,3.81-1.6,6.93-1.6h1.07
		c1.1,0,5.33,1.78,5.33,3.73v1.07C170.03,34.38,169.13,36.04,167.36,36.51L167.36,36.51z M178.8,24.98l5.62-0.21
		c1.19,0,1.17,0.42,2.13,1.07c15.13,0,14.19,5.71,20.79,7.47c-0.22,0.94-0.58,2.67-1.6,2.67c-3.03,0-7.49-3.1-12.13-3.86
		c-3.51-0.57-9.02-2.64-11.85-4.14l1.59,3.74c-2.83,0.24-3.7,1.6-5.86,1.6h-1.07c-1.64,0-2.13-1.56-2.13-3.2v-0.53
		c0-1.44,0.25-1.47,0.57-2.81l6,1.08L178.8,24.98L178.8,24.98z M115.66,26.91l1.07-0.53v1.6l1.07-5.33h1.07v-1.6
		c0-1.61,1.15-2.3-1.07-3.2v-2.67c0-2.48-2.66-4.84-2.66-6.4c0-1.24,1.42-2.67,2.66-2.67h2.13c1.85,0,0.81,1.07,2.67,1.07h0.53
		c1.85,0,0.81-1.07,2.67-1.07h1.07c0.05,0,3.9,1.35,4.9,1.49c2.21,0.32,4.51-0.12,6.71,0.22c3.61,0.55,8.53,2.55,10.77,2.55v-1.6
		c-5.16,0-5.31-1.76-10.65-2.14c-7.15-0.51-6.97,0.7-8-3.58l4.26-0.15h1.6v1.07h4.26l-0.01-1.11L137,3.55l-0.09-0.71l5.84-0.41
		l1.69,2.07V2.9h2.13c0.51,1.28,4.84,4.94,6.09,6.71c0.99,1.41,1.83,2.39,2.68,3.72c1.65,2.58-0.01,3.65,3.35,3.82l-3.09-7.42
		l4.29-0.96c1.51,1.01,7.49,5.7,7.34,7.47l0.12,5.34c0,0.07-1.39,2.28-1.6,2.67c-3.55,0-7.11,0.01-10.66,0
		c-5.68-0.01-6.9,1.6-9.59,1.6c-1.36,0-2.46-1.81-3.72-2.64l-1.61,0.5v4.27c-2.87,0.24-1.56,1.07-2.67,1.07c-1.83,0-3.9-4-4.8-5.33
		c0.14-1.67,0.53-1.9,0.53-3.73c0-2.04,0.16-0.19-0.74-1.76l-1.39,2.29c-1.73-0.4-6.81-2.67-6.93-2.67h-1.6v1.6h1.6
		c1.84,0,5.79,3.83,5.77,6.67l-3.1,1.33c-2.97,0-3.12-0.68-3.71,1.73l4.23-0.64l1.46,0.5l0.03,3.07l-5.74,5.47
		c5.69-1.52,7.17-7.6,10.66-8.54c-0.07,3.14-3.78,5.17-5.72,7.08c-0.75,0.74-6,6.41-6,6.79c0,3,6.95,4.27,10.13,4.27l1.07-0.01
		l5.23-0.03l-0.96,3.77h4.8c1.36,0,4.8,4.69,4.8,5.33c0,6.01-5.55,4.89-10.45,6.08c-3.26,0.79-8.98,4.36-9.27,7.8
		c2.75-0.06,9.23-4.8,10.66-4.8c1.96,0,1.24,1.6,3.2,1.6h1.07c2.62,0,0.61-1.79,3.73-2.13v1.6c0,3.49,2.66,2.91,2.66,6.4l-0.14,3.1
		l-8.92,12.38h1.6c1.01,0,3.73,2.02,3.73,3.2v3.73c-3.55,0.95-6.23,5.87-8,5.87h-0.53c-1.28,0-1.57-0.86-2.68-1.61l0.55-2.66h-1.07
		v1.07c-2.69-0.22-3.73-1.6-4.8-1.6h-1.6c0.27,3.21,3.26,3.95,5.33,5.33c3.22,0,3.66-0.66,3.73,2.67l1.07,0.53l1.67-0.08l5.25,4.35
		c-0.66-2.84-4.8-5.38-4.8-5.87c0-1.67,4.9-5.87,5.86-5.87c1.38,0,2.89,2.57,3.22,3.62l3.77,0.64l0.72,3.56l4.01,6.06
		c0.93,0.08,2.31,0.04,2.22,1.08l-0.62,4.25c1.84-0.49,1.41-1.07,2.13-1.07c1.64,0,2.29,0.74,2.66,2.13
		c3.63-0.08,1.66-1.07,3.73-1.07h0.53c0.19,0,3.35,1.5,5.01,1.93c4.86,1.25,2.98,0.9,2.98-1.93c0-1.94,2.13-1.98,2.13-4.27
		c0-1.58-5.42-1.22-7.04-1.26c-4-0.1-3.06-0.46-6.7-1.52c-3.28-0.95-9.17-4.7-9.17-8.96c0-5.91,3.44-4.48,3.73-8
		c-6.36,1.48-4.04,6.94-6.4,6.94c-1.72,0-3.73-3.46-3.73-5.33c0-1.61,0.63-1.48,2.13-1.6v-1.6c-2.47-0.21-3.53-0.74-3.73-3.2
		c0.91-0.24,2.13-0.62,2.13-1.6c0-2.51-2.06-1.21-3.73-1.07c0.28-3.36,4.11-7.54,6.4-9.07c3.98,3.46,6.95,4.27,12.79,4.27
		c2.51,0,5.34-1.51,7.99-2.13c0.52,0.35,4.8,2.94,4.8,3.2c0,2.39-5.17,6.82-6.93,8c-3.31,0-5.72-0.93-6.4,1.6
		c1.43,0.34,1,0.53,2.13,0.53c5.31,0,10.14-2.94,11.19-7.47c1.5,0.13,2.13-0.01,2.13,1.6c0,1.72-1.42,1.21-1.61,4.25
		c-0.14,2.15,0.19,3.59-0.73,5.14c-0.74,1.24-4.55,5.12-5.65,6.08c4.02-0.34,6.08-4.58,8.29-7.17c2.24-2.63,1.02-2.8,1.29-6.71
		c0.18-2.7,2.15-4.12,2.15-5.85c0-2.07-0.98-0.1-0.96-3.36l8.09-2.36l-0.3-1.06l-8.52,1.96l0.62-4.25
		c-1.13-0.41-2.13-1.23-2.13-2.67l0.36-0.56l-0.89-9.04c-0.05-0.69,1.16-1.3,1.6-1.6l-3.78,0.61l-4.75-2.74
		c0.88-3.77-0.59-7.69,3.34-8.23l-1.74-0.84v-1.6c0-3.43,4.69-8.1,6.98-9.32l7.95-1.35h3.73c0.97,0,12.79,8.05,12.79,10.14v2.13
		c-4.67-1.69-7.05-8.54-14.92-8.54c0.68,2.56,3.22,2,5.79,3.27c1.78,0.88,4,2.77,5.4,4.2c1.89,1.94,3.74,1.97,4.97,4.63
		c1.88,4.04,3.47,1.99,3.56,6.04l-0.55-0.25l-2.12,5.05c-3.07-0.72-1.8-1.8-3.72-4.28c-1.32-1.71-2.97-1.91-3.18-4.91l4.9,0.94
		l-3.34-1.89c-7.4,0-6.85-6-11.73-6.4l-0.42,0.39l5.21,6.01h-1.6v1.07l5.86,0.53c0.33,4.02,5.86,7.48,5.86,10.67v1.07
		c0,3.58-9.46,7.01-11.19,9.6c3.02-0.25,10.02-5.05,10.66-7.47h2.13c0.28,1.2,0.53,1.23,0.53,2.67v5.33c0,1.46-3.33,4.11-4.8,4.27
		l0.04,0.97l1.42,0.66l0.67,3.71c-1.59,3.01-2.15,1.12-3.31,5.76c-0.25,0.98-3.03,4.82-3.9,5.7c-1.65,1.65-2.92,3.19-4.46,4.6
		c-1.69,1.55-4.05,2.4-5.38,4.22c5.15-0.43,4.06-4.8,9.38-4.95l6.15-8.71l0.95,0.41l-1.56,8.99c2.26-0.6,0.93-1.07,2.67-1.07h1.6
		v2.67c0,2.45-1.34,0.69-2.41,2.39c-1.15,1.82,0.72,2.15-2.39,2.41v-1.6c0-1.84,0.39-2.07,0.53-3.73h-1.07
		c-0.09,3.94-11.02,19.74-12.79,19.74c-1.25,0-2.13-0.89-2.13-2.13v-1.07c0-3.02,0.19-5.21,2.67-5.87v-2.67
		c-2.22,0.24-4.26,5.17-4.26,6.94l0.01,3.77l-5.87,1.03v1.07c0.8,0.19,1.6,0.12,1.6,1.07c0,1.94-0.63,1.87-1.07,3.73l2.43-0.2
		l1.83-2.46c2.34,0.2,2.41,0.39,1.82,1.76l3.3,1.96l-0.32,0.54c2.86-0.06,3.5-0.48,3.73-3.2l2.59,0.03l0.61,1.04
		c4.17,2.79,4.26-1.49,4.25,5.9l1.83,0.57l-1.28,2.6v-1.6c-0.9,0.62-1.07,0.08-1.07,1.6l-0.28,3.43l-7.72,7.24l1.07,0.53l7.15-5.72
		l-0.02,0.58l2.99,5.14h-2.13v4.27c0,2.78-1.17,7.25-2.1,9.06l1.07,1.78l2.09-8.17l0.85,0.1l3.95,8.44c4.97,0,12.79,1.01,12.79,5.33
		v1.6c0,2.55-1.93,3.94-2.13,6.4c2.63-0.7,3.02-6.94,4.8-6.94c1.16,0,2.84,1.53,2.78,2.69l-0.72,4.77l-0.48-0.31l-2.66,4.46
		l-2.55,0.43l2.55,1.31v2.13l1-1.06l0.6,3.2c0-2.54-0.01-4.26,0.88-6.06c0.23-0.48,2.62-4.61,2.85-4.61c2.73,0-1.36,8.59-1.6,9.6
		l0.53,1.07c3.43-3.95,2.44-6.2,3.73-11.74c-3.33-4.98-2.32-13.99-5.54-16.86c-4.13-3.7-8.93-5.83-13.12-9.81
		c-1.2,0.28-1.23,0.53-2.67,0.53h-1.07c-3.32,0-2.13-4.18-2.44-7.08l-1.34,2.79l-0.51,0.19l-1.57-6.04c2.12-4.01,4.26-2.18,4.26-9.6
		c2.09-1.4,2.59-1.26,2.4-5.07l-1.6,1.6l-0.07,0.56l-1.8-2.42c0.74-1.1,1.6-1.38,1.6-2.67c0-2.81-1.15-5.38,2.77-6.39l-0.64,7.46
		c3.25-0.87,1.18-5.33,3.73-5.33c1.23,0,1.6,0.37,1.6,1.6v1.6c-1.79,0.48-3.2,4.52-3.2,5.87c0,1.2,0.42,1.17,1.07,2.13
		c0,3.79,0.96,9.8,1.71,13.23c1.4,6.4,4.24,6.32,5.78,8.97l6.63,1.01l1.87-1.33v-1.07c-1.5-0.13-2.13,0.01-2.13-1.6v-3.2h2.13
		c-0.03-1.18,0.16-2.67-1.07-2.67c-3.44,0-1.57,3.73-4.26,3.73c-4.31,0-7.46-7.81-7.46-11.74v-3.2c0-1.23,0.37-1.6,1.6-1.6h1.6V124
		c0-1.35,2.21-2.67,3.2-2.67c1.19,0,1.17,0.42,2.13,1.07c1.37-0.92,3.33-1.75,4.56-2.9c2.31-2.16,0.14-3.15,3.43-4.03v1.07
		c2.69-0.22,3.73-1.6,4.8-1.6h1.6v-1.07h2.67v-2.13c0-1.84,0.39-2.07,0.35-3.5l-1.95-1.84c-0.43,0.3-1.32,1.07-1.6,1.07
		c-1.23,0-1.6-0.37-1.6-1.6v-1.6h1.6v-2.13c-2.12-0.18-1.28-0.53-2.66-0.53c-1.57,0-4.8,1.38-4.8-0.53c0-3.98,2.66-5.97,2.66-10.14
		v-1.07c0-6.67-5.03-10.79-5.33-14.4h1.6c1.28,0,1.57-0.86,2.91-1.87l-2.72-1.93l-1.43-3.9l-2.46,1.69l-2.71-0.39l1.08-4.8
		c-2.43-1.29-6.4-4.95-6.4-8c0-2.09,0.8-0.06,1.07-3.2l-2.02,0.03l-0.65,2.1c-1.09-0.25-3.2-1.02-3.2-2.13c0-0.87,0.32-1.6,1.07-1.6
		c1.28,0,3.2,1.14,3.2-0.53c0-2.9-0.34-3.32-2.13-4.27c0-3.78-1.38-7.23-4.41-8.02l0.68-4.78c-5.32-7.95-20.98-10.67-34.65-10.67
		c-1.44-2.15-2.99-7.33-4.69-8.65c-2.7-2.09-4.39-4.18-7.25-6.08c-2.38-1.58-5.9-3.62-8.49-4.84c-4.85-2.3-5.25-2.3-10.49-2.3h-2.13
		c-6.6,0-10.74-0.52-18.66-0.01c-1.52,0.1-12.63,5.49-14.35,6.27l-2.69-0.39L106.25,8l1.93,1.84l-0.51,4.8l1.05,0l0.55-2.66h1.6
		v2.67h2.13c2.68,0,3.2,5.61,3.2,8.54C116.19,25.01,115.8,25.24,115.66,26.91L115.66,26.91z M91.14,180.01
		c0.28-2.56,3.63-3.2,6.4-3.2c-0.38,1.42-3.96,3.2-4.8,3.2C92.74,180.01,91.14,180.01,91.14,180.01z M108.73,162.41
		c0.13-1.59,0.38-2.67,2.13-2.67c0.07,0,1.06,0.52,1.07,0.53C110.9,161.82,110.83,161.92,108.73,162.41z M141.78,116.53
		c0-1.25,0.88-2.13,2.13-2.13h2.13l1.22,4.22l-5.47,0.72C141.8,119.33,141.78,116.53,141.78,116.53z M60.23,212.56v1.6l1.07,0.53
		c2.74-0.73,6.79-3.89,10.98-5.02c2.41-0.65,4.53-0.37,6.42-1.58c2.69-1.71,1.83-1.66,5.37-3.16c7.82-3.33,12.18-9.51,18.14-14.92
		c5.88-5.33,11.74-10.04,18.47-14.59c3.43-2.32,6.63-4.08,10.13-6.4c2.99-1.99,6.74-6.08,10.45-6.08h0.53c3.24,0,1.63,1.52,5.33,1.6
		c-0.29-3.5-7.9-5.87-11.22-5.52l-8.5,1.25v1.07h-2.13c-2.37,0-5.35,1.3-6.93,2.13c-2.35-1.24-5.07-1.64-5.33-4.8
		c0.9-0.02,9.02-2.6,9.71-3.09c2.14-1.54,4.55-5.21,7.25-5.49l0.44-1.55l-0.42-6.38l-0.97-2.82l4.78,0.65
		c1.52,0.23,2.22-1.6,3.73-1.6h2.67c1.54,0,4.3,4.27,12.26,4.27c2.69,0,4.95-1.6,8.37-1.82l3.35-2.98c-2.26,0.6-0.93,1.07-2.67,1.07
		h-1.6c0.08-1,7.5-11.1,8.53-14.94c-3.96,0.33-2.52,9.37-11.73,10.14c0.32-2.93,1.7-1.13,3.47-4.53c0.87-1.67,2.58-3.76,2.93-5.07
		c-4.08,0.45-5.83,9.07-10.13,9.07c-1.87,0-4.66-0.49-5.86-1.07v1.07h-1.6v-3.2c-1.19-0.32-1.6-0.12-1.6-1.6l0-3.3l5.33,0.1
		c0.96,0.64,0.94,1.07,2.13,1.07l0.52-0.15l4.27,0.15h2.13v-1.07h-4.26c-2.71,0-6.97-2.98-9.59-3.2l0-1.64l6.93-0.49
		c0.36-0.67,1.07-1.76,1.07-2.67c0-0.47-5.58-6.45-5.88-6.49l-3.95,0.87l-3.95,3.99l-2.23-5.32l1.62-3.19h-1.07v-2.67l-1.07-0.53
		c-1.51,1.6-3.02,2.65-4.56,4.5c-1.69,2.03-2.1,3.64-3.43,5.63v5.33c-0.85,1.28-2.66,2.38-2.66,3.73c0,6.21,10.37,10.25,11.19,13.34
		h-1.07v1.07c-3.72-0.08-3.01-1.6-4.8-1.6c-3.81,0-12.62,3.73-15.46,3.73c-2.57,0-1.69-2.13-4.26-2.13c-1.02,0-0.36,1.07-2.13,1.07
		c-1.58,0-1.43-1.07-3.73-1.07h-1.07c-1.47,0-1.28,0.41-1.6,1.6l5.69,2.96l0.17,1.84c-1.5,0.35-2.71,1.07-4.26,1.07
		c-3.16,0-14.92-3.54-14.92-5.87c0-4.8,3.99-9.48,4.26-12.8c-3.07,0.26-3.73,3.53-3.73,6.94l-2.34,5.25l-0.94,0.38
		c-1.12-0.04-1.15-0.29-2.59-0.29c-1.08,0-4.26,2.63-4.26,3.73c0,0.17,5.27,3.38,6.52,4.67c1.91,1.97,4.35,2.63,7.34,3.33v1.6
		l-26.65-0.56l0-1.04h-2.67c-5.7,0,5.3,8.65,7.16,9.38c7.75,3.01,6.88,3.24,15.23,1.29l2.02,1.25c-0.01,5.27-9.32,5.15-14.81,5.15
		l-1.25-2.02l-7.82,3.07c1.58,2.36,12.75,10.15,16.53,10.15h3.2c-0.04,1.71,0.17,2.67-1.6,2.67h-3.73c-1.9,0-7.58-2.17-8-3.73h-2.13
		c-1.36,0-3.2,5.45-3.2,5.87c0,0.98,5.31,8.58,5.86,10.67h-2.13c-1.19,0-1.17-0.42-2.13-1.07l-14.38-1.68
		c0.26,3.37,7.48,10.01,10.65,10.75c0.13,1.59,0.38,2.67,2.13,2.67h1.6v2.67l-0.4-0.54L60.23,212.56L60.23,212.56z M102.87,71.19
		c0-2.05,2.14-2.62,4.26-2.67v2.13l0.55,4.27l-0.64,1.56c-2.04-0.01-4.16-1.24-4.16-3.16C102.87,73.32,102.87,71.19,102.87,71.19z
		 M102.34,81.32c-5.09,0-8.14-11.03-4.26-13.87c0,12.84,6.54,9.18,6.93,13.87H102.34z M103.32,65.65c-0.37,1.87-1.16,3.19-3.12,3.41
		l-0.03-2.22C100.17,66.84,103.32,65.65,103.32,65.65z M91.14,63.72c0.36-4.38,2.12-0.77,4.97-1.92c2.21-0.89,2.26-1.53,5.69-1.82
		c-0.13,1.54-3.02,4.8-4.26,4.8C95.12,64.78,93.13,64.18,91.14,63.72z M98.07,54.64c2.41-0.37,7.51,1.38,8,3.21
		c-4.69,0-11.05,1.87-12.24-2.53C93.83,55.31,98.07,54.64,98.07,54.64z M87.94,51.98c0,0.07-0.52,1.06-0.53,1.07
		c-2.35-1.13-2.59,0.24-2.67-3.2h2.67C87.76,51.36,87.94,50.76,87.94,51.98z M82.08,49.85h-1.6c-0.87,0-1.6-0.32-1.6-1.07
		c0-1.13,0.19-0.7,0.53-2.13C81.78,46.84,81.89,47.54,82.08,49.85z M62.36,35.98c0-0.92,1.15-4.27,2.13-4.27c1,0,1.6,1.97,1.6,3.2
		v1.6l-0.6,4.79l-1.54,0.01C63.67,40.05,62.36,36.77,62.36,35.98z M81.55,36.51c0-1.54,1.44-5.87,3.2-5.87h2.13
		c0.35,1.51,0.53,0.91,0.53,2.13c0,4.24-2.84,5.25-3.73,9.07c0.8,1.19,2.13,1.87,2.13,3.2v0.53c0,1.03-0.17,0.95-0.53,1.6
		c-1.87-0.5-3.73-5.43-3.73-6.4C81.55,40.78,81.55,36.51,81.55,36.51z M73.02,34.91c0-2.74,3.12-11.2,5.86-11.2h0.53
		c1.39,0,3.2,3,3.2,4.27c0,0.1-1.87,2.23-2.15,5.85c-0.2,2.58-1.05,3.41-1.05,6.42v4.27c-2.21-0.24-6.4-4.15-6.4-6.4L73.02,34.91
		L73.02,34.91z M85.81,24.24v1.6c-1.83-0.49-2.49-1.06-2.66-3.2C84.86,22.68,85.81,22.47,85.81,24.24z M90.08,10.37l1.87,1.33
		l-2.4,0.27v2.67l-3.74,0.47l1.59-3.68l1.08,0.01h1.6C90.08,11.44,90.08,10.37,90.08,10.37z M80.48,9.25l2.56,1.36l0.11,1.36
		c-3.61,0.4-5.61,5-7.6,7.33c-2.45,2.87-4.37,5.36-6.79,8.14l0.65,2.64l-2.14,1.27l0.24-3.41c-0.81-1.46-1.42-2.22-1.42-4.77
		c0-8.5,3.08-10.04,8.01-13.2C74.1,9.97,80.48,9.25,80.48,9.25z M61.29,214.69l-1.07-0.53v-1.6l-11.19,9.96l-8,0.18
		c-8.22,0-13.69-5.1-16.87-10.13l0.35-15.48c-1.31-1.96-1.04-3.01-2.34-5.13c-0.8-1.31-2.99-3.47-2.99-4.47v-1.07
		c0-1.24,1.42-2.67,2.66-2.67h1.07c1.85,0,0.81,1.07,2.66,1.07h5.33c2.81,0,0.19-2.33,4-2.4l1.87,1.33c0.17-0.63,0.53-1.45,0.53-1.6
		c0-2.01-0.35-1.01-0.65-3.44l-2.55,1.31c-0.96-0.64-0.94-1.07-2.13-1.07h-2.13c-0.4,1.5-1.5,2.13-3.2,2.13
		c-0.28,0-7.75-1.83-9.06-2.13c0.11-5.02,1.67-1.86,0-8.54c-0.9-3.6-0.27-6.31-4.26-6.4c0.18-2.13,2.19-2.67,4.8-2.67
		c3.83,0,2.6,3.2,5.33,3.2h0.53c2.84,0,5.33-5.23,5.33-9.07v-2.13c0-1.61-0.63-1.48-2.13-1.6c-0.64,2.73,0.28,8-2.13,8h-0.53
		c-1.66,0-3.29-3.2-5.33-3.2h-0.53c-2.21,0-8,2.84-8,4.27c0,1.67,1.39,3.2-1.07,3.2c-1.79,0-4.21-1.39-5.6-2.35l6.67-8.32
		c4.75,0,3.88-2.4,7.46-4.8c0-4.6,0.44-4.46,2.71-6.89c2.15-2.3,2.36-3.64,4.31-5.82c3.21-3.59,6.05-7.61,8.94-11.32
		c1.9-2.43,6.04-9.67,6.84-12.89c0.88-3.51,1.75-3.71,1.72-8.41c-0.03-6.25-1.31-6.41,2.66-6.41c0.38,0,6.23-3.01,7.12-3.54
		c1.7-1.02,7.2-1.26,9.93-1.26h2.66c3.35,0,3.8,1.55,5.33-0.53c-3.34-0.28-5.42-1.6-10.13-1.6h-2.66c-5.51,0-6.46,2.81-11.19,3.2
		c1.39-2.9,4.38-10.67,8-10.67h5.33v-1.07l-4.72-0.03l-1.17-3.32l8.01-1.86l-6.84-0.65l0.46-8.54c0.29-2.87,0.75-6.35,1.58-8.56
		c1.43-3.8,3.48-3.65,3.75-6.91c3,0.25,4.14,2.39,6.49,3.1c2.76,0.83,4.62,1.52,4.26,4.6l-1.17,2.49l6.41,1.01
		c-1.91-3.61-3.63-0.82-3.73-5.33c5.67,0,11.76,8,19.19,8v1.07h1.6c0.87,0,1.6,0.32,1.6,1.07c0,2.65-3.73,2.2-3.73,3.73
		c0,2.07,1.23,1.05,2.25,2.55c0.32,0.47,0.85,2.58,1.25,3.55c0.97,2.36,2.3,4.56,4.7,5.43c4.39,1.6,12.49-1.73,12.59-6.2
		c-2.58,0.69-1.78,2.13-3.73,2.13h-1.6c0.22-2.69,1.46-2.67,4.26-2.67c2.28-3.41,6.93-1.93,6.93-5.33c0-1.64-1.56-2.13-3.2-2.13
		l-4.39-0.03l0.64-3.18l0.44,0.42l2.13-2.13l-0.45-0.32L112,62.82l-5.94,1.97l1-2.27l-5.26,2.27c1.73-6.49,18.07-9.27,19.72-15.47
		c-0.65-0.37-0.57-0.53-1.6-0.53c-1.81,0-8.2,5.87-10.66,5.87h-3.2c-1.44,0-1.47-0.25-2.67-0.53l0.11-1.34l6.29-2.4l-0.11-1.33
		l-7.35,2.93c-0.83-0.56-1.6-0.71-1.6-2.13v-8c0-1.2,0.42-1.17,1.07-2.13h-1.07v-2.67l-2.24,5.5l-0.57-0.14l-0.39-2.69l-2.13-4.27
		c0,4.35-0.02,6.13,0.83,9.84c0.87,3.76,2.37,2.46,2.37,8.3h-5.86c-1.23,0-1.6-0.37-1.6-1.6v-2.67c0-2.73,1.74-0.22,3.73-3.2
		c-3.32,0.28-6.93-0.85-6.93-5.33c0-3.64,2.66-8.41,2.66-8.54c0-2.18-1.07-2.29-1.15-6.36l-0.98-2.71c-1.55-0.13-4.8-2.63-4.8-3.2
		c0-1.61,0.63-1.48,1.96-1.44l3.37,3.57v-5.87h2.67c-0.2,2.35-1.07,2.33-1.07,3.73c0,1.43,0.77,1.58,1.48,2.15l0.65,4.78
		c3.11-0.83,1.47-4.67,1.13-6.19l2.6-1.28c-1.19-0.32-1.6-0.12-1.6-1.6c0-1.44,1.42-2.13,2.67-2.13c5.68,0,4.26,3.6,4.26,7.47h1.07
		v-5.33c0-1.6,2.23-1.9,3.73-3.2h-3.2c-1.56-2.34-1.28-4.54-4.26-5.33c0.2-2.37,0.89-2.48,3.2-2.67v-1.6h-2.67
		c-2.89,0-5.24,0.85-5.86,3.2c-2.22,0.05-6.26,1.36-6.93,3.2c-2.51-1.68-3.99-3.73-8.53-3.73h-1.07c-3.01,0-2.92,1.07-6.4,1.07
		c-2.32,4.38-5.8,4.89-5.88,12.25c-0.12,10.62-4.24,9.52-4.24,14.42v5.87c0,1.85,1.07,0.81,1.07,2.67v2.67
		c-3.11-0.26-2.92-2.13-4.26-2.13c-2.01,0-1.01,0.35-3.15,0.51l-4.15-8l-1.23-8.51h-1.07v3.73c0,8.83,5.97,15.39,9.59,20.81
		c-0.83,1.58-4.47,9.36-4.71,10.76c-0.89,5.36-0.68,8.63-1.73,13.74c-0.48,2.33-1.1,3.28-2.4,5.07c-2.18,3-1.32,1.67-2.87,5.12
		c-0.21,0.47-5.56,8.3-6.08,9.68l-1.93,5.77c0.55,0.83,1.6,1.94,1.6,3.2c0,4.81-6.49,11.33-9.21,14.25
		c-3.83,4.13-6.06,10.21-9.33,14.67c-2.27,3.09-3.07,2.78-5.15,6.58c-1.06,1.94-4.23,4.87-5.63,6.63C9.19,149.69,0,162.2,0,162.41
		c0,1.73,0.46,0.4,1.07,2.67h1.6c1.03,0,2.48,2.13,8.53,2.13c2.42,1.62,4.26,0.48,4.26,4.27v3.2c0,1.88-2.13,2.15-2.13,3.2
		c0,2.76,1.41,3.32,3.2,4.27c0,4.42-0.61,7.04,1.72,9.48c1.07,1.12,4.14,5.49,4.14,7.06v7.47c0,8.09-1.61,9.29,3.76,14.37
		c1.69,1.6,11.32,5.9,13.83,5.9l1.09,0.13l4.32-0.76l2.05,1.69c2.59-0.6,4.21-1.6,7.46-1.6h3.73c5.36,0,8.89,0.18,13.85,0.54
		c3.4,0.25,10.32,3.81,12.8,2.66c-2.64-3.95-12.47-6.94-19.19-6.94l-6.41-0.07l-6.92,0.61C53.66,218.84,58.67,216.98,61.29,214.69
		L61.29,214.69z M184.95,210.96c0-1.25,0.88-2.13,2.13-2.13h0.53c1.91,0,2.62,3.9,2.67,5.87
		C188.6,214.3,184.95,212.89,184.95,210.96z M206.8,212.02l-6.4,1.07c-0.22-0.33-2.13-3.12-2.13-3.2c0-0.93,5.35-7.83,7.46-8
		c-0.18,2.12-0.53,1.28-0.53,2.67c0,2.01,0.79,3.59,1.6,4.8V212.02z M195.08,199.75l2.59-0.3l4.87,1.37
		c-0.07,3.15-3.11,6.33-6.3,6.37l-1.32-3.36l2.83-1.94v-1.07h-2.66L195.08,199.75L195.08,199.75z M191.35,197.09
		c0.28,1.2,0.53,1.23,0.53,2.67c0,0.02-2.44,3.93-2.66,4.27c-1.36-0.91-3.73-3.1-3.73-5.33c0-1.18,2.85-1.6,4.26-1.6H191.35
		L191.35,197.09z M178.86,193.86c1.94,0.17,3.42,0.98,3.42,2.7v2.67c0,1-3.96,7.44-5.08,7.97L178.86,193.86L178.86,193.86z
		 M200.39,194.28l0.68,3.31c-2.93-0.21-4.18-0.07-4.4-2.71L200.39,194.28L200.39,194.28z M189.21,191.75c1.12,0,1.49,1.41,1.6,2.67
		h-2.67C188.15,193.22,188.01,191.75,189.21,191.75z M173.76,201.35c0,1.62-0.92,1.81-2.13,2.13c-0.6-2.26-1.37-4.7-3.73-5.33
		l2.3-4.16l-2.48,0.31l1.26-2.01l4.26,0.06c0.14,1.6,0.53,1.83,0.53,3.67V201.35z M195.08,191.75c0-1.28,1.91-3.2,3.2-3.2
		c0.75,0,1.07,0.73,1.07,1.6v2.13l-4.25,1.11L195.08,191.75L195.08,191.75z M183.88,189.08c0-1.98,0.95-4.52,1.6-5.87l0.6-0.21
		l2.24,6.55l-2.46,4.25c-1.06-0.24-1.98-0.43-1.98-2.05V189.08L183.88,189.08z M204.14,187.48c0-3.27,1.28-2.97,3.1-3.83
		c2.18-1.03,0.57-3.11,3.29-3.11c1.18,0,3.2,3.51,3.2,5.33v2.13l-4.82-1.54l3.35,3.53l-1.44,5.42c-4.46,0.06-6.69-1.14-6.69-5.81
		V187.48L204.14,187.48z M201.47,182.15c0-1.25,0.88-2.13,2.13-2.13h0.53c1.23,0,1.6,0.37,1.6,1.6c0,0.74-2.44,3.22-3.2,3.73
		c-0.64-0.96-1.07-0.94-1.07-2.13L201.47,182.15L201.47,182.15z M195.38,188.32c-1.69,1.24-1.01,2.64-4.04,2.89
		c-0.36-1.53-0.52-0.88-0.53-2.13l0.37-10.67l-3.01,0.66c-0.16-1.79-0.56-2.02-0.56-3.85c0-1.84,0.39-2.07,0.57-3.63l1.57-0.6
		c1.86,0.96,9.58,9.17,9.58,10.64v3.2C199.34,187.49,196.62,187.42,195.38,188.32z M157.24,173.08c1.59,0.43,3.04,2.38,3.2,4.27
		C157.81,177.13,157.3,175.85,157.24,173.08z M165.28,173.09l2.06,0.59c-0.46,1.98-0.53,2.9-2.76,3.11L165.28,173.09L165.28,173.09z
		 M164.15,172.09c-0.17,2.21,0.09,0.88-1.05,2.59c-1.46-0.98-1.95-1-2.13-3.2L164.15,172.09L164.15,172.09z M164.7,168.28
		c0-1.99,0.59-4.8,2.13-4.8c0.75,0,1.07,0.73,1.07,1.6v3.73L164.7,168.28z M176.42,151.21c5.43,0,12.26-0.65,12.26,5.87v2.67
		c0,3.96-7.13,10.3-7.46,13.34l5.17-2.44c-1.42,3.6-0.15,6.99-2.4,10.56c-2.79,4.43-1.37,7.09-2.78,10.02
		c-3.51-2.35-3-3.99-4.53-8.27c-0.97-2.72-4-5.82-4-8.27v-0.53c0-2.3,4.16-4.04,4.26-8.54c-2.41,1.76-3.13,5.6-6.4,5.87v-4.27
		C170.56,156.74,171.62,158.38,176.42,151.21z M156.7,156.54c0-4.3,3.52-4.89,4.26-6.94l3.78,1.49l2.61,0.11l-1.73-1.42l1.28-1.72
		c-0.91-0.68-1.14-0.16-1.14-1.66c0-0.92,2.54-2.67,3.73-2.67c0.35,0,5.33,3.4,5.33,5.33c0,0.32-2.83,4.25-3.2,4.8l-3.17-0.66
		c-0.33,3.83-4.47,12.93-7.49,12.93h-3.2c-0.6-2.26-1.07-0.93-1.07-2.67C156.7,163.48,156.7,156.54,156.7,156.54z M206.8,212.02
		l5.78-5.42l-0.45-0.45c-2.38,0.86-0.41,1.6-2.66,1.6l-3.03-0.25l3.05-4.56l-0.55-2.66c3.04-0.81,0.61-4.14,6.4-4.27v1.6
		c0,3.88-2.9,3.36-3.2,6.94c5.69-0.13,1.4-5.65,6.93-6.94c-0.1,4.56-2.13,2.71-2.13,4.27c0,1.5,0.23,0.99,1.07,1.6
		c1.57-5.88,5.86-4.31,5.86-13.87c0-1.52,0.47-2.34,1.07-3.2l-0.53-1.07l-0.61,1.04l-1.52,0.03l-0.6-3.2l-1,1.06
		c-5.67-0.47-3.43-6.37-8.29-7.71c-4.82-1.33-8.78,2.19-12.49-0.29l-2.11,0.6c-1.81-1.26-5.2-7.53-6.95-7.53h-1.6
		c-1.73,0-0.4,0.46-2.67,1.07c0.18-2.14,4.26-7.71,4.26-12.27c0-5.16-2.15-9.22,1.6-11.2l-1.07-0.53h-1.6l-1.95-1.84
		c0.44,1.53,1.2,3.97-1.25,3.97h-3.73c-1.96,0-2.58-0.83-3.73-1.6l-3.71,0.65c0.12-6.65,5.85-6.67,10.02-9.8
		c4.29-3.22,7.49-4.12,10.74-8.99l-0.53-1.07c-1.48,1.29-4.55,3.14-5.41,4.72c-0.88,1.61-4.09,3.39-5.84,4.29
		c-7.47,3.87-5.69,3.79-15.4,3.79c-0.12,0-6.33,2.93-6.88,3.25c-1.38,0.83-3.65,3.71-4.94,5.19c-1.54,1.79-4.41,2.87-5.33,4.8
		c-0.69,1.45-2.58,6.06-2.58,8.09v1.6c0,6.82,3.23,17.07,9.59,17.07h5.86c1.65,0,2.83-2.37,3.2-3.73c2.92,0.07,4.26,2.61,4.26,5.33
		v3.2l-2.15,0l0.66,2.64l-0.61-0.45l-4.15,4.37l0.37,0.48l-2.76-0.62l0.65,4.78c-3.69,0-7.17,0.79-7.46,4.27h2.67
		c3.66,0,7.99,6.96,7.99,8c0,1.08-1.25,3.2-2.13,3.2c-1.75,0-2-1.08-2.13-2.67h-1.6v3.2c0,3.13,2.37,0.63,3.06,4.02l-4.13-1.89
		c0.14,1.72,0.95,3.2,2.66,3.2l3.04-0.15l5.42-5.82l-0.44-0.35l3.18-0.61c0.18,2.12,0.53,1.28,0.53,2.67c0,2.57-2.13,1.69-2.13,4.27
		c0,1.78,2.31-0.04,2.67,3.2c2.03-1.49,1.6-5.58,1.6-9.07c0.59-0.88,2.62-4.27,3.73-4.27c2.78,0,0.68,6.23,6.85,8.62
		c0.81,0.31,12.12,3.65,12.34,3.65h4.8c6.24,0,9.43-9.52,11.73-13.87c-3.51,1.27-3.59,9.6-9.59,9.6l-1.9-0.15L206.8,212.02
		L206.8,212.02z M137.51,191.22c0-2.63,1.86-4.07,4.26-4.27c-0.04,1.95-1.24,6.94-3.2,6.94c-0.75,0-1.07-0.73-1.07-1.6V191.22
		L137.51,191.22z M133.25,188.55c0-4.81,6.08-8.54,10.13-8.54c1.13,0,0.7,0.19,2.13,0.53c-0.41,4.95-9.68,0.48-10.66,12.27
		c-1.19-0.32-1.6-0.12-1.6-1.6C133.25,191.22,133.25,188.55,133.25,188.55z M147.18,181.66l2.07-0.04
		c-0.56-2.09-2.78-2.67-5.33-2.67h-3.73c-2.16,0-9.06,3.68-9.06,5.87v5.33c0,5.18,2.13,9.04,2.13,13.87c0,0.93-2.13,2.53-2.13,4.27
		c0,8.76,11.21,11.19,13.65,19.95c1.18,4.23,2.59,9.75,3.47,13.6c0.83,3.66,0.49,11.8,4.73,11.8c0.15,0,0.97-0.37,1.6-0.53
		l1.33,1.83l0.27-10.37c0-3.53,0.25-7.12,0.82-10.38c0.93-5.27,1.93-1.89,7.17-1.89h1.07c4.97,0,10.13-5.47,10.13-10.67
		c-1.41,1.63-2.28,5.33-4.26,5.33h-1.6c-0.19,2.27-0.78,3.2-3.2,3.2h-1.6c-2.3,0-6.93-0.56-6.93-2.67c0-3.01,4.08-0.76,5.86-3.2
		l-3.16-2.72c-1.23,0.33-1.26,0.58-2.7,0.58c-2.17,0-4.26-3.14-4.26-5.33v-3.73h-2.66l-1.21,2.59c-1.88-0.4-5.19-3.46-5.19-5.79
		v-1.6c2.11,0,4.8-0.11,4.8-2.13c0-4.56-4.44-3.69-4.8-8l2.02,1.25l0.76-2.29l-1.72-0.03l0.41-0.42l-2.13-2.13l-0.41,0.41
		c0-6.18,2.22-6.27,4.26-9.07l-0.44-0.56l-3.75,2.41L147.18,181.66L147.18,181.66z M66.62,116.53c0,1.06-3.19,1.62-4.26,2.13
		c-0.46-1.73-2.93-3.73,0-3.73h2.13C65.52,114.93,66.62,115.88,66.62,116.53z M57.4,110.77l0.17-0.64c5.36,0,13.33-0.23,14.39,3.73
		h-3.73c-2.15,0-3.13-0.11-3.82-1.26L57.4,110.77z M55.43,113.33c0,7.53,2.67,4.66,2.67,8c0,0.36-4.68,4.44-5.33,5.33
		c0.65,0.37,0.57,0.53,1.6,0.53c2.35,0,7.98-5.23,9.91-6.61c4.91-3.52,5.46-2.99,12.47-2.99l0.4-0.36l-2.53-2.86l5.32,1.62
		c-0.49-5.94-10.22-3.21-10.66-8.54h-8.53c-1.19,0-1.17-0.42-2.14-1.01l-6.39-0.59H50.1C50.24,111.97,52.41,111.3,55.43,113.33z
		 M95.41,35.44l2.13,4.27l1.7-2.98l0.43,0.31v-2.13c0-1.23,0.37-1.6,1.6-1.6c0.87,0,1.6,0.32,1.6,1.07c0,1.64-0.73,2.29-2.13,2.67
		v2.67h1.07c1.1-0.74,1.38-1.6,2.66-1.6h2.67c1.62,0,1.95,0.24,3.2,0.53c3.56-2.39,5.94-5.19,6.4-10.67v-1.6l-1.07,0.53l-0.53,2.13
		H113c-0.64-2.77-1.97-5.87-5.33-5.87h-0.53c-2.26,0-9.06,4.51-9.06,6.4v4.45l-3.27-0.16C94.8,33.86,95.41,35.44,95.41,35.44z
		 M239.85,124c0,2.09-1.95,6.91-2.13,9.07h-1.07l0.4-0.36l-2.53-2.31v1.07c-2.04-0.05-5.48-1.77-6.24-1.38
		c-0.17,0.09-1.75,6.05-1.75,6.18c0,0.03,2.28,4.27,3.73,4.27c3.4,0,2.58-1.93,5.33-2.67c-0.09,3.86-3.7,14.4-6.93,14.4
		c-2.01,0-1.01-0.35-3.26-0.51l0.6,2.11h2.67v-1.07h3.2c2.13,0,1.74-4.58,3.98-7.22c0.82-0.96,3.93-6.09,4.02-7.18h-2.13
		c2.53-5.27,3.2-13.91,3.08-20.14l-1.48-1.74C237.36,117.95,239.85,121.11,239.85,124z M230.79,172.01v4.8c0,1.65,2,3.63,3.2,4.27
		v6.94c1.3-2.04-0.02-3.02,2.66-3.73c0,4.36,1.08,2.76,1.93,6.07c0.99,3.84,0.2,3.37,0.2,7.27c1.55-1.78,1.6-5.75,1.6-7.47
		c0-2.56,0.54-5.83,2.67-6.4c-1.63-3.39,1.5-5.1,1.6-9.6h-1.07c-0.29,1.08-2.74,8.54-3.73,8.54c-2.09,0-0.06-0.81-3.33-1.09
		l0.66-3.18c-0.59,0.4-1.79,1.6-2.13,1.6c-1.96,0-2.66-3.26-2.66-5.33v-4.8c0-2.51,2.39-5.23,2.66-8.54
		C231.38,161.65,230.79,168.09,230.79,172.01L230.79,172.01z M251.04,146.94c0,3-2.43,4.64-4.26,5.87c-0.65-0.37-0.57-0.53-1.6-0.53
		c-0.8,0-3.49,4.12-3.73,4.8c1.37-0.32,3.94-2.13,4.26-2.13c1.99,0,5.91,3.2,10.29,2.85l-7.09-3.38c0.97-4.17,4.26-6.39,4.26-8.54
		c0-1.23-0.37-1.6-1.6-1.6h-1.6C250.58,146.54,251.04,145.21,251.04,146.94L251.04,146.94z M65.56,75.99l3.2,1.6
		c8.66,0,10.45,3.45,13.86,3.73c-0.59-2.21-4.91-4.26-7.34-4.93c-2.49-0.68-8.12-3.04-9.72-3.08V75.99z M182.29,56.78l3.23-0.01
		l0.88,2.1l1.31-4.02l4.71-1.8l-3.73-0.03c-2.45,0.32-5.64-1.01-5.86-3.7h-2.66c-1.84,0-2.06-0.39-3.73-0.53l8.15,5.09
		C184.57,53.87,182.29,56.78,182.29,56.78z M218.53,55.72h1.6c0.01,0,2.7-0.95,3.15-1.15c2.27-1.01,0.58-0.52,0.58-3.12v-1.6
		C220.69,50.11,218.61,52.31,218.53,55.72z M134.85,80.26c0.81,0,3.2-1.49,3.2-2.13c0-1.23-0.37-1.6-1.6-1.6h-4.8
		C131.71,78.94,133.8,80.26,134.85,80.26z M77.82,90.93l6.4,1.07c-0.36-1.35-1.03-2.67-2.66-2.67h-3.73L77.82,90.93L77.82,90.93z
		 M121.52,65.85h0.53c1.61,0,1.47-0.63,1.59-2.09l-3.72-0.58C119.96,64.9,119.75,65.85,121.52,65.85z M232.32,122.38
		c0.08,0.03,1.06,0.55,1.13,0.55c1.75,0,2-1.08,2.13-2.67l-2.6,0.02L232.32,122.38z M115.68,109.15l-0.02,2.05
		c2.02-0.17,2.98-0.64,3.18-2.75L115.68,109.15z M132.18,83.46c0,1.09,1.1,0.98,2.13,1.07v-2.13
		C133.28,82.48,132.18,82.37,132.18,83.46L132.18,83.46z"/>
</g>
</svg>
