<svg id="Слой_1" data-name="Слой 1" fill="#FFFFFF" xmlns="http://www.w3.org/2000/svg" viewBox="0 0 128 128"><path d="M14.22,85.33V99.56H0V85.33ZM0,128H14.22V113.78H0ZM14.22,99.56v14.22H28.44V99.56ZM42.67,56.89H28.44V71.11H14.22V85.33H42.67ZM0,56.89V71.11H14.22V56.89Zm42.67,56.89H28.44V128H64V113.78H56.89V99.56H42.67ZM71.11,7.11H56.89V21.33H71.11ZM56.89,56.89H71.11V35.56H56.89ZM7.11,42.67A7.11,7.11,0,0,1,0,35.56V7.11A7.11,7.11,0,0,1,7.11,0H35.56a7.11,7.11,0,0,1,7.11,7.11V35.56a7.12,7.12,0,0,1-7.11,7.11Zm7.11-14.23H28.44V14.22H14.22ZM128,7.11V64H113.78V42.67H92.44a7.12,7.12,0,0,1-7.11-7.11V7.11A7.11,7.11,0,0,1,92.44,0h28.45A7.11,7.11,0,0,1,128,7.11Zm-14.22,7.11H99.56V28.44h14.22ZM128,92.44v28.45a7.11,7.11,0,0,1-7.11,7.11H92.44a7.11,7.11,0,0,1-7.11-7.11V99.56H56.89V71.11H71.11V85.33h7.11V56.89H92.44V85.33h28.45A7.11,7.11,0,0,1,128,92.44Zm-14.22,7.12H99.56v14.22h14.22Z"/></svg>