<?xml version="1.0" encoding="utf-8"?>
<!-- Generator: Adobe Illustrator 26.1.0, SVG Export Plug-In . SVG Version: 6.00 Build 0)  -->
<svg version="1.1" id="Слой_1" xmlns="http://www.w3.org/2000/svg" xmlns:xlink="http://www.w3.org/1999/xlink" x="0px" y="0px"
	 viewBox="0 0 128 128" style="enable-background:new 0 0 128 128;" xml:space="preserve">
<style type="text/css">
	.st0{fill:#727272;}
</style>
<g>
	<g>
		<path class="st0" d="M43.7,128c-2.4,0-4.3-1.9-4.3-4.3V4.3c0-2.4,1.9-4.3,4.3-4.3S48,1.9,48,4.3v119.5C48,126.1,46.1,128,43.7,128
			z"/>
	</g>
	<g>
		<path class="st0" d="M77.9,98.1h-64c-2.4,0-4.3-1.9-4.3-4.3c0-2.4,1.9-4.3,4.3-4.3h64c2.4,0,4.3,1.9,4.3,4.3
			C82.1,96.2,80.2,98.1,77.9,98.1z"/>
	</g>
	<g>
		<path class="st0" d="M82.1,72.5c-2.4,0-4.3-1.9-4.3-4.3c0-2.4,1.9-4.3,4.3-4.3c15.3,0,27.7-12.4,27.7-27.7S97.4,8.5,82.1,8.5
			c-2.4,0-4.3-1.9-4.3-4.3S79.8,0,82.1,0c20,0,36.3,16.3,36.3,36.3S102.1,72.5,82.1,72.5z"/>
	</g>
	<g>
		<path class="st0" d="M82.1,72.5H13.9c-2.4,0-4.3-1.9-4.3-4.3c0-2.4,1.9-4.3,4.3-4.3h68.3c2.4,0,4.3,1.9,4.3,4.3
			C86.4,70.6,84.5,72.5,82.1,72.5z"/>
	</g>
	<g>
		<path class="st0" d="M82.1,8.5H43.7c-2.4,0-4.3-1.9-4.3-4.3S41.4,0,43.7,0h38.4c2.4,0,4.3,1.9,4.3,4.3S84.5,8.5,82.1,8.5z"/>
	</g>
</g>
</svg>
